<svg width="28" height="71" viewBox="0 0 28 71" fill="none" xmlns="http://www.w3.org/2000/svg">
<path d="M28 64.1643H-7.14428e-07V71H28V64.1643Z" fill="#A16207"/>
<path d="M20.6742 15.4739C20.5649 15.1581 20.3708 14.8795 20.1099 14.6674C19.8506 14.4568 19.5358 14.3208 19.2015 14.2787L17.4353 14.0649C16.6411 13.9694 16.7243 13.5872 16.1926 12.9929C15.6609 12.3985 15.3674 11.6309 15.3674 10.8357V10.4973C15.3723 10.0438 15.4718 9.59525 15.6577 9.18067C15.8436 8.76609 16.1143 8.39362 16.4503 8.08592C17.3326 7.25676 17.0553 5.88185 17.0553 4.40977C17.0553 1.97897 15.6479 0 13.9143 0C12.1807 0 10.7717 1.97897 10.7717 4.40977C10.7717 5.9531 10.7081 7.40737 11.6817 8.209C12.0633 8.50698 12.3764 8.88269 12.5998 9.31023C12.8233 9.73776 12.9537 10.2074 12.9798 10.69C13.0125 11.503 12.7368 12.2997 12.2036 12.92C11.6719 13.5402 11.5773 13.937 10.7619 14.0342L8.79345 14.2771C8.46076 14.3208 8.14601 14.4552 7.8867 14.6674C7.6274 14.8779 7.4317 15.1581 7.32243 15.4722L6.53636 18.1605C5.76497 20.8197 5.61493 23.6181 6.09766 26.3436L11.9981 59.5796C12.0225 59.7157 12.0127 59.8533 11.972 59.9861C11.9312 60.1173 11.8611 60.2371 11.7649 60.3359L8.70049 63.5311H19.257L16.191 60.3359C16.0964 60.2371 16.0246 60.1173 15.9855 59.9845C15.9463 59.8533 15.9382 59.714 15.961 59.5796L21.894 26.3436C22.3751 23.6181 22.2251 20.8197 21.4521 18.1605L20.6693 15.4755L20.6742 15.4739Z" fill="#FEB300"/>
<path d="M9.30249 15.2639C10.671 14.5562 10.9376 14.9754 11.2845 15.5584C10.8154 15.8303 11.0774 15.213 9.59669 16.5417C7.74579 18.2027 7.18435 22.693 7.3564 20.6687C7.52845 18.6444 7.59191 16.1485 9.30249 15.2639Z" fill="#FFF5D7"/>
<path d="M13.1488 1.06185C14.1514 0.551169 14.3445 0.84939 14.5956 1.26418C14.2517 1.46018 14.4457 1.01844 13.3585 1.97292C11.9996 3.16602 11.5712 6.37376 11.7051 4.928C11.839 3.48224 11.8955 1.70021 13.1488 1.06185Z" fill="#FFF5D7"/>
</svg>
