<svg width="36" height="32" viewBox="0 0 36 32" fill="none" xmlns="http://www.w3.org/2000/svg">
<path d="M26.838 17.0305C26.4758 16.9514 26.1032 16.9567 25.7463 17.0516L20.8178 22.0045C20.718 22.1048 20.5868 22.1575 20.4503 22.1575C20.3139 22.1575 20.1774 22.1048 20.0829 22.0045C19.9832 21.9043 19.9307 21.7725 19.9307 21.6353C19.9307 21.4982 19.9832 21.361 20.0829 21.2661L26.5598 14.7572C27.2421 14.0715 27.2421 12.9532 26.5598 12.2622C26.3919 12.0935 26.1872 11.9669 25.9667 11.8772C25.6046 11.7981 25.2319 11.8034 24.875 11.8983L17.8208 18.9874C17.721 19.0877 17.5898 19.1404 17.4533 19.1404C17.3169 19.1404 17.1804 19.0877 17.0859 18.9874C16.9862 18.8872 16.9337 18.7554 16.9337 18.6182C16.9337 18.4811 16.9862 18.3439 17.0859 18.249L24.6703 10.6271C25.001 10.2948 25.1794 9.85173 25.1794 9.38229C25.1794 8.91285 24.9957 8.46977 24.6703 8.13747C24.5076 7.97396 24.3134 7.84737 24.1087 7.7577C24.0982 7.7577 24.0877 7.74715 24.0719 7.74715C23.3896 7.59946 22.6443 7.76825 22.0879 8.25351L14.703 15.675C14.6033 15.7752 14.4721 15.8279 14.3356 15.8279C14.1992 15.8279 14.0627 15.7752 13.9682 15.675C13.8685 15.5747 13.816 15.4429 13.816 15.3057C13.816 15.1686 13.8685 15.0314 13.9682 14.9365L21.4633 7.40429C21.5788 6.82936 21.4004 6.22277 20.991 5.81135C20.8335 5.65311 20.6445 5.52652 20.4451 5.44212C19.6945 5.25751 18.8705 5.4474 18.2879 6.03288L13.6428 10.701C13.6428 10.701 13.6218 10.7326 13.6061 10.7484L11.1917 13.1748C11.0919 13.275 10.9607 13.3277 10.8243 13.3277C10.6878 13.3277 10.5513 13.275 10.4569 13.1748C10.3571 13.0745 10.3046 12.9427 10.3046 12.8055C10.3046 12.6684 10.3571 12.5313 10.4569 12.4363L12.7663 10.1155C13.0235 9.85701 13.3331 9.02889 13.3699 8.67549C13.4381 8.0267 13.3961 7.23551 12.8083 6.592C12.5563 6.31772 12.2781 6.11728 11.9842 6.00124C11.6588 5.92739 11.3229 5.93267 10.987 6.03816C10.7088 6.12783 10.4359 6.31244 10.1734 6.56562C9.51209 7.29353 8.85601 8.4645 8.41512 9.26097C8.23141 9.588 8.05821 9.89921 7.91124 10.1471C7.11869 11.4394 6.38912 12.8003 5.6858 14.1137C5.02972 15.3426 4.35788 16.6086 3.62307 17.827C1.58658 21.2133 1.5131 24.8265 3.42887 27.7434C5.15043 30.3701 8.23141 32 11.4646 32C14.4354 32 17.1752 30.7024 18.9912 28.4396L19.0227 28.4027L27.4573 19.9263C28.1397 19.2406 28.1397 18.1224 27.4573 17.4314C27.2894 17.2626 27.0847 17.1308 26.8642 17.0464L26.838 17.0305Z" fill="#2B1927"/>
<path d="M4.888 13.391C5.60182 12.0565 6.33139 10.6799 7.14494 9.36119C7.2814 9.13966 7.43886 8.85482 7.62257 8.5278C8.42037 7.08782 9.50684 5.13092 10.8085 4.71422C11.0447 4.64038 11.2914 4.59818 11.5381 4.59818C11.7218 4.59818 11.9107 4.61928 12.0892 4.66148C12.2152 4.36082 12.3254 4.10236 12.3254 4.10236C13.0077 2.46722 11.1234 0.0883505 9.31789 0.663288C7.94274 1.10108 6.66206 3.91775 5.94299 5.08345C4.39987 7.58363 3.17693 10.2368 1.65481 12.7686C-0.21372 15.8754 -0.649361 19.4991 1.12469 22.6744C1.16668 20.8125 1.74404 18.8978 2.85676 17.0464C3.57583 15.849 4.24766 14.5989 4.89325 13.3858L4.888 13.391Z" fill="#2B1927"/>
<path d="M14.6296 8.13747L17.9047 4.84609C18.4349 4.31335 19.1329 4.02324 19.8835 4.02324C20.6341 4.02324 21.3321 4.31335 21.8622 4.84609C22.3084 5.29443 22.5866 5.88519 22.66 6.51288C22.891 6.43376 23.1377 6.39156 23.3844 6.37574L23.5208 6.2386C24.4079 5.34718 24.4079 3.89138 23.5208 3.00523C22.6705 2.15074 21.3111 2.11909 20.4189 2.89974C20.6288 2.12964 20.4346 1.26987 19.8363 0.668562C18.9492 -0.222854 17.5006 -0.222854 16.6188 0.668562L12.5091 4.79862C12.9395 4.97268 13.3489 5.26279 13.7058 5.65311C14.3671 6.37574 14.6978 7.30408 14.6296 8.13747Z" fill="#2B1927"/>
<path d="M35.8605 6.8821C35.4983 6.00124 34.5378 5.56344 33.7295 5.90102L29.5673 7.63111C28.7538 7.96868 28.3864 8.96559 28.7485 9.84119C29.1107 10.7168 30.0712 11.1598 30.8795 10.8223L35.0417 9.09218C35.8552 8.75461 36.2226 7.7577 35.8605 6.8821Z" fill="#2B1927"/>
<path d="M31.3309 0.679112C30.6905 -0.00659334 29.6618 -0.0382412 29.0477 0.605267L25.8932 3.9072C25.2791 4.55071 25.3001 5.64256 25.9405 6.32827C26.5808 7.01397 27.6096 7.04562 28.2236 6.40211L31.3781 3.10018C31.9922 2.45667 31.9712 1.36482 31.3309 0.679112Z" fill="#2B1927"/>
</svg>
