<svg width="191" height="39" viewBox="0 0 191 39" fill="none" xmlns="http://www.w3.org/2000/svg">
<path d="M34.1704 14.3329L34.0407 13.0188C33.3682 12.3597 27.1086 15.1688 26.0633 15.7796C25.9661 16.1815 27.534 17.0174 27.8865 17.6484C28.1498 18.1145 28.3605 18.9424 28.4253 19.4769C28.8386 22.8969 28.717 29.8332 28.4659 33.3697C28.3889 34.4749 28.085 36.6691 27.2423 37.4126C26.6427 37.9391 25.7716 37.6296 26.0593 39H36.4311C36.7269 37.5894 35.6613 37.9471 35.0333 37.0951C34.7821 36.7575 34.0367 34.4869 34.0367 34.1413V29.5479C38.9187 31.9591 46.1669 29.0295 46.803 23.3831C47.6781 15.6309 41.4874 9.64702 34.1663 14.3249L34.1704 14.3329ZM39.3441 27.5747C37.5736 29.1299 34.4459 28.6879 34.0569 26.2646C33.8341 24.8781 33.7976 17.6162 34.0407 16.3061C34.1461 15.7555 34.5066 15.5707 35.0293 15.4461C40.3651 14.1842 42.4192 24.8701 39.3441 27.5747Z" fill="#2B1927"/>
<path d="M54.9181 14.3329L54.7885 13.0188C54.1159 12.3597 47.8563 15.1688 46.8111 15.7796C46.7138 16.1815 48.2818 17.0174 48.6342 17.6484C48.8976 18.1145 49.1083 18.9424 49.1731 19.4769C49.5863 22.8969 49.4648 29.8332 49.2136 33.3697C49.1366 34.4749 48.8328 36.6691 47.99 37.4126C47.3904 37.9391 46.5193 37.6296 46.807 39H57.1788C57.4746 37.5894 56.4091 37.9471 55.7811 37.0951C55.5299 36.7575 54.7844 34.4869 54.7844 34.1413V29.5479C59.6665 31.9591 66.9146 29.0295 67.5507 23.3831C68.4258 15.6309 62.2351 9.64702 54.9141 14.3249L54.9181 14.3329ZM60.0878 27.5747C58.3173 29.1299 55.1896 28.6879 54.8006 26.2646C54.5778 24.8781 54.5413 17.6162 54.7844 16.3061C54.8897 15.7555 55.2503 15.5707 55.773 15.4461C61.1088 14.1842 63.1629 24.8701 60.0878 27.5747Z" fill="#2B1927"/>
<path d="M134.716 25.3523C134.518 25.0589 134.089 23.9699 134.044 23.6524V5.28265C134.044 5.13396 133.643 4.90087 133.4 4.89283C133.011 4.8848 126.407 7.44876 126.192 7.76624C125.795 8.53383 127.092 8.67046 127.537 9.07636C128.664 10.1092 128.469 12.1668 128.457 13.5452C120.747 10.2096 114.88 18.4923 117.214 25.5613C118.802 30.3637 125.046 31.6819 128.327 27.7234C129.117 27.3979 128.534 29.6403 128.72 29.8212C129.028 29.8172 129.344 29.8533 129.652 29.8252C130.179 29.777 135.794 27.5948 136.159 27.3175C137.026 26.6464 135.158 26.0154 134.712 25.3523H134.716ZM128.728 25.7542C128.688 25.9632 128.668 26.1561 128.461 26.2766C124.665 27.7435 122.619 24.649 122.376 21.2532C122.234 19.2518 122.72 14.8031 125.2 14.3811C126.585 14.144 128.473 15.1246 128.708 16.5794C128.911 17.8372 128.955 24.5847 128.728 25.7542Z" fill="#2B1927"/>
<path d="M15.4605 28.5432L15.4241 29.8212H27.1248C27.4084 28.2418 26.2578 28.6919 25.2733 28.1052C21.6796 25.9591 16.4126 10.1253 13.5199 6.11052C13.2606 5.43938 11.9722 4.98928 11.6197 5.73677C8.97003 11.4796 7.18331 17.9377 4.48096 23.6162C3.60989 25.4488 2.26884 28.4066 0.0121545 28.5231L0 29.8212H7.97741C8.17188 28.1654 7.04556 28.7482 6.50671 28.2539C5.48168 27.3175 6.42973 23.4635 6.91186 22.2096H14.7596C15.9872 23.8855 16.7489 25.9953 16.4572 28.0851L15.4646 28.5432H15.4605ZM7.71001 20.6343L10.5015 13.0188L14.0911 20.6343H7.70596H7.71001Z" fill="#2B1927"/>
<path d="M114.929 25.4528C114.674 25.063 114.094 22.9893 114.094 22.5995V13.0188H106.117C105.777 14.4936 107.073 14.136 107.721 14.9799C108.317 15.7515 108.71 18.1587 108.787 19.1795C108.888 20.5258 108.998 24.3074 108.779 25.489C108.402 27.4903 103.99 25.8145 103.99 24.4401V13.0228H96.0125C95.6884 14.5017 96.9403 14.0877 97.5764 15.0241C99.9344 18.5044 96.3366 26.8393 100.976 29.5198C103.864 31.1875 106.757 29.1742 108.779 27.1969V29.8212C109.516 30.5365 115.516 27.3818 116.76 27.1929C116.687 26.2083 115.52 26.353 114.937 25.4568L114.929 25.4528Z" fill="#2B1927"/>
<path d="M95.8667 27.4501C95.2589 27.5425 94.0718 27.4622 93.8814 26.8031C93.5411 25.6015 93.8814 20.3691 93.8814 18.6651C93.8814 18.0623 93.3628 16.1695 93.0387 15.5586C90.4498 10.6839 78.5546 12.4561 79.2839 18.7696C81.1516 19.284 82.9626 19.2117 84.8385 18.7937C84.2307 17.4032 84.9033 14.1681 86.844 14.4414C88.3957 14.6584 87.9986 19.2157 88.031 20.3731C84.3199 20.4213 78.506 21.2492 78.7085 26.0234C78.9192 31.0549 85.3449 30.7977 88.5577 28.507C89.9312 31.7381 96.0368 30.4963 97.2766 27.5827C96.6648 26.5178 96.5108 27.3496 95.8667 27.4461V27.4501ZM88.031 26.8031C86.8196 27.9364 84.7615 27.3215 84.2469 25.8145C83.3354 23.138 85.5029 21.4903 88.031 21.422V26.8031Z" fill="#2B1927"/>
<path d="M76.3708 27.5506C76.1561 27.205 75.5322 25.2679 75.5322 24.9665V5.28265C75.5322 5.13396 75.1311 4.90087 74.888 4.89283C74.4626 4.88078 67.6479 7.52512 67.5548 7.91092C68.4096 9.12056 69.5683 9.07636 69.8884 10.8567C70.095 12.0181 70.172 14.4575 70.2247 15.7716C70.3219 18.0703 70.4556 26.8915 68.7499 28.2498C68.3651 28.5593 68.0207 28.5151 67.5669 28.5231L67.5548 29.8252H78.194C78.4857 28.3061 77.0879 28.708 76.3749 27.5546L76.3708 27.5506Z" fill="#2B1927"/>
<path d="M190.311 25.6216C190.319 27.3014 185.786 28.1534 185.786 26.8031V15.1246H190.575V13.0268H185.786V8.43336L185.117 8.02746C184.562 8.0355 183.104 10.4709 182.589 11.0496C181.313 12.4762 179.887 13.7542 178.072 14.4695L178.23 15.1286H180.203C180.462 18.7053 179.846 22.7522 180.203 26.2766C180.701 31.1875 186.175 30.9545 189.246 28.3825C189.922 27.8158 192.098 25.7421 190.311 25.6256V25.6216Z" fill="#2B1927"/>
<path d="M177.051 27.5506C176.836 27.205 176.212 25.2679 176.212 24.9665V13.0228C173.461 13.0228 170.755 14.7508 168.235 15.7837C168.101 16.3342 169.478 16.7321 169.835 17.1581C171.091 18.653 170.856 25.4447 170.025 27.2572C169.632 28.1092 169.292 28.6477 168.247 28.5191L168.235 29.8212H178.874C179.166 28.3021 177.768 28.704 177.055 27.5506H177.051Z" fill="#2B1927"/>
<path d="M157.482 29.5479L157.514 29.5117L166.399 20.6986C167.12 19.9833 167.12 18.8218 166.399 18.1065C166.221 17.9297 166.006 17.7971 165.771 17.7046C165.39 17.6202 164.997 17.6283 164.621 17.7247L159.427 22.8768C159.321 22.9812 159.184 23.0375 159.038 23.0375C158.892 23.0375 158.754 22.9812 158.649 22.8768C158.543 22.7723 158.487 22.6356 158.487 22.491C158.487 22.3463 158.543 22.2096 158.649 22.1052L165.471 15.3376C166.193 14.6222 166.193 13.4608 165.471 12.7455C165.293 12.5687 165.078 12.436 164.848 12.3436C164.467 12.2592 164.074 12.2672 163.697 12.3637L156.266 19.7341C156.161 19.8386 156.023 19.8948 155.878 19.8948C155.732 19.8948 155.594 19.8386 155.489 19.7341C155.383 19.6296 155.326 19.493 155.326 19.3483C155.326 19.2036 155.383 19.067 155.489 18.9625L163.482 11.0335C163.831 10.6879 164.021 10.2297 164.021 9.73543C164.021 9.24113 163.831 8.78299 163.482 8.43738C163.308 8.26457 163.109 8.13195 162.887 8.04354C162.874 8.04354 162.862 8.0355 162.85 8.03148C162.129 7.87475 161.347 8.05157 160.76 8.55794L152.981 16.2739C152.875 16.3784 152.738 16.4347 152.592 16.4347C152.446 16.4347 152.308 16.3784 152.203 16.2739C152.097 16.1695 152.041 16.0328 152.041 15.8881C152.041 15.7435 152.097 15.6068 152.203 15.5023L160.103 7.66577C160.225 7.06698 160.034 6.43604 159.605 6.00603C159.439 5.84126 159.24 5.71266 159.03 5.62023C158.24 5.42733 157.373 5.62827 156.757 6.2351L151.862 11.0898C151.862 11.0898 151.838 11.1219 151.822 11.138L149.278 13.6618C149.172 13.7662 149.035 13.8225 148.889 13.8225C148.743 13.8225 148.605 13.7662 148.5 13.6618C148.394 13.5573 148.338 13.4206 148.338 13.276C148.338 13.1313 148.394 12.9946 148.5 12.8902L150.931 10.4789C151.202 10.2096 151.526 9.34561 151.563 8.97991C151.636 8.30476 151.591 7.48091 150.971 6.80978C150.708 6.52043 150.412 6.31547 150.104 6.19491C149.764 6.11855 149.407 6.12257 149.055 6.2351C148.763 6.32753 148.475 6.52445 148.196 6.78165C147.499 7.53717 146.81 8.75486 146.344 9.58272C146.154 9.92432 145.972 10.2458 145.81 10.503C144.971 11.8453 144.205 13.2599 143.468 14.6303C142.775 15.9082 142.066 17.2224 141.292 18.4923C139.145 22.0127 139.068 25.7703 141.085 28.8044C142.901 31.5372 146.146 33.2331 149.553 33.2331C152.681 33.2331 155.57 31.8828 157.482 29.5318V29.5479Z" fill="#2B1927"/>
<path d="M140.502 17.7287C141.264 16.4829 141.965 15.1808 142.645 13.923C143.395 12.5365 144.169 11.1018 145.024 9.73141C145.165 9.50235 145.335 9.20496 145.526 8.86336C146.369 7.36839 147.515 5.33088 148.881 4.90087C149.128 4.82451 149.387 4.78433 149.646 4.78433C149.841 4.78433 150.035 4.80844 150.23 4.85265C150.363 4.53918 150.477 4.26993 150.477 4.26993C151.194 2.56999 149.209 0.0944407 147.309 0.693235C145.858 1.15137 144.509 4.07703 143.751 5.29069C142.127 7.89082 140.838 10.6517 139.23 13.284C137.261 16.5111 136.803 20.2847 138.675 23.5841C138.719 21.647 139.327 19.6537 140.502 17.7328V17.7287Z" fill="#2B1927"/>
<path d="M151.935 5.87341C152.628 6.62492 152.977 7.59344 152.908 8.45747L156.36 5.03349C156.915 4.48292 157.656 4.1775 158.446 4.1775C159.236 4.1775 159.974 4.48292 160.533 5.03349C161.003 5.49967 161.298 6.11454 161.371 6.76959C161.618 6.6852 161.874 6.64501 162.137 6.62894L162.283 6.48426C163.215 5.55995 163.215 4.04488 162.283 3.12056C161.351 2.19625 159.953 2.20027 159.013 3.01206C159.236 2.21232 159.034 1.32016 158.402 0.693235C157.47 -0.231078 155.942 -0.231078 155.01 0.693235L150.679 4.98928C151.133 5.17013 151.563 5.47153 151.939 5.87743L151.935 5.87341Z" fill="#2B1927"/>
<path d="M167.785 10.2257C167.404 9.31346 167.793 8.27663 168.648 7.92699L173.032 6.12659C173.886 5.77696 174.899 6.2351 175.28 7.14736C175.661 8.05961 175.272 9.09645 174.417 9.44608L170.033 11.2465C169.179 11.5961 168.166 11.138 167.785 10.2257Z" fill="#2B1927"/>
<path d="M164.827 6.57669C164.151 5.86537 164.13 4.73208 164.779 4.06095L168.101 0.624916C168.749 -0.0462156 169.831 -0.0100469 170.507 0.701273C171.184 1.41259 171.204 2.54588 170.556 3.21701L167.234 6.65305C166.586 7.32418 165.504 7.28801 164.827 6.57669Z" fill="#2B1927"/>
</svg>
