<svg width="370" height="198" viewBox="0 0 370 198" fill="none" xmlns="http://www.w3.org/2000/svg">
<g clip-path="url(#clip0_2107_1688)">
<path d="M263.686 234.284C255.955 219.051 247.823 203.325 234.435 192.725C232.6 191.259 231.215 190.218 229.133 189.142C228.342 193.274 226.385 196.937 224.459 200.638C223.238 203.079 221.287 207.605 219.578 208.094C202.278 212.161 177.008 211.239 156.508 209.287C162.241 204.931 165.712 204.438 174.377 196.702C156.057 199.753 139.386 200.777 139.094 198.166C126.047 201.778 113.148 206.385 100.389 210.893C98.012 230.115 102.046 262.354 122.126 264.496L154.701 264.472C158.398 263.495 168.078 260.252 172.532 257.882C172.967 279.747 173.342 298.55 173.776 320.411C190.872 316.228 207.739 311.219 224.376 305.385C225.868 304.862 227.495 304.216 228.21 302.808C228.864 301.519 228.559 299.97 228.791 298.542C229.611 293.484 236.097 292.095 241.198 291.588C256.879 290.016 272.185 285.83 286.484 279.204L263.686 234.284Z" fill="#FF5E6C"/>
<path d="M173.777 321.14C173.586 321.14 173.401 321.065 173.265 320.931C173.128 320.797 173.049 320.615 173.045 320.423L171.824 259.059C167.022 261.375 158.402 264.262 154.888 265.179C154.827 265.195 154.765 265.203 154.703 265.204L122.128 265.228C122.101 265.228 122.076 265.228 122.05 265.228C116.76 264.665 112.234 262.056 108.599 257.476C99.8523 246.455 97.839 225.55 99.6644 210.802C99.6815 210.667 99.7363 210.539 99.8227 210.432C99.9089 210.327 100.023 210.247 100.153 210.202L101.873 209.595C113.933 205.329 126.414 200.917 138.898 197.461C139.001 197.433 139.108 197.428 139.213 197.445C139.317 197.462 139.417 197.501 139.504 197.561C139.587 197.616 139.658 197.688 139.712 197.773C139.766 197.857 139.803 197.95 139.819 198.049C139.913 198.178 141.039 199.301 150.613 198.781C157.068 198.432 165.465 197.434 174.257 195.97C174.414 195.944 174.576 195.969 174.717 196.042C174.858 196.115 174.971 196.232 175.039 196.376C175.108 196.519 175.128 196.681 175.096 196.836C175.066 196.992 174.984 197.133 174.866 197.239C169.416 202.103 166.056 204.099 162.808 206.024C161.375 206.873 160.003 207.691 158.51 208.723C177.108 210.41 202.084 211.437 219.393 207.371C220.547 207.017 222.302 203.388 223.249 201.434C223.447 201.026 223.635 200.64 223.805 200.297L224.013 199.899C225.892 196.285 227.673 192.871 228.405 188.988C228.428 188.876 228.474 188.771 228.543 188.681C228.612 188.59 228.701 188.518 228.803 188.468C228.906 188.416 229.017 188.39 229.132 188.39C229.245 188.39 229.358 188.416 229.46 188.468C231.605 189.576 233.06 190.684 234.879 192.128C248.641 203.019 256.976 219.441 264.328 233.931L287.129 278.85C287.173 278.938 287.2 279.035 287.206 279.132C287.213 279.231 287.2 279.33 287.167 279.422C287.135 279.515 287.084 279.601 287.018 279.673C286.952 279.747 286.872 279.805 286.782 279.847C272.415 286.519 257.026 290.727 241.261 292.292C233.923 293.024 230.077 295.102 229.503 298.637C229.437 299.123 229.403 299.611 229.401 300.101C229.374 301.105 229.348 302.142 228.852 303.115C228.027 304.741 226.304 305.459 224.611 306.045C208.043 311.853 190.996 316.914 173.943 321.089C173.89 321.113 173.835 321.13 173.777 321.14ZM172.532 257.148C172.725 257.148 172.908 257.223 173.045 257.357C173.182 257.491 173.261 257.674 173.265 257.865L174.485 319.481C191.196 315.359 207.894 310.386 224.127 304.695C225.54 304.207 226.97 303.621 227.544 302.477C227.89 301.798 227.913 300.966 227.935 300.087C227.936 299.531 227.977 298.976 228.056 298.425C229.089 292.058 238.141 291.156 241.115 290.86C256.463 289.335 271.452 285.28 285.477 278.861L263.026 234.616C255.74 220.261 247.485 203.994 233.984 193.3C232.434 192.079 231.232 191.152 229.645 190.252C228.767 193.958 227.012 197.329 225.314 200.592L225.114 200.977C224.948 201.307 224.765 201.686 224.57 202.09C222.861 205.604 221.436 208.328 219.784 208.801H219.749C201.639 213.06 175.334 211.811 156.44 210.022C156.294 210.007 156.156 209.949 156.043 209.856C155.929 209.761 155.848 209.634 155.807 209.494C155.767 209.353 155.77 209.201 155.816 209.062C155.863 208.922 155.95 208.801 156.068 208.711C157.982 207.28 159.985 205.969 162.061 204.784C164.847 203.13 167.717 201.424 171.958 197.841C157.209 200.168 141.874 201.461 139.014 199.293C138.91 199.218 138.817 199.131 138.732 199.035C126.485 202.452 114.224 206.785 102.371 210.98L101.072 211.432C99.3788 225.865 101.363 245.984 109.752 256.56C113.126 260.809 117.318 263.235 122.175 263.764L154.615 263.74C158.418 262.737 167.849 259.552 172.186 257.233C172.293 257.177 172.411 257.146 172.532 257.148Z" fill="#FF5E6C"/>
<path d="M185.022 114.267C184.973 114.267 184.926 114.262 184.878 114.253L181.267 113.535C181.172 113.516 181.082 113.479 181.002 113.426C180.922 113.372 180.853 113.304 180.799 113.224C180.747 113.144 180.709 113.054 180.69 112.96C180.672 112.865 180.672 112.768 180.69 112.674C180.709 112.579 180.747 112.49 180.799 112.41C180.853 112.33 180.922 112.261 181.002 112.207C181.081 112.154 181.172 112.117 181.265 112.098C181.36 112.079 181.458 112.079 181.551 112.098L185.168 112.803C185.363 112.822 185.541 112.918 185.664 113.069C185.788 113.22 185.846 113.414 185.828 113.608C185.808 113.803 185.712 113.981 185.562 114.105C185.41 114.228 185.217 114.287 185.022 114.267Z" fill="#FFAAAB"/>
<path d="M104.179 104.598C101.524 104.598 98.8518 103.61 96.1257 102.492C96.0369 102.456 95.956 102.402 95.8878 102.334C95.8196 102.267 95.7655 102.186 95.7284 102.097C95.6914 102.009 95.6721 101.914 95.6719 101.817C95.6716 101.721 95.6903 101.626 95.7268 101.537C95.7633 101.448 95.817 101.367 95.8848 101.299C95.9526 101.231 96.0332 101.177 96.1219 101.14C96.2105 101.103 96.3057 101.083 96.4018 101.083C96.498 101.083 96.5933 101.102 96.6822 101.138C99.9792 102.495 103.188 103.649 106.2 102.888C108.279 102.361 110.18 100.865 111.413 98.7807C112.645 96.6965 113.12 94.2488 113.414 92.3526C114.535 84.7276 113.72 76.943 111.044 69.7154C110.977 69.5332 110.985 69.3317 111.065 69.1553C111.147 68.9788 111.296 68.8419 111.477 68.7746C111.659 68.7073 111.86 68.7151 112.037 68.7964C112.213 68.8776 112.35 69.0256 112.417 69.2078C115.178 76.6663 116.017 84.6994 114.858 92.5673C114.558 94.5978 114.036 97.2237 112.662 99.5274C111.23 101.943 109.002 103.676 106.561 104.306C105.782 104.502 104.982 104.6 104.179 104.598Z" fill="#FFAAAB"/>
<path d="M82.8914 56.4491C63.0191 65.459 57.2696 114.863 14.5332 152.728C24.0215 167.957 38.3027 179.867 54.7047 187.101C55.4027 175.211 58.0871 167.143 59.6758 158.678C65.0789 148.428 78.2863 142.286 82.0688 132.899C82.0688 132.899 84.6436 115.973 84.9242 114.221C85.1595 111.735 85.2597 109.238 85.2244 106.741C82.4228 102.194 76.7537 99.5369 72.1707 96.9206C71.4385 96.2301 74.9063 87.5593 77.2954 77.0607C77.5395 76.2773 79.0038 76.4213 79.2478 77.3975C79.2478 76.6653 79.2478 75.2012 79.4919 75.2012C82.3007 74.9571 84.9242 77.3681 85.195 79.9941C85.217 79.5913 85.2487 79.362 85.2951 79.3499C85.9833 79.1618 99.8399 66.4473 101.133 64.7513C103.896 65.7275 107.129 66.9623 111.496 68.8805C108.894 59.9339 97.995 49.5963 82.8914 56.4491Z" fill="#FEB300"/>
<path d="M54.7049 187.833C54.6032 187.833 54.5026 187.813 54.4095 187.772C37.6049 180.364 23.2211 168.055 13.8989 153.118C13.8076 152.972 13.7713 152.797 13.7963 152.625C13.8212 152.456 13.906 152.299 14.0354 152.184C37.622 131.289 49.7825 107.095 59.5515 87.6667C67.3412 72.1628 73.4934 59.9193 82.5888 55.7926C88.8924 52.93 95.1252 52.7494 100.609 55.2679C107.149 58.272 110.887 64.168 112.205 68.6901C112.245 68.8238 112.245 68.9657 112.205 69.0993C112.167 69.2331 112.091 69.3529 111.987 69.4448C111.882 69.5369 111.754 69.597 111.616 69.6185C111.479 69.6401 111.338 69.6219 111.21 69.5662C106.898 67.67 103.711 66.4669 101.368 65.6249C100.094 67.016 96.4674 70.4326 93.4902 73.1682C88.4605 77.805 86.6571 79.301 85.9517 79.8061C85.9517 79.8672 85.9395 79.9453 85.9346 80.0502C85.9395 80.2444 85.8671 80.4326 85.7332 80.5732C85.5992 80.7139 85.415 80.7957 85.2208 80.8006C85.0266 80.8054 84.8385 80.733 84.6977 80.5991C84.5571 80.4652 84.4752 80.281 84.4705 80.0868C84.2484 77.9246 82.157 76.0308 80.0216 75.9381C79.9971 76.2504 79.9825 76.7434 79.9825 77.4145C79.9825 77.5932 79.9173 77.7656 79.7989 77.8995C79.6806 78.0334 79.5174 78.1194 79.3401 78.1413C79.1629 78.1633 78.9837 78.1196 78.8363 78.0184C78.689 77.9175 78.5837 77.766 78.5402 77.5926C78.5222 77.5354 78.4906 77.4832 78.448 77.4408C78.4056 77.3983 78.3535 77.3667 78.2962 77.3487C78.2017 77.3105 78.0975 77.3027 77.9984 77.3267C76.8612 82.2977 75.4483 86.9493 74.4306 90.3511C73.6497 92.9355 72.8468 95.6029 72.8077 96.4351C73.3593 96.7474 73.9254 97.0598 74.499 97.377C78.6476 99.6735 83.343 102.277 85.8542 106.353C85.9218 106.463 85.9598 106.589 85.964 106.719C85.9983 109.262 85.8956 111.804 85.6564 114.335C85.3758 116.063 82.8256 132.839 82.7987 133.007C82.7916 133.064 82.7768 133.118 82.7549 133.17C80.7513 138.142 76.3219 142.109 71.6339 146.312C67.3705 150.141 62.9608 154.087 60.3836 158.927C59.9199 161.381 59.3732 163.763 58.7973 166.287C57.3893 172.436 55.925 178.798 55.4369 187.144C55.4302 187.262 55.3958 187.375 55.3363 187.476C55.2769 187.576 55.1943 187.661 55.0952 187.724C54.9781 187.796 54.8427 187.834 54.7049 187.833ZM15.4827 152.865C24.473 167.039 38.1101 178.76 54.0507 186.015C54.6023 178.065 56.0031 171.92 57.3698 165.97C57.9506 163.425 58.5021 161.02 58.9657 158.556C58.9782 158.483 59.0021 158.413 59.0366 158.348C61.721 153.238 66.2674 149.169 70.6577 145.236C75.1896 141.176 79.4724 137.336 81.3638 132.716C81.5639 131.411 83.9408 115.787 84.2092 114.116C84.4302 111.741 84.5288 109.356 84.5046 106.97C82.1642 103.31 77.7178 100.85 73.7888 98.6729C73.1176 98.2996 72.4563 97.9408 71.8169 97.5674C71.7661 97.5397 71.7194 97.5052 71.6779 97.465C70.9897 96.8157 71.3581 95.4832 73.0273 89.9436C74.1109 86.3514 75.4678 81.8902 76.5904 76.9118L76.605 76.8582C76.7125 76.5386 76.9241 76.2644 77.206 76.0795C77.4878 75.8945 77.8235 75.8095 78.1596 75.838C78.2936 75.84 78.4271 75.8573 78.5573 75.8893C78.628 75.0229 78.8355 74.5007 79.4627 74.4812C81.9788 74.286 84.4997 75.987 85.5051 78.3126C88.1457 76.148 99.3374 65.9202 100.558 64.3218C100.652 64.1983 100.783 64.108 100.932 64.0641C101.082 64.0203 101.241 64.025 101.387 64.0777C103.52 64.8366 106.402 65.9056 110.27 67.5627C108.714 63.6336 105.37 59.07 99.9962 56.6027C94.9105 54.2674 89.0999 54.4504 83.1941 57.1299C74.5697 61.0345 68.52 73.0828 60.8595 88.3281C51.1003 107.737 38.9666 131.881 15.4827 152.865ZM85.7321 79.9404C85.6731 79.9816 85.6091 80.0153 85.5417 80.0404C85.6099 80.017 85.6742 79.9833 85.7321 79.9404Z" fill="#FEB300"/>
<path d="M226.618 49.7403C226.51 49.7403 226.404 49.7163 226.306 49.6698C226.207 49.6234 226.122 49.5558 226.052 49.472C224.947 48.1273 223.686 46.5435 222.463 45.0109C221.24 43.4783 219.989 41.9067 218.892 40.5669C218.091 39.5908 217.33 38.4194 217.77 37.1504C217.998 36.5585 218.409 36.0544 218.941 35.7105C219.848 35.0211 220.98 34.7002 222.114 34.8125C222.726 34.8806 223.304 35.1242 223.781 35.5139C224.257 35.9036 224.61 36.4228 224.799 37.0088C224.959 37.7122 224.941 38.4445 224.747 39.1393C224.452 40.4897 223.998 41.8005 223.395 43.0439C226.08 43.8151 228.842 44.4593 231.593 44.962C231.689 44.9772 231.781 45.0115 231.865 45.063C231.948 45.1144 232.019 45.182 232.076 45.2617C232.132 45.3414 232.173 45.4316 232.194 45.527C232.215 45.6225 232.217 45.7211 232.2 45.8172C232.181 45.9133 232.146 46.005 232.092 46.0867C232.038 46.1685 231.968 46.2387 231.887 46.2931C231.806 46.3476 231.715 46.3853 231.619 46.404C231.523 46.4227 231.424 46.422 231.329 46.4019C228.922 45.9627 226.514 45.4258 224.139 44.7718C225.191 46.0871 226.251 47.4098 227.19 48.5544C227.278 48.6616 227.334 48.7917 227.352 48.9297C227.369 49.0675 227.346 49.2076 227.287 49.3332C227.228 49.459 227.134 49.5651 227.016 49.6394C226.899 49.7136 226.763 49.7529 226.623 49.7526L226.618 49.7403ZM221.64 36.2449C220.972 36.2682 220.328 36.4967 219.795 36.899C219.512 37.0718 219.288 37.3272 219.154 37.6311C218.951 38.2266 219.481 38.9856 220.024 39.6518C220.687 40.4571 221.404 41.3479 222.139 42.263C222.658 41.1657 223.053 40.0129 223.312 38.8269C223.446 38.3665 223.471 37.8809 223.386 37.409C223.271 37.1022 223.074 36.8332 222.814 36.6323C222.556 36.4314 222.247 36.3065 221.922 36.2718C221.828 36.2566 221.735 36.2477 221.64 36.2449Z" fill="#FFAAAB"/>
<path d="M239.047 65.3492C238.864 65.35 238.687 65.2815 238.551 65.1577C238.415 65.0338 238.331 64.8636 238.315 64.6806C238.032 61.3763 237.827 56.4979 239.275 52.2857C239.316 52.1636 239.388 52.0545 239.486 51.9696C239.583 51.8848 239.701 51.827 239.827 51.8023C239.955 51.7775 240.085 51.7866 240.207 51.8286C240.329 51.8707 240.438 51.9442 240.522 52.0418C241.844 53.5694 242.918 55.3387 243.868 56.9396C244.675 53.2351 245.29 51.1485 245.698 50.7312C245.774 50.6527 245.868 50.5924 245.97 50.5549C246.074 50.5172 246.184 50.5032 246.293 50.514C246.402 50.5251 246.506 50.5605 246.6 50.6175C246.693 50.6745 246.774 50.7518 246.833 50.8435C249.076 54.28 250.592 58.1407 251.285 62.1864C251.3 62.2814 251.298 62.3784 251.275 62.4721C251.254 62.566 251.215 62.6546 251.158 62.733C251.046 62.8914 250.875 62.9985 250.684 63.0308C250.492 63.0632 250.296 63.0182 250.136 62.9056C249.978 62.793 249.872 62.6221 249.839 62.4305C249.262 59.0651 248.088 55.8301 246.371 52.8788C245.959 54.3185 245.383 56.7835 244.907 59.0676C244.879 59.2123 244.808 59.3452 244.703 59.4488C244.599 59.5524 244.464 59.6219 244.319 59.6483C244.175 59.6747 244.024 59.6567 243.89 59.5965C243.756 59.5365 243.643 59.4372 243.565 59.3117C243.321 58.9041 243.062 58.4746 242.796 58.028C242.022 56.668 241.177 55.3499 240.263 54.0794C239.336 57.7157 239.531 61.7351 239.776 64.561C239.783 64.6569 239.773 64.7534 239.744 64.845C239.715 64.9368 239.668 65.022 239.606 65.0956C239.544 65.1693 239.469 65.23 239.383 65.2744C239.298 65.3188 239.204 65.3459 239.109 65.3542L239.047 65.3492Z" fill="#FF5E6C"/>
<path d="M260.379 34.9541C259.834 34.9609 259.29 34.8735 258.774 34.6955C258.271 34.5352 257.81 34.2616 257.43 33.8956C257.049 33.5296 256.757 33.081 256.578 32.5845C255.677 30.127 257.31 26.4688 258.832 23.8307C258.878 23.7433 258.941 23.6659 259.018 23.6034C259.094 23.5409 259.182 23.4945 259.277 23.467C259.372 23.4394 259.472 23.4314 259.569 23.4434C259.667 23.4552 259.762 23.4868 259.847 23.5362C259.933 23.5857 260.008 23.6518 260.067 23.7308C260.126 23.8098 260.168 23.9 260.192 23.996C260.216 24.0918 260.22 24.1915 260.204 24.2889C260.187 24.3864 260.151 24.4796 260.099 24.5628C258.163 27.9087 257.414 30.576 257.954 32.0793C258.063 32.3731 258.238 32.6377 258.467 32.8519C258.696 33.0662 258.972 33.2245 259.272 33.3142C260.262 33.668 262.815 33.6582 265.373 31.0764C265.51 30.9385 265.696 30.8606 265.889 30.8599C266.084 30.8592 266.271 30.9357 266.408 31.0727C266.546 31.2095 266.624 31.3955 266.625 31.5899C266.625 31.7842 266.549 31.9708 266.412 32.1086C264.394 34.1366 262.159 34.9541 260.379 34.9541Z" fill="#FEB300"/>
<path d="M265.116 36.2449C265.067 36.2449 265.017 36.2399 264.97 36.2303C264.875 36.2113 264.786 36.174 264.705 36.1202C264.625 36.0665 264.556 35.9977 264.504 35.9173C264.45 35.8371 264.413 35.7471 264.395 35.6526C264.376 35.558 264.377 35.4607 264.396 35.3663C265.174 31.5349 266.009 28.5088 267.569 26.1928C267.677 26.031 267.844 25.9188 268.035 25.8808C268.226 25.8429 268.425 25.8822 268.587 25.9903C268.749 26.0984 268.861 26.2663 268.899 26.4572C268.936 26.648 268.898 26.8462 268.788 27.008C267.369 29.1239 266.592 31.9962 265.843 35.6593C265.809 35.8262 265.718 35.9762 265.585 36.0831C265.452 36.19 265.286 36.2472 265.116 36.2449Z" fill="#FEB300"/>
<path d="M276.005 70.2521C275.96 70.2516 275.916 70.2475 275.871 70.2399C275.776 70.2224 275.686 70.1863 275.606 70.1338C275.524 70.0814 275.456 70.0136 275.401 69.9342C275.347 69.8549 275.309 69.7656 275.289 69.6715C275.269 69.5775 275.268 69.4803 275.285 69.3858C275.484 68.3095 275.742 66.9673 276.017 65.547C275.935 65.4613 275.875 65.3568 275.842 65.2425C275.808 65.1282 275.804 65.0075 275.827 64.8909C275.851 64.7743 275.904 64.6653 275.979 64.5734C276.055 64.4815 276.151 64.4094 276.262 64.3635C276.505 63.1432 276.762 61.8889 276.994 60.7321C278.178 55.0705 278.235 55.046 278.687 54.8606C278.946 54.7531 279.133 54.6751 280.845 55.4877C281.633 55.8531 282.392 56.2756 283.119 56.7518C285.34 58.3503 285.855 60.0536 285.896 61.2031C285.917 61.8702 285.789 62.5336 285.525 63.146C285.259 63.7585 284.862 64.3049 284.361 64.7466C282.59 66.2108 280.1 66.677 277.411 66.0474C277.166 67.3456 276.923 68.5902 276.72 69.6517C276.69 69.8195 276.602 69.9712 276.471 70.0807C276.341 70.1904 276.176 70.251 276.005 70.2521ZM277.714 64.61C279.968 65.1493 282.018 64.8051 283.442 63.6215C283.771 63.3235 284.031 62.9573 284.205 62.5486C284.379 62.1399 284.462 61.6984 284.449 61.2543C284.408 60.0781 283.659 58.9311 282.282 57.9403C281.385 57.367 280.438 56.8722 279.456 56.4614C279.099 57.8329 278.375 61.2494 277.701 64.61H277.714Z" fill="#FFAAAB"/>
<path d="M255.449 91.6547C255.268 91.6556 255.091 91.5882 254.956 91.4658C254.82 91.3435 254.736 91.175 254.717 90.9933C254.622 89.9976 254.549 88.6554 254.474 87.1033C254.349 84.7678 254.208 82.1225 253.936 79.9407C253.561 76.9073 253.099 76.2533 252.961 76.1239C252.497 76.2117 251.299 77.3758 249.701 81.3415C248.48 84.3603 247.379 88.2186 246.957 90.9421C246.928 91.1341 246.822 91.3061 246.666 91.4208C246.509 91.5355 246.313 91.5832 246.121 91.5534C245.93 91.5237 245.757 91.4188 245.643 91.262C245.528 91.1053 245.481 90.9094 245.51 90.7176C246.11 86.8446 249.51 74.6548 253.015 74.6548C254.966 74.6548 255.455 78.3008 255.929 87.0253C256.012 88.5602 256.081 89.8878 256.172 90.8518C256.191 91.0449 256.131 91.2375 256.008 91.3871C255.884 91.5368 255.706 91.6312 255.514 91.6498L255.449 91.6547Z" fill="#FEB300"/>
<path d="M245.427 85.4119C245.331 85.4147 245.234 85.3985 245.145 85.3641C245.055 85.3299 244.972 85.2783 244.903 85.2122C244.833 85.1461 244.778 85.067 244.738 84.9791C244.699 84.8914 244.676 84.7968 244.674 84.7005C244.671 84.6044 244.688 84.5087 244.722 84.4189C244.757 84.329 244.808 84.2467 244.874 84.1768C244.94 84.107 245.019 84.0508 245.107 84.0114C245.195 83.9721 245.29 83.9504 245.386 83.9477C249.29 83.7159 253.253 83.65 257.163 83.7598C257.26 83.7624 257.353 83.7839 257.441 83.823C257.53 83.8622 257.609 83.9183 257.674 83.9881C257.742 84.0579 257.793 84.14 257.827 84.2298C257.861 84.3196 257.878 84.4153 257.876 84.5115C257.873 84.6076 257.851 84.7022 257.813 84.7902C257.773 84.878 257.717 84.9573 257.647 85.0234C257.577 85.0896 257.495 85.1413 257.406 85.1758C257.316 85.2102 257.22 85.2267 257.124 85.224C253.256 85.1167 249.336 85.1802 245.473 85.4096L245.427 85.4119Z" fill="#FEB300"/>
<path d="M215.508 83.845C214.984 83.8507 214.464 83.7767 213.962 83.6254C212.743 83.2399 211.881 82.3833 211.396 81.0752C209.875 76.9753 213.128 73.0219 215.226 72.1262C218.251 70.8499 221.025 71.6528 222.654 74.2787C222.705 74.3604 222.741 74.4517 222.756 74.547C222.774 74.6425 222.771 74.7402 222.749 74.8346C222.727 74.929 222.687 75.0181 222.631 75.0968C222.575 75.1757 222.504 75.2425 222.421 75.2934C222.339 75.3445 222.247 75.3786 222.151 75.394C222.056 75.4093 221.959 75.4056 221.864 75.383C221.77 75.3603 221.681 75.3191 221.603 75.262C221.525 75.2048 221.458 75.1327 221.408 75.0498C220.676 73.8833 218.992 72.1213 215.795 73.4758C214.377 74.0762 211.56 77.3024 212.77 80.553C213.092 81.4266 213.628 81.9708 214.405 82.2149C216.575 82.9006 220.261 81.146 222.214 79.7989C222.373 79.6983 222.566 79.6633 222.751 79.7011C222.936 79.739 223.099 79.8467 223.207 80.002C223.313 80.1571 223.357 80.3477 223.327 80.5342C223.298 80.7205 223.196 80.8881 223.046 81.002C222.849 81.1484 218.9 83.845 215.508 83.845Z" fill="#FF5E6C"/>
<path d="M223.115 85.3216C222.936 85.3231 222.762 85.2588 222.628 85.141C222.492 85.0231 222.405 84.8599 222.383 84.6822C222.137 82.7591 222.042 80.8194 222.102 78.8814C220.92 78.9975 219.765 79.3084 218.686 79.8014C218.597 79.8456 218.501 79.8718 218.404 79.8781C218.305 79.8844 218.206 79.871 218.114 79.8384C218.021 79.8058 217.936 79.7549 217.863 79.6886C217.79 79.6224 217.732 79.5422 217.69 79.4527C217.649 79.3633 217.627 79.2665 217.624 79.1682C217.622 79.0698 217.639 78.972 217.674 78.8804C217.71 78.7888 217.764 78.7054 217.834 78.6351C217.902 78.5649 217.984 78.5092 218.075 78.4714C219.577 77.7846 221.203 77.4109 222.854 77.3732C222.954 77.3682 223.054 77.3854 223.148 77.4239C223.241 77.4622 223.325 77.5208 223.393 77.5953C223.464 77.6673 223.518 77.753 223.553 77.847C223.589 77.941 223.605 78.0415 223.601 78.142C223.491 80.2599 223.573 82.3836 223.844 84.487C223.869 84.6796 223.817 84.8741 223.698 85.0279C223.58 85.1817 223.404 85.282 223.212 85.307L223.115 85.3216Z" fill="#FF5E6C"/>
<path d="M255.209 107.883C248.258 107.884 241.445 105.931 235.551 102.248C234.87 101.824 234.192 101.37 233.532 100.93C231.133 99.3247 228.651 97.6653 225.875 97.2699C223.73 96.9624 221.589 97.4089 219.324 97.8849C217.324 98.3022 215.257 98.7365 213.156 98.617C207.884 98.3119 202.882 94.317 200.709 88.6772C199.036 84.3357 198.87 79.1328 200.221 73.2025C198.011 72.6025 195.99 71.4482 194.351 69.8487C192.712 68.2494 191.507 66.2579 190.853 64.063C190.198 61.8681 190.115 59.5425 190.612 57.3066C191.107 55.0705 192.165 52.9979 193.686 51.2853C194.488 50.4245 195.344 49.6159 196.248 48.8645C197.895 47.4319 199.45 46.0775 200.153 44.2032C200.886 42.251 200.526 40.1229 200.153 37.8582C199.91 36.5905 199.76 35.3066 199.705 34.0171C199.633 29.944 201.622 25.6489 205.029 22.5301C207.863 19.9359 211.669 18.0251 216.345 16.8537C216.776 16.7462 217.221 16.6438 217.665 16.5486C221.239 15.7932 224.908 15.5956 228.542 15.963C232.148 16.3136 235.667 17.2896 238.939 18.8475C240.143 19.4562 241.305 20.1443 242.418 20.9072C242.773 21.1512 243.126 21.3709 243.488 21.6003C243.731 21.7467 244.043 21.9126 244.278 21.8442C244.629 21.7613 244.989 21.1634 245.335 20.5826C245.456 20.3801 245.578 20.1751 245.708 19.9798C247.622 17.1171 250.222 14.7803 253.273 13.1833C256.308 11.5596 259.676 10.6585 263.115 10.5501C271.001 10.3206 279.117 14.0106 285.387 20.6582C286.934 22.2982 288.352 24.0919 289.725 25.827C291.937 28.6213 294.22 31.5083 297.03 33.712C298.379 34.7294 299.784 35.6728 301.237 36.538C303.378 37.8631 305.591 39.237 307.412 41.0869C310.94 44.6718 312.973 49.9577 313.451 56.7958C314.206 67.6116 310.969 77.9834 304.573 85.2485C301.151 89.1214 296.806 92.0664 291.941 93.8094C287.143 95.5299 282.179 95.9398 277.543 95.0027C275.45 102.37 267.293 106.619 259.958 107.578C258.383 107.781 256.796 107.883 255.209 107.883ZM224.416 95.7032C224.974 95.7013 225.532 95.7398 226.085 95.8179C229.189 96.262 231.813 98.0142 234.347 99.7224C234.996 100.157 235.665 100.606 236.328 101.018C243.335 105.345 251.611 107.149 259.784 106.131C266.861 105.208 274.707 101.094 276.311 93.9802C276.332 93.8859 276.373 93.7968 276.428 93.718C276.485 93.6393 276.556 93.5726 276.637 93.5215C276.719 93.4703 276.81 93.4358 276.906 93.4198C277.001 93.4039 277.098 93.4069 277.192 93.4286C286.241 95.542 296.805 91.8668 303.482 84.2845C309.622 77.3123 312.726 67.331 311.996 56.9031C311.545 50.4214 309.654 45.4479 306.383 42.1192C304.676 40.3938 302.643 39.1272 300.481 37.7875C298.981 36.8915 297.533 35.9139 296.141 34.859C293.196 32.548 290.856 29.5902 288.591 26.73C287.239 25.0218 285.838 23.2524 284.335 21.6589C278.35 15.3137 270.637 11.7898 263.172 12.0094C259.956 12.1138 256.808 12.959 253.974 14.4792C251.139 15.9599 248.72 18.1281 246.94 20.7851C246.823 20.9658 246.696 21.1562 246.599 21.3415C246.093 22.181 245.573 23.0498 244.623 23.2744C244.026 23.4159 243.402 23.2744 242.708 22.8302C242.342 22.5862 241.976 22.3592 241.623 22.125C240.563 21.3982 239.456 20.741 238.31 20.158C235.185 18.6763 231.825 17.7506 228.381 17.4222C224.898 17.0712 221.381 17.2605 217.956 17.9835C217.528 18.0738 217.104 18.1715 216.69 18.2765C212.246 19.3892 208.65 21.1854 206.01 23.6111C202.908 26.4518 201.095 30.332 201.158 33.9926C201.215 35.2108 201.358 36.4234 201.586 37.6215C201.976 39.9618 202.379 42.3828 201.518 44.6987C200.689 46.9219 198.918 48.4642 197.205 49.9553C196.351 50.6679 195.543 51.4333 194.784 52.2469C193.391 53.8155 192.434 55.7222 192.009 57.7763C191.583 59.8305 191.704 61.9603 192.359 63.9532C193.015 65.9461 194.18 67.7323 195.741 69.1335C197.303 70.5347 199.204 71.5019 201.256 71.9384C201.352 71.9588 201.442 71.9983 201.523 72.0545C201.603 72.1106 201.672 72.1824 201.724 72.2655C201.776 72.3485 201.811 72.4414 201.827 72.5381C201.843 72.6349 201.839 72.7339 201.815 72.8293C200.351 78.7594 200.451 83.9086 202.084 88.1403C204.052 93.2651 208.541 96.8721 213.25 97.1455C215.157 97.2576 217.041 96.8599 219.034 96.4426C220.782 96.0813 222.588 95.7032 224.416 95.7032Z" fill="#FFAAAB"/>
<path d="M163.059 61.784C162.462 61.7888 161.868 61.7065 161.297 61.54C160.741 61.3614 160.199 61.142 159.676 60.8835C159.082 60.5732 158.45 60.3417 157.797 60.1953C156.852 60.0319 155.859 60.2564 154.81 60.4955C154.535 60.5589 154.258 60.6224 153.986 60.6785C152.033 61.0714 148.762 60.4174 147.758 56.991C146.957 54.2578 147.476 51.2708 149.117 49.1818C149.846 48.2708 150.814 47.5804 151.913 47.1879C152.624 46.9611 153.364 46.8394 154.109 46.8268C154.841 46.7804 155.53 46.7389 156.128 46.451C156.425 46.3069 156.72 46.1582 157.018 46.0069C158.664 45.1722 160.365 44.2985 162.41 44.5426C163.526 44.6996 164.59 45.1176 165.516 45.7628C167.761 47.227 169.404 49.4234 170.025 51.8003C170.714 54.4238 170.131 57.2669 168.503 59.2191C167.833 60.0131 167.001 60.6532 166.061 61.0959C165.121 61.5385 164.098 61.7732 163.059 61.784ZM157.118 58.6677C157.429 58.6664 157.739 58.6916 158.046 58.7433C158.828 58.9093 159.584 59.1803 160.294 59.5487C160.753 59.7757 161.227 59.9697 161.714 60.1294C163.666 60.7127 165.999 59.9562 167.388 58.2894C168.718 56.6933 169.189 54.353 168.608 52.1884C168.077 50.1628 166.656 48.2837 164.715 47.0049C163.98 46.4851 163.134 46.1441 162.244 46.0092C160.635 45.8262 159.198 46.5559 157.677 47.3271C157.369 47.4833 157.065 47.6394 156.76 47.7858C155.903 48.1958 155.036 48.2496 154.2 48.3033C153.591 48.3097 152.985 48.4035 152.402 48.5815C151.559 48.8816 150.815 49.4085 150.254 50.1042C148.905 51.8126 148.482 54.2969 149.151 56.581C150.126 59.9244 153.646 59.2508 153.683 59.2436C153.943 59.1924 154.207 59.1313 154.473 59.0703C155.338 58.8375 156.227 58.7024 157.121 58.6677H157.118Z" fill="#FFAAAB"/>
<path d="M129.055 52.3176C128.32 52.2932 127.6 52.1144 126.94 51.7929C126.104 51.444 125.379 51.1413 124.032 51.4391C123.646 51.5201 123.247 51.5225 122.858 51.4462C122.471 51.3699 122.104 51.2163 121.776 50.9949C120.953 50.446 120.38 49.5945 120.18 48.6253C119.562 45.5162 123.305 44.0812 124.535 43.6102C124.664 43.5614 124.764 43.5248 124.818 43.498C125.377 43.1914 125.992 43.0006 126.627 42.9369C127.261 42.8731 127.903 42.9378 128.512 43.127C129.75 43.5346 130.765 44.4888 131.44 45.8896C131.778 46.5777 132.812 48.9644 132.003 50.6947C131.82 51.0729 131.554 51.404 131.222 51.6618C130.891 51.9196 130.504 52.0973 130.094 52.1809C129.754 52.2684 129.405 52.3143 129.055 52.3176ZM125.055 49.8625C125.907 49.8797 126.745 50.0785 127.514 50.4458C128.275 50.763 128.827 50.9925 129.762 50.763C129.961 50.731 130.148 50.6521 130.309 50.5329C130.471 50.4136 130.602 50.2574 130.691 50.0773C131.089 49.228 130.691 47.6857 130.14 46.5362C129.635 45.4991 128.92 44.8036 128.063 44.5206C127.639 44.3938 127.193 44.3535 126.753 44.4021C126.313 44.4506 125.887 44.5872 125.501 44.8036C125.359 44.8707 125.214 44.9302 125.066 44.9818C123.429 45.6114 121.286 46.6437 121.627 48.3445C121.75 48.928 122.093 49.4409 122.587 49.7747C122.75 49.8899 122.936 49.9709 123.132 50.0129C123.327 50.0548 123.53 50.0567 123.726 50.0187C124.162 49.9189 124.607 49.8665 125.055 49.8625Z" fill="#FFAAAB"/>
<path d="M63.3828 191.396H63.3388C63.2428 191.391 63.1489 191.366 63.0624 191.325C62.9759 191.283 62.8983 191.224 62.8345 191.152C62.7706 191.08 62.7215 190.997 62.6899 190.906C62.6583 190.815 62.645 190.719 62.6507 190.623C63.0679 183.461 66.0282 176.771 68.8931 170.304C69.3129 169.358 69.7286 168.411 70.1403 167.466C77.8823 149.622 82.8252 130.69 84.7949 111.339C84.9583 109.721 85.056 108.279 84.5508 107.012C84.0115 105.658 82.8132 104.621 81.7297 103.754C79.0402 101.599 76.1285 99.7374 73.0443 98.1998C72.4785 97.9205 72.0352 97.4428 71.799 96.8577C71.5627 96.2727 71.5499 95.6211 71.7631 95.0273C73.8636 89.232 75.4471 83.2622 76.495 77.1879C76.5369 76.9382 76.6392 76.7027 76.7933 76.5019C76.9473 76.3011 77.1482 76.1411 77.3785 76.0359C77.6109 75.9294 77.866 75.8815 78.1213 75.8965C78.3766 75.9114 78.6242 75.9885 78.8427 76.1214C79.4674 76.4997 79.8603 76.9511 80.0141 77.4636C80.0652 77.6485 80.0417 77.8458 79.9489 78.0136C79.856 78.1813 79.701 78.3059 79.5172 78.3605C79.3334 78.4151 79.1355 78.3955 78.966 78.3059C78.7966 78.2162 78.6691 78.0636 78.6109 77.881C78.4923 77.661 78.308 77.4836 78.0837 77.3733C78.0687 77.3652 78.052 77.361 78.0349 77.361C78.0179 77.361 78.0012 77.3652 77.9862 77.3733C77.9731 77.3787 77.9618 77.3875 77.9532 77.3985C77.9447 77.4097 77.9393 77.4229 77.9373 77.4367C76.8752 83.5975 75.2696 89.6524 73.1395 95.53C73.0485 95.7857 73.0549 96.0659 73.1576 96.3171C73.2603 96.5683 73.4518 96.7729 73.6959 96.8917C76.8731 98.4763 79.8728 100.394 82.6449 102.612C83.9626 103.669 85.2708 104.867 85.9076 106.473C86.5446 108.078 86.4274 109.743 86.2493 111.49C84.2647 130.99 79.2829 150.069 71.48 168.049C71.07 168.996 70.6502 169.945 70.2281 170.897C67.4191 177.242 64.5127 183.809 64.1099 190.709C64.0989 190.894 64.0175 191.068 63.8824 191.196C63.7473 191.324 63.5687 191.396 63.3828 191.396Z" fill="#FFAAAB"/>
<path d="M68.5345 132.951C66.199 132.787 63.5853 132.936 61.9454 134.6C60.6789 135.881 60.2908 137.774 60.0613 139.563C59.2438 145.908 59.6246 152.496 57.272 158.444C62.7469 158.877 68.1495 159.97 73.3616 161.701C75.3993 157.767 80.3704 141.768 82.0788 132.904C77.7469 133.7 71.8925 133.185 68.5345 132.951Z" fill="#FFAAAB"/>
<path d="M73.359 162.433C73.281 162.433 73.2038 162.421 73.1296 162.396C67.9732 160.682 62.6279 159.599 57.2109 159.171C57.0966 159.161 56.986 159.126 56.8882 159.067C56.7902 159.007 56.7076 158.924 56.6471 158.827C56.5865 158.731 56.5496 158.62 56.5395 158.506C56.5294 158.391 56.5461 158.277 56.5885 158.17C58.1822 154.149 58.4994 149.672 58.8044 145.343C58.9411 143.413 59.0801 141.414 59.3315 139.464C59.583 137.514 60.0125 135.511 61.4205 134.096C63.3729 132.112 66.4478 132.083 68.5856 132.229L69.4007 132.287C72.8392 132.532 78.0372 132.912 81.9419 132.189C82.0591 132.168 82.1799 132.175 82.2936 132.211C82.4074 132.246 82.5107 132.309 82.5948 132.394C82.6786 132.479 82.7406 132.583 82.7753 132.696C82.81 132.811 82.8162 132.932 82.7936 133.049C81.0487 142.115 76.0679 158.073 74.0081 162.048C73.9452 162.165 73.8514 162.263 73.7371 162.331C73.6227 162.399 73.492 162.435 73.359 162.433ZM58.2895 157.797C63.2818 158.262 68.2081 159.272 72.9807 160.809C75.0209 156.371 79.3746 142.34 81.1512 133.785C77.2466 134.313 72.5146 133.971 69.2958 133.739L68.4831 133.681C66.6332 133.551 63.9976 133.561 62.4627 135.115C61.3596 136.233 60.9984 137.959 60.7836 139.655C60.5395 141.563 60.398 143.538 60.2638 145.448C59.9734 149.571 59.6732 153.821 58.2895 157.797Z" fill="#FFAAAB"/>
<path d="M136.687 165.167C136.507 159.779 136.387 154.185 134.05 149.337C136.292 147.604 139.733 145.556 141.974 143.824C137.527 140.196 132.895 123.292 128.307 121.752C122.994 119.968 118.004 126.531 109.409 129.156C109.597 131.321 109.183 133.494 108.213 135.438C107.244 137.381 105.757 139.02 103.915 140.173C100.926 141.983 93.9243 141.768 90.3295 139.215C90.4541 140.414 89.9123 161.701 84.3262 179.458C84.4775 180.647 94.1098 196.265 100.389 210.893C113.148 206.385 126.047 201.778 139.094 198.166C137.862 187.204 137.06 176.204 136.687 165.167Z" fill="#FFAAAB"/>
<path d="M100.389 211.625C100.246 211.624 100.106 211.582 99.9868 211.503C99.8675 211.424 99.7741 211.312 99.7178 211.18C95.5984 201.592 90.0001 191.501 86.6568 185.474C84.2383 181.117 83.6673 180.049 83.5989 179.558C83.5845 179.451 83.5937 179.342 83.6258 179.238C89.2094 161.498 89.7267 140.511 89.5999 139.292C89.5852 139.151 89.6111 139.01 89.6747 138.883C89.7383 138.758 89.8368 138.654 89.9584 138.583C90.08 138.512 90.2195 138.476 90.3603 138.483C90.5009 138.49 90.6369 138.536 90.7517 138.617C94.1464 141.028 100.831 141.182 103.535 139.544C105.264 138.471 106.661 136.937 107.569 135.116C108.478 133.295 108.862 131.257 108.679 129.23C108.662 129.061 108.704 128.891 108.798 128.75C108.892 128.609 109.032 128.505 109.194 128.455C112.691 127.389 115.61 125.632 118.184 124.083C121.906 121.844 125.12 119.909 128.541 121.056C131.328 121.991 133.81 127.309 136.438 132.939C138.452 137.245 140.531 141.702 142.437 143.257C142.523 143.326 142.591 143.414 142.637 143.514C142.683 143.614 142.707 143.722 142.706 143.833C142.704 143.943 142.678 144.051 142.629 144.15C142.581 144.25 142.51 144.336 142.423 144.404C141.28 145.285 139.826 146.254 138.417 147.189C137.219 147.987 135.978 148.806 134.962 149.563C137.061 154.284 137.234 159.568 137.402 164.678L137.419 165.142C137.785 176.08 138.594 187.164 139.821 198.087C139.841 198.261 139.797 198.435 139.7 198.578C139.602 198.722 139.456 198.827 139.289 198.873C126.842 202.316 114.397 206.719 102.353 210.977L100.633 211.586C100.555 211.613 100.472 211.627 100.389 211.625ZM85.0924 179.46C85.3584 180.116 86.5567 182.283 87.9379 184.763C91.2227 190.686 96.6721 200.509 100.789 209.975L101.865 209.594C113.74 205.397 126.025 201.052 138.296 197.636C137.102 186.878 136.316 175.97 135.955 165.201L135.941 164.737C135.769 159.579 135.594 154.244 133.39 149.663C133.318 149.511 133.298 149.339 133.338 149.176C133.376 149.012 133.469 148.868 133.602 148.765C134.742 147.884 136.2 146.915 137.608 145.98C138.72 145.248 139.863 144.479 140.841 143.767C138.918 141.717 137.064 137.746 135.114 133.568C132.841 128.704 130.267 123.189 128.075 122.455C125.295 121.522 122.492 123.211 118.941 125.347C116.428 126.86 113.599 128.561 110.183 129.688C110.271 131.897 109.773 134.089 108.738 136.042C107.705 137.996 106.17 139.639 104.294 140.807C101.424 142.546 95.1664 142.64 91.0666 140.524C90.9762 145.673 89.9708 163.808 85.0924 179.46Z" fill="#FFAAAB"/>
<path d="M134.974 149.926C134.839 149.926 134.706 149.889 134.591 149.818C134.475 149.749 134.382 149.647 134.32 149.526C134.182 149.254 134.013 148.928 133.833 148.565C132.612 146.188 130.542 142.22 128.986 138.449C128.911 138.27 128.912 138.068 128.986 137.889C129.061 137.709 129.203 137.567 129.384 137.493C129.563 137.419 129.764 137.419 129.944 137.493C130.124 137.568 130.266 137.712 130.339 137.891C131.872 141.593 133.913 145.537 135.133 147.896C135.32 148.262 135.489 148.587 135.621 148.873C135.706 149.044 135.721 149.243 135.661 149.426C135.602 149.608 135.475 149.76 135.303 149.849C135.202 149.901 135.089 149.928 134.974 149.926Z" fill="white"/>
<path d="M158.29 178.343C158.099 178.343 157.915 178.268 157.778 178.133C157.641 177.999 157.562 177.817 157.558 177.625C157.384 169.167 158.046 159.757 158.678 150.656C159.847 133.933 161.055 116.64 157.184 104.567C157.151 104.474 157.136 104.376 157.142 104.278C157.147 104.179 157.173 104.083 157.217 103.995C157.26 103.907 157.321 103.828 157.394 103.764C157.47 103.7 157.556 103.651 157.65 103.621C157.743 103.591 157.842 103.58 157.94 103.589C158.038 103.598 158.133 103.627 158.22 103.674C158.307 103.72 158.383 103.784 158.444 103.86C158.506 103.937 158.552 104.025 158.578 104.12C162.536 116.459 161.318 133.893 160.14 150.758C159.505 159.828 158.849 169.204 159.022 177.603C159.025 177.7 159.007 177.795 158.973 177.886C158.938 177.975 158.885 178.057 158.819 178.127C158.752 178.196 158.673 178.252 158.585 178.291C158.497 178.329 158.4 178.35 158.304 178.352L158.29 178.343Z" fill="#FFAAAB"/>
<path d="M158.398 167.875C158.293 167.878 158.187 167.857 158.091 167.814C157.995 167.772 157.909 167.71 157.838 167.631C151.676 160.398 145.605 152.923 139.78 145.425C139.716 145.348 139.668 145.261 139.639 145.166C139.61 145.072 139.601 144.973 139.612 144.874C139.621 144.777 139.651 144.682 139.7 144.595C139.747 144.509 139.813 144.433 139.891 144.373C139.968 144.312 140.058 144.269 140.154 144.243C140.249 144.218 140.349 144.213 140.446 144.228C140.544 144.242 140.639 144.276 140.723 144.328C140.806 144.379 140.88 144.448 140.936 144.528C146.74 152.02 152.799 159.479 158.947 166.694C159.072 166.843 159.134 167.034 159.118 167.226C159.102 167.419 159.01 167.599 158.864 167.725C158.731 167.829 158.566 167.882 158.398 167.875Z" fill="#FFAAAB"/>
<path d="M165.853 192.538C165.727 192.538 165.601 192.506 165.492 192.443C155.383 186.709 145.832 180.045 136.961 172.536C136.813 172.411 136.72 172.232 136.705 172.038C136.689 171.845 136.751 171.653 136.876 171.504C137.001 171.356 137.18 171.264 137.373 171.248C137.568 171.231 137.759 171.293 137.908 171.42C146.71 178.868 156.187 185.482 166.216 191.172C166.356 191.253 166.465 191.376 166.527 191.525C166.589 191.674 166.601 191.838 166.559 191.994C166.518 192.15 166.426 192.287 166.298 192.386C166.17 192.485 166.014 192.538 165.853 192.538Z" fill="#FFAAAB"/>
<path d="M170.477 194.589C169.324 194.589 168.24 193.986 167.591 193.612C166.888 193.222 166.189 192.828 165.492 192.431C165.324 192.333 165.2 192.174 165.15 191.986C165.098 191.798 165.125 191.597 165.222 191.429C165.32 191.26 165.479 191.138 165.667 191.087C165.855 191.036 166.056 191.063 166.224 191.159C166.914 191.553 167.609 191.945 168.31 192.333C169.184 192.822 170.187 193.309 170.994 193.029C171.849 192.723 172.295 191.618 172.62 190.589C172.789 190.046 172.95 189.488 173.108 188.931C176.441 176.635 174.975 163.346 173.557 150.498C173.457 149.577 173.355 148.665 173.256 147.756C172.066 136.89 170.15 123.297 168.752 113.364C167.986 107.934 167.383 103.644 167.177 101.758C167.031 100.398 163.047 96.9817 154.107 94.8684C153.919 94.8237 153.755 94.7059 153.653 94.5406C153.551 94.3754 153.518 94.1764 153.563 93.9874C153.608 93.7984 153.725 93.6349 153.891 93.5329C154.055 93.4308 154.256 93.3986 154.444 93.4432C162.358 95.315 168.326 98.7462 168.632 101.602C168.835 103.464 169.438 107.742 170.202 113.159C171.6 123.099 173.518 136.719 174.699 147.604C174.797 148.508 174.897 149.419 175 150.338C176.366 162.719 177.913 176.751 174.511 189.317C174.356 189.891 174.189 190.466 174.023 191.025C173.591 192.411 172.955 193.9 171.488 194.42C171.163 194.535 170.822 194.591 170.477 194.589Z" fill="#FFAAAB"/>
<path d="M148.525 115.632C147.752 115.631 146.994 115.421 146.329 115.024C145.956 114.806 145.64 114.503 145.407 114.141C144.509 114.407 143.55 114.365 142.678 114.021C142.088 113.788 141.588 113.371 141.251 112.833C140.333 113.094 139.351 113.007 138.494 112.588C138.101 112.408 137.762 112.132 137.503 111.786C137.247 111.439 137.08 111.034 137.019 110.607C137.002 110.51 137.004 110.41 137.027 110.314C137.049 110.218 137.09 110.127 137.148 110.047C137.206 109.968 137.28 109.9 137.365 109.85C137.449 109.799 137.543 109.766 137.642 109.753C137.739 109.74 137.838 109.746 137.934 109.772C138.029 109.798 138.117 109.843 138.195 109.905C138.272 109.966 138.337 110.042 138.383 110.129C138.43 110.216 138.459 110.311 138.469 110.409C138.504 110.599 138.586 110.776 138.707 110.926C138.827 111.077 138.982 111.195 139.16 111.271C139.494 111.43 139.86 111.509 140.23 111.504C140.602 111.498 140.965 111.408 141.295 111.239C141.393 111.185 141.502 111.154 141.614 111.149C141.726 111.143 141.838 111.164 141.941 111.209C142.043 111.254 142.135 111.321 142.208 111.407C142.28 111.493 142.332 111.594 142.359 111.703C142.42 111.922 142.532 112.123 142.687 112.29C142.841 112.457 143.033 112.584 143.247 112.662C143.605 112.803 143.989 112.864 144.373 112.841C144.756 112.818 145.13 112.711 145.468 112.527C145.576 112.463 145.698 112.428 145.825 112.425C145.951 112.422 146.075 112.451 146.187 112.51C146.297 112.569 146.391 112.656 146.459 112.762C146.527 112.868 146.566 112.99 146.574 113.116C146.591 113.423 146.949 113.674 147.101 113.767C147.745 114.16 148.682 114.277 149.234 114.033L149.317 113.997C151.244 113.138 153.648 112.071 155.07 110.919C155.676 110.431 156.011 109.904 156.067 109.352C156.122 108.801 155.884 108.162 155.335 107.5C155.213 107.349 155.155 107.156 155.174 106.963C155.196 106.77 155.292 106.593 155.442 106.47C155.593 106.348 155.785 106.291 155.979 106.311C156.172 106.331 156.349 106.427 156.471 106.578C157.263 107.554 157.614 108.53 157.512 109.506C157.443 110.16 157.123 111.136 155.982 112.059C154.407 113.333 151.905 114.443 149.897 115.336L149.814 115.373C149.407 115.547 148.969 115.635 148.525 115.632Z" fill="#FFAAAB"/>
<path d="M60.2371 218.938C59.7588 218.941 59.2828 218.872 58.8241 218.737C53.2308 217.065 51.4858 195.848 58.9656 158.533C58.9846 158.44 59.0218 158.349 59.0754 158.27C59.129 158.19 59.1979 158.121 59.2779 158.067C59.3581 158.015 59.4479 157.978 59.5423 157.958C59.6367 157.94 59.7339 157.94 59.8283 157.959C59.9227 157.978 60.0125 158.015 60.0924 158.069C60.1723 158.123 60.2409 158.191 60.2944 158.271C60.3477 158.352 60.3849 158.441 60.4034 158.536C60.4221 158.63 60.422 158.727 60.403 158.822C55.9981 180.785 55.2782 194.581 55.4711 202.29C55.715 212.633 57.6551 216.859 59.2438 217.336C60.4445 217.694 61.9502 217.359 63.6049 216.359C70.3574 212.323 80.4436 196.852 86.6788 166.536C89.1193 154.687 89.6073 140.628 90.0247 128.221C90.2297 122.27 90.4225 116.647 90.8275 112.269C90.9203 111.253 91.4939 110.175 92.16 108.923C93.5706 106.273 95.0299 103.53 92.5213 100.823C91.8086 100.054 90.237 98.7146 88.5726 97.2967C86.9083 95.8788 85.2219 94.4439 84.1359 93.3603C83.6626 92.8869 83.8309 92.1401 84.3337 89.8901C84.9047 87.3423 85.7466 83.584 85.1415 81.2974C84.0676 86.8371 83.0842 90.7736 82.1397 93.3139C82.0721 93.4962 81.9349 93.644 81.7582 93.725C81.5815 93.8061 81.3799 93.8136 81.1978 93.7459C81.0156 93.6783 80.8677 93.5411 80.7866 93.3644C80.7056 93.1877 80.6981 92.9861 80.7658 92.804C81.7102 90.2635 82.7034 86.2441 83.8016 80.5141C83.8555 80.2311 83.9998 79.9735 84.2128 79.7798C84.4259 79.5861 84.696 79.4669 84.9828 79.4402C85.2664 79.4106 85.552 79.4741 85.7964 79.6211C86.0408 79.7682 86.2306 79.9908 86.3373 80.2554C87.4036 82.8837 86.4154 87.2935 85.7612 90.2098C85.5759 90.9559 85.4284 91.7109 85.3196 92.4721C86.3739 93.4995 87.9723 94.8611 89.5219 96.1815C91.218 97.6286 92.8238 98.9952 93.595 99.8273C96.8115 103.298 94.8714 106.949 93.4535 109.611C92.8873 110.675 92.3504 111.681 92.2845 112.403C91.8843 116.739 91.6915 122.342 91.4865 128.266C91.057 140.728 90.5713 154.865 88.1139 166.824C85.3148 180.448 81.3954 192.505 76.7806 201.683C72.8393 209.519 68.4271 215.175 64.3564 217.608C62.9044 218.497 61.5061 218.938 60.2371 218.938Z" fill="#FFAAAB"/>
<path d="M78.5887 93.7286C78.5003 93.7288 78.4126 93.7132 78.33 93.6822C78.2399 93.6484 78.1573 93.597 78.087 93.5312C78.0169 93.4654 77.9602 93.3864 77.9206 93.2987C77.8808 93.2109 77.8589 93.1162 77.8558 93.0199C77.8528 92.9237 77.8689 92.8278 77.903 92.7378C79.7954 87.8498 80.9883 82.719 81.4464 77.4975C81.4714 77.2131 81.5738 76.9411 81.7428 76.711C81.9117 76.481 82.1405 76.3017 82.4044 76.1927C82.6681 76.0837 82.9569 76.0492 83.2389 76.0929C83.5209 76.1367 83.7856 76.2571 84.0039 76.4407C84.5452 76.9033 84.9754 77.4817 85.2626 78.1332C85.5499 78.7845 85.6868 79.4924 85.6634 80.2039C85.6634 80.3981 85.5862 80.5843 85.4489 80.7216C85.3117 80.8589 85.1254 80.936 84.9313 80.936C84.7371 80.936 84.5509 80.8589 84.4136 80.7216C84.2763 80.5843 84.1991 80.3981 84.1991 80.2039C84.2214 79.7053 84.1303 79.2081 83.9324 78.7498C83.7346 78.2916 83.4352 77.8842 83.0571 77.5584C83.0445 77.5467 83.0287 77.5391 83.0118 77.5365C82.9948 77.5338 82.9774 77.5365 82.9619 77.5438C82.9458 77.5498 82.9318 77.5603 82.9218 77.5742C82.9117 77.5882 82.9062 77.6048 82.9058 77.6219C82.4494 82.9152 81.2951 87.8716 79.2744 93.2405C79.2242 93.3825 79.1314 93.5057 79.0087 93.5929C78.886 93.6804 78.7393 93.7276 78.5887 93.7286Z" fill="#FFAAAB"/>
<path d="M75.8285 93.4044C75.7452 93.4042 75.6626 93.3894 75.5845 93.3604C75.4941 93.3275 75.411 93.2769 75.3402 93.2119C75.2692 93.1468 75.2118 93.0685 75.1712 92.9812C75.1307 92.8939 75.1078 92.7995 75.1037 92.7034C75.0996 92.6073 75.1146 92.5111 75.1477 92.4208C77.0967 87.0884 78.3102 81.5154 78.7545 75.8553C78.7724 75.6121 78.8483 75.3767 78.9756 75.1687C79.1029 74.9606 79.2782 74.786 79.4867 74.6595C79.6966 74.5307 79.9337 74.4529 80.1792 74.4326C80.4247 74.4122 80.6715 74.4499 80.8997 74.5425C81.9564 74.9768 82.6641 75.6187 82.9423 76.4045C83.007 76.5876 82.9963 76.7889 82.9126 76.9643C82.8288 77.1396 82.6789 77.2744 82.4957 77.339C82.3126 77.4038 82.1111 77.3932 81.9359 77.3094C81.7606 77.2257 81.6258 77.0757 81.561 76.8926C81.3829 76.3874 80.7215 76.0531 80.3409 75.8993C80.327 75.8916 80.3115 75.8876 80.2957 75.8876C80.2799 75.8876 80.2644 75.8916 80.2505 75.8993C80.2389 75.9056 80.2291 75.9147 80.2218 75.9259C80.2146 75.9369 80.2102 75.9496 80.2091 75.9627C79.7542 81.7551 78.5128 87.4587 76.5191 92.9163C76.4687 93.059 76.3752 93.1826 76.2514 93.2701C76.1278 93.3575 75.9799 93.4044 75.8285 93.4044Z" fill="#FFAAAB"/>
<path d="M106.244 130.486C106.024 130.486 105.824 130.486 105.655 130.465C105.461 130.447 105.282 130.355 105.156 130.205C105.03 130.056 104.969 129.864 104.986 129.669C105.002 129.476 105.095 129.295 105.244 129.17C105.393 129.045 105.586 128.983 105.78 129C106.553 129.068 108.113 128.949 109.006 128.48C109.178 128.39 109.38 128.372 109.564 128.43C109.75 128.488 109.905 128.617 109.995 128.79C110.084 128.962 110.103 129.162 110.045 129.348C109.987 129.534 109.856 129.689 109.685 129.779C108.669 130.316 107.242 130.486 106.244 130.486Z" fill="#FFAAAB"/>
<path d="M105.636 132.649C105.485 132.648 105.338 132.602 105.214 132.513C105.091 132.426 104.998 132.303 104.948 132.16C103.566 128.397 103.605 124.409 103.779 120.315C103.95 116.327 104.667 107.461 104.999 103.791C105.016 103.597 105.11 103.417 105.259 103.292C105.408 103.167 105.601 103.106 105.796 103.123C105.99 103.14 106.169 103.234 106.294 103.383C106.42 103.533 106.48 103.726 106.463 103.92C106.143 107.581 105.428 116.412 105.26 120.376C105.092 124.339 105.05 128.146 106.341 131.655C106.38 131.765 106.392 131.884 106.376 132C106.36 132.116 106.317 132.225 106.249 132.321C106.182 132.417 106.093 132.495 105.989 132.549C105.885 132.603 105.77 132.63 105.653 132.632L105.636 132.649Z" fill="#FFAAAB"/>
<path d="M105.863 89.3946C105.727 89.3946 105.594 89.3566 105.478 89.2853C105.362 89.2138 105.269 89.1115 105.208 88.9898C105.147 88.8683 105.121 88.7322 105.134 88.5967C105.146 88.4613 105.195 88.3319 105.277 88.2231C105.67 87.7818 106.115 87.3901 106.602 87.0567C106.9 86.8272 107.224 86.5807 107.537 86.3245C104.943 83.7939 102.619 78.6495 102.2 74.3177C102.181 74.1236 102.24 73.9299 102.364 73.7793C102.488 73.6288 102.667 73.5336 102.861 73.5149C103.055 73.4961 103.249 73.5552 103.399 73.6792C103.55 73.8033 103.645 73.9821 103.664 74.1763C104.079 78.4518 106.566 83.7499 109.099 85.7462C109.181 85.8107 109.248 85.8922 109.295 85.9849C109.344 86.0776 109.372 86.1795 109.377 86.2837C109.382 86.388 109.365 86.4921 109.327 86.5893C109.289 86.6863 109.229 86.7741 109.154 86.8468C108.63 87.3383 108.079 87.7988 107.5 88.2256C107.126 88.4862 106.776 88.7811 106.456 89.1066C106.386 89.1976 106.296 89.2711 106.194 89.3211C106.091 89.3711 105.977 89.3963 105.863 89.3946Z" fill="#FFAAAB"/>
<path d="M94.4049 77.1294C94.2244 77.1296 94.05 77.0633 93.9153 76.9428C93.7808 76.8224 93.6955 76.6565 93.6757 76.4769C93.6561 76.2975 93.7035 76.117 93.8088 75.9703C93.9142 75.8236 94.0699 75.7209 94.2464 75.6822C95.3949 75.4251 96.5101 75.0369 97.5702 74.5254C97.6571 74.4804 97.7521 74.4532 97.8497 74.4456C97.9471 74.438 98.0453 74.4499 98.1382 74.4807C98.231 74.5117 98.3167 74.5609 98.3902 74.6254C98.4638 74.6901 98.5236 74.7687 98.5661 74.8568C98.6087 74.945 98.6332 75.0407 98.6381 75.1384C98.6431 75.2361 98.6284 75.334 98.5949 75.4259C98.5615 75.5179 98.5099 75.6022 98.4432 75.6738C98.3766 75.7455 98.2963 75.8031 98.2072 75.8432C97.0459 76.404 95.8243 76.8298 94.566 77.1122C94.5131 77.1238 94.4591 77.1296 94.4049 77.1294Z" fill="#FFAAAB"/>
<path d="M106.727 73.3929C106.559 73.3933 106.397 73.3363 106.267 73.2315C106.136 73.1266 106.046 72.9804 106.01 72.8168C105.974 72.6534 105.996 72.4827 106.071 72.333C106.146 72.1834 106.27 72.064 106.422 71.9946C107.095 71.6871 108.245 71.1356 109.026 70.7548C109.201 70.6701 109.402 70.6582 109.585 70.7217C109.768 70.7853 109.92 70.9194 110.004 71.0941C110.089 71.2688 110.101 71.4701 110.037 71.6537C109.974 71.8371 109.839 71.9879 109.665 72.0726C108.84 72.4729 107.713 73.0122 107.029 73.3247C106.935 73.3697 106.831 73.393 106.727 73.3929Z" fill="#FFAAAB"/>
<path d="M106.087 97.8506C106.054 98.0182 106.054 98.1907 106.087 98.3584C106.12 98.5261 106.186 98.6855 106.281 98.8276C106.376 98.9696 106.498 99.0917 106.64 99.1865C106.783 99.2814 106.942 99.3474 107.11 99.3807L135.157 104.95C135.575 104.142 136.109 103.4 136.578 102.578L107.617 96.8281C107.45 96.7946 107.277 96.7946 107.11 96.8279C106.942 96.8613 106.782 96.9272 106.64 97.0222C106.498 97.1172 106.376 97.2391 106.281 97.3813C106.186 97.5234 106.12 97.6829 106.087 97.8506Z" fill="#FF5E6C"/>
<path d="M135.158 105.682C135.11 105.682 135.063 105.677 135.017 105.667L106.969 100.113C106.44 100.008 105.974 99.6973 105.674 99.2489C105.374 98.8006 105.264 98.2516 105.369 97.7224C105.474 97.1934 105.784 96.7275 106.233 96.4276C106.681 96.1275 107.23 96.018 107.759 96.1228L136.722 101.872C136.835 101.896 136.942 101.945 137.033 102.018C137.122 102.09 137.194 102.183 137.242 102.288C137.289 102.394 137.312 102.509 137.306 102.625C137.301 102.74 137.268 102.853 137.21 102.954C137.005 103.312 136.79 103.651 136.582 103.983C136.299 104.432 136.032 104.857 135.804 105.296C135.742 105.413 135.649 105.511 135.534 105.579C135.421 105.646 135.291 105.682 135.158 105.682ZM107.364 97.5357C107.232 97.536 107.104 97.5818 107.003 97.6654C106.901 97.7491 106.831 97.8654 106.805 97.9945C106.776 98.1425 106.807 98.2961 106.89 98.4217C106.932 98.4843 106.985 98.5382 107.048 98.5801C107.11 98.6219 107.18 98.651 107.254 98.6657L134.774 104.127C134.96 103.805 135.155 103.495 135.348 103.19L135.409 103.093L107.476 97.5456C107.439 97.5387 107.402 97.5354 107.364 97.5357Z" fill="#FF5E6C"/>
<path d="M180.385 111.275L156.469 106.524C155.593 107.341 154.49 107.929 153.446 108.578L179.878 113.828C180.045 113.861 180.218 113.861 180.386 113.828C180.553 113.794 180.713 113.728 180.855 113.634C180.997 113.538 181.118 113.417 181.214 113.274C181.309 113.132 181.375 112.973 181.408 112.805C181.441 112.638 181.441 112.465 181.408 112.298C181.375 112.13 181.309 111.971 181.213 111.829C181.118 111.686 180.997 111.564 180.855 111.469C180.713 111.375 180.553 111.308 180.385 111.275Z" fill="#FF5E6C"/>
<path d="M180.141 114.585C180.008 114.585 179.874 114.572 179.744 114.546L153.297 109.296C153.154 109.268 153.021 109.196 152.918 109.092C152.815 108.987 152.746 108.854 152.719 108.709C152.693 108.565 152.711 108.416 152.771 108.282C152.83 108.147 152.929 108.034 153.054 107.957L153.721 107.549C154.522 107.109 155.274 106.586 155.965 105.989C156.049 105.91 156.152 105.852 156.264 105.821C156.374 105.789 156.493 105.784 156.606 105.806L180.535 110.555C181.032 110.651 181.475 110.929 181.779 111.335C182.082 111.741 182.223 112.245 182.174 112.749C182.124 113.253 181.889 113.721 181.513 114.06C181.137 114.4 180.648 114.587 180.141 114.585ZM155.416 108.225L180.022 113.106C180.17 113.134 180.323 113.102 180.448 113.018C180.573 112.934 180.66 112.804 180.69 112.657C180.705 112.583 180.705 112.508 180.69 112.434C180.676 112.361 180.647 112.292 180.605 112.23C180.564 112.167 180.511 112.113 180.45 112.071C180.388 112.029 180.318 112 180.244 111.986L156.672 107.312C156.274 107.644 155.854 107.949 155.416 108.225Z" fill="#FF5E6C"/>
<path d="M174.56 113.503C174.451 113.505 174.343 113.483 174.243 113.438C174.144 113.392 174.056 113.325 173.986 113.241C173.915 113.158 173.865 113.059 173.837 112.953C173.809 112.847 173.807 112.737 173.828 112.629L174.336 110.077C174.373 109.886 174.485 109.718 174.647 109.61C174.807 109.502 175.005 109.462 175.196 109.5C175.387 109.537 175.554 109.649 175.663 109.81C175.771 109.972 175.811 110.169 175.773 110.36L175.266 112.915C175.233 113.079 175.145 113.226 175.017 113.333C174.888 113.44 174.727 113.5 174.56 113.503Z" fill="#FEB300"/>
<path d="M146.075 114.353C145.953 114.353 145.83 114.322 145.722 114.263C145.614 114.204 145.522 114.118 145.456 114.014C145.044 113.319 144.915 112.492 145.097 111.705C145.256 111.037 145.514 110.396 145.861 109.804C145.907 109.719 145.969 109.644 146.044 109.584C146.119 109.523 146.204 109.478 146.296 109.451C146.389 109.423 146.486 109.414 146.581 109.424C146.677 109.434 146.769 109.463 146.855 109.509C146.939 109.554 147.014 109.616 147.075 109.691C147.135 109.766 147.18 109.852 147.208 109.944C147.235 110.036 147.244 110.133 147.234 110.229C147.225 110.324 147.196 110.417 147.15 110.502C146.873 110.966 146.665 111.468 146.535 111.993C146.429 112.41 146.486 112.851 146.693 113.228C146.764 113.338 146.803 113.466 146.807 113.597C146.811 113.728 146.781 113.858 146.718 113.973C146.655 114.088 146.561 114.184 146.449 114.251C146.336 114.317 146.207 114.353 146.075 114.353Z" fill="#FFAAAB"/>
<path d="M138 112.042C137.877 112.042 137.755 112.011 137.647 111.952C137.539 111.892 137.447 111.807 137.381 111.702C136.968 111.007 136.84 110.179 137.024 109.391C137.181 108.723 137.439 108.083 137.788 107.493C137.831 107.405 137.893 107.326 137.967 107.262C138.042 107.198 138.129 107.15 138.222 107.12C138.317 107.091 138.416 107.08 138.513 107.09C138.611 107.099 138.707 107.128 138.793 107.175C138.879 107.222 138.956 107.286 139.016 107.363C139.078 107.44 139.123 107.528 139.149 107.623C139.176 107.718 139.182 107.817 139.169 107.915C139.157 108.012 139.124 108.106 139.074 108.191C138.798 108.654 138.591 109.156 138.459 109.679C138.354 110.097 138.411 110.539 138.617 110.917C138.689 111.027 138.728 111.155 138.732 111.286C138.736 111.417 138.704 111.547 138.642 111.662C138.579 111.777 138.486 111.873 138.373 111.939C138.261 112.006 138.132 112.041 138 112.042Z" fill="#FFAAAB"/>
<path d="M141.939 113.194C141.816 113.194 141.694 113.163 141.587 113.103C141.479 113.044 141.388 112.958 141.322 112.855C140.907 112.16 140.778 111.331 140.962 110.543C141.12 109.876 141.377 109.235 141.727 108.645C141.771 108.557 141.831 108.478 141.906 108.414C141.982 108.35 142.068 108.302 142.162 108.272C142.255 108.243 142.354 108.232 142.453 108.242C142.55 108.251 142.645 108.28 142.732 108.327C142.819 108.374 142.894 108.438 142.956 108.515C143.016 108.592 143.062 108.68 143.089 108.775C143.114 108.87 143.122 108.969 143.109 109.067C143.095 109.164 143.062 109.258 143.012 109.343C142.737 109.808 142.531 110.31 142.398 110.834C142.294 111.252 142.351 111.694 142.56 112.071C142.629 112.182 142.669 112.309 142.673 112.44C142.677 112.571 142.646 112.701 142.583 112.816C142.52 112.931 142.427 113.027 142.315 113.094C142.201 113.161 142.072 113.196 141.942 113.196L141.939 113.194Z" fill="#FFAAAB"/>
<path d="M98.8636 80.8093C99.0376 80.8093 99.1785 80.6684 99.1785 80.4945C99.1785 80.3207 99.0376 80.1797 98.8636 80.1797C98.6898 80.1797 98.5488 80.3207 98.5488 80.4945C98.5488 80.6684 98.6898 80.8093 98.8636 80.8093Z" fill="#FFAAAB"/>
<path d="M98.876 81.5416C98.6683 81.5421 98.4651 81.4809 98.2921 81.3658C98.1192 81.2507 97.9842 81.0868 97.9046 80.8949C97.8248 80.7031 97.8039 80.4919 97.8443 80.2881C97.8847 80.0843 97.9846 79.8972 98.1316 79.7502C98.2785 79.6033 98.4656 79.5034 98.6694 79.4629C98.8733 79.4225 99.0845 79.4434 99.2763 79.5232C99.4681 79.6029 99.6321 79.7379 99.7471 79.9107C99.8622 80.0837 99.9234 80.2869 99.9229 80.4947C99.9229 80.7724 99.8127 81.0386 99.6164 81.2349C99.4199 81.4313 99.1537 81.5416 98.876 81.5416ZM98.876 80.0774C98.7935 80.0774 98.7128 80.1018 98.6442 80.1477C98.5756 80.1936 98.5221 80.2587 98.4905 80.335C98.4589 80.4112 98.4506 80.4951 98.4668 80.576C98.4829 80.657 98.5226 80.7314 98.581 80.7897C98.6393 80.8481 98.7137 80.8878 98.7947 80.9039C98.8756 80.9201 98.9595 80.9118 99.0357 80.8802C99.112 80.8486 99.1771 80.7951 99.223 80.7265C99.2689 80.6579 99.2933 80.5772 99.2933 80.4947C99.2927 80.3842 99.2485 80.2785 99.1704 80.2003C99.0922 80.1222 98.9865 80.0779 98.876 80.0774Z" fill="#FFAAAB"/>
<path d="M109.345 77.9983C109.519 77.9983 109.66 77.8573 109.66 77.6835C109.66 77.5095 109.519 77.3687 109.345 77.3687C109.172 77.3687 109.031 77.5095 109.031 77.6835C109.031 77.8573 109.172 77.9983 109.345 77.9983Z" fill="#FFAAAB"/>
<path d="M109.345 78.7304C109.138 78.7304 108.936 78.6689 108.763 78.5539C108.591 78.4389 108.456 78.2753 108.377 78.084C108.298 77.8927 108.277 77.6823 108.318 77.4791C108.359 77.2761 108.458 77.0895 108.605 76.9431C108.751 76.7967 108.938 76.697 109.141 76.6566C109.344 76.6162 109.555 76.6369 109.745 76.7161C109.936 76.7954 110.101 76.9296 110.215 77.1018C110.33 77.2739 110.392 77.4764 110.392 77.6834C110.392 77.9609 110.281 78.2268 110.085 78.4231C109.889 78.6192 109.623 78.7297 109.345 78.7304ZM109.345 77.2661C109.262 77.2656 109.182 77.2897 109.112 77.3352C109.044 77.3808 108.99 77.4458 108.958 77.5221C108.925 77.5982 108.917 77.6822 108.933 77.7633C108.949 77.8444 108.988 77.919 109.046 77.9776C109.106 78.0362 109.179 78.0763 109.261 78.0926C109.341 78.1088 109.426 78.1007 109.502 78.0691C109.578 78.0377 109.644 77.9842 109.689 77.9155C109.735 77.8469 109.76 77.766 109.76 77.6834C109.76 77.5734 109.715 77.4679 109.637 77.3899C109.56 77.3118 109.454 77.2674 109.345 77.2661Z" fill="#FFAAAB"/>
<path d="M104.503 95.1686C104.352 95.1686 104.205 95.1217 104.081 95.0344C103.717 94.7839 103.303 94.6163 102.868 94.5433C102.432 94.4704 101.986 94.494 101.56 94.6122C101.468 94.6391 101.371 94.6473 101.275 94.6367C101.18 94.626 101.087 94.5965 101.003 94.5502C100.918 94.5037 100.844 94.441 100.784 94.3658C100.724 94.2907 100.679 94.2044 100.652 94.112C100.626 94.0196 100.617 93.9227 100.628 93.8271C100.639 93.7313 100.668 93.6388 100.715 93.5544C100.761 93.4701 100.824 93.3959 100.899 93.3357C100.974 93.2756 101.06 93.2309 101.153 93.2041C101.79 93.0218 102.46 92.9841 103.113 93.0939C103.767 93.2038 104.388 93.4581 104.931 93.8386C105.057 93.9283 105.153 94.056 105.202 94.2034C105.251 94.3507 105.253 94.5099 105.206 94.658C105.159 94.8061 105.066 94.9354 104.94 95.0273C104.815 95.1191 104.664 95.1686 104.508 95.1686H104.503Z" fill="#FFAAAB"/>
<path d="M188.439 211.286C171.927 211.286 157.004 209.821 156.755 209.799C156.594 209.783 156.443 209.713 156.326 209.602C156.208 209.49 156.131 209.342 156.106 209.182C156.082 209.021 156.111 208.858 156.19 208.715C156.268 208.575 156.391 208.463 156.54 208.398C169.87 202.685 179.017 190.355 179.107 190.229C179.175 190.137 179.265 190.062 179.367 190.01C179.469 189.958 179.583 189.932 179.698 189.932C206.298 189.932 229.56 177.1 229.792 176.971C229.902 176.909 230.029 176.876 230.156 176.877C230.283 176.878 230.408 176.913 230.518 176.976C230.629 177.04 230.72 177.133 230.784 177.242C230.848 177.352 230.882 177.478 230.882 177.605C230.953 195.468 220.184 208.123 220.073 208.247C219.976 208.361 219.846 208.442 219.701 208.478C211.163 210.636 199.45 211.286 188.439 211.286ZM159.611 208.581C169.081 209.37 201.124 211.574 219.115 207.117C220.335 205.604 229.033 194.381 229.411 178.831C224.471 181.362 203.603 191.291 180.066 191.393C178.655 193.217 170.808 202.93 159.611 208.581Z" fill="#FFAAAB"/>
<path d="M185.82 206.061C185.687 206.061 185.557 206.024 185.444 205.956C185.33 205.887 185.237 205.789 185.175 205.671C185.113 205.554 185.084 205.422 185.091 205.29C185.097 205.157 185.141 205.029 185.215 204.92C187.704 201.243 190.074 197.42 192.259 193.554C192.355 193.386 192.515 193.262 192.704 193.21C192.892 193.16 193.092 193.185 193.261 193.283C193.431 193.38 193.553 193.541 193.604 193.728C193.656 193.916 193.629 194.118 193.532 194.286C191.336 198.191 188.939 202.041 186.428 205.756C186.359 205.852 186.268 205.931 186.161 205.983C186.056 206.036 185.939 206.064 185.82 206.061Z" fill="#FEB300"/>
<path d="M193.132 203.274C193.003 203.274 192.875 203.239 192.764 203.174C192.652 203.108 192.559 203.014 192.496 202.902C192.433 202.789 192.4 202.661 192.401 202.532C192.402 202.403 192.438 202.277 192.505 202.165L196.005 196.326C196.103 196.16 196.265 196.039 196.454 195.991C196.642 195.944 196.842 195.974 197.008 196.073C197.175 196.173 197.295 196.335 197.342 196.523C197.39 196.711 197.361 196.91 197.261 197.077L193.764 202.917C193.699 203.026 193.606 203.117 193.495 203.179C193.384 203.242 193.259 203.274 193.132 203.274Z" fill="#FEB300"/>
<path d="M208.072 206.06C207.952 206.061 207.833 206.031 207.728 205.975C207.642 205.929 207.567 205.869 207.507 205.794C207.445 205.72 207.399 205.634 207.371 205.542C207.343 205.45 207.333 205.354 207.342 205.258C207.351 205.162 207.38 205.07 207.425 204.984C210.048 200.074 212.63 193.109 214.045 188.634C214.106 188.451 214.236 188.299 214.407 188.211C214.579 188.123 214.779 188.107 214.962 188.165C215.146 188.223 215.299 188.351 215.388 188.522C215.479 188.692 215.498 188.89 215.442 189.075C214.007 193.607 211.386 200.675 208.718 205.67C208.656 205.787 208.563 205.886 208.449 205.954C208.335 206.024 208.205 206.06 208.072 206.06Z" fill="#FEB300"/>
<path d="M202.984 206.73C202.858 206.73 202.733 206.697 202.623 206.635C202.513 206.572 202.421 206.482 202.356 206.374C202.29 206.266 202.255 206.143 202.251 206.016C202.248 205.89 202.277 205.765 202.336 205.653C204.96 200.743 207.542 193.778 208.958 189.303C209.018 189.119 209.149 188.968 209.32 188.88C209.491 188.792 209.69 188.776 209.874 188.834C210.057 188.892 210.211 189.019 210.301 189.191C210.39 189.36 210.409 189.559 210.353 189.744C208.918 194.276 206.298 201.343 203.631 206.339C203.569 206.456 203.475 206.555 203.361 206.623C203.247 206.693 203.117 206.729 202.984 206.73Z" fill="#FEB300"/>
<path d="M106.268 176.79C106.106 176.79 105.948 176.736 105.82 176.638C105.692 176.537 105.6 176.399 105.56 176.243C105.519 176.086 105.531 175.92 105.595 175.77C105.659 175.621 105.77 175.497 105.912 175.418C111.062 172.547 116.502 170.225 122.141 168.495C122.323 168.448 122.516 168.473 122.682 168.565C122.847 168.657 122.969 168.809 123.024 168.989C123.08 169.169 123.064 169.364 122.978 169.533C122.894 169.701 122.748 169.83 122.57 169.894C117.031 171.595 111.685 173.875 106.624 176.698C106.515 176.759 106.393 176.79 106.268 176.79Z" fill="white"/>
<path d="M150.686 110.307C150.504 110.304 150.329 110.235 150.196 110.111C150.062 109.987 149.98 109.818 149.965 109.637C149.949 109.456 150.002 109.275 150.112 109.131C150.223 108.986 150.382 108.887 150.561 108.855C152.736 108.469 157.609 104.767 157.99 102.373C158.006 102.278 158.038 102.187 158.09 102.105C158.14 102.023 158.206 101.951 158.283 101.895C158.362 101.839 158.451 101.798 158.544 101.776C158.638 101.753 158.735 101.75 158.83 101.765C158.925 101.78 159.015 101.814 159.097 101.865C159.18 101.915 159.251 101.981 159.308 102.059C159.363 102.137 159.404 102.225 159.426 102.319C159.449 102.412 159.453 102.51 159.437 102.605C158.902 105.948 153.255 109.865 150.815 110.297C150.772 110.304 150.73 110.307 150.686 110.307Z" fill="#FFAAAB"/>
<path d="M136.632 111.583C135.918 111.58 135.224 111.35 134.65 110.926C133.43 110.011 133.115 108.422 133.822 106.68L133.837 106.643C134.835 104.52 138.079 98.5217 138.566 97.8335C140.072 95.7177 152.305 92.9331 154.444 93.4408C154.633 93.4854 154.797 93.6033 154.898 93.7685C155.001 93.9338 155.032 94.1327 154.988 94.3218C154.943 94.5107 154.826 94.6743 154.66 94.7763C154.495 94.8783 154.296 94.9106 154.107 94.866C153.389 94.6976 150.375 95.1099 146.578 96.0984C142.128 97.2575 140.035 98.2947 139.76 98.6852C139.36 99.2489 136.212 105.045 135.172 107.251C134.725 108.361 134.852 109.252 135.526 109.755C136.114 110.194 136.941 110.216 137.288 109.94C137.363 109.878 137.45 109.831 137.543 109.803C137.635 109.774 137.734 109.765 137.83 109.775C137.927 109.784 138.021 109.814 138.107 109.86C138.192 109.907 138.268 109.97 138.329 110.046C138.39 110.123 138.434 110.21 138.461 110.304C138.487 110.398 138.495 110.496 138.483 110.593C138.471 110.689 138.44 110.783 138.391 110.867C138.342 110.952 138.278 111.026 138.2 111.085C137.748 111.422 137.195 111.598 136.632 111.583Z" fill="#FFAAAB"/>
</g>
<defs>
<clipPath id="clip0_2107_1688">
<rect width="370" height="198" fill="white"/>
</clipPath>
</defs>
</svg>
