<svg width="382" height="184" viewBox="0 0 382 184" fill="none" xmlns="http://www.w3.org/2000/svg">
<g clip-path="url(#clip0_2107_2027)">
<path d="M120.827 201.541C120.639 201.541 120.458 201.477 120.311 201.361C120.137 201.225 120.025 201.025 119.999 200.806C119.973 200.588 120.035 200.367 120.172 200.195C122.931 196.714 126.557 192.214 131.26 186.445C131.403 186.285 131.602 186.187 131.815 186.17C132.028 186.155 132.239 186.221 132.405 186.355C132.571 186.489 132.679 186.682 132.706 186.894C132.733 187.105 132.678 187.32 132.551 187.492C127.854 193.258 124.222 197.745 121.479 201.225C121.402 201.324 121.302 201.404 121.189 201.458C121.077 201.513 120.953 201.541 120.827 201.541Z" fill="#FEB300"/>
<path d="M174.765 40.2894C178.188 37.8951 180.852 34.578 183.233 31.1445C181.783 34.0072 184.676 37.4627 187.839 38.0309C191.001 38.599 194.158 37.3437 197.265 36.5289C200.371 35.7142 208.034 36.0051 210.779 40.3392L210.593 50.3155C221.521 45.6904 225.863 48.7775 226.202 52.5325C226.523 56.0046 222.743 62.4254 212.32 64.357C212.32 64.357 211.97 68.6883 209.78 72.2742C213.456 72.3657 219.008 75.2588 225.763 75.2365C230.241 75.2199 234.508 73.319 238.05 70.5865C242.881 66.8565 247.024 61.5137 247.143 55.4199C247.263 49.3262 241.843 43.0578 235.825 44.0776C237.879 40.1979 239.375 35.8333 239.006 31.4465C238.637 27.0598 236.077 22.6703 231.965 21.0768C223.914 17.9593 214.608 26.2922 206.701 22.8615C201.013 20.3952 198.783 12.8104 192.967 10.6684C189.107 9.24113 184.652 10.7292 181.504 13.3786C178.354 16.0278 176.256 19.6775 174.215 23.2467C171.897 19.2369 168.069 15.651 163.438 15.3988C157.979 15.0994 153.354 19.4558 150.522 24.1252C147.345 29.3821 145.513 35.3389 145.186 41.4699C149.453 40.2173 153.715 42.7142 157.68 43.9113C159.404 44.4295 161.309 44.8839 163.11 44.5487C164.738 44.2467 166.303 43.6175 167.927 43.2767C170.386 42.7541 172.712 41.7377 174.765 40.2894Z" fill="#FFAAAB"/>
<path d="M225.671 76.068C221.626 76.068 217.967 75.0428 215.024 74.2169C212.955 73.6406 211.17 73.1389 209.75 73.1086C209.603 73.1055 209.459 73.064 209.334 72.9883C209.209 72.9125 209.106 72.8052 209.036 72.677C208.966 72.5489 208.931 72.4045 208.934 72.2583C208.937 72.1123 208.978 71.9696 209.055 71.8449C211.112 68.4779 211.472 64.3349 211.475 64.2934C211.491 64.111 211.566 63.9384 211.688 63.8027C211.811 63.6669 211.975 63.5754 212.157 63.5425C221.687 61.7772 225.668 55.9772 225.359 52.6129C225.32 52.0056 225.13 51.4174 224.809 50.8997C224.489 50.3819 224.046 49.9502 223.519 49.6422C222.092 48.7888 218.555 47.8437 210.918 51.0777C210.79 51.1318 210.651 51.1532 210.512 51.1398C210.374 51.1264 210.241 51.0786 210.127 51.0009C210.011 50.9233 209.918 50.8181 209.853 50.6951C209.789 50.5719 209.757 50.4348 209.76 50.2962L209.94 40.5777C207.414 36.9752 200.536 36.5263 197.476 37.3272C196.897 37.4796 196.301 37.6515 195.724 37.8176C193.127 38.5659 190.448 39.3419 187.688 38.8458C186.607 38.6266 185.588 38.1703 184.705 37.5098C183.822 36.8495 183.097 36.0014 182.582 35.0271C182.417 34.6989 182.284 34.3543 182.188 33.9989C180.344 36.4182 178.046 38.9871 175.248 40.9629C173.105 42.4713 170.676 43.5292 168.11 44.0723C167.377 44.2246 166.664 44.438 165.908 44.6624C165.043 44.9368 164.163 45.1652 163.273 45.3469C161.3 45.7127 159.309 45.2472 157.443 44.6874C156.458 44.3909 155.447 44.014 154.468 43.6481C151.477 42.5398 148.384 41.3758 145.416 42.2487C145.29 42.2858 145.155 42.2922 145.025 42.2673C144.896 42.2425 144.773 42.1871 144.67 42.106C144.566 42.0248 144.482 41.9199 144.427 41.8002C144.372 41.6805 144.346 41.5493 144.35 41.4174C144.68 35.1477 146.553 29.0559 149.806 23.682C151.544 20.8221 156.372 14.1712 163.482 14.5565C167.432 14.7727 171.356 17.3803 174.185 21.612C175.978 18.5054 178.049 15.1855 180.965 12.7441C183.879 10.3027 188.696 8.20215 193.252 9.88983C196.448 11.0703 198.597 13.7363 200.674 16.3134C202.617 18.7161 204.443 20.9884 207.031 22.1106C210.756 23.7262 214.863 22.5264 219.21 21.2544C223.559 19.9824 228.037 18.6717 232.258 20.3123C236.363 21.9028 239.402 26.3561 239.827 31.3968C240.132 35.0216 239.272 38.879 237.222 43.1577C239.419 43.1854 241.595 44.05 243.483 45.674C246.321 48.1126 248.039 51.8619 247.968 55.4561C247.821 63.002 242.005 68.5971 238.55 71.2518C235.715 73.4411 231.192 76.0543 225.756 76.0764L225.671 76.068ZM211.123 71.5677C212.597 71.8305 214.052 72.1812 215.482 72.618C218.475 73.4493 221.868 74.4053 225.677 74.4053H225.759C230.727 74.386 234.908 71.9612 237.54 69.93C240.757 67.4359 246.177 62.2566 246.31 55.4035C246.374 52.2914 244.875 49.0298 242.403 46.9126C240.46 45.25 238.169 44.5267 235.962 44.8979C235.81 44.924 235.652 44.9068 235.509 44.8482C235.365 44.7897 235.24 44.6923 235.15 44.567C235.058 44.4417 235.003 44.2933 234.992 44.1389C234.982 43.9843 235.014 43.8297 235.086 43.6925C237.476 39.1672 238.487 35.185 238.176 31.5188C237.803 27.1016 235.188 23.2191 231.664 21.853C227.956 20.4147 223.933 21.5924 219.677 22.8395C215.234 24.1365 210.646 25.4804 206.365 23.6238C203.4 22.3379 201.354 19.7996 199.374 17.3443C197.347 14.8336 195.435 12.4614 192.669 11.4362C189.467 10.2528 185.295 11.2587 182.035 14.0023C178.965 16.5878 176.917 20.1764 174.934 23.6459C174.861 23.7735 174.757 23.8796 174.631 23.9535C174.504 24.0275 174.359 24.0666 174.212 24.0671C174.067 24.0668 173.923 24.0282 173.797 23.9552C173.671 23.8823 173.566 23.7776 173.493 23.6515C170.917 19.201 167.14 16.4215 163.391 16.2164C159.07 15.9836 154.536 19.0957 151.233 24.5438C148.317 29.3641 146.556 34.7917 146.088 40.4031C149.184 39.9072 152.163 41.0184 155.056 42.0992C156.053 42.4704 156.998 42.8224 157.929 43.1051C159.595 43.6039 161.344 44.0222 162.966 43.7202C163.797 43.549 164.619 43.3345 165.428 43.0773C166.183 42.8529 166.966 42.6201 167.763 42.4538C170.109 41.9583 172.329 40.9899 174.287 39.6079C177.814 37.1415 180.445 33.708 182.552 30.6736C182.672 30.4999 182.854 30.3783 183.06 30.3335C183.268 30.2886 183.483 30.324 183.665 30.4321C183.847 30.5403 183.98 30.7134 184.038 30.9163C184.097 31.1191 184.076 31.3365 183.98 31.5243C183.775 31.9611 183.677 32.4399 183.694 32.9215C183.711 33.4033 183.842 33.8742 184.076 34.2955C184.47 35.0417 185.026 35.6909 185.703 36.1961C186.379 36.7014 187.16 37.0499 187.989 37.2163C190.359 37.6431 192.741 36.9558 195.262 36.2298C195.85 36.0607 196.455 35.8862 197.055 35.7282C200.471 34.8332 208.47 35.1379 211.492 39.8988C211.581 40.0362 211.625 40.1961 211.624 40.3588L211.451 49.088C218.582 46.3168 222.404 47.0622 224.374 48.2373C225.127 48.677 225.763 49.2922 226.224 50.03C226.687 50.7678 226.965 51.6066 227.032 52.4744C227.4 56.487 223.303 62.9605 213.078 65.072C212.772 67.3262 212.112 69.5182 211.123 71.5677Z" fill="#FFAAAB"/>
<path d="M182.852 88.3303C181.464 88.3303 180.68 87.2219 180.076 86.349C179.617 85.695 179.185 85.0798 178.606 84.9273C177.708 84.6945 175.991 84.3732 175.067 84.2013L174.511 84.096C174.295 84.0533 174.104 83.9265 173.981 83.7434C173.858 83.5601 173.812 83.3356 173.855 83.1192C173.897 82.9027 174.026 82.712 174.209 82.5891C174.392 82.4663 174.617 82.4211 174.834 82.4638L175.39 82.569C176.334 82.7437 178.09 83.0706 179.046 83.32C180.218 83.6277 180.874 84.5671 181.455 85.3957C182.086 86.2962 182.416 86.6926 182.927 86.6649C183.935 86.6205 184.592 85.6838 185.148 84.9301C185.341 84.636 185.562 84.3622 185.809 84.1126C187.117 82.9044 188.916 82.982 190.5 83.0512L190.867 83.0678C201.497 83.4836 210.493 74.9511 211.347 63.6697C211.362 63.4766 211.443 63.2947 211.578 63.1551C211.712 63.0154 211.891 62.927 212.083 62.9049C215.743 62.4891 221.073 60.0311 223.658 56.6365C224.768 55.165 225.233 53.7129 225.01 52.319C224.95 51.8738 224.782 51.45 224.521 51.084C224.26 50.7181 223.913 50.4211 223.511 50.2185C220.379 48.5226 213.469 50.2462 210.634 51.5015C210.501 51.5605 210.354 51.5836 210.209 51.5682C210.064 51.5529 209.925 51.4997 209.808 51.4142C209.69 51.3287 209.595 51.2136 209.536 51.0805C209.476 50.9475 209.453 50.8012 209.468 50.6563C209.837 47.1403 209.93 43.6009 209.746 40.0705C209.734 39.85 209.811 39.6338 209.959 39.4696C210.107 39.3054 210.313 39.2065 210.535 39.1948C210.756 39.183 210.971 39.2592 211.136 39.4068C211.301 39.5545 211.401 39.7613 211.411 39.9817C211.581 43.1459 211.533 46.3181 211.271 49.4757C214.697 48.2593 220.921 46.9125 224.319 48.7581C224.948 49.0786 225.491 49.546 225.9 50.1206C226.309 50.6952 226.574 51.3601 226.67 52.0585C226.962 53.8902 226.393 55.8218 225.005 57.6424C222.207 61.3169 216.881 63.8193 212.966 64.4622C212.427 70.0367 209.875 75.2253 205.788 79.0607C201.622 82.9404 196.306 84.9412 190.822 84.7334L190.448 84.7195C189.124 84.6613 187.755 84.6003 186.958 85.3374C186.801 85.512 186.657 85.6972 186.526 85.8918C185.901 86.773 184.859 88.2472 183.03 88.3275L182.852 88.3303Z" fill="white"/>
<path d="M170.559 29.1993C170.337 29.1993 170.126 29.1117 169.969 28.9557C169.813 28.7999 169.726 28.5884 169.726 28.3678C169.726 27.4286 171.367 23.269 172.898 20.6336C172.95 20.5342 173.022 20.4464 173.109 20.3754C173.196 20.3045 173.297 20.2517 173.404 20.2205C173.513 20.1892 173.626 20.1801 173.737 20.1937C173.849 20.2072 173.957 20.2431 174.053 20.2992C174.151 20.3553 174.236 20.4304 174.304 20.5202C174.371 20.6099 174.42 20.7123 174.446 20.8212C174.473 20.93 174.476 21.0433 174.459 21.1538C174.441 21.2645 174.4 21.3703 174.34 21.465C172.827 24.0671 171.438 27.7943 171.391 28.3928C171.385 28.609 171.295 28.8141 171.139 28.9647C170.983 29.1152 170.775 29.1993 170.559 29.1993Z" fill="#2B1927"/>
<path d="M125.874 42.6447C125.438 41.2592 123.248 32.1143 122.898 30.701C122.184 27.8411 125.03 27.6527 126.896 27.2647C135.463 25.422 136.89 25.4468 136.496 29.9362C136.094 34.6472 135.586 39.4135 135.169 41.7218L125.874 42.6447Z" fill="white"/>
<path d="M125.874 43.4763C125.697 43.4763 125.524 43.4197 125.381 43.3152C125.239 43.2104 125.133 43.0632 125.08 42.8944C124.741 41.822 123.414 36.3295 122.614 33.0485C122.365 32.0286 122.173 31.2389 122.09 30.9007C121.84 29.8976 121.934 29.0414 122.368 28.3569C123.148 27.1375 124.783 26.8271 126.096 26.575C126.31 26.5363 126.521 26.4946 126.718 26.453C132.548 25.1977 135.066 24.8042 136.435 26.0097C137.385 26.841 137.476 28.2101 137.321 30.0057C136.865 35.3291 136.363 39.7657 135.982 41.8691C135.95 42.0466 135.861 42.2088 135.728 42.3314C135.596 42.4538 135.427 42.5299 135.247 42.548L125.952 43.4708L125.874 43.4763ZM133.972 26.9436C132.498 26.9436 130.086 27.4313 127.07 28.077C126.862 28.1241 126.64 28.1657 126.412 28.2101C125.413 28.4012 124.169 28.6368 123.775 29.2519C123.592 29.5291 123.567 29.9476 123.706 30.499C123.792 30.837 123.983 31.6324 124.233 32.6578C124.872 35.2959 125.988 39.8988 126.485 41.7472L134.453 40.9574C134.811 38.7154 135.255 34.6613 135.666 29.8727C135.796 28.3819 135.694 27.5781 135.338 27.265C135.091 27.0378 134.625 26.9436 133.972 26.9436Z" fill="white"/>
<path d="M177.255 78.4623L173.702 42.8334C173.572 41.5383 172.932 40.3476 171.924 39.523C170.914 38.6984 169.619 38.3072 168.321 38.4357L115.952 43.6315C115.309 43.6954 114.685 43.8849 114.116 44.1893C113.547 44.4938 113.043 44.9071 112.634 45.4058C112.225 45.9046 111.918 46.4788 111.731 47.0959C111.545 47.7129 111.482 48.3607 111.546 49.002L112.043 53.9902C112.569 53.0574 113.346 52.2896 114.286 51.7732C115.396 51.4961 116.846 52.0504 116.846 53.1589C117.537 56.6062 114.797 58.9423 112.795 61.525L112.831 61.8853C115.346 58.9534 119.9 54.173 121.565 55.7055C124.436 57.745 117.773 63.1656 115.552 66.2138C117.495 64.2739 121.907 61.4085 123.295 63.0712C126.102 65.6901 118.606 70.3706 116.107 73.4188C118.051 72.0333 120.61 71.5399 122.831 70.4314C124.497 69.8773 126.163 72.1551 124.755 73.2636C121.876 75.4806 117.59 77.7834 114.658 79.6983L115.099 84.6337C115.229 85.9288 115.869 87.1196 116.878 87.9443C117.886 88.7689 119.182 89.16 120.48 89.0316L172.85 83.8274C174.146 83.6978 175.338 83.0601 176.164 82.0543C176.99 81.0486 177.383 79.7567 177.255 78.4623Z" fill="#FEB300"/>
<path d="M119.988 89.8824C118.563 89.8792 117.19 89.3488 116.134 88.3937C115.078 87.4386 114.415 86.1266 114.272 84.7115L113.828 79.7676C113.814 79.6181 113.842 79.4678 113.908 79.3325C113.973 79.1975 114.074 79.0825 114.2 79C115.271 78.2989 116.501 77.559 117.809 76.783C120.091 75.4114 122.451 73.9925 124.255 72.607C124.491 72.4185 124.533 72.1525 124.347 71.8228C124.24 71.605 124.065 71.4277 123.85 71.3169C123.633 71.2061 123.387 71.1678 123.148 71.2074C122.244 71.6345 121.317 72.0119 120.372 72.3382C118.983 72.8453 117.676 73.3247 116.598 74.0951C116.434 74.2106 116.233 74.2631 116.033 74.2427C115.834 74.2221 115.648 74.1302 115.51 73.9835C115.373 73.837 115.293 73.6458 115.286 73.4452C115.279 73.2447 115.345 73.0483 115.471 72.8924C116.221 71.9751 117.351 70.9525 118.547 69.8911C120.566 68.0816 123.076 65.8342 123.089 64.4236C123.091 64.2809 123.06 64.1398 122.998 64.0109C122.937 63.8823 122.846 63.7693 122.734 63.681L122.662 63.6062C122.598 63.536 122.518 63.4815 122.43 63.4469C122.341 63.4123 122.246 63.3985 122.151 63.4066H122.073C120.624 63.4066 117.778 65.1774 116.149 66.8041C116.001 66.9547 115.801 67.0436 115.591 67.0529C115.38 67.0622 115.173 66.9911 115.013 66.8542C114.852 66.7172 114.75 66.5246 114.726 66.3151C114.703 66.1057 114.759 65.8951 114.885 65.7261C115.652 64.7395 116.47 63.7941 117.337 62.8941C119.128 60.9542 121.585 58.2827 121.443 56.9305C121.433 56.8167 121.395 56.7071 121.334 56.6108C121.273 56.5143 121.189 56.4339 121.09 56.3761C121.062 56.3557 121.035 56.3335 121.01 56.3097C120.979 56.2819 120.921 56.2266 120.732 56.2376C119.741 56.2958 117.315 57.9502 113.484 62.4228C113.377 62.5472 113.237 62.6376 113.08 62.6828C112.922 62.7279 112.755 62.7257 112.599 62.6767C112.443 62.6276 112.305 62.5338 112.202 62.4068C112.099 62.2798 112.036 62.1254 112.02 61.9629L111.984 61.6026C111.964 61.3912 112.026 61.18 112.156 61.0123C112.523 60.5357 112.914 60.0701 113.295 59.6268C114.96 57.6398 116.537 55.7637 116.049 53.3223C116.039 53.2694 116.034 53.2156 116.035 53.1616C116.034 53.0918 116.015 53.0234 115.98 52.9627C115.945 52.9022 115.895 52.8514 115.835 52.8152C115.47 52.5707 115.023 52.48 114.591 52.5631C113.831 53.0116 113.204 53.6533 112.773 54.4226C112.682 54.5717 112.546 54.6886 112.385 54.7566C112.224 54.8246 112.046 54.8402 111.875 54.8013C111.705 54.7623 111.551 54.6708 111.435 54.5397C111.32 54.4084 111.249 54.2444 111.232 54.0706L110.732 49.088C110.583 47.574 111.041 46.0625 112.006 44.8853C112.972 43.708 114.366 42.9612 115.882 42.8086L168.252 37.6043C169.004 37.5293 169.763 37.6028 170.485 37.8207C171.208 38.0387 171.881 38.3966 172.465 38.8744C173.05 39.3521 173.534 39.9399 173.89 40.6047C174.247 41.2692 174.469 41.9973 174.543 42.7476L178.096 78.3737C178.171 79.125 178.095 79.8835 177.875 80.6057C177.655 81.3279 177.294 81.9996 176.813 82.5824C176.332 83.1653 175.741 83.6476 175.073 84.0021C174.406 84.3564 173.674 84.5758 172.921 84.6477L120.563 89.8547C120.372 89.8736 120.18 89.8829 119.988 89.8824ZM115.53 80.1252L115.929 84.559C116.039 85.6335 116.572 86.6205 117.409 87.3041C118.247 87.9877 119.322 88.3118 120.399 88.2059L172.766 82.9988C173.3 82.9462 173.818 82.7888 174.291 82.5361C174.763 82.2832 175.182 81.9398 175.523 81.5255C175.862 81.1109 176.117 80.6337 176.272 80.121C176.427 79.6083 176.479 79.0702 176.425 78.5372L172.871 42.9112C172.764 41.8353 172.233 40.8465 171.394 40.1615C170.555 39.4766 169.479 39.1519 168.402 39.2586L116.035 44.4574C114.957 44.5659 113.967 45.0966 113.281 45.933C112.595 46.7695 112.27 47.8432 112.376 48.9189L112.676 51.887C113.048 51.5427 113.467 51.2517 113.919 51.0224C113.974 50.9966 114.03 50.9763 114.089 50.9614C114.56 50.8448 115.05 50.8323 115.526 50.9246C116.002 51.017 116.453 51.212 116.846 51.4962C117.091 51.6801 117.293 51.9158 117.437 52.1864C117.581 52.457 117.663 52.7559 117.678 53.0619C117.87 54.0623 117.809 55.0949 117.501 56.0659C118.742 55.1236 119.783 54.6276 120.616 54.5778C120.881 54.5554 121.147 54.5857 121.401 54.667C121.654 54.7484 121.888 54.879 122.09 55.0516C122.369 55.2472 122.602 55.5 122.775 55.793C122.948 56.0859 123.056 56.4123 123.092 56.7503C123.256 58.3244 121.934 60.1976 120.274 62.1069C120.892 61.86 121.552 61.7357 122.218 61.7412C122.534 61.7436 122.847 61.8116 123.136 61.9409C123.426 62.0702 123.685 62.2579 123.897 62.4922C124.166 62.7387 124.381 63.0386 124.527 63.3726C124.674 63.7066 124.748 64.0675 124.747 64.432C124.727 66.4106 122.526 68.5361 120.216 70.6116C120.98 70.3427 121.729 70.032 122.459 69.6806C122.494 69.6626 122.53 69.6468 122.568 69.6335C123.956 69.1763 125.244 69.9854 125.805 71.019C126.366 72.0526 126.163 73.2 125.269 73.9039C123.384 75.3559 120.982 76.7996 118.658 78.1935C117.542 78.8753 116.476 79.5155 115.53 80.1252Z" fill="#FEB300"/>
<path d="M140.08 79.892C137.125 79.891 134.233 79.0339 131.756 77.4247C129.279 75.8155 127.323 73.5234 126.126 70.8264C124.928 68.1295 124.541 65.1437 125.01 62.2312C125.479 59.3185 126.785 56.6045 128.769 54.4182C130.753 52.232 133.33 50.6673 136.188 49.9142C139.045 49.1612 142.061 49.2521 144.867 50.1758C147.674 51.0995 150.151 52.8163 152.001 55.1181C153.849 57.4198 154.988 60.2076 155.28 63.1432C155.682 67.1643 154.466 71.1797 151.902 74.3064C149.337 77.4331 145.633 79.4153 141.605 79.8173C141.092 79.8672 140.584 79.892 140.08 79.892ZM140.117 51.0719C138.215 51.0689 136.334 51.4637 134.594 52.2312C132.855 52.9986 131.296 54.1215 130.018 55.5274C128.741 56.9334 127.773 58.591 127.176 60.3933C126.58 62.1958 126.369 64.103 126.557 65.9919C126.894 69.3395 128.464 72.4432 130.961 74.7026C133.459 76.9622 136.707 78.2167 140.078 78.2239C140.531 78.2242 140.984 78.201 141.435 78.1545C145.024 77.7967 148.323 76.0316 150.608 73.2468C152.893 70.4621 153.976 66.8858 153.62 63.3039C153.287 59.9575 151.72 56.8539 149.224 54.5942C146.73 52.3346 143.483 51.0794 140.114 51.0719H140.117Z" fill="#2B1927"/>
<path d="M140.086 70.5035C138.952 70.5039 137.841 70.1756 136.89 69.5585C135.939 68.9414 135.188 68.0618 134.727 67.0268C134.267 65.9918 134.118 64.8456 134.298 63.7275C134.477 62.6094 134.978 61.5674 135.739 60.7278C136.501 59.8882 137.49 59.2874 138.586 58.9979C139.683 58.7086 140.841 58.7432 141.919 59.0975C142.995 59.4518 143.947 60.1107 144.657 60.9942C145.366 61.8776 145.804 62.9476 145.916 64.0745C146.069 65.6178 145.601 67.1582 144.618 68.3582C143.632 69.5582 142.212 70.3197 140.666 70.4758C140.475 70.4953 140.28 70.5035 140.086 70.5035ZM140.086 60.4664C139.945 60.4664 139.808 60.4664 139.661 60.4886C138.836 60.5705 138.053 60.8951 137.412 61.4212C136.771 61.9473 136.301 62.6514 136.061 63.4443C135.821 64.2372 135.822 65.0833 136.063 65.8756C136.305 66.6679 136.777 67.3709 137.419 67.8955C138.061 68.4201 138.845 68.7429 139.671 68.8229C140.497 68.9029 141.328 68.7367 142.059 68.3451C142.791 67.9536 143.39 67.3544 143.779 66.6234C144.169 65.8922 144.333 65.0621 144.251 64.2379C144.147 63.2063 143.664 62.2493 142.895 61.5526C142.126 60.8559 141.125 60.4688 140.086 60.4664Z" fill="#2B1927"/>
<path d="M155.986 45.0835C155.764 45.0942 155.549 45.0167 155.386 44.8684C155.221 44.72 155.123 44.5129 155.112 44.2924C155.101 44.0718 155.179 43.8561 155.328 43.6926C155.477 43.5292 155.685 43.4315 155.905 43.4208L167.108 42.3123C167.217 42.3015 167.328 42.3122 167.432 42.3439C167.537 42.3754 167.635 42.4276 167.721 42.4971C167.806 42.5665 167.876 42.652 167.928 42.7488C167.98 42.8455 168.012 42.9514 168.023 43.0606C168.035 43.1697 168.025 43.2799 167.993 43.385C167.96 43.49 167.909 43.5879 167.838 43.6728C167.77 43.7577 167.684 43.828 167.586 43.88C167.49 43.9318 167.383 43.9642 167.275 43.975L156.068 45.0835H155.986Z" fill="white"/>
<path d="M162.882 51.0774C162.462 51.0774 162.051 50.953 161.703 50.7199C161.353 50.4868 161.081 50.1555 160.919 49.768C160.759 49.3804 160.718 48.9542 160.8 48.5428C160.881 48.1315 161.084 47.7537 161.382 47.4574C161.678 47.161 162.057 46.9593 162.47 46.8779C162.882 46.7963 163.31 46.8387 163.698 46.9997C164.086 47.1605 164.417 47.4327 164.649 47.7816C164.883 48.1306 165.007 48.5407 165.007 48.9601C165.005 49.5219 164.782 50.0604 164.383 50.4574C163.985 50.8544 163.446 51.0774 162.882 51.0774ZM162.882 48.5029C162.792 48.5029 162.703 48.5297 162.628 48.58C162.552 48.6302 162.494 48.7017 162.459 48.7853C162.424 48.8688 162.416 48.9607 162.433 49.0495C162.451 49.138 162.494 49.2196 162.558 49.2835C162.622 49.3475 162.705 49.391 162.793 49.4086C162.882 49.4263 162.974 49.4172 163.058 49.3826C163.142 49.348 163.213 49.2894 163.264 49.2143C163.314 49.1391 163.34 49.0507 163.34 48.9601C163.34 48.8389 163.293 48.7226 163.206 48.6369C163.12 48.5511 163.004 48.5029 162.882 48.5029Z" fill="white"/>
<path d="M116.457 200.26C111.717 212.824 107.219 225.478 102.962 238.226C102.406 239.888 101.851 241.723 102.498 243.355C103.384 245.614 106.079 246.468 108.442 247.041L139.917 254.708C139.562 254.623 139.917 247.689 139.947 246.985C140.018 244.41 140.147 241.838 140.336 239.27C140.721 234.078 141.349 228.905 142.218 223.752C142.656 221.154 143.157 218.568 143.721 215.992C144.115 214.182 145.158 211.836 144.625 209.959C144.207 208.491 142.748 207.826 141.408 207.386C138.934 206.573 136.385 205.942 133.884 205.227L116.457 200.26Z" fill="#FFAAAB"/>
<path d="M139.916 255.54C139.85 255.54 139.784 255.531 139.719 255.514L108.233 247.855C105.432 247.177 102.703 246.193 101.709 243.669C100.923 241.667 101.667 239.443 102.159 237.97C106.401 225.278 110.946 212.493 115.666 199.967C115.739 199.771 115.884 199.609 116.071 199.516C116.259 199.422 116.475 199.402 116.676 199.46L134.1 204.448C134.903 204.678 135.71 204.896 136.518 205.119C138.209 205.578 139.958 206.058 141.658 206.614C143.128 207.098 144.886 207.892 145.416 209.752C145.878 211.37 145.358 213.175 144.9 214.768C144.755 215.275 144.622 215.754 144.523 216.189C143.967 218.736 143.461 221.329 143.029 223.904C142.168 228.995 141.538 234.186 141.157 239.334C140.969 241.88 140.838 244.463 140.769 247.011C140.769 247.119 140.755 247.373 140.738 247.726C140.538 252.321 140.563 253.86 140.63 254.304C140.701 254.431 140.738 254.574 140.737 254.719C140.736 254.864 140.696 255.005 140.623 255.13C140.55 255.255 140.445 255.359 140.319 255.432C140.193 255.504 140.051 255.542 139.905 255.542L139.916 255.54ZM116.968 201.269C112.351 213.545 107.906 226.066 103.752 238.497C103.197 240.144 102.75 241.731 103.272 243.062C103.988 244.885 106.273 245.666 108.639 246.239L138.931 253.6C138.931 253.141 138.931 252.575 138.931 251.871C138.959 250.358 139.036 248.587 139.078 247.637C139.092 247.296 139.103 247.052 139.106 246.946C139.175 244.375 139.308 241.768 139.497 239.187C139.883 233.986 140.519 228.743 141.388 223.606C141.827 221.003 142.334 218.381 142.898 215.809C143.003 215.321 143.148 214.818 143.304 214.283C143.701 212.897 144.136 211.345 143.817 210.183C143.567 209.305 142.765 208.705 141.138 208.169C139.511 207.634 137.754 207.153 136.082 206.695C135.266 206.474 134.455 206.252 133.645 206.021L116.968 201.269Z" fill="#FFAAAB"/>
<path d="M212.734 56.4397C212.548 56.44 212.367 56.3786 212.221 56.2649C212.074 56.1513 211.97 55.9921 211.924 55.8127C211.879 55.6332 211.896 55.4436 211.97 55.274C212.044 55.1045 212.173 54.9647 212.337 54.8768C215.477 53.1901 218.955 52.2245 222.517 52.0502C222.738 52.0397 222.954 52.1169 223.117 52.265C223.281 52.4131 223.378 52.62 223.389 52.8399C223.4 53.0601 223.322 53.2754 223.174 53.4385C223.025 53.6016 222.818 53.6993 222.598 53.7102C219.285 53.8734 216.05 54.7717 213.128 56.34C213.007 56.4053 212.871 56.4394 212.734 56.4397Z" fill="white"/>
<path d="M178.585 71.0771C178.363 71.0889 178.148 71.0125 177.983 70.8649C177.818 70.7173 177.719 70.5106 177.708 70.29C177.696 70.0695 177.772 69.8535 177.921 69.6891C178.069 69.525 178.275 69.4262 178.496 69.4144C185.295 68.6654 191.63 65.6105 196.445 60.76C196.6 60.6031 196.811 60.5142 197.033 60.5129C197.254 60.5117 197.466 60.5979 197.624 60.7531C197.781 60.9082 197.87 61.1192 197.871 61.3398C197.873 61.5604 197.786 61.7725 197.63 61.9295C192.548 67.0549 185.857 70.2833 178.677 71.0744C178.646 71.078 178.615 71.0789 178.585 71.0771Z" fill="white"/>
<path d="M202.905 60.0672C202.772 60.0678 202.64 60.0363 202.522 59.9753C202.403 59.9145 202.301 59.8259 202.223 59.7172C202.146 59.6085 202.096 59.4829 202.078 59.351C202.059 59.219 202.073 59.0845 202.117 58.9589C202.162 58.7762 202.168 58.5866 202.136 58.4015C202.103 58.2166 202.035 58.0399 201.932 57.8823C201.83 57.7246 201.697 57.5895 201.54 57.485C201.384 57.3804 201.208 57.3086 201.024 57.274C200.802 57.2531 200.599 57.1453 200.457 56.9747C200.316 56.8039 200.248 56.5841 200.269 56.3636C200.29 56.1432 200.399 55.94 200.57 55.7989C200.741 55.6578 200.961 55.5902 201.181 55.6113C201.616 55.6712 202.033 55.8241 202.404 56.0596C202.776 56.2952 203.09 56.6079 203.328 56.976C203.567 57.3444 203.724 57.7597 203.787 58.1937C203.849 58.6278 203.817 59.0702 203.693 59.491C203.64 59.6576 203.535 59.8032 203.393 59.9067C203.252 60.0102 203.081 60.0663 202.905 60.0672Z" fill="white"/>
<path d="M189.901 53.0145C189.064 53.0169 188.233 52.8782 187.444 52.6044C187.341 52.568 187.245 52.5117 187.164 52.4387C187.083 52.3655 187.018 52.2772 186.97 52.1788C186.923 52.0801 186.895 51.9732 186.889 51.8642C186.883 51.7551 186.9 51.6459 186.937 51.543C186.972 51.44 187.028 51.3451 187.102 51.264C187.175 51.1828 187.263 51.1167 187.363 51.0696C187.461 51.0225 187.567 50.9952 187.677 50.9896C187.787 50.9838 187.896 50.9995 188 51.036C190.498 51.9088 193.61 50.8835 195.093 48.7026C195.217 48.5188 195.409 48.3918 195.627 48.3494C195.844 48.3072 196.07 48.3529 196.255 48.4767C196.438 48.6005 196.565 48.7923 196.608 49.0098C196.651 49.2272 196.605 49.4527 196.481 49.6364C195.736 50.6853 194.749 51.5398 193.604 52.1277C192.46 52.7157 191.189 53.0198 189.901 53.0145Z" fill="white"/>
<path d="M188.435 44.5267C188.268 44.524 188.108 44.4718 187.972 44.377C187.836 44.2822 187.731 44.1489 187.671 43.9945C187.612 43.8399 187.6 43.6711 187.636 43.5097C187.674 43.3484 187.758 43.2017 187.879 43.0885C188.883 42.1972 190.167 41.6879 191.51 41.6502C192.852 41.6127 194.164 42.0495 195.215 42.8834C195.383 43.0252 195.487 43.2273 195.507 43.4458C195.525 43.6643 195.456 43.8815 195.316 44.05C195.175 44.2186 194.974 44.3247 194.755 44.3456C194.537 44.3663 194.318 44.3 194.149 44.161C193.408 43.5871 192.492 43.2877 191.555 43.3139C190.619 43.3403 189.721 43.6907 189.015 44.305C188.858 44.451 188.65 44.5304 188.435 44.5267Z" fill="white"/>
<path d="M178.805 60.4496C178.583 60.4496 178.371 60.3621 178.215 60.2061C178.059 60.0502 177.971 59.8387 177.971 59.6183C177.975 58.8365 178.26 58.0817 178.773 57.4911C179.286 56.9003 179.993 56.5126 180.769 56.3984C181.543 56.2841 182.335 56.4507 182.996 56.8681C183.659 57.2854 184.149 57.9259 184.38 58.6733C184.415 58.7787 184.43 58.8901 184.423 59.0011C184.415 59.1123 184.384 59.2207 184.334 59.3199C184.284 59.419 184.213 59.5071 184.128 59.5789C184.042 59.6506 183.944 59.7045 183.838 59.7373C183.731 59.7702 183.619 59.7814 183.508 59.7701C183.396 59.759 183.289 59.7256 183.191 59.6721C183.094 59.6187 183.007 59.5462 182.938 59.4588C182.869 59.3714 182.819 59.2711 182.788 59.1638C182.677 58.7961 182.437 58.4803 182.112 58.2742C181.786 58.0679 181.398 57.9847 181.018 58.0397C180.636 58.0946 180.288 58.2841 180.034 58.5738C179.781 58.8633 179.64 59.2339 179.637 59.6183C179.637 59.8387 179.55 60.0502 179.393 60.2061C179.237 60.3621 179.025 60.4496 178.805 60.4496Z" fill="white"/>
<path d="M92.2892 38.9177C92.1386 38.9173 91.9907 38.8761 91.8617 38.7985C80.3845 31.9316 69.0599 24.4883 58.199 16.6819C58.1103 16.618 58.0348 16.5373 57.9774 16.4445C57.9198 16.3515 57.8812 16.2481 57.8636 16.1403C57.8462 16.0326 57.85 15.9223 57.8752 15.8161C57.9003 15.7096 57.9462 15.6093 58.0102 15.5208C58.0742 15.4322 58.155 15.357 58.2481 15.2995C58.3412 15.2421 58.4448 15.2035 58.5528 15.1861C58.6608 15.1686 58.7712 15.1725 58.8776 15.1976C58.9842 15.2227 59.0848 15.2684 59.1735 15.3323C70.0011 23.1138 81.2812 30.5294 92.7196 37.3714C92.8769 37.4645 92.9991 37.6069 93.0674 37.7763C93.1356 37.9458 93.146 38.1329 93.097 38.309C93.0481 38.4849 92.9424 38.6398 92.7964 38.7499C92.6504 38.86 92.4721 38.919 92.2892 38.9177Z" fill="white"/>
<path d="M96.0178 21.6534C95.8945 21.6533 95.7728 21.6258 95.6613 21.5732C95.55 21.5205 95.4518 21.4438 95.3737 21.3485L89.9627 14.7864C89.8884 14.7027 89.8319 14.6051 89.7963 14.4992C89.7609 14.3932 89.7472 14.2811 89.7559 14.1698C89.7647 14.0586 89.7959 13.95 89.8477 13.8511C89.8994 13.752 89.9706 13.6643 90.0569 13.5933C90.1434 13.5224 90.2432 13.4695 90.3506 13.4379C90.458 13.4064 90.5706 13.3966 90.6818 13.4094C90.793 13.4222 90.9003 13.4573 90.9976 13.5125C91.0949 13.5677 91.1801 13.6417 91.2481 13.7306L96.659 20.2928C96.7597 20.4143 96.8235 20.5618 96.8432 20.7181C96.8629 20.8745 96.8377 21.0332 96.7705 21.1759C96.7033 21.3185 96.5968 21.4391 96.4635 21.5237C96.3303 21.6081 96.1756 21.6531 96.0178 21.6534Z" fill="white"/>
<path d="M107.006 20.9134C106.833 20.914 106.665 20.8611 106.523 20.7617C106.382 20.6625 106.275 20.5217 106.218 20.3592L99.7154 1.14667C99.6722 1.04118 99.6511 0.928052 99.6534 0.814168C99.6557 0.700284 99.6815 0.58808 99.7292 0.484563C99.7767 0.381046 99.8451 0.288351 99.9302 0.212276C100.015 0.136201 100.115 0.0784233 100.223 0.0424439C100.331 0.00646448 100.446 -0.00680072 100.56 0.00326132C100.673 0.0133234 100.784 0.0465615 100.884 0.100988C100.984 0.155414 101.072 0.229811 101.143 0.319607C101.213 0.409403 101.264 0.512617 101.292 0.622842L107.794 19.816C107.83 19.9195 107.844 20.029 107.837 20.1382C107.83 20.2473 107.802 20.3539 107.753 20.4521C107.705 20.5501 107.637 20.6376 107.555 20.7097C107.472 20.7817 107.376 20.8369 107.273 20.8718C107.186 20.8991 107.096 20.9131 107.006 20.9134Z" fill="white"/>
<path d="M176.094 102.15C175.315 102.15 174.537 102.046 173.784 101.843C173.676 101.816 173.575 101.768 173.485 101.702C173.396 101.635 173.32 101.551 173.264 101.455C173.209 101.36 173.172 101.253 173.157 101.143C173.143 101.033 173.15 100.92 173.18 100.813C173.21 100.706 173.26 100.606 173.331 100.519C173.399 100.432 173.485 100.359 173.583 100.306C173.68 100.252 173.789 100.219 173.899 100.208C174.01 100.197 174.122 100.208 174.229 100.241C175.512 100.596 177.38 100.637 178.452 99.8945C178.725 99.6995 178.951 99.4435 179.11 99.1468C179.268 98.8502 179.356 98.5207 179.365 98.1847C179.375 98.0755 179.405 97.9693 179.456 97.872C179.506 97.7747 179.576 97.6884 179.66 97.6179C179.744 97.5474 179.84 97.4941 179.946 97.461C180.05 97.4281 180.161 97.4159 180.27 97.4253C180.38 97.4348 180.486 97.4657 180.583 97.5162C180.68 97.5666 180.768 97.6358 180.838 97.7197C180.908 97.8037 180.962 97.9007 180.995 98.0051C181.027 98.1095 181.039 98.2196 181.03 98.3288C181 98.9078 180.836 99.4722 180.555 99.9795C180.274 100.487 179.882 100.924 179.407 101.258C178.473 101.912 177.25 102.15 176.094 102.15Z" fill="white"/>
<path d="M180.317 103.186C180.103 103.187 179.897 103.105 179.743 102.958C179.587 102.811 179.495 102.61 179.485 102.397C179.42 101.108 179.349 97.3309 179.277 93.6813C179.203 90.0317 179.132 86.2824 179.068 85.0159C179.057 84.7955 179.135 84.5797 179.283 84.4163C179.433 84.2529 179.64 84.155 179.86 84.1443C180.082 84.1338 180.297 84.2111 180.462 84.3594C180.625 84.5078 180.723 84.7151 180.734 84.9356C180.798 86.2241 180.87 89.9985 180.942 93.6508C181.013 97.3033 181.087 101.05 181.151 102.314C181.155 102.423 181.14 102.532 181.104 102.635C181.067 102.738 181.009 102.833 180.936 102.914C180.862 102.995 180.774 103.061 180.674 103.108C180.575 103.154 180.468 103.181 180.358 103.186H180.317Z" fill="white"/>
<path d="M192.741 101.51C191.167 101.51 189.379 101.305 188.2 100.235C187.813 99.8719 187.505 99.4338 187.294 98.9479C187.083 98.462 186.973 97.9383 186.972 97.4087C186.938 96.7298 186.903 96.0232 186.866 95.2943C186.697 91.9439 186.503 88.1475 186.628 84.9662C186.636 84.7456 186.732 84.5375 186.894 84.3876C187.056 84.2376 187.271 84.1582 187.493 84.1667C187.714 84.1751 187.922 84.2709 188.071 84.4326C188.223 84.5945 188.302 84.8093 188.293 85.03C188.171 88.1364 188.363 91.8941 188.533 95.2085C188.571 95.9372 188.608 96.6495 188.638 97.3311C188.634 97.6401 188.692 97.9469 188.809 98.2327C188.927 98.5184 189.102 98.7774 189.324 98.9938C190.404 99.9748 192.692 99.864 194.204 99.7919C194.534 99.7753 194.835 99.7614 195.097 99.7586C195.319 99.7568 195.531 99.8426 195.688 99.9972C195.847 100.152 195.936 100.363 195.937 100.583C195.94 100.804 195.853 101.016 195.699 101.173C195.543 101.33 195.333 101.419 195.113 101.421C194.865 101.421 194.581 101.438 194.279 101.452C193.819 101.485 193.294 101.51 192.741 101.51Z" fill="white"/>
<path d="M235.266 209.109C235.171 209.109 235.077 209.09 234.988 209.057C234.866 209.011 234.756 208.936 234.667 208.84C234.577 208.744 234.513 208.628 234.478 208.502C227.565 184.653 220.979 160.361 214.888 136.264C209.452 146.239 203.971 156.576 200.532 167.549C200.484 167.703 200.393 167.841 200.268 167.943C200.144 168.046 199.993 168.11 199.832 168.129C189.012 169.353 178.079 169.207 167.296 167.694L167.091 168.885C167.056 169.077 166.954 169.249 166.804 169.373C166.655 169.498 166.467 169.566 166.273 169.566C166.077 169.566 165.889 169.498 165.74 169.373C165.59 169.249 165.488 169.077 165.453 168.885C164.191 162.155 161.026 155.925 156.333 150.932C155.778 150.336 155.17 149.74 154.587 149.16C152.238 146.829 149.811 144.422 148.804 141.173C147.97 138.467 147.937 135.98 147.94 132.306C143.348 134.8 138.367 138.15 133.537 141.399C126.318 146.248 120.094 150.435 116.768 150.637C115.682 150.712 114.547 149.529 112.939 146.758C111.637 144.494 110.082 141.216 108.319 137.02C104.816 128.731 100.737 117.381 96.8339 105.065C96.796 104.947 96.7852 104.821 96.8024 104.698C96.8197 104.575 96.8646 104.457 96.9335 104.353C97.0025 104.249 97.094 104.162 97.2012 104.098C97.3084 104.035 97.4286 103.996 97.553 103.985C101.071 103.663 114.597 100.734 118.486 99.3319C118.612 99.2875 118.746 99.274 118.879 99.2923C119.01 99.3105 119.136 99.3603 119.245 99.4371C119.354 99.5139 119.443 99.6156 119.504 99.7338C119.565 99.8519 119.597 99.983 119.597 100.116C119.597 101.042 122.554 121.177 124.155 128.969C141.263 115.945 148.215 108.017 152.401 103.239C155.283 99.9527 156.869 98.1431 159.528 97.4752C161.513 96.9765 166.43 98.0848 173.716 100.039C173.847 100.073 173.968 100.139 174.067 100.231C174.166 100.323 174.243 100.438 174.287 100.565C176.276 106.196 180.951 106.939 183.549 106.872C188.432 106.756 193.266 103.824 194.305 100.354C194.357 100.184 194.462 100.034 194.606 99.928C194.749 99.8217 194.923 99.7643 195.1 99.7643C200.597 99.8579 206.084 99.2997 211.448 98.1014C214.749 97.4198 216.931 96.9708 219.183 97.8632C221.726 98.8663 222.792 102.391 225.388 110.902C229.521 124.433 237.19 149.634 259.542 195.847C259.596 195.958 259.625 196.08 259.625 196.205C259.625 196.328 259.597 196.452 259.545 196.563C259.492 196.676 259.414 196.775 259.318 196.853C259.22 196.93 259.108 196.987 258.986 197.016C254.45 198.069 243.306 204.049 235.741 208.973C235.6 209.066 235.434 209.113 235.266 209.109ZM215.166 133.178C215.201 133.177 215.236 133.177 215.271 133.178C215.437 133.2 215.593 133.271 215.719 133.383C215.844 133.494 215.932 133.64 215.974 133.802C222.112 158.189 228.767 182.807 235.755 206.962C242.884 202.428 252.646 197.203 257.599 195.682C235.541 149.926 227.919 124.885 223.814 111.392C221.532 103.89 220.385 100.127 218.588 99.415C216.792 98.7029 214.921 99.0964 211.807 99.7393C206.521 100.917 201.118 101.49 195.704 101.449C194.135 105.354 188.977 108.427 183.602 108.554C178.557 108.671 174.667 106.127 172.882 101.552C169.054 100.526 161.839 98.6335 159.951 99.1075C157.796 99.6478 156.417 101.222 153.67 104.353C149.355 109.275 142.137 117.511 124.133 131.106C124.022 131.19 123.892 131.244 123.754 131.265C123.616 131.285 123.475 131.271 123.345 131.222C123.215 131.175 123.098 131.096 123.007 130.991C122.915 130.887 122.851 130.762 122.82 130.626C121.524 124.973 118.656 106.141 118.056 101.252C113.522 102.663 103.064 104.932 98.7356 105.539C102.434 117.123 106.282 127.844 109.605 135.822C114.63 147.886 116.437 148.913 116.693 149C119.583 148.794 125.907 144.544 132.601 140.043C137.898 136.482 143.379 132.799 148.387 130.208C148.514 130.143 148.656 130.111 148.798 130.115C148.942 130.12 149.081 130.161 149.203 130.236C149.325 130.311 149.426 130.414 149.496 130.538C149.566 130.663 149.603 130.803 149.603 130.945V131.937C149.603 135.817 149.603 138.136 150.39 140.7C151.274 143.551 153.443 145.71 155.755 147.997C156.346 148.584 156.96 149.194 157.541 149.807C161.822 154.363 164.9 159.914 166.494 165.956C166.58 165.944 166.667 165.944 166.752 165.956C177.467 167.526 188.339 167.731 199.105 166.56C202.82 154.941 208.728 144.114 214.442 133.622C214.509 133.489 214.613 133.377 214.741 133.297C214.868 133.216 215.014 133.174 215.166 133.171V133.178Z" fill="white"/>
<path d="M148.807 133.361C148.586 133.361 148.373 133.274 148.218 133.119C148.062 132.962 147.973 132.751 147.973 132.53C148.001 130.056 148.04 126.975 146.95 124.217C146.867 124.011 146.87 123.783 146.958 123.58C147.046 123.377 147.21 123.218 147.416 123.136C147.62 123.055 147.851 123.058 148.054 123.145C148.257 123.232 148.416 123.397 148.499 123.601C149.708 126.65 149.67 129.92 149.64 132.541C149.637 132.761 149.548 132.969 149.392 133.122C149.236 133.276 149.026 133.361 148.807 133.361Z" fill="white"/>
<path d="M171.583 146.96C171.394 146.96 171.209 146.898 171.061 146.779C170.913 146.661 170.809 146.497 170.768 146.314C170.725 146.129 170.748 145.936 170.83 145.765C170.913 145.596 171.052 145.459 171.223 145.378C176.369 142.946 182.096 142.012 187.749 142.681C187.859 142.695 187.965 142.73 188.061 142.783C188.157 142.838 188.241 142.91 188.308 142.996C188.377 143.083 188.427 143.182 188.456 143.288C188.487 143.394 188.495 143.504 188.481 143.614C188.469 143.724 188.433 143.829 188.378 143.925C188.325 144.019 188.252 144.105 188.166 144.172C188.079 144.24 187.98 144.289 187.873 144.32C187.768 144.349 187.656 144.358 187.548 144.344C182.209 143.711 176.799 144.594 171.941 146.89C171.829 146.94 171.706 146.963 171.583 146.96Z" fill="white"/>
<path d="M142.415 307.589C142.901 309.968 143.454 312.482 145.119 314.239C146.307 315.503 147.946 316.254 149.206 317.445C151.297 319.427 152.105 322.369 152.815 325.158C156.936 341.28 160.822 357.461 164.475 373.699C166.966 374.071 169.508 373.946 171.95 373.332C171.411 331.061 172.601 288.814 175.516 246.594C180.054 286.5 188.207 371.783 189.953 373.641C192.172 373.789 194.401 373.696 196.6 373.364C199.377 360.966 204.501 323.026 207.211 317.024C207.953 315.381 211.288 315.085 213.75 305.939C216.693 295.016 245.217 200.704 202.475 170.832C201.517 170.188 166.461 168.949 164.076 170.742C113.139 209.183 137.52 283.595 142.415 307.589Z" fill="white"/>
<path d="M167.276 374.753C166.296 374.754 165.315 374.681 164.345 374.533C164.179 374.509 164.023 374.436 163.899 374.321C163.777 374.207 163.69 374.058 163.653 373.894C160.027 357.737 156.111 341.415 152.01 325.376C151.393 322.959 150.622 319.95 148.632 318.062C148.068 317.556 147.465 317.093 146.829 316.678C145.992 316.141 145.216 315.518 144.511 314.818C142.635 312.819 142.059 310.01 141.599 307.749C141.105 305.319 140.408 302.378 139.603 298.97C135.993 283.649 130.516 260.495 131.601 236.43C132.204 223.128 134.8 211.138 139.319 200.765C144.59 188.603 152.951 178.026 163.574 170.08C164.784 169.165 171.597 168.813 183.824 169.033C188.191 169.112 192.791 169.264 196.445 169.457C202.389 169.765 202.695 169.979 202.94 170.152C212.52 176.848 219.282 187.263 223.039 201.12C226.106 212.432 227.203 226.146 226.306 241.877C224.721 269.589 217.438 295.741 215.046 304.335C214.837 305.082 214.668 305.692 214.544 306.156C212.688 313.045 210.298 315.143 208.868 316.394C208.416 316.791 208.089 317.079 207.958 317.364C206.362 320.906 203.771 336.622 201.486 350.488C199.948 359.824 198.496 368.642 197.399 373.544C197.362 373.71 197.277 373.859 197.152 373.975C197.028 374.09 196.871 374.164 196.703 374.187C194.439 374.527 192.143 374.62 189.86 374.465C189.658 374.445 189.472 374.352 189.335 374.204C188.927 373.769 188.366 373.17 185.565 348.463C183.899 333.872 181.896 314.611 179.95 295.982C178.438 281.49 176.989 267.622 175.72 256.022C173.268 294.959 172.277 334.369 172.773 373.315C172.779 373.504 172.721 373.689 172.607 373.841C172.492 373.992 172.33 374.099 172.147 374.146C170.554 374.547 168.918 374.751 167.276 374.753ZM165.153 372.966C167.137 373.198 169.146 373.105 171.099 372.689C170.583 330.788 171.788 288.35 174.676 246.55C174.69 246.343 174.782 246.149 174.931 246.006C175.083 245.863 175.281 245.782 175.489 245.777C175.695 245.776 175.894 245.85 176.046 245.986C176.201 246.122 176.298 246.311 176.321 246.514C177.807 259.597 179.654 277.197 181.597 295.84C185.156 329.91 189.176 368.388 190.495 372.879C192.296 372.951 194.102 372.871 195.89 372.641C196.958 367.686 198.355 359.204 199.832 350.244C202.247 335.593 204.743 320.447 206.429 316.713C206.705 316.099 207.194 315.672 207.758 315.175C209.047 314.048 211.197 312.158 212.925 305.753C213.05 305.288 213.221 304.672 213.43 303.919C224.261 265.044 237.16 196.237 202.073 171.574C200.929 171.297 192.55 170.844 183.471 170.69C170.717 170.47 165.323 170.941 164.576 171.413C119.266 205.601 134.1 268.403 141.23 298.588C142.038 302.01 142.737 304.96 143.237 307.419C143.77 310.029 144.292 312.147 145.736 313.679C146.36 314.292 147.048 314.839 147.787 315.309C148.493 315.771 149.16 316.288 149.786 316.852C152.126 319.068 152.962 322.336 153.634 324.961C157.681 340.833 161.558 356.978 165.147 372.966H165.153Z" fill="white"/>
<path d="M175.975 257.422C175.759 257.422 175.552 257.339 175.397 257.19C175.241 257.041 175.15 256.836 175.142 256.621C174.711 245.567 173.546 235.779 171.58 226.693C171.325 225.517 171.061 224.476 170.409 223.766C169.88 223.182 168.868 222.86 168.301 223.308C168.217 223.383 168.118 223.439 168.011 223.474C167.902 223.51 167.789 223.523 167.678 223.513C167.565 223.503 167.455 223.47 167.356 223.417C167.256 223.363 167.169 223.29 167.099 223.203C167.029 223.115 166.977 223.013 166.948 222.904C166.917 222.796 166.91 222.682 166.926 222.57C166.942 222.459 166.98 222.351 167.038 222.255C167.096 222.159 167.174 222.075 167.266 222.009C168.631 220.922 170.597 221.497 171.646 222.653C172.572 223.677 172.912 224.982 173.207 226.344C175.194 235.512 176.372 245.393 176.816 256.55C176.824 256.769 176.744 256.984 176.595 257.146C176.445 257.307 176.237 257.402 176.016 257.411L175.975 257.422Z" fill="#2B1927"/>
<path d="M172.307 200.643H172.252C170.633 200.538 169.529 199.175 169.149 197.871C168.768 196.569 168.94 195.295 169.088 194.145C169.187 193.352 169.286 192.549 169.387 191.736C170.242 184.87 171.211 177.085 172.877 170.358C172.903 170.251 172.95 170.15 173.015 170.063C173.08 169.975 173.161 169.9 173.254 169.844C173.349 169.787 173.453 169.751 173.561 169.734C173.67 169.717 173.78 169.722 173.885 169.749C173.992 169.775 174.093 169.821 174.18 169.886C174.269 169.952 174.343 170.033 174.4 170.126C174.456 170.22 174.493 170.324 174.51 170.432C174.527 170.539 174.522 170.65 174.495 170.755C172.851 177.387 171.889 185.118 171.038 191.942C170.939 192.753 170.84 193.56 170.739 194.352C170.609 195.389 170.461 196.461 170.739 197.4C170.956 198.146 171.571 198.928 172.352 198.981C172.462 198.984 172.569 199.008 172.669 199.054C172.769 199.098 172.859 199.162 172.934 199.242C173.008 199.323 173.066 199.416 173.105 199.518C173.144 199.62 173.163 199.728 173.158 199.838C173.155 199.948 173.131 200.054 173.085 200.153C173.041 200.254 172.976 200.344 172.895 200.419C172.816 200.493 172.723 200.551 172.62 200.589C172.518 200.629 172.408 200.646 172.3 200.643H172.307Z" fill="#2B1927"/>
<path d="M175.975 198.847H175.939C175.83 198.842 175.723 198.816 175.623 198.771C175.524 198.725 175.434 198.659 175.361 198.579C175.286 198.498 175.229 198.403 175.191 198.301C175.154 198.199 175.138 198.089 175.142 197.979C175.576 188.69 176.798 179.453 178.796 170.368C178.854 170.162 178.988 169.986 179.173 169.877C179.358 169.768 179.576 169.733 179.785 169.781C179.995 169.83 180.176 169.957 180.294 170.135C180.412 170.315 180.456 170.531 180.418 170.742C178.441 179.731 177.235 188.87 176.809 198.063C176.796 198.275 176.703 198.475 176.547 198.621C176.393 198.766 176.188 198.848 175.975 198.847Z" fill="#2B1927"/>
<path d="M156.391 190.634C154.959 190.637 153.551 190.277 152.299 189.585C152.111 189.475 151.973 189.297 151.917 189.087C151.859 188.878 151.886 188.654 151.992 188.463C152.099 188.274 152.274 188.132 152.484 188.071C152.693 188.009 152.917 188.032 153.11 188.134C154.413 188.82 155.897 189.085 157.359 188.89C158.819 188.696 160.183 188.053 161.261 187.05C161.338 186.969 161.431 186.905 161.533 186.861C161.636 186.818 161.747 186.795 161.859 186.794C161.97 186.794 162.08 186.815 162.184 186.858C162.286 186.902 162.381 186.965 162.459 187.044C162.537 187.125 162.598 187.219 162.638 187.323C162.679 187.426 162.699 187.538 162.696 187.649C162.693 187.76 162.667 187.87 162.619 187.971C162.573 188.073 162.506 188.164 162.424 188.239C160.802 189.79 158.637 190.648 156.391 190.634Z" fill="#2B1927"/>
<path d="M199.754 191.299C199.299 191.3 198.846 191.273 198.393 191.218C195.653 190.883 193.364 189.439 192.261 187.356C192.159 187.161 192.137 186.932 192.201 186.722C192.267 186.512 192.414 186.335 192.609 186.231C192.805 186.129 193.034 186.108 193.245 186.173C193.455 186.239 193.633 186.385 193.735 186.58C194.569 188.16 196.431 189.303 198.597 189.57C200.817 189.847 203.119 189.248 204.879 188.706C205.091 188.64 205.319 188.661 205.514 188.763C205.71 188.866 205.856 189.042 205.922 189.253C205.988 189.463 205.966 189.69 205.864 189.886C205.762 190.081 205.584 190.227 205.374 190.293C203.797 190.78 201.815 191.299 199.754 191.299Z" fill="#2B1927"/>
<path d="M153.617 313.153C152.925 313.168 152.238 313.03 151.604 312.749C150.971 312.467 150.408 312.049 149.956 311.527C149.824 311.356 149.765 311.139 149.791 310.926C149.815 310.712 149.922 310.516 150.089 310.38C150.255 310.243 150.467 310.176 150.683 310.193C150.898 310.209 151.098 310.31 151.242 310.47C151.576 310.821 151.986 311.092 152.438 311.269C152.89 311.444 153.376 311.519 153.86 311.488C154.345 311.456 154.817 311.321 155.244 311.087C155.67 310.856 156.039 310.534 156.328 310.144C156.444 309.956 156.63 309.824 156.846 309.773C157.061 309.724 157.287 309.763 157.475 309.879C157.663 309.996 157.796 310.182 157.846 310.397C157.895 310.612 157.857 310.837 157.741 311.025C157.324 311.65 156.765 312.168 156.11 312.536C155.453 312.905 154.72 313.112 153.968 313.143C153.851 313.15 153.734 313.153 153.617 313.153Z" fill="#FEB300"/>
<path d="M200.129 310.964C198.949 310.979 197.81 310.546 196.939 309.753C196.86 309.677 196.796 309.587 196.752 309.488C196.706 309.388 196.681 309.281 196.678 309.171C196.674 308.95 196.755 308.737 196.907 308.577C197.059 308.416 197.269 308.323 197.489 308.317C197.711 308.311 197.925 308.392 198.085 308.545C198.662 309.045 199.405 309.316 200.168 309.307C200.933 309.299 201.668 309.011 202.233 308.497C202.311 308.421 202.403 308.36 202.505 308.317C202.606 308.276 202.714 308.255 202.823 308.256C202.933 308.256 203.041 308.278 203.142 308.32C203.243 308.363 203.335 308.424 203.412 308.502C203.489 308.58 203.55 308.671 203.591 308.772C203.634 308.874 203.654 308.982 203.654 309.09C203.654 309.2 203.632 309.308 203.59 309.409C203.547 309.51 203.486 309.601 203.408 309.677C202.525 310.519 201.349 310.981 200.129 310.964Z" fill="#FEB300"/>
<path d="M131.907 187.798C131.749 187.798 131.595 187.754 131.462 187.67C131.329 187.587 131.222 187.466 131.155 187.324C131.087 187.183 131.061 187.026 131.08 186.868C131.098 186.713 131.161 186.567 131.26 186.445C140.339 175.305 151.929 161.253 164.203 146.381C177.552 130.202 191.355 113.474 202.936 99.2709C203.002 99.1801 203.087 99.1038 203.185 99.0465C203.281 98.9893 203.39 98.9524 203.501 98.9381C203.613 98.9236 203.727 98.9322 203.836 98.9631C203.944 98.9939 204.045 99.0465 204.132 99.1176C204.22 99.1886 204.292 99.2767 204.344 99.3764C204.398 99.4763 204.428 99.5856 204.437 99.698C204.446 99.8102 204.433 99.9231 204.396 100.03C204.359 100.137 204.301 100.235 204.227 100.318C192.646 114.535 178.84 131.267 165.489 147.445C153.218 162.317 141.613 176.364 132.551 187.5C132.472 187.594 132.374 187.669 132.262 187.721C132.151 187.773 132.029 187.8 131.907 187.798Z" fill="#FEB300"/>
<path d="M109.258 243.184C109.138 243.184 109.02 243.158 108.911 243.109C108.811 243.063 108.72 242.998 108.645 242.919C108.57 242.838 108.512 242.743 108.474 242.64C108.436 242.537 108.418 242.428 108.423 242.318C108.427 242.208 108.453 242.1 108.5 242.001C113.118 231.977 116.206 221.32 117.662 210.385C118.039 207.552 118.162 204.665 116.523 202.747C116.447 202.664 116.387 202.568 116.349 202.462C116.311 202.356 116.294 202.244 116.3 202.132C116.307 202.019 116.336 201.91 116.386 201.809C116.436 201.708 116.506 201.62 116.591 201.547C116.677 201.474 116.777 201.419 116.884 201.385C116.991 201.352 117.105 201.341 117.217 201.352C117.329 201.364 117.437 201.397 117.535 201.452C117.634 201.506 117.72 201.58 117.789 201.669C119.858 204.088 119.719 207.541 119.314 210.603C117.839 221.701 114.709 232.518 110.027 242.693C109.96 242.841 109.852 242.966 109.716 243.053C109.579 243.14 109.42 243.185 109.258 243.184Z" fill="#FEB300"/>
<path d="M249.692 242.388C249.541 242.388 249.391 242.376 249.241 242.352C247.468 242.053 246.657 240.118 246.64 238.334C246.623 236.549 247.054 234.797 247.473 233.12C247.876 231.489 248.259 229.948 248.253 228.377C248.253 226.159 247.471 223.999 246.718 221.901L240.654 204.997C240.593 204.791 240.612 204.572 240.709 204.381C240.806 204.189 240.972 204.044 241.174 203.972C241.375 203.901 241.598 203.91 241.794 203.997C241.988 204.085 242.142 204.244 242.223 204.442L248.287 221.346C249.047 223.475 249.913 225.885 249.92 228.379C249.92 230.157 249.5 231.869 249.087 233.526C248.673 235.183 248.293 236.735 248.307 238.325C248.307 239.414 248.737 240.586 249.516 240.717C250.534 240.888 251.299 239.301 251.649 237.891C252.14 235.932 252.663 233.942 253.203 231.98C253.229 231.87 253.277 231.767 253.342 231.677C253.408 231.585 253.492 231.509 253.588 231.452C253.685 231.395 253.791 231.358 253.903 231.343C254.014 231.327 254.127 231.335 254.236 231.364C254.344 231.395 254.445 231.445 254.534 231.515C254.621 231.585 254.694 231.672 254.748 231.771C254.801 231.869 254.835 231.977 254.845 232.09C254.854 232.201 254.842 232.314 254.809 232.421C254.273 234.36 253.753 236.343 253.268 238.292C252.615 240.894 251.299 242.388 249.692 242.388Z" fill="white"/>
<path d="M265.972 228.599C265.795 228.599 265.626 228.542 265.484 228.438C265.413 228.388 258.503 223.353 257.109 221.407C255.998 219.852 255.444 217.985 254.949 216.337L250.168 200.216C250.106 200.004 250.13 199.777 250.236 199.583C250.343 199.39 250.52 199.245 250.732 199.182C250.944 199.12 251.174 199.144 251.367 199.249C251.561 199.355 251.705 199.533 251.768 199.745L256.548 215.865C257.02 217.462 257.512 219.113 258.462 220.441C259.411 221.767 264.356 225.566 266.463 227.091C266.606 227.194 266.712 227.339 266.766 227.507C266.821 227.675 266.821 227.855 266.766 228.022C266.712 228.19 266.606 228.335 266.463 228.438C266.321 228.541 266.148 228.597 265.972 228.595V228.599Z" fill="white"/>
<path d="M104.608 103.957C104.405 103.959 104.209 103.887 104.055 103.755C103.902 103.623 103.802 103.44 103.775 103.239C101.778 88.5355 101.134 78.2405 101.865 72.6344C102.634 66.732 105.627 62.3285 109.083 57.2269C109.88 56.0546 110.704 54.8408 111.534 53.5577C112.062 52.7459 113.164 51.3409 114.619 51.1053C114.988 51.0471 115.365 51.0681 115.725 51.1671C116.085 51.266 116.42 51.4406 116.707 51.6789C117.976 52.6793 117.756 54.6967 116.099 57.2212C115.294 58.4517 114.136 60.2696 113.014 62.0264C111.893 63.7833 110.732 65.6096 109.919 66.8483C109.791 67.0155 109.604 67.1282 109.396 67.1634C109.188 67.1988 108.975 67.1541 108.799 67.0384C108.623 66.9227 108.497 66.7446 108.447 66.5402C108.398 66.3357 108.427 66.12 108.531 65.9366C109.336 64.7089 110.493 62.8883 111.612 61.1341C112.731 59.38 113.897 57.5482 114.708 56.3095C115.699 54.7993 116.126 53.3417 115.677 52.9842C115.573 52.8877 115.448 52.8159 115.313 52.7741C115.177 52.7323 115.034 52.7218 114.894 52.743C114.197 52.8595 113.425 53.7047 112.936 54.4612C112.104 55.7554 111.271 56.9774 110.463 58.1579C107.117 63.0823 104.23 67.336 103.522 72.8451C102.811 78.3071 103.453 88.4551 105.432 103.012C105.447 103.12 105.44 103.23 105.413 103.336C105.385 103.442 105.336 103.541 105.27 103.628C105.204 103.715 105.121 103.788 105.026 103.843C104.932 103.898 104.827 103.934 104.719 103.949C104.682 103.954 104.645 103.957 104.608 103.957Z" fill="white"/>
<path d="M114.938 101.574C114.75 101.573 114.567 101.509 114.419 101.391C114.272 101.273 114.169 101.109 114.128 100.925C111.382 88.7572 111.993 80.5517 112.021 80.2081C112.032 80.0563 112.086 79.9107 112.175 79.787C112.264 79.6634 112.385 79.5664 112.526 79.507C115.024 78.4512 118.253 76.4255 121.671 74.2806L122.868 73.5296C123.942 72.8563 124.036 72.0498 123.837 71.6729C123.695 71.4096 123.442 71.3459 123.106 71.4928C121.832 72.047 120.721 72.5071 119.647 72.9505C117.507 73.7897 115.413 74.7406 113.373 75.7992C113.178 75.8974 112.952 75.9154 112.745 75.8495C112.537 75.7835 112.363 75.6389 112.261 75.4466C112.159 75.2544 112.136 75.0296 112.198 74.8209C112.26 74.6124 112.402 74.4361 112.592 74.3305C114.68 73.2477 116.823 72.2737 119.011 71.4125C120.077 70.9719 121.18 70.5174 122.437 69.9686C123.576 69.4727 124.755 69.855 125.308 70.897C125.913 72.0415 125.586 73.7984 123.753 74.9374L122.559 75.6911C119.292 77.7418 116.193 79.6871 113.656 80.8316C113.57 82.7715 113.439 90.3063 115.752 100.562C115.8 100.777 115.761 101.002 115.643 101.188C115.526 101.374 115.339 101.505 115.124 101.554C115.063 101.568 115.001 101.574 114.938 101.574Z" fill="white"/>
<path d="M112.981 75.888C112.839 75.8878 112.699 75.8517 112.575 75.7826C112.389 75.6754 112.25 75.5 112.19 75.2932C112.13 75.0865 112.153 74.8647 112.253 74.6741C112.587 74.0728 113.525 73.3357 115.446 71.8531C117.42 70.3345 120.121 68.2506 122.054 66.1252C122.887 65.2134 122.926 64.4125 122.609 64.0218C122.359 63.7225 121.94 63.6976 121.499 63.9608C119.355 65.2661 117.398 66.6323 115.327 68.076C114.133 68.9073 112.9 69.7692 111.637 70.6089C111.546 70.6693 111.444 70.7112 111.336 70.7322C111.229 70.7531 111.119 70.7528 111.011 70.7312C110.904 70.7097 110.802 70.6671 110.711 70.6061C110.621 70.5453 110.543 70.4671 110.482 70.3761C110.422 70.2851 110.38 70.1831 110.359 70.0759C110.338 69.9687 110.338 69.8585 110.36 69.7515C110.381 69.6445 110.424 69.5426 110.485 69.4521C110.546 69.3615 110.624 69.2838 110.715 69.2232C111.962 68.3919 113.186 67.5385 114.375 66.7099C116.373 65.3242 118.445 63.8722 120.632 62.5393C121.765 61.8464 123.103 62.0182 123.881 62.9605C124.658 63.9027 124.78 65.5931 123.281 67.2419C121.249 69.4755 118.481 71.6093 116.46 73.1666C115.26 74.0922 113.903 75.137 113.705 75.4779C113.631 75.6036 113.525 75.7078 113.398 75.7799C113.271 75.8518 113.127 75.889 112.981 75.888Z" fill="white"/>
<path d="M111.182 70.7362C111.023 70.7364 110.867 70.6911 110.733 70.6057C110.599 70.5203 110.493 70.3985 110.426 70.2546C110.359 70.1107 110.335 69.9506 110.356 69.7934C110.377 69.6362 110.443 69.4884 110.546 69.3673C111.215 68.5803 112.365 67.4884 113.692 66.2276C115.913 64.1187 118.689 61.4916 120.632 58.9339C121.399 57.9335 121.374 57.1076 121.007 56.7364C120.73 56.4592 120.291 56.4592 119.872 56.7669C117.709 58.352 115.108 61.2283 112.814 63.764C111.704 64.9833 110.671 66.1334 109.816 66.9841C109.658 67.1306 109.449 67.2101 109.233 67.2058C109.017 67.2015 108.811 67.1137 108.659 66.9611C108.507 66.8083 108.42 66.6027 108.417 66.3873C108.413 66.1718 108.494 65.9636 108.641 65.8064C109.474 64.9751 110.49 63.8527 111.579 62.65C113.925 60.0534 116.576 57.1076 118.886 55.4256C119.972 54.633 121.332 54.694 122.195 55.5724C123.059 56.4509 123.328 58.1524 121.957 59.9425C119.916 62.6056 117.095 65.2826 114.83 67.4247C113.536 68.6523 112.417 69.7137 111.806 70.4342C111.73 70.5264 111.635 70.6011 111.527 70.6533C111.419 70.7054 111.302 70.7338 111.182 70.7362Z" fill="white"/>
<path d="M259.606 247.683C259.201 247.686 258.803 247.59 258.442 247.407C257.135 246.727 256.521 245.056 256.272 244.12C255.881 242.646 255.472 241.236 255.077 239.874C254.344 237.336 253.651 234.936 253.19 232.578C253.162 232.468 253.156 232.354 253.174 232.242C253.191 232.129 253.232 232.023 253.294 231.927C253.353 231.831 253.434 231.748 253.527 231.684C253.62 231.622 253.727 231.577 253.839 231.556C253.95 231.533 254.065 231.535 254.175 231.559C254.286 231.584 254.39 231.631 254.483 231.696C254.575 231.763 254.653 231.847 254.711 231.945C254.769 232.041 254.807 232.149 254.822 232.262C255.27 234.549 255.953 236.912 256.677 239.414C257.071 240.8 257.482 242.202 257.879 243.696C258.109 244.565 258.581 245.608 259.206 245.934C259.334 246 259.476 246.035 259.621 246.038C259.765 246.039 259.909 246.009 260.038 245.949C260.575 245.751 260.622 244.233 260.147 242.49C259.759 241.06 259.473 239.929 259.198 238.834C258.923 237.74 258.642 236.618 258.254 235.21C258.225 235.105 258.218 234.996 258.232 234.887C258.245 234.779 258.28 234.674 258.334 234.579C258.389 234.485 258.461 234.401 258.548 234.334C258.633 234.267 258.733 234.218 258.838 234.189C258.943 234.16 259.055 234.152 259.163 234.166C259.272 234.18 259.376 234.215 259.47 234.27C259.566 234.323 259.649 234.396 259.716 234.482C259.783 234.569 259.832 234.668 259.861 234.773C260.251 236.203 260.536 237.336 260.811 238.427C261.086 239.519 261.366 240.644 261.755 242.056C262.546 244.965 262.129 246.953 260.614 247.509C260.29 247.626 259.95 247.686 259.606 247.683Z" fill="white"/>
<path d="M272.988 237.863C272.227 237.846 271.485 237.615 270.851 237.195C270.345 236.877 269.484 236.311 268.648 235.762C267.854 235.238 267.103 234.746 266.666 234.468C266.489 234.346 266.365 234.162 266.322 233.951C266.279 233.741 266.319 233.521 266.434 233.34C266.548 233.158 266.73 233.027 266.939 232.975C267.147 232.925 267.368 232.956 267.555 233.064C268.004 233.34 268.763 233.844 269.565 234.374C270.367 234.904 271.248 235.482 271.738 235.787C272.81 236.461 273.579 236.195 273.832 235.851C274.009 235.61 273.957 235.355 273.676 235.116C270.495 232.387 267.959 230.326 265.202 228.225C265.027 228.091 264.912 227.893 264.883 227.675C264.854 227.457 264.912 227.236 265.047 227.06C265.18 226.885 265.378 226.769 265.598 226.74C265.817 226.711 266.038 226.769 266.214 226.903C268.963 228.995 271.598 231.14 274.762 233.855C275.706 234.662 275.873 235.89 275.173 236.837C274.915 237.168 274.582 237.432 274.203 237.61C273.823 237.789 273.408 237.874 272.988 237.863Z" fill="white"/>
<path d="M270.525 242.437C269.64 242.408 268.786 242.097 268.091 241.551C267.223 240.925 265.868 239.447 264.68 238.145C264.034 237.438 263.423 236.759 263.015 236.38C262.933 236.305 262.866 236.215 262.818 236.113C262.772 236.012 262.746 235.903 262.742 235.793C262.739 235.682 262.757 235.57 262.797 235.467C262.837 235.363 262.898 235.267 262.974 235.188C263.052 235.107 263.145 235.043 263.247 235C263.35 234.956 263.46 234.933 263.571 234.933C263.683 234.933 263.793 234.954 263.897 234.997C263.999 235.04 264.092 235.104 264.17 235.183C264.614 235.61 265.242 236.291 265.908 237.023C266.991 238.206 268.337 239.677 269.067 240.206C270.067 240.931 270.869 240.888 271.225 240.522C271.501 240.246 271.471 239.824 271.167 239.427C269.788 237.683 268.288 236.04 266.676 234.506C265.911 233.75 265.117 232.966 264.333 232.117C264.184 231.956 264.104 231.741 264.113 231.52C264.123 231.299 264.219 231.091 264.382 230.942C264.546 230.792 264.761 230.713 264.981 230.722C265.202 230.731 265.41 230.827 265.561 230.991C266.316 231.821 267.06 232.547 267.848 233.323C269.514 234.907 271.065 236.609 272.488 238.414C273.299 239.464 273.273 240.809 272.421 241.684C272.172 241.929 271.876 242.123 271.55 242.252C271.223 242.382 270.875 242.445 270.525 242.437Z" fill="white"/>
<path d="M266.774 246.248C265.896 246.248 264.891 245.844 263.953 244.826C262.779 243.551 261.454 241.467 260.283 239.629C259.786 238.847 259.318 238.109 258.894 237.505C258.833 237.413 258.791 237.311 258.768 237.205C258.746 237.096 258.745 236.987 258.766 236.878C258.788 236.77 258.829 236.668 258.89 236.576C258.951 236.485 259.029 236.406 259.119 236.345C259.211 236.282 259.313 236.24 259.421 236.218C259.528 236.195 259.64 236.195 259.748 236.215C259.855 236.237 259.959 236.279 260.051 236.339C260.142 236.4 260.222 236.477 260.283 236.569C260.71 237.195 261.189 237.955 261.691 238.738C262.823 240.517 264.106 242.534 265.183 243.702C266.047 244.638 266.907 244.73 267.341 244.416C267.66 244.187 267.709 243.792 267.471 243.364C266.033 240.777 264.428 238.286 262.665 235.909C262.224 235.296 261.777 234.672 261.305 234C261.239 233.91 261.19 233.808 261.164 233.701C261.138 233.593 261.134 233.48 261.152 233.37C261.17 233.261 261.21 233.155 261.27 233.062C261.329 232.968 261.407 232.887 261.497 232.823C261.589 232.759 261.693 232.715 261.801 232.692C261.909 232.669 262.022 232.668 262.132 232.689C262.241 232.71 262.345 232.753 262.438 232.814C262.531 232.876 262.609 232.956 262.67 233.049C263.137 233.716 263.58 234.332 264.017 234.942C265.82 237.369 267.46 239.914 268.926 242.557C269.572 243.721 269.322 245.051 268.315 245.766C267.865 246.085 267.326 246.254 266.774 246.248Z" fill="white"/>
<path d="M110.296 82.3946C110.108 82.3952 109.926 82.3327 109.778 82.217C109.631 82.1011 109.526 81.9391 109.483 81.7567C109.439 81.5745 109.458 81.3829 109.537 81.2129C109.616 81.0431 109.751 80.9047 109.918 80.8205L112.475 79.532C112.573 79.4786 112.681 79.4455 112.792 79.4345C112.903 79.4236 113.015 79.4348 113.121 79.4679C113.228 79.5008 113.327 79.555 113.412 79.6268C113.497 79.6986 113.567 79.7869 113.617 79.8861C113.668 79.9854 113.698 80.0937 113.705 80.2049C113.713 80.3159 113.698 80.4273 113.662 80.5325C113.625 80.6377 113.568 80.7347 113.494 80.8174C113.419 80.9002 113.329 80.9673 113.228 81.0144L110.671 82.3059C110.555 82.3649 110.426 82.3952 110.296 82.3946Z" fill="white"/>
<path d="M215.543 136.33C215.36 136.33 215.181 136.27 215.036 136.157C214.889 136.046 214.785 135.889 214.738 135.712L212.81 128.432C212.78 128.326 212.771 128.214 212.784 128.105C212.797 127.995 212.832 127.888 212.887 127.792C212.942 127.695 213.015 127.611 213.104 127.544C213.191 127.475 213.292 127.426 213.398 127.397C213.507 127.37 213.618 127.364 213.728 127.379C213.838 127.394 213.944 127.431 214.038 127.489C214.135 127.545 214.217 127.62 214.283 127.71C214.348 127.8 214.396 127.9 214.422 128.009L216.348 135.288C216.404 135.502 216.372 135.727 216.261 135.918C216.149 136.109 215.967 136.246 215.754 136.302C215.685 136.32 215.615 136.331 215.543 136.33Z" fill="white"/>
<path d="M164.944 380.619C164.779 380.619 164.616 380.57 164.478 380.477C164.341 380.386 164.232 380.253 164.171 380.099C164.108 379.947 164.093 379.778 164.128 379.614C164.162 379.453 164.244 379.305 164.365 379.189C164.858 378.712 164.831 377.751 164.729 376.779L164.451 374.035C164.438 373.926 164.449 373.815 164.48 373.71C164.512 373.605 164.564 373.507 164.632 373.422C164.701 373.336 164.787 373.265 164.884 373.213C164.981 373.161 165.086 373.128 165.196 373.117C165.306 373.105 165.416 373.115 165.521 373.146C165.627 373.178 165.724 373.23 165.81 373.298C165.895 373.367 165.967 373.452 166.019 373.548C166.071 373.646 166.105 373.751 166.117 373.861L166.393 376.607C166.491 377.541 166.671 379.278 165.533 380.384C165.376 380.537 165.164 380.621 164.944 380.619Z" fill="white"/>
<path d="M173.021 380.185C172.879 380.183 172.738 380.147 172.613 380.076C170.586 378.945 170.501 376.277 170.436 374.329C170.436 374.163 170.436 374 170.42 373.844C170.41 373.623 170.49 373.408 170.64 373.246C170.789 373.083 170.997 372.987 171.218 372.978C171.438 372.969 171.655 373.048 171.817 373.198C171.981 373.347 172.077 373.554 172.086 373.774C172.086 373.936 172.086 374.105 172.106 374.276C172.158 375.914 172.225 377.954 173.43 378.627C173.59 378.717 173.717 378.857 173.789 379.026C173.862 379.195 173.876 379.384 173.83 379.563C173.783 379.74 173.679 379.898 173.534 380.011C173.387 380.124 173.209 380.185 173.024 380.185H173.021Z" fill="white"/>
<path d="M163.027 380.581C163.027 380.581 152.044 384.646 153.525 387.478C155.008 390.311 172.161 385.175 173.76 383.045C174.87 381.567 173.021 379.352 173.021 379.352L168.826 382.182C168.826 382.182 165.981 379.351 163.027 380.581Z" fill="#FFAAAB"/>
<path d="M156.175 389.141C155.897 389.141 155.619 389.141 155.367 389.111C154.012 389 153.168 388.593 152.788 387.864C152.649 387.596 152.569 387.3 152.555 386.998C152.543 386.696 152.597 386.394 152.713 386.115C153.823 383.235 161.208 380.368 162.722 379.808C165.364 378.717 167.841 380.298 168.891 381.134L172.555 378.663C172.726 378.546 172.935 378.497 173.14 378.526C173.346 378.555 173.532 378.659 173.665 378.819C174.499 379.829 175.623 381.961 174.435 383.543C172.944 385.508 161.649 389.141 156.175 389.141ZM164.579 381.104C164.156 381.102 163.737 381.186 163.346 381.348H163.316C160.165 382.517 154.923 385.001 154.268 386.699C154.237 386.759 154.22 386.824 154.22 386.891C154.22 386.957 154.237 387.022 154.268 387.082C154.268 387.082 154.437 387.359 155.506 387.442C160.504 387.847 172.078 383.895 173.097 382.534C173.525 381.981 173.149 381.086 172.802 380.493L169.295 382.862C169.135 382.97 168.943 383.019 168.75 382.999C168.558 382.981 168.377 382.895 168.24 382.76C168.219 382.754 166.52 381.104 164.593 381.104H164.579Z" fill="#FFAAAB"/>
<path d="M164.434 384.954C164.305 384.954 164.177 384.923 164.061 384.867C163.947 384.809 163.846 384.725 163.768 384.621L163.646 384.461C163.032 383.629 162.101 382.401 160.994 382.135C160.884 382.113 160.78 382.069 160.687 382.007C160.595 381.943 160.516 381.862 160.456 381.767C160.395 381.674 160.356 381.569 160.337 381.458C160.319 381.348 160.322 381.235 160.348 381.127C160.374 381.017 160.423 380.915 160.489 380.825C160.556 380.735 160.64 380.66 160.736 380.604C160.834 380.546 160.941 380.509 161.051 380.496C161.162 380.482 161.275 380.49 161.384 380.52C163.074 380.924 164.22 382.459 164.993 383.463L165.109 383.621C165.202 383.745 165.26 383.891 165.274 384.045C165.288 384.199 165.26 384.354 165.19 384.492C165.121 384.63 165.016 384.748 164.884 384.829C164.751 384.911 164.6 384.954 164.446 384.954H164.434Z" fill="#2B1927"/>
<path d="M161.188 385.838C161.052 385.838 160.919 385.804 160.799 385.742C160.679 385.678 160.577 385.586 160.499 385.475C159.882 384.581 159.013 383.892 158.002 383.493C157.895 383.456 157.797 383.4 157.713 383.324C157.631 383.249 157.562 383.158 157.516 383.055C157.469 382.953 157.443 382.844 157.44 382.732C157.435 382.619 157.455 382.508 157.496 382.403C157.538 382.299 157.599 382.203 157.678 382.124C157.758 382.043 157.851 381.981 157.955 381.938C158.058 381.895 158.172 381.874 158.283 381.875C158.396 381.877 158.506 381.901 158.61 381.947C159.928 382.469 161.061 383.371 161.863 384.537C161.949 384.662 161.998 384.809 162.007 384.96C162.014 385.111 161.982 385.261 161.911 385.396C161.84 385.528 161.735 385.641 161.605 385.719C161.475 385.797 161.326 385.838 161.174 385.838H161.188Z" fill="#2B1927"/>
<path d="M196.319 380.619C196.102 380.619 195.895 380.535 195.739 380.384C194.598 379.275 194.78 377.541 194.879 376.607L195.157 373.861C195.168 373.751 195.201 373.646 195.253 373.548C195.307 373.452 195.377 373.367 195.462 373.298C195.548 373.23 195.646 373.178 195.751 373.146C195.857 373.115 195.968 373.105 196.076 373.117C196.186 373.128 196.292 373.161 196.39 373.213C196.486 373.265 196.571 373.336 196.64 373.422C196.709 373.507 196.761 373.605 196.793 373.71C196.823 373.815 196.834 373.926 196.822 374.035L196.545 376.779C196.445 377.751 196.417 378.718 196.912 379.189C197.031 379.305 197.114 379.453 197.147 379.614C197.182 379.778 197.167 379.947 197.106 380.099C197.043 380.253 196.936 380.386 196.797 380.477C196.66 380.57 196.496 380.619 196.332 380.619H196.319Z" fill="white"/>
<path d="M188.244 380.185C188.059 380.185 187.879 380.124 187.732 380.012C187.587 379.9 187.482 379.741 187.436 379.563C187.389 379.386 187.402 379.197 187.474 379.028C187.548 378.857 187.674 378.717 187.835 378.627C189.043 377.954 189.11 375.914 189.162 374.276C189.162 374.105 189.162 373.936 189.182 373.774C189.186 373.666 189.212 373.559 189.258 373.458C189.304 373.359 189.37 373.271 189.451 373.198C189.532 373.123 189.625 373.065 189.729 373.028C189.831 372.99 189.939 372.974 190.049 372.978C190.159 372.983 190.266 373.009 190.366 373.054C190.465 373.1 190.553 373.166 190.628 373.246C190.703 373.326 190.76 373.42 190.798 373.522C190.834 373.626 190.853 373.734 190.848 373.844C190.848 374 190.848 374.163 190.831 374.329C190.767 376.268 190.682 378.945 188.652 380.076C188.527 380.147 188.386 380.183 188.244 380.185Z" fill="white"/>
<path d="M197.674 380.392C197.674 380.392 208.433 386.862 204.321 389.654C200.712 392.111 189.104 385.175 187.502 383.045C186.391 381.567 188.244 379.352 188.244 379.352L192.438 382.182C192.438 382.182 195.982 379.352 197.674 380.392Z" fill="#FFAAAB"/>
<path d="M202.261 390.995C196.987 390.995 188.218 385.383 186.836 383.543C185.648 381.961 186.758 379.829 187.606 378.819C187.737 378.659 187.925 378.555 188.13 378.526C188.336 378.497 188.545 378.546 188.716 378.663L192.417 381.157C193.622 380.287 196.348 378.599 198.114 379.68C198.946 380.176 206.001 384.527 206.094 387.993C206.114 388.654 205.904 389.593 204.796 390.344C204.036 390.809 203.153 391.036 202.261 390.995ZM188.469 380.503C188.105 381.13 187.769 382.005 188.174 382.546C189.616 384.461 200.817 391.029 203.857 388.966C204.376 388.614 204.437 388.285 204.43 388.038C204.376 386.098 199.988 382.76 197.249 381.11C196.475 380.631 194.268 381.808 192.971 382.839C192.834 382.95 192.663 383.014 192.486 383.022C192.308 383.029 192.133 382.979 191.986 382.882L188.469 380.503Z" fill="#FFAAAB"/>
<path d="M195.271 385.533C195.116 385.533 194.965 385.489 194.833 385.408C194.7 385.325 194.595 385.21 194.526 385.071C194.457 384.932 194.428 384.778 194.442 384.624C194.457 384.47 194.514 384.322 194.607 384.2C195.44 383.09 198.288 381.555 199.883 381.176C199.99 381.147 200.103 381.138 200.214 381.153C200.326 381.166 200.433 381.203 200.529 381.259C200.625 381.316 200.709 381.392 200.776 381.482C200.843 381.572 200.891 381.674 200.917 381.782C200.943 381.891 200.947 382.005 200.929 382.115C200.911 382.225 200.869 382.33 200.808 382.424C200.749 382.519 200.669 382.6 200.578 382.664C200.484 382.726 200.381 382.77 200.271 382.792C198.847 383.133 196.437 384.54 195.937 385.2C195.86 385.303 195.759 385.386 195.643 385.444C195.528 385.502 195.4 385.533 195.271 385.533Z" fill="#2B1927"/>
<path d="M198.152 386.791C197.978 386.791 197.807 386.737 197.665 386.635C197.523 386.533 197.416 386.39 197.359 386.223C197.304 386.057 197.303 385.879 197.355 385.713C197.407 385.545 197.511 385.399 197.65 385.295C198.965 384.367 200.396 383.612 201.906 383.052C202.009 383.013 202.119 382.993 202.229 382.996C202.339 382.999 202.447 383.023 202.548 383.069C202.649 383.113 202.739 383.179 202.815 383.258C202.89 383.339 202.95 383.434 202.988 383.537C203.026 383.639 203.044 383.749 203.04 383.859C203.035 383.969 203.009 384.077 202.963 384.178C202.916 384.277 202.85 384.367 202.769 384.441C202.688 384.514 202.592 384.572 202.488 384.61C201.131 385.117 199.841 385.794 198.652 386.624C198.508 386.733 198.332 386.791 198.152 386.791Z" fill="#2B1927"/>
<path d="M36.7713 154.132C36.6676 154.132 36.565 154.112 36.4687 154.074C36.2636 153.993 36.0989 153.834 36.0107 153.633L19.0751 115.056C19.0291 114.955 19.0038 114.846 19.0004 114.736C18.9969 114.625 19.0157 114.515 19.0556 114.411C19.0954 114.309 19.1554 114.214 19.2323 114.135C19.3089 114.054 19.4009 113.992 19.5028 113.948L52.152 99.6702C52.3542 99.5818 52.5832 99.5771 52.7889 99.6571C52.9945 99.7371 53.1599 99.8954 53.2486 100.097L70.1842 138.677C70.2302 138.778 70.2555 138.886 70.2589 138.998C70.2623 139.107 70.2436 139.219 70.2038 139.321C70.1639 139.424 70.1039 139.519 70.027 139.598C69.9504 139.677 69.8584 139.742 69.7565 139.786L37.1073 154.06C37.0015 154.107 36.8871 154.132 36.7713 154.132ZM20.9298 115.15L37.2017 152.203L68.3352 138.597L52.0632 101.527L20.9298 115.15Z" fill="white"/>
<path d="M36.1799 142.961C36.0178 142.961 35.8593 142.914 35.7237 142.826C35.588 142.737 35.4813 142.611 35.4165 142.463L24.2696 117.081C24.181 116.879 24.1764 116.651 24.2564 116.445C24.3366 116.241 24.4952 116.076 24.6972 115.986L50.1253 104.863C50.2261 104.817 50.3352 104.792 50.4459 104.788C50.5566 104.785 50.6671 104.804 50.7705 104.843C50.8739 104.883 50.9683 104.943 51.0481 105.02C51.1282 105.097 51.1919 105.188 51.2359 105.29L62.3688 130.67C62.4149 130.771 62.4402 130.881 62.4436 130.991C62.447 131.102 62.4282 131.212 62.3885 131.315C62.3486 131.417 62.2886 131.512 62.2118 131.593C62.1349 131.672 62.043 131.736 61.9413 131.779L36.5132 142.89C36.4085 142.937 36.2949 142.961 36.1799 142.961ZM26.1298 117.175L36.6047 141.033L60.506 130.577L50.0309 106.728L26.1298 117.175Z" fill="white"/>
<path d="M343.392 115.509C343.25 115.509 343.111 115.472 342.986 115.404L314.512 99.5696C314.32 99.4613 314.178 99.2814 314.118 99.0695C314.057 98.8591 314.083 98.6305 314.19 98.4384L332.965 64.8083C333.072 64.6146 333.252 64.4729 333.464 64.4134C333.676 64.3524 333.904 64.3783 334.096 64.4866L362.57 80.3175C362.666 80.3709 362.752 80.4425 362.82 80.5279C362.888 80.6148 362.939 80.7139 362.969 80.8191C362.999 80.9243 363.007 81.0356 362.994 81.1438C362.981 81.2536 362.947 81.3588 362.892 81.4533L344.119 115.088C344.066 115.183 343.995 115.268 343.908 115.335C343.823 115.404 343.725 115.454 343.62 115.484C343.545 115.501 343.468 115.51 343.392 115.509ZM316.051 98.5222L343.07 113.547L361.032 81.3679L334.019 66.3435L316.051 98.5222Z" fill="white"/>
<path d="M344.906 105.396C344.764 105.396 344.623 105.36 344.499 105.291L322.331 92.9652C322.235 92.9118 322.151 92.8402 322.082 92.7548C322.015 92.6695 321.965 92.5704 321.934 92.4652C321.903 92.36 321.896 92.2502 321.908 92.142C321.922 92.0322 321.955 91.927 322.009 91.8325L334.361 69.7067C334.468 69.5146 334.648 69.3728 334.86 69.3118C335.073 69.2523 335.3 69.2782 335.494 69.385L357.659 81.711C357.756 81.7643 357.84 81.836 357.908 81.9214C357.975 82.0067 358.026 82.1043 358.056 82.2095C358.087 82.3147 358.096 82.4245 358.084 82.5327C358.072 82.6425 358.037 82.7461 357.985 82.8422L345.633 104.97C345.579 105.066 345.508 105.149 345.422 105.218C345.336 105.285 345.239 105.337 345.133 105.366C345.059 105.386 344.982 105.396 344.906 105.396ZM323.869 91.9148L344.583 103.434L356.121 82.7599L335.407 71.2419L323.869 91.9148Z" fill="white"/>
<path d="M292.674 206.962C292.491 206.962 292.312 206.901 292.165 206.79C292.02 206.677 291.916 206.52 291.869 206.342L279.52 159.675C279.491 159.57 279.485 159.46 279.499 159.352C279.514 159.244 279.549 159.14 279.604 159.045C279.659 158.951 279.733 158.867 279.82 158.801C279.907 158.734 280.006 158.687 280.111 158.658L319.622 148.239C319.834 148.183 320.061 148.213 320.251 148.325C320.442 148.435 320.581 148.616 320.637 148.829L332.986 195.496C333.014 195.601 333.021 195.711 333.006 195.819C332.992 195.927 332.957 196.033 332.902 196.127C332.847 196.222 332.774 196.304 332.687 196.369C332.6 196.437 332.5 196.485 332.395 196.513L292.885 206.93C292.816 206.948 292.746 206.961 292.674 206.962ZM281.344 160.055L293.265 205.114L331.165 195.121L319.227 150.063L281.344 160.055Z" fill="white"/>
<path d="M293.978 194.209C293.795 194.209 293.616 194.148 293.471 194.037C293.325 193.924 293.221 193.767 293.173 193.589L285.051 162.89C285.022 162.785 285.016 162.674 285.03 162.566C285.045 162.457 285.08 162.354 285.135 162.259C285.19 162.165 285.263 162.082 285.35 162.015C285.437 161.95 285.537 161.901 285.642 161.873L316.4 153.764C316.506 153.737 316.617 153.729 316.726 153.743C316.834 153.758 316.939 153.793 317.034 153.848C317.224 153.961 317.361 154.142 317.419 154.354L325.543 185.057C325.571 185.162 325.578 185.272 325.563 185.381C325.549 185.489 325.513 185.592 325.458 185.687C325.404 185.781 325.331 185.865 325.244 185.931C325.157 185.996 325.057 186.045 324.952 186.074L294.192 194.182C294.123 194.2 294.052 194.209 293.978 194.209ZM286.871 163.267L294.571 192.364L323.721 184.679L316.023 155.583L286.871 163.267Z" fill="white"/>
<path d="M124.197 135.458C124 135.456 123.809 135.386 123.659 135.258C123.509 135.13 123.41 134.953 123.378 134.759L122.232 127.789C122.195 127.573 122.246 127.348 122.374 127.169C122.502 126.989 122.697 126.867 122.915 126.83C123.133 126.794 123.356 126.845 123.536 126.973C123.716 127.101 123.838 127.295 123.875 127.512L125.022 134.476C125.04 134.584 125.036 134.695 125.011 134.8C124.986 134.907 124.94 135.008 124.876 135.096C124.812 135.186 124.731 135.261 124.638 135.319C124.545 135.377 124.441 135.415 124.333 135.432C124.288 135.444 124.243 135.451 124.197 135.458Z" fill="white"/>
<path d="M201.873 169.301C202.936 168.382 203.047 165.641 201.57 164.84C190.288 165.058 175.257 165.447 164.006 164.84C163.215 165.648 161.475 168.165 163.73 169.315C187.522 170.49 198.041 169.396 201.873 169.301Z" fill="#FEB300"/>
<path d="M183.833 170.684C178.499 170.684 171.861 170.551 163.679 170.146C163.56 170.141 163.446 170.109 163.34 170.054C162.948 169.88 162.602 169.612 162.337 169.274C162.071 168.935 161.892 168.537 161.816 168.115C161.571 166.613 162.705 164.991 163.412 164.272C163.494 164.186 163.594 164.119 163.704 164.076C163.815 164.034 163.933 164.014 164.05 164.022C174.229 164.576 187.595 164.299 198.331 164.086L201.557 164.018C201.7 164.017 201.841 164.052 201.968 164.122C202.8 164.573 203.356 165.491 203.48 166.635C203.625 167.938 203.203 169.264 202.42 169.941C202.273 170.066 202.088 170.138 201.894 170.143C201.231 170.159 200.349 170.207 199.232 170.268C196.22 170.42 191.306 170.684 183.833 170.684ZM163.962 168.492C183.396 169.444 194.03 168.871 199.146 168.594C200.087 168.545 200.865 168.501 201.496 168.478C201.784 167.975 201.903 167.391 201.832 166.814C201.803 166.392 201.627 165.991 201.334 165.685L198.369 165.743C187.745 165.956 174.554 166.221 164.368 165.702C163.873 166.299 163.363 167.211 163.465 167.847C163.491 167.985 163.549 168.115 163.635 168.228C163.72 168.341 163.83 168.432 163.957 168.495L163.962 168.492Z" fill="#FEB300"/>
<path d="M241.748 204.889L242.709 207.566L250.969 199.717L241.748 204.889Z" fill="white"/>
<path d="M242.709 208.397C242.645 208.397 242.581 208.389 242.518 208.374C242.382 208.342 242.258 208.278 242.154 208.185C242.052 208.092 241.973 207.976 241.927 207.845L240.966 205.168C240.9 204.983 240.9 204.782 240.969 204.599C241.038 204.415 241.169 204.262 241.34 204.164L250.561 198.992C250.738 198.891 250.944 198.859 251.145 198.902C251.343 198.943 251.52 199.057 251.641 199.22C251.762 199.384 251.818 199.586 251.801 199.788C251.783 199.99 251.691 200.179 251.543 200.318L243.283 208.166C243.129 208.314 242.923 208.397 242.709 208.397ZM242.77 205.271L243.048 206.082L245.547 203.7L242.77 205.271Z" fill="white"/>
<path d="M104.238 100.269L114.941 100.742L104.608 103.131L104.238 100.269Z" fill="white"/>
<path d="M104.608 103.957C104.404 103.959 104.207 103.886 104.054 103.753C103.9 103.62 103.801 103.435 103.775 103.234L103.403 100.371C103.386 100.251 103.397 100.128 103.434 100.012C103.47 99.8963 103.532 99.7899 103.615 99.7002C103.697 99.6108 103.798 99.5402 103.91 99.4938C104.023 99.4475 104.144 99.4263 104.266 99.4318L114.969 99.9056C115.17 99.9147 115.361 99.9962 115.506 100.135C115.652 100.274 115.742 100.461 115.761 100.661C115.779 100.861 115.724 101.061 115.606 101.224C115.488 101.386 115.315 101.501 115.118 101.546L104.796 103.957C104.733 103.964 104.67 103.964 104.608 103.957ZM105.19 101.139L105.315 102.109L108.822 101.3L105.19 101.139Z" fill="white"/>
</g>
<defs>
<clipPath id="clip0_2107_2027">
<rect width="382" height="184" fill="white"/>
</clipPath>
</defs>
</svg>
