<svg width="187" height="187" viewBox="0 0 187 187" fill="none" xmlns="http://www.w3.org/2000/svg">
<g clip-path="url(#clip0_2111_219)">
<path d="M139.937 111.121C161.001 99.4727 172.75 80.3978 166.179 68.5162C159.608 56.6346 137.205 56.4429 116.141 68.0914C95.0753 79.741 83.328 98.8184 89.8987 110.7C96.4693 122.582 118.871 122.771 139.937 111.121Z" fill="#2B1927"/>
<path d="M60.2068 66.5187C82.7589 74.9315 104.888 71.4386 109.633 58.7175C114.379 45.9963 99.9448 28.8613 77.3927 20.4485C54.8384 12.0349 32.7087 15.5304 27.9632 28.2516C23.2177 40.9727 37.6525 58.1051 60.2068 66.5187Z" fill="#F3D408"/>
<path d="M137.184 107.332C158.248 95.6838 169.997 76.6089 163.426 64.7273C156.855 52.8456 134.452 52.6539 113.388 64.3024C92.3224 75.9521 80.5751 95.0294 87.1457 106.911C93.7164 118.793 116.118 118.982 137.184 107.332Z" fill="#F3D408"/>
<path d="M40.0572 155.344C60.8025 167.551 83.315 167.767 90.3406 155.827C97.3661 143.887 86.2458 124.31 65.5005 112.103C44.7532 99.8953 22.2392 99.6819 15.2136 111.622C8.18811 123.562 19.3098 143.136 40.0572 155.344Z" fill="#2B1927"/>
<path d="M44.2699 150.16C65.0152 162.366 87.4142 162.775 94.2997 151.073C101.185 139.371 89.9514 119.987 69.2061 107.78C48.4587 95.5725 26.0583 95.1661 19.1728 106.868C12.2873 118.57 23.5225 137.952 44.2699 150.16Z" fill="#F3D408"/>
<path d="M128.212 131.806C106.004 141.087 92.2442 158.766 97.4794 171.294C102.715 183.821 124.963 186.456 147.172 177.175C169.383 167.893 183.142 150.211 177.906 137.683C172.671 125.156 150.423 122.524 128.212 131.806Z" fill="#F3D408"/>
</g>
<defs>
<clipPath id="clip0_2111_219">
<rect width="187" height="187" fill="white"/>
</clipPath>
</defs>
</svg>
