<svg width="382" height="452" viewBox="0 0 382 452" fill="none" xmlns="http://www.w3.org/2000/svg">
<g clip-path="url(#clip0_2015_143)">
<path d="M168.628 388.588C168.491 388.588 168.356 388.552 168.238 388.485C168.118 388.416 168.021 388.316 167.951 388.198C167.882 388.079 167.846 387.945 167.848 387.806C167.848 387.67 167.884 387.534 167.953 387.416L168.257 386.896C170.672 382.739 172.755 379.168 172.061 374.113C171.246 368.16 169.371 360.952 167.561 353.981C165.905 347.616 164.196 341.037 163.33 335.53C161.176 321.818 161.771 311.38 165.266 301.679C165.296 301.578 165.348 301.484 165.416 301.404C165.483 301.323 165.567 301.257 165.66 301.209C165.754 301.162 165.858 301.133 165.963 301.127C166.068 301.12 166.173 301.134 166.272 301.17C166.372 301.205 166.462 301.26 166.54 301.332C166.618 301.402 166.68 301.489 166.723 301.585C166.766 301.681 166.789 301.785 166.792 301.89C166.794 301.997 166.773 302.101 166.735 302.198C163.335 311.639 162.759 321.841 164.871 335.281C165.724 340.714 167.423 347.255 169.067 353.585C170.888 360.602 172.775 367.851 173.608 373.899C174.374 379.483 172.048 383.463 169.606 387.671L169.302 388.191C169.234 388.31 169.137 388.41 169.018 388.48C168.9 388.549 168.766 388.587 168.628 388.588Z" fill="#FFAAAB"/>
<path d="M179.525 384.371C179.317 384.371 179.12 384.288 178.973 384.142C178.826 383.995 178.746 383.797 178.746 383.59V300.956C178.746 300.75 178.828 300.551 178.973 300.406C179.119 300.26 179.317 300.177 179.525 300.177C179.732 300.177 179.929 300.259 180.076 300.406C180.223 300.552 180.304 300.75 180.304 300.956V383.59C180.304 383.797 180.222 383.996 180.076 384.142C179.931 384.287 179.732 384.371 179.525 384.371Z" fill="#FFAAAB"/>
<path d="M163.912 402.764C172.929 398.491 177.326 391.849 179.525 383.592C178.041 394.102 167.184 393.928 168.628 387.808C165.511 391.447 163.641 400.107 163.912 402.764Z" fill="#FFAAAB"/>
<path d="M163.912 403.543C163.778 403.543 163.646 403.508 163.528 403.445C163.42 403.383 163.326 403.296 163.258 403.191C163.191 403.088 163.148 402.968 163.136 402.844C162.834 399.876 164.865 390.999 168.036 387.302C168.15 387.168 168.306 387.078 168.477 387.043C168.648 387.01 168.825 387.035 168.982 387.114C169.138 387.193 169.263 387.321 169.337 387.481C169.41 387.639 169.427 387.818 169.387 387.988C169.128 389.108 169.331 390.007 169.988 390.587C170.817 391.319 172.28 391.454 173.711 390.924C175.143 390.394 176.406 389.287 177.303 387.785C177.886 386.352 178.376 384.883 178.772 383.388C178.822 383.197 178.944 383.031 179.113 382.926C179.283 382.821 179.484 382.785 179.679 382.824C179.875 382.864 180.046 382.977 180.161 383.138C180.276 383.301 180.324 383.501 180.297 383.698C180.078 385.37 179.542 386.986 178.717 388.456C175.879 395.342 171.196 400.173 164.245 403.465C164.141 403.515 164.027 403.543 163.912 403.543ZM167.933 390.228C166.035 393.676 164.874 398.817 164.69 401.508C169.226 399.154 172.675 396.036 175.183 391.974C174.882 392.134 174.571 392.273 174.251 392.39C172.257 393.126 170.227 392.881 168.954 391.756C168.486 391.344 168.133 390.817 167.933 390.228Z" fill="#FFAAAB"/>
<path d="M172.129 397.034C171.924 397.034 171.727 396.953 171.58 396.809C170.356 395.601 168.748 394.786 167.191 393.996L165.927 393.352C165.742 393.257 165.603 393.094 165.538 392.898C165.475 392.701 165.49 392.486 165.584 392.302C165.678 392.118 165.842 391.978 166.038 391.915C166.235 391.85 166.448 391.867 166.632 391.961L167.898 392.606C169.484 393.408 171.276 394.321 172.677 395.7C172.823 395.846 172.905 396.045 172.905 396.251C172.905 396.456 172.823 396.657 172.677 396.802C172.532 396.949 172.335 397.032 172.129 397.034Z" fill="white"/>
<path d="M190.418 388.588C190.281 388.588 190.148 388.551 190.029 388.483C189.911 388.414 189.813 388.316 189.744 388.198L189.44 387.678C186.99 383.466 184.676 379.485 185.442 373.906C186.271 367.86 188.155 360.606 189.979 353.593C191.624 347.263 193.323 340.723 194.175 335.288C196.23 322.216 195.474 309.76 192.034 300.224C191.976 300.031 191.994 299.825 192.084 299.645C192.175 299.467 192.331 299.33 192.521 299.262C192.709 299.196 192.917 299.205 193.1 299.287C193.282 299.369 193.426 299.519 193.503 299.704C197.024 309.485 197.811 322.213 195.716 335.54C194.851 341.05 193.141 347.629 191.488 353.991C189.669 360.962 187.8 368.171 186.985 374.125C186.291 379.178 188.375 382.759 190.79 386.906L191.094 387.426C191.163 387.546 191.199 387.68 191.199 387.816C191.2 387.955 191.164 388.089 191.095 388.208C191.026 388.328 190.928 388.426 190.808 388.495C190.69 388.562 190.555 388.598 190.418 388.598V388.588Z" fill="#FFAAAB"/>
<path d="M195.137 402.764C186.117 398.491 181.721 391.849 179.525 383.592C181.217 392.658 192.362 394.16 190.418 387.808C193.536 391.447 195.406 400.107 195.137 402.764Z" fill="#FFAAAB"/>
<path d="M195.137 403.543C195.021 403.54 194.905 403.511 194.802 403.458C187.105 399.819 182.186 394.276 179.47 386.153C179.145 385.371 178.904 384.558 178.75 383.725C178.717 383.53 178.761 383.329 178.872 383.164C178.983 382.998 179.152 382.882 179.346 382.838C179.54 382.794 179.744 382.825 179.915 382.926C180.086 383.027 180.212 383.19 180.268 383.38C180.472 384.146 180.695 384.892 180.936 385.615C182.141 388.443 184.402 390.064 186.231 390.633C187.603 391.059 188.83 390.953 189.43 390.352C190.031 389.752 189.89 388.76 189.664 388.027C189.612 387.855 189.619 387.671 189.687 387.504C189.754 387.338 189.877 387.2 190.034 387.114C190.191 387.027 190.374 386.999 190.549 387.03C190.726 387.062 190.886 387.155 191.003 387.291C194.172 390.989 196.2 399.866 195.903 402.833C195.89 402.958 195.848 403.078 195.781 403.181C195.712 403.286 195.62 403.373 195.512 403.433C195.396 403.499 195.268 403.537 195.137 403.543ZM183.197 390.833C185.748 395.459 189.405 398.938 194.357 401.508C194.178 398.86 193.058 393.853 191.213 390.407C191.068 390.806 190.837 391.167 190.539 391.47C189.501 392.491 187.731 392.741 185.777 392.132C184.854 391.835 183.984 391.396 183.197 390.833Z" fill="#FFAAAB"/>
<path d="M186.918 397.034C186.814 397.034 186.713 397.012 186.618 396.973C186.523 396.933 186.437 396.876 186.363 396.802C186.218 396.657 186.136 396.458 186.136 396.251C186.136 396.043 186.218 395.846 186.363 395.7C187.761 394.321 189.557 393.408 191.143 392.606L192.408 391.961C192.499 391.915 192.598 391.886 192.701 391.879C192.803 391.87 192.907 391.883 193.003 391.915C193.101 391.946 193.19 391.997 193.268 392.063C193.346 392.131 193.411 392.211 193.457 392.302C193.503 392.394 193.532 392.494 193.539 392.596C193.547 392.698 193.534 392.8 193.503 392.898C193.471 392.995 193.421 393.085 193.354 393.163C193.288 393.241 193.206 393.304 193.115 393.352L191.85 393.996C190.29 394.775 188.684 395.601 187.46 396.809C187.315 396.952 187.121 397.032 186.918 397.034Z" fill="white"/>
<path d="M42.811 324.023C42.5144 324.023 42.2278 323.915 42.0046 323.719C41.0398 322.862 41.649 320.861 41.8592 320.269C42.2797 319.009 43.0515 317.897 44.084 317.062C43.7902 315.363 43.0573 313.622 41.816 312.417C41.0917 311.721 40.2421 311.171 39.3104 310.794C38.1253 315.459 35.2755 320.075 30.7352 322.462C28.6558 323.564 27.3022 323.198 26.5462 322.698C25.2474 321.843 24.7822 320.007 24.8917 318.66C25.2661 314.009 28.8805 310.831 32.1363 309.41C34.0328 308.601 36.1323 308.396 38.1498 308.825C38.3686 307.529 38.4406 306.214 38.3658 304.903C38.0619 300.132 35.7262 296.588 31.9606 295.19C30.7078 294.707 29.3557 294.545 28.0237 294.716C26.6931 294.887 25.4245 295.389 24.3358 296.172C21.1808 298.362 19.2973 302.544 19.2973 307.346C19.2973 307.552 19.2152 307.751 19.0683 307.898C18.9229 308.043 18.7242 308.125 18.5168 308.125C18.3094 308.125 18.1122 308.043 17.9653 307.898C17.8184 307.751 17.7363 307.552 17.7363 307.346C17.7363 302.024 19.8704 297.363 23.4531 294.873C24.7477 293.943 26.2539 293.351 27.8336 293.148C29.4147 292.943 31.0203 293.136 32.5093 293.708C36.8768 295.338 39.5826 299.376 39.9253 304.786C40.016 306.275 39.9282 307.77 39.6661 309.239C40.8814 309.688 41.9917 310.382 42.9277 311.28C44.336 312.647 45.1698 314.49 45.5571 316.306C45.8682 316.217 46.1878 316.165 46.5104 316.151C48.368 316.07 50.2112 317.013 51.091 318.515C51.2566 318.796 51.3877 319.095 51.4813 319.409C51.7146 319.306 51.9579 319.228 52.2085 319.177C53.048 319.025 53.9149 319.126 54.6982 319.467C55.4816 319.808 56.1454 320.374 56.6062 321.093C56.7114 321.271 56.7416 321.483 56.6898 321.683C56.6379 321.883 56.5083 322.056 56.3312 322.161C56.1541 322.266 55.941 322.295 55.7408 322.245C55.5406 322.193 55.3693 322.063 55.2642 321.885C54.9675 321.447 54.5514 321.101 54.0646 320.892C53.5779 320.684 53.0422 320.619 52.5195 320.705C52.1494 320.774 51.8139 320.963 51.5634 321.244C51.4525 321.797 51.2422 322.325 50.9427 322.802C50.8491 322.956 50.7051 323.073 50.5352 323.132C50.3653 323.192 50.181 323.191 50.011 323.13C49.8426 323.068 49.6986 322.952 49.6064 322.796C49.5142 322.642 49.4782 322.461 49.5042 322.282C49.5776 321.699 49.772 321.136 50.0758 320.633C50.1032 320.168 49.9894 319.706 49.749 319.307C49.1514 318.292 47.8784 317.647 46.5838 317.709C46.3088 317.723 46.0381 317.779 45.7803 317.879C45.8437 318.658 45.8192 319.442 45.7054 320.217C45.4275 321.99 44.6658 323.273 43.531 323.826C43.3107 323.948 43.063 324.016 42.811 324.023ZM44.2251 319.115C44.0754 319.311 43.9371 319.517 43.8147 319.73C43.3424 320.512 43.0731 321.399 43.0357 322.311C43.5714 321.911 43.9659 321.087 44.1373 319.995C44.1834 319.704 44.2122 319.411 44.2251 319.115ZM36.0546 310.169C34.9184 310.163 33.7923 310.393 32.7498 310.844C29.9072 312.085 26.755 314.824 26.4354 318.79C26.3706 319.569 26.6269 320.895 27.3973 321.389C28.1662 321.883 29.216 321.487 29.995 321.074C34.1523 318.889 36.7515 314.636 37.8214 310.337C37.2397 310.221 36.6478 310.163 36.0546 310.169Z" fill="#FEB300"/>
<path d="M333.644 230.697C332.025 230.697 330.524 230.322 329.54 229.67C329.384 229.55 329.277 229.375 329.244 229.18C329.211 228.986 329.253 228.786 329.362 228.622C329.47 228.456 329.637 228.339 329.829 228.292C330.02 228.246 330.224 228.273 330.395 228.371C331.861 229.334 335.54 229.605 338.191 227.866C340.678 226.24 341.64 223.305 340.972 219.383C340.825 218.559 340.545 217.764 340.145 217.03C337.341 216.469 333.921 214.952 332.785 213.35C332.251 212.597 332.319 211.974 332.466 211.584C332.614 211.193 333.075 210.394 334.459 210.528C336.372 210.718 339.344 212.776 341.124 215.621C341.516 215.679 341.912 215.705 342.307 215.7C347.328 215.565 351.88 212.384 353.261 208.164C348.859 208.392 344.755 206.898 342.284 204.032C340.937 202.473 340.387 200.716 340.772 199.22C341.346 196.995 343.757 195.87 345.752 195.764C348.301 195.631 350.83 196.803 352.686 199.009C354.428 201.056 355.324 203.689 355.19 206.374C355.451 206.325 355.71 206.27 355.971 206.209C363.351 204.487 369.029 197.895 369.181 190.896C369.282 186.13 367.181 181.282 363.558 177.945C356.023 170.991 343.459 167.187 334.335 169.095C331.322 169.726 327.388 171.272 325.728 175.071C325.562 175.494 325.483 175.946 325.496 176.401C325.509 176.856 325.614 177.303 325.803 177.716C326.253 178.836 327.122 179.735 328.225 180.225C328.411 180.305 328.556 180.455 328.632 180.642C328.709 180.829 328.71 181.038 328.635 181.225C328.56 181.414 328.415 181.565 328.232 181.647C328.048 181.731 327.839 181.74 327.649 181.672C326.906 181.352 326.232 180.89 325.669 180.31C325.104 179.731 324.661 179.045 324.361 178.294C324.091 177.687 323.945 177.032 323.935 176.368C323.925 175.706 324.047 175.046 324.299 174.432C325.824 170.952 329.184 168.578 334.015 167.567C343.744 165.532 356.623 169.412 364.615 176.796C368.564 180.435 370.852 185.72 370.738 190.928C370.574 198.625 364.376 205.847 356.326 207.724C355.856 207.834 355.386 207.92 354.921 207.985C353.603 213.127 348.255 217.08 342.338 217.241H341.958C342.207 217.84 342.389 218.467 342.5 219.106C343.484 224.893 341.159 227.765 339.033 229.156C337.419 230.171 335.55 230.705 333.644 230.697ZM334.179 212.067C334.099 212.059 334.016 212.075 333.944 212.111C333.921 212.164 333.944 212.275 334.067 212.443C334.725 213.372 336.748 214.422 338.804 215.071C337.565 213.644 336.057 212.6 334.922 212.213C334.683 212.125 334.433 212.076 334.179 212.067ZM346.153 197.312H345.846C344.399 197.391 342.671 198.138 342.291 199.601C341.928 201.015 342.998 202.46 343.474 203.005C345.714 205.605 349.534 206.904 353.608 206.574C353.855 204.333 353.088 201.897 351.492 200.007C350.042 198.287 348.117 197.312 346.153 197.312Z" fill="#FFAAAB"/>
<path d="M340.239 84.1551C336.457 84.1551 333.15 82.5812 331.476 79.9373C329.433 76.7132 330.902 72.8511 333.131 70.6292C335.665 68.1005 339.051 67.5807 341.757 69.3044C341.843 69.3591 341.916 69.4311 341.975 69.5146C342.034 69.5981 342.076 69.6932 342.098 69.7925C342.119 69.8933 342.122 69.9956 342.105 70.0964C342.086 70.1972 342.049 70.2937 341.994 70.3801C341.939 70.4665 341.867 70.5413 341.784 70.6004C341.699 70.6594 341.604 70.7012 341.505 70.7228C341.405 70.7444 341.302 70.7473 341.201 70.7285C341.1 70.7113 341.003 70.6724 340.917 70.6177C338.411 69.0221 335.821 70.1468 334.233 71.7322C332.43 73.5308 331.211 76.6023 332.794 79.105C334.283 81.4436 337.411 82.7842 340.96 82.574C347.357 82.1967 353.434 77.2705 357.189 69.3994C359.255 65.0852 359.338 60.6399 357.405 58.0753C356.074 56.3113 353.925 55.6215 351.184 56.0765C349.819 58.6081 347.374 60.9567 345.597 61.8581C344.589 62.378 343.778 62.4298 343.211 62.0353C342.906 61.8495 342.665 61.5716 342.526 61.2418C342.386 60.9121 342.353 60.5463 342.432 60.1978C342.9 58.0666 347.432 55.4991 350.11 54.7273C350.149 54.6409 350.185 54.5545 350.219 54.4681C351.407 51.5549 349.803 50.6117 349.276 50.3108C348.182 49.6671 346.886 49.9191 345.992 50.2431C344.009 50.9631 342.003 52.8049 341.427 54.4364C341.358 54.6322 341.214 54.7906 341.026 54.8799C340.841 54.9692 340.626 54.9807 340.43 54.9116C340.236 54.8425 340.076 54.6985 339.987 54.5127C339.898 54.3255 339.886 54.1109 339.955 53.9165C340.695 51.8372 343.008 49.67 345.459 48.7786C347.193 48.1479 348.785 48.2127 350.067 48.9687C351.514 49.8183 352.251 51.1258 352.202 52.7444C352.176 53.3161 352.073 53.882 351.893 54.4263C354.751 54.1945 357.13 55.1405 358.649 57.1421C360.932 60.1676 360.91 65.2465 358.597 70.0805C354.583 78.4714 348.023 83.726 341.054 84.1393C340.779 84.1465 340.51 84.1551 340.239 84.1551ZM344.069 60.7335C344.732 60.8631 347.106 59.1956 348.837 56.8801C346.641 57.8881 344.179 59.5642 343.966 60.5305C343.96 60.6039 343.941 60.6428 344.069 60.7335Z" fill="#FEB300"/>
<path d="M180.309 80.8056H180.226C180.02 80.7998 179.824 80.712 179.682 80.5608C179.54 80.411 179.464 80.2094 179.47 80.002C179.476 79.7947 179.564 79.5988 179.715 79.4577C179.866 79.3166 180.066 79.2403 180.273 79.246C180.603 79.2374 180.923 79.1352 181.198 78.9509C181.472 78.7665 181.686 78.5088 181.819 78.2064C181.268 78.012 180.773 77.6865 180.377 77.256C179.981 76.8268 179.695 76.307 179.545 75.7425C179.173 74.4436 179.415 73.0872 179.608 71.9928C179.644 71.7897 179.759 71.6083 179.929 71.4902C180.099 71.3721 180.308 71.326 180.512 71.362C180.716 71.398 180.897 71.5132 181.015 71.6832C181.133 71.8531 181.179 72.0619 181.143 72.2664C180.969 73.2484 180.772 74.3659 181.045 75.312C181.24 76.0003 181.77 76.5849 182.344 76.7304C182.54 76.7822 182.724 76.8744 182.883 77.0011C183.043 77.1278 183.172 77.2876 183.266 77.4676C183.359 77.6476 183.414 77.8464 183.427 78.0494C183.439 78.2524 183.408 78.4555 183.336 78.6456C183.103 79.2648 182.69 79.8005 182.151 80.1849C181.611 80.5694 180.97 80.7854 180.309 80.8056Z" fill="#FFAAAB"/>
<path d="M191.914 70.0128C191.789 70.0128 191.665 69.9812 191.553 69.9221C190.363 69.2957 189.288 68.76 188.139 68.5426C186.907 68.3064 185.73 68.5109 184.992 69.0855C184.912 69.1546 184.819 69.2079 184.719 69.2396C184.618 69.2727 184.511 69.2842 184.405 69.2741C184.3 69.264 184.197 69.2324 184.105 69.182C184.012 69.1316 183.93 69.0624 183.865 68.9789C183.8 68.8954 183.752 68.8004 183.725 68.6967C183.698 68.5944 183.692 68.4879 183.708 68.3828C183.724 68.2776 183.761 68.1783 183.817 68.0876C183.872 67.9983 183.947 67.9205 184.033 67.86C185.116 67.0104 186.762 66.6936 188.432 67.0104C189.792 67.2696 190.978 67.8572 192.279 68.544C192.433 68.6247 192.557 68.7557 192.629 68.9141C192.701 69.074 192.716 69.2525 192.675 69.4224C192.633 69.5924 192.535 69.7421 192.397 69.8501C192.259 69.9581 192.089 70.0157 191.914 70.0143V70.0128Z" fill="#FFAAAB"/>
<path d="M179.441 89.7811C174.793 89.7811 172.254 85.5374 172.254 83.3573C172.254 83.1499 172.336 82.9526 172.482 82.8057C172.629 82.6589 172.827 82.5768 173.033 82.5768C173.239 82.5768 173.438 82.6589 173.585 82.8057C173.73 82.9526 173.814 83.1499 173.814 83.3573C173.814 84.5294 175.507 88.2216 179.441 88.2216C182.284 88.2216 184.186 86.5166 185.099 83.1513C185.155 82.9555 185.288 82.7885 185.466 82.6891C185.643 82.5883 185.853 82.5624 186.051 82.6157C186.248 82.6689 186.417 82.7985 186.52 82.9742C186.624 83.1513 186.653 83.3601 186.604 83.5589C185.516 87.5707 182.973 89.7797 179.441 89.7797V89.7811Z" fill="#FFAAAB"/>
<path d="M179.408 84.6619C177.225 84.6748 175.046 84.4948 172.896 84.1233C172.793 84.1089 172.692 84.0729 172.603 84.0182C172.513 83.9635 172.436 83.8915 172.375 83.8065C172.313 83.7216 172.27 83.6251 172.247 83.5228C172.224 83.4206 172.222 83.3155 172.241 83.2118C172.258 83.1081 172.299 83.0102 172.356 82.9224C172.414 82.8345 172.487 82.7596 172.575 82.702C172.662 82.6444 172.76 82.6041 172.863 82.584C172.965 82.5652 173.072 82.5667 173.174 82.5883C177.324 83.2752 181.561 83.2752 185.712 82.5883C185.915 82.5523 186.126 82.5984 186.296 82.7164C186.465 82.8345 186.581 83.016 186.618 83.219C186.654 83.4235 186.608 83.6323 186.49 83.8022C186.372 83.9721 186.19 84.0873 185.987 84.1248C183.813 84.492 181.613 84.6705 179.408 84.6604V84.6619Z" fill="#FFAAAB"/>
<path d="M207.343 67.9118C208.935 39.5035 195.438 36.7286 193.12 39.9816C191.914 28.7251 178.355 21.3365 148.726 44.4297C138.254 52.5917 133.509 50.747 125.012 46.2773C123.317 49.6555 118.234 73.0901 135.574 80.4801C135.52 83.8713 138.1 99.8654 157.481 93.0916C158.318 97.3324 165.156 105.892 176.78 101.212C176.793 100.172 175.691 94.2509 175.691 94.2509C170.672 90.7272 164.759 87.0653 162.698 77.1581C161.919 75.5985 157.543 77.6549 155.724 76.0953C154.165 75.0557 153.645 72.7171 154.685 70.8984C155.464 69.5995 157.484 68.819 159.038 69.7133C159.297 69.7133 154.019 69.3547 157.478 68.7628C166.313 67.6713 179.628 61.5441 189.243 56.867C194.646 66.8304 197.53 67.7232 204.026 70.3224C205.76 71.4182 204.908 73.8144 204.647 75.1147C203.089 79.0128 196.75 76.0838 196.592 76.7232C194.993 82.476 193.474 88.2821 183.526 94.5475C183.526 94.5475 182.768 96.7219 182.729 98.4787C187.521 97.5801 208.631 102.302 214.171 81.9907C214.325 81.4248 206.716 79.0992 207.343 67.9147V67.9118Z" fill="#2B1927"/>
<path d="M170.271 103.35C167.92 103.363 165.604 102.784 163.535 101.667C159.981 99.7459 157.737 96.5664 156.94 94.0968C150.185 96.2957 144.772 95.9645 140.829 93.1119C136.123 89.7149 134.925 83.6482 134.814 80.9914C129.637 78.6528 125.997 74.6957 123.988 69.228C120.394 59.4504 123.239 48.1018 124.325 45.9288C124.373 45.8367 124.436 45.7546 124.515 45.6869C124.593 45.6192 124.685 45.5688 124.783 45.5371C124.881 45.5055 124.985 45.4939 125.088 45.5026C125.192 45.5112 125.291 45.54 125.384 45.589C133.698 49.9565 138.132 51.7061 148.251 43.8135C156.979 37.0123 164.881 32.413 171.705 30.145C177.723 28.1463 182.77 27.9807 186.707 29.6511C190.374 31.2106 192.868 34.4059 193.694 38.5402C194.825 38.0016 196.381 37.9815 197.977 38.5402C200.69 39.4935 209.445 44.437 208.127 67.9507C207.646 76.5259 212.22 79.6003 213.942 80.7567C214.592 81.193 215.107 81.5357 214.927 82.188C212.892 89.6487 208.528 94.6973 201.956 97.1928C196.498 99.2722 190.584 99.1858 186.67 99.1311C185.051 99.1109 183.656 99.0893 182.877 99.2376C182.763 99.2592 182.647 99.2549 182.534 99.2247C182.422 99.1944 182.318 99.1411 182.23 99.0663C182.143 98.9914 182.072 98.8978 182.023 98.7927C181.976 98.6875 181.952 98.5723 181.954 98.4571C181.996 96.5995 182.765 94.3805 182.796 94.2999C182.854 94.1343 182.968 93.9931 183.116 93.8995C192.702 87.853 194.208 82.4299 195.802 76.6872L195.846 76.5259C196.064 75.6447 197.026 75.8347 198.141 76.0536C200.48 76.5159 203.077 76.8456 203.904 74.8973C203.936 74.7432 203.974 74.5776 204.016 74.3976C204.359 72.9245 204.569 71.6515 203.671 71.0194L203.135 70.8063C197.143 68.4187 194.069 67.1919 188.924 57.8967C179.545 62.4413 168.134 67.6051 159.653 69.2136C159.717 69.2871 159.765 69.3735 159.795 69.4656C159.825 69.5592 159.836 69.6571 159.827 69.7536C159.818 69.9538 159.732 70.1424 159.586 70.2821C159.441 70.4203 159.248 70.4981 159.048 70.4981C158.997 70.4981 158.948 70.4923 158.9 70.4823H158.79C157.982 70.4045 157.343 70.3311 156.855 70.2231C156.241 70.3887 155.711 70.7746 155.366 71.3059C154.558 72.7171 154.921 74.6223 156.168 75.4632C156.195 75.4791 156.218 75.4992 156.244 75.5179C156.917 76.0954 158.344 75.973 159.601 75.8607C161.16 75.7224 162.788 75.5827 163.408 76.8255C163.437 76.8859 163.46 76.9493 163.473 77.0155C165.368 86.1106 170.682 89.8157 175.372 93.0831L176.152 93.6288C176.319 93.7455 176.434 93.924 176.472 94.1256C176.586 94.7391 177.586 100.165 177.573 101.244C177.571 101.398 177.523 101.547 177.437 101.673C177.349 101.799 177.226 101.897 177.084 101.955C174.924 102.853 172.611 103.327 170.271 103.35ZM157.481 92.3112C157.616 92.3112 157.75 92.3458 157.868 92.4149C157.965 92.4696 158.048 92.5445 158.113 92.6338C158.18 92.7231 158.224 92.8253 158.247 92.9347C158.609 94.7722 160.514 98.2483 164.278 100.292C167.678 102.133 171.705 102.266 175.972 100.689C175.834 99.4522 175.349 96.6298 174.993 94.7002L174.473 94.3387C169.57 90.9245 164.013 87.0624 161.968 77.4475C161.709 77.2114 160.482 77.3179 159.732 77.3856C158.172 77.521 156.428 77.6736 155.256 76.7045C153.354 75.4056 152.792 72.6293 154.012 70.4967C154.384 69.8976 154.906 69.4066 155.527 69.0725C155.576 68.2935 156.567 68.1163 157.346 67.9781H157.379C165.954 66.9183 178.73 61.105 188.9 56.1543C189.082 56.0621 189.292 56.0448 189.487 56.1067C189.681 56.1687 189.844 56.304 189.94 56.484C195.033 65.8829 197.754 66.9672 203.712 69.3447L204.32 69.5866C204.365 69.6053 204.406 69.6283 204.447 69.6543C206.425 70.9042 205.867 73.2917 205.531 74.7317C205.486 74.9218 205.445 75.0975 205.414 75.2515C205.404 75.2991 205.39 75.3451 205.373 75.3898C204.019 78.768 199.843 77.9515 197.837 77.557C197.628 77.5152 197.395 77.4691 197.202 77.4375C195.644 83.0535 193.861 88.8711 184.183 95.04C183.918 95.8709 183.718 96.7219 183.585 97.5845C184.422 97.5327 185.468 97.5485 186.689 97.5629C194.424 97.6723 208.777 97.8639 213.301 82.1981L213.069 82.0426C211.147 80.7437 206.038 77.3136 206.574 67.8571C207.563 50.0515 202.514 41.7931 197.454 40.0162C195.67 39.397 194.243 39.7512 193.762 40.4367C193.67 40.5663 193.542 40.6642 193.392 40.7175C193.244 40.7722 193.081 40.7794 192.928 40.7391C192.774 40.6987 192.637 40.6123 192.534 40.4928C192.431 40.3719 192.367 40.2235 192.351 40.0651C191.894 35.7927 189.675 32.6074 186.114 31.0896C181.523 29.1427 170.627 28.3695 149.214 45.049C138.675 53.2627 133.623 51.637 125.42 47.3688C124.308 50.544 122.384 60.3461 125.451 68.6923C127.366 73.9023 130.879 77.629 135.891 79.7645C136.034 79.825 136.155 79.9272 136.24 80.0583C136.323 80.1879 136.368 80.3405 136.365 80.496C136.333 82.4112 137.256 88.6119 141.743 91.8519C145.411 94.5 150.624 94.6685 157.233 92.3717C157.313 92.3386 157.396 92.3184 157.481 92.3112ZM197.35 76.9075V76.9464C197.349 76.9335 197.349 76.9205 197.35 76.9075Z" fill="#FEB300"/>
<path d="M125.419 165.407C125.36 165.407 125.303 165.4 125.245 165.386C118.808 163.931 109.08 162.219 98.7795 160.407C92.1195 159.235 85.2305 158.024 78.9996 156.836C78.896 156.822 78.7966 156.784 78.7073 156.73C78.6181 156.675 78.5403 156.603 78.4798 156.517C78.4193 156.432 78.3761 156.334 78.3545 156.231C78.3315 156.129 78.3315 156.024 78.3502 155.92C78.3689 155.817 78.4093 155.719 78.4683 155.632C78.5273 155.545 78.6022 155.471 78.6901 155.414C78.7779 155.356 78.8758 155.317 78.9795 155.298C79.0832 155.28 79.1883 155.282 79.2905 155.307C85.5113 156.491 92.396 157.7 99.0401 158.871C109.359 160.691 119.107 162.403 125.579 163.866C125.768 163.907 125.934 164.016 126.046 164.173C126.158 164.329 126.209 164.521 126.187 164.712C126.165 164.903 126.075 165.08 125.932 165.208C125.788 165.337 125.602 165.407 125.411 165.407H125.421H125.419Z" fill="#FFAAAB"/>
<path d="M125.627 166.399C125.487 166.399 125.349 166.362 125.228 166.29C125.107 166.218 125.008 166.114 124.94 165.99C124.874 165.866 124.842 165.727 124.848 165.586C124.854 165.446 124.898 165.309 124.976 165.191C129.473 158.357 137.903 141.643 150.031 115.511C150.586 114.316 150.971 113.486 151.151 113.111C151.475 112.432 151.849 111.733 152.556 111.305C154.064 110.39 155.837 111.393 156.79 111.931C162.377 115.089 170.349 116.047 175.794 115.93C176.417 107.755 176.12 98.463 175.658 95.0214C175.64 94.9177 175.641 94.8111 175.665 94.7089C175.688 94.6066 175.732 94.5087 175.794 94.4237C175.857 94.3388 175.935 94.2668 176.025 94.2121C176.116 94.1574 176.217 94.1228 176.321 94.1084C176.426 94.094 176.531 94.1012 176.633 94.13C176.735 94.1574 176.829 94.2063 176.912 94.2726C176.995 94.3388 177.062 94.4209 177.113 94.513C177.162 94.6066 177.192 94.7074 177.202 94.8126C177.687 98.4198 177.997 108.307 177.293 116.75C177.277 116.94 177.192 117.117 177.055 117.248C176.917 117.379 176.737 117.457 176.547 117.464C170.9 117.696 162.135 116.739 156.018 113.285C155.085 112.765 154.032 112.226 153.363 112.635C153.024 112.841 152.788 113.295 152.556 113.779C152.379 114.153 151.995 114.98 151.445 116.166C139.282 142.366 130.814 159.147 126.275 166.059C126.203 166.163 126.106 166.25 125.993 166.309C125.88 166.368 125.755 166.398 125.627 166.396V166.399Z" fill="#FFAAAB"/>
<path d="M159.89 139.837C159.683 139.837 159.484 139.755 159.339 139.608C159.192 139.461 159.11 139.264 159.11 139.056C159.11 139.056 159.038 136.951 156.574 133.252C156.46 133.079 156.418 132.869 156.459 132.666C156.5 132.463 156.62 132.284 156.793 132.17C156.964 132.057 157.176 132.015 157.377 132.055C157.58 132.095 157.759 132.216 157.873 132.388C160.636 136.545 160.669 138.957 160.669 139.055C160.669 139.262 160.587 139.46 160.44 139.607C160.295 139.753 160.096 139.835 159.89 139.835V139.837Z" fill="#FFAAAB"/>
<path d="M182.541 120.704C182.341 120.704 182.148 120.627 182.003 120.489C181.859 120.351 181.772 120.164 181.762 119.964C181.391 112.609 181.834 98.4629 182.199 94.1832C182.207 94.081 182.236 93.9816 182.284 93.8894C182.33 93.7987 182.395 93.7166 182.474 93.6504C182.551 93.5842 182.644 93.5338 182.742 93.5035C182.839 93.4718 182.942 93.4603 183.044 93.469C183.146 93.4776 183.247 93.5064 183.338 93.5539C183.428 93.6014 183.511 93.6662 183.577 93.744C183.643 93.8218 183.692 93.9139 183.724 94.0118C183.755 94.1098 183.767 94.2134 183.758 94.3157C183.397 98.5594 182.958 112.591 183.323 119.886C183.335 120.092 183.263 120.295 183.125 120.447C182.986 120.601 182.792 120.694 182.586 120.704H182.541Z" fill="#FFAAAB"/>
<path d="M242.196 149C242.022 149 241.854 148.941 241.717 148.833C236.337 144.629 226.931 133.485 218.631 123.653C213.028 117.013 206.677 109.499 205.351 108.9C204.765 108.978 202.786 110.004 201.035 110.915C195.838 113.612 187.999 117.688 182.282 116.806C182.18 116.79 182.084 116.754 181.996 116.702C181.908 116.649 181.833 116.578 181.773 116.496C181.712 116.414 181.667 116.32 181.643 116.221C181.62 116.122 181.616 116.018 181.631 115.917C181.646 115.816 181.682 115.718 181.735 115.632C181.788 115.544 181.859 115.468 181.941 115.409C182.023 115.348 182.117 115.305 182.216 115.281C182.317 115.256 182.419 115.252 182.521 115.268C187.734 116.074 195.306 112.15 200.315 109.535C203.174 108.053 204.578 107.342 205.414 107.342C206.713 107.342 209.5 110.419 219.823 122.651C227.662 131.94 237.423 143.505 242.69 147.597C242.82 147.696 242.913 147.833 242.96 147.99C243.006 148.146 243.003 148.313 242.949 148.467C242.896 148.62 242.797 148.753 242.664 148.848C242.532 148.942 242.372 148.992 242.209 148.992L242.196 149.003V149Z" fill="#FFAAAB"/>
<path d="M47.8395 76.4424C47.7013 76.4424 47.5645 76.405 47.445 76.3344C47.3255 76.2639 47.2261 76.1631 47.1584 76.0421L28.3232 42.1359C28.2282 41.9559 28.2066 41.7456 28.2642 41.5498C28.3218 41.354 28.4543 41.1883 28.6328 41.0904C28.8114 40.9925 29.0216 40.9651 29.2175 41.0199C29.4147 41.0731 29.5818 41.2027 29.6855 41.3784L48.5207 75.2847C48.5869 75.4027 48.6215 75.5367 48.6186 75.6735C48.6171 75.8088 48.5797 75.9427 48.5106 76.0594C48.4415 76.176 48.3435 76.2739 48.2255 76.3416C48.1074 76.4093 47.9749 76.4453 47.8381 76.4453L47.8395 76.4424Z" fill="#FFAAAB"/>
<path d="M52.5397 67.0306C52.3784 67.0306 52.22 66.9817 52.0875 66.8881C51.9551 66.7945 51.8557 66.6634 51.801 66.5108L46.3045 50.5354C46.2354 50.3396 46.2469 50.125 46.3362 49.9378C46.4255 49.7506 46.5853 49.6066 46.7811 49.5389C46.977 49.4713 47.1915 49.4813 47.3787 49.5706C47.5659 49.6599 47.7099 49.8197 47.7776 50.0156L53.2741 65.9837C53.3159 66.1018 53.3288 66.2271 53.3115 66.3509C53.2943 66.4748 53.2482 66.5914 53.1762 66.6937C53.1042 66.7959 53.0091 66.878 52.8983 66.9356C52.7874 66.9932 52.665 67.0234 52.5397 67.0234V67.0306Z" fill="#FFAAAB"/>
<path d="M71.8889 75.4574C71.7723 75.4574 71.6585 75.4301 71.5534 75.3797C71.3676 75.2904 71.2236 75.1305 71.1545 74.9361C71.0854 74.7417 71.0969 74.5272 71.1862 74.34C75.9267 64.4342 81.1236 54.5904 86.6374 45.0979C86.7454 44.928 86.9139 44.807 87.1097 44.7595C87.3056 44.712 87.5115 44.7408 87.6857 44.8416C87.86 44.9424 87.9881 45.1065 88.0443 45.2995C88.1005 45.4925 88.0788 45.6998 87.9867 45.8784C82.4931 55.3392 77.3148 65.1413 72.5931 75.011C72.5297 75.1449 72.4304 75.2573 72.3065 75.3365C72.1812 75.4157 72.0373 75.4574 71.8889 75.4574Z" fill="#FFAAAB"/>
<path d="M81.1683 81.9461C81.0229 81.9461 80.8803 81.9043 80.7564 81.828C80.6326 81.7517 80.5333 81.6408 80.4699 81.5098C80.4051 81.3787 80.3792 81.2333 80.3936 81.0893C80.408 80.9438 80.4627 80.807 80.552 80.6918L86.0355 73.5797C86.1622 73.4155 86.348 73.309 86.5539 73.283C86.7584 73.2571 86.9657 73.3133 87.1299 73.44C87.2941 73.5667 87.4006 73.7525 87.4265 73.9584C87.4524 74.1629 87.3963 74.3702 87.2696 74.5344L81.7861 81.6466C81.7126 81.7402 81.619 81.8165 81.5124 81.8698C81.4059 81.9216 81.2878 81.949 81.1683 81.949V81.9461Z" fill="#FFAAAB"/>
<path d="M34.7038 111.947C34.616 111.947 34.5282 111.934 34.4446 111.905C26.9091 109.348 19.2771 106.708 11.7747 104.034C11.589 103.959 11.4392 103.814 11.3571 103.631C11.275 103.448 11.2664 103.241 11.3326 103.052C11.3989 102.864 11.5371 102.708 11.7157 102.617C11.8942 102.527 12.1016 102.509 12.2931 102.567C19.7869 105.231 27.4088 107.876 34.9429 110.431C35.1186 110.49 35.2669 110.611 35.3619 110.771C35.457 110.93 35.4915 111.118 35.4598 111.3C35.4282 111.483 35.3331 111.649 35.1906 111.767C35.048 111.887 34.868 111.95 34.6822 111.948H34.7024L34.7038 111.947Z" fill="#FFAAAB"/>
<path d="M31.0448 128.141H30.9872L24.8701 127.711C24.7678 127.703 24.6685 127.676 24.5763 127.63C24.4842 127.584 24.4035 127.521 24.3358 127.443C24.2682 127.365 24.2178 127.274 24.1846 127.178C24.1515 127.08 24.14 126.978 24.1472 126.875C24.1544 126.773 24.1818 126.672 24.2278 126.582C24.2739 126.49 24.3373 126.407 24.415 126.341C24.4928 126.274 24.5821 126.223 24.68 126.19C24.7779 126.158 24.8802 126.144 24.9824 126.153L31.0923 126.586C31.1946 126.589 31.2954 126.613 31.389 126.655C31.4826 126.697 31.5661 126.757 31.6366 126.832C31.7072 126.907 31.7605 126.995 31.7965 127.09C31.8325 127.187 31.8498 127.289 31.8454 127.391C31.8426 127.493 31.8181 127.594 31.7763 127.688C31.7346 127.781 31.6741 127.865 31.5992 127.935C31.5243 128.006 31.4365 128.059 31.34 128.095C31.2435 128.131 31.1427 128.148 31.0405 128.144L31.0462 128.141H31.0448Z" fill="#FFAAAB"/>
<path d="M158.421 74.0074C158.358 74.0074 158.296 73.9988 158.234 73.9844L156.355 73.5221C156.256 73.4977 156.162 73.4545 156.08 73.394C155.998 73.3335 155.927 73.2572 155.874 73.1693C155.821 73.0815 155.786 72.985 155.77 72.8828C155.755 72.7805 155.76 72.6783 155.783 72.5789C155.808 72.4796 155.852 72.386 155.913 72.3025C155.973 72.2204 156.05 72.1498 156.138 72.0965C156.225 72.0433 156.322 72.0087 156.423 71.9929C156.525 71.977 156.627 71.9813 156.728 72.0058L158.606 72.4681C158.793 72.5113 158.957 72.6236 159.067 72.7805C159.176 72.9375 159.224 73.129 159.202 73.3205C159.179 73.5106 159.087 73.6863 158.943 73.813C158.799 73.9397 158.613 74.0089 158.421 74.0074Z" fill="#FFAAAB"/>
<path d="M185.738 73.0901C185.923 73.0901 186.072 72.9403 186.072 72.7546C186.072 72.5688 185.923 72.4191 185.738 72.4191C185.554 72.4191 185.403 72.5688 185.403 72.7546C185.403 72.9403 185.552 73.0901 185.738 73.0901Z" fill="#FFAAAB"/>
<path d="M185.738 73.8691C185.516 73.8691 185.302 73.8043 185.119 73.6819C184.935 73.5595 184.792 73.3852 184.707 73.1822C184.624 72.9792 184.601 72.7545 184.644 72.5385C184.687 72.3225 184.794 72.1238 184.949 71.9683C185.105 71.8128 185.303 71.7062 185.521 71.663C185.737 71.6198 185.96 71.6414 186.164 71.7264C186.368 71.8113 186.542 71.9539 186.664 72.1368C186.787 72.3197 186.853 72.5357 186.853 72.756C186.851 73.0512 186.735 73.3349 186.524 73.5437C186.316 73.7525 186.033 73.8705 185.738 73.8705V73.8691ZM185.738 72.311C185.649 72.311 185.564 72.3355 185.491 72.3845C185.417 72.4334 185.36 72.5025 185.325 72.5832C185.292 72.6638 185.282 72.7531 185.299 72.8395C185.316 72.9259 185.358 73.0051 185.42 73.067C185.482 73.1289 185.561 73.1721 185.648 73.1894C185.734 73.2067 185.823 73.198 185.904 73.1649C185.986 73.1318 186.055 73.0742 186.104 73.0008C186.153 72.9273 186.179 72.8409 186.179 72.7531C186.179 72.6365 186.131 72.5241 186.049 72.4406C185.967 72.3571 185.855 72.3096 185.738 72.3081V72.311Z" fill="#FFAAAB"/>
<path d="M179.561 96.1862C178.753 96.1862 177.955 96.0077 177.222 95.6664C169.998 92.3241 164.364 85.7923 162.523 78.6297C162.439 78.2669 162.286 77.9241 162.07 77.6217C161.46 76.8081 160.77 76.909 159.487 77.1768C158.959 77.305 158.419 77.3827 157.876 77.4086C157.212 77.4057 156.557 77.2488 155.963 76.9522C155.369 76.6555 154.852 76.2249 154.45 75.6965C154.05 75.1665 153.775 74.5531 153.649 73.9008C153.524 73.2485 153.55 72.576 153.727 71.9352C153.903 71.2944 154.224 70.704 154.666 70.2072C155.107 69.7104 155.657 69.323 156.273 69.0739C156.888 68.8248 157.553 68.7197 158.215 68.7686C158.878 68.8176 159.52 69.0177 160.092 69.3547C160.181 69.408 160.257 69.4785 160.318 69.5621C160.38 69.6456 160.423 69.7392 160.447 69.84C160.471 69.9408 160.475 70.0445 160.459 70.1453C160.443 70.2461 160.406 70.344 160.352 70.4318C160.298 70.5197 160.226 70.596 160.142 70.655C160.059 70.7155 159.964 70.7573 159.863 70.7803C159.762 70.8033 159.658 70.8062 159.558 70.7889C159.455 70.7717 159.359 70.7342 159.271 70.6781C158.905 70.4707 158.495 70.3483 158.074 70.3224C157.654 70.2965 157.233 70.367 156.843 70.5283C156.454 70.6896 156.107 70.9373 155.828 71.2541C155.549 71.5709 155.346 71.9453 155.235 72.3513C155.122 72.7574 155.105 73.1837 155.183 73.5984C155.261 74.0131 155.432 74.4033 155.683 74.7417C155.935 75.0801 156.26 75.3552 156.634 75.5496C157.01 75.7426 157.424 75.8477 157.844 75.8577C158.29 75.8318 158.734 75.7656 159.167 75.6605C160.466 75.4013 162.08 75.0499 163.325 76.7002C163.666 77.1667 163.911 77.6966 164.042 78.2597C165.744 84.8837 171.18 91.1664 177.887 94.2667C178.414 94.5115 178.988 94.6397 179.569 94.6397C180.151 94.6397 180.723 94.513 181.25 94.2667C187.887 91.1765 193.102 85.0392 194.856 78.2496C194.99 77.688 195.234 77.1581 195.573 76.6901C196.81 75.0557 198.432 75.3912 199.718 75.6662C200.151 75.7728 200.593 75.8376 201.038 75.8635C201.459 75.8534 201.871 75.7469 202.243 75.5539C202.616 75.3609 202.942 75.0845 203.192 74.7475C203.443 74.4106 203.613 74.0203 203.691 73.607C203.768 73.1937 203.75 72.7689 203.639 72.3629C203.528 71.9568 203.325 71.5824 203.047 71.267C202.769 70.9517 202.424 70.704 202.036 70.5413C201.647 70.38 201.228 70.308 200.809 70.3325C200.389 70.357 199.98 70.4765 199.614 70.6824C199.528 70.7371 199.43 70.7745 199.329 70.7918C199.227 70.8091 199.123 70.8062 199.022 70.7832C198.921 70.7601 198.826 70.7169 198.743 70.6579C198.659 70.5974 198.587 70.5225 198.534 70.4347C198.479 70.3469 198.443 70.249 198.426 70.1482C198.41 70.0459 198.415 69.9422 198.438 69.8429C198.462 69.7421 198.507 69.6485 198.567 69.5649C198.628 69.4814 198.705 69.4109 198.793 69.3576C199.652 68.8003 200.68 68.5685 201.695 68.7038C202.709 68.8392 203.642 69.3317 204.324 70.0934C205.007 70.8552 205.396 71.8358 205.419 72.8597C205.442 73.8821 205.098 74.88 204.45 75.672C204.054 76.212 203.535 76.6512 202.938 76.955C202.34 77.2589 201.68 77.4187 201.009 77.4202C200.467 77.3942 199.927 77.3165 199.398 77.1883C198.122 76.9291 197.428 76.8197 196.818 77.6275C196.6 77.9285 196.445 78.2712 196.361 78.6326C194.492 85.8614 188.952 92.4048 181.902 95.6736C181.168 96.012 180.368 96.1848 179.561 96.1834V96.1862Z" fill="#FFAAAB"/>
<path d="M200.464 74.0073C200.272 74.0088 200.086 73.9411 199.942 73.8144C199.797 73.6876 199.705 73.5134 199.682 73.3219C199.659 73.1318 199.706 72.9388 199.816 72.7819C199.927 72.6249 200.089 72.5126 200.276 72.4694L202.159 72.0072C202.359 71.9582 202.572 71.9899 202.748 72.0979C202.925 72.2044 203.053 72.3787 203.102 72.5788C203.151 72.779 203.118 72.9921 203.011 73.1692C202.903 73.3464 202.73 73.4731 202.53 73.522L200.648 73.9843C200.588 74.0001 200.526 74.0073 200.464 74.0073Z" fill="#FFAAAB"/>
<path d="M166.971 70.0128C166.796 70.0128 166.627 69.9552 166.488 69.8487C166.35 69.7407 166.252 69.5909 166.21 69.421C166.169 69.2511 166.184 69.0725 166.256 68.9127C166.328 68.7528 166.452 68.6232 166.606 68.5426C167.907 67.8571 169.093 67.2696 170.453 67.009C172.122 66.6922 173.766 67.009 174.852 67.8586C174.937 67.9205 175.007 67.9983 175.061 68.089C175.114 68.1783 175.148 68.2776 175.161 68.3813C175.176 68.485 175.17 68.5901 175.143 68.6909C175.115 68.7917 175.068 68.8853 175.003 68.9674C174.938 69.0495 174.859 69.1171 174.767 69.169C174.676 69.2194 174.575 69.2511 174.472 69.2626C174.368 69.2741 174.263 69.2626 174.164 69.2338C174.064 69.2035 173.971 69.1531 173.891 69.0869C173.156 68.5123 171.978 68.3079 170.744 68.544C169.597 68.7629 168.52 69.2971 167.332 69.9235C167.221 69.9826 167.097 70.0143 166.971 70.0143V70.0128Z" fill="#FFAAAB"/>
<path d="M173.148 73.0901C173.333 73.0901 173.482 72.9403 173.482 72.7546C173.482 72.5688 173.333 72.4191 173.148 72.4191C172.964 72.4191 172.813 72.5688 172.813 72.7546C172.813 72.9403 172.963 73.0901 173.148 73.0901Z" fill="#FFAAAB"/>
<path d="M173.148 73.8691C172.927 73.8691 172.712 73.8043 172.528 73.6819C172.345 73.5595 172.202 73.3852 172.117 73.1822C172.034 72.9792 172.011 72.7545 172.054 72.5385C172.097 72.3225 172.204 72.1238 172.359 71.9683C172.515 71.8128 172.713 71.7062 172.931 71.663C173.147 71.6198 173.37 71.6414 173.575 71.7264C173.778 71.8113 173.952 71.9539 174.074 72.1368C174.197 72.3197 174.263 72.5357 174.263 72.756C174.263 73.0512 174.145 73.3349 173.936 73.5437C173.727 73.7525 173.444 73.8705 173.148 73.8705V73.8691ZM173.148 72.311C173.059 72.311 172.974 72.3369 172.901 72.3859C172.827 72.4348 172.771 72.504 172.736 72.5861C172.703 72.6667 172.695 72.756 172.712 72.8424C172.729 72.9288 172.771 73.008 172.833 73.0699C172.895 73.1318 172.974 73.1736 173.06 73.1908C173.147 73.2081 173.236 73.1995 173.318 73.1649C173.399 73.1318 173.468 73.0742 173.517 73.0008C173.566 72.9273 173.592 72.8424 173.592 72.7545C173.592 72.6364 173.544 72.5241 173.461 72.4406C173.377 72.3571 173.265 72.311 173.148 72.3096V72.311Z" fill="#FFAAAB"/>
<path d="M124.086 168.709C123.936 168.709 123.789 168.664 123.663 168.582C123.49 168.47 123.368 168.293 123.326 168.09C123.283 167.888 123.321 167.676 123.434 167.504L126.117 163.385C126.236 163.231 126.41 163.127 126.603 163.096C126.796 163.064 126.995 163.106 127.158 163.212C127.322 163.32 127.44 163.485 127.487 163.675C127.535 163.865 127.509 164.065 127.415 164.238L124.734 168.356C124.664 168.464 124.567 168.552 124.455 168.614C124.341 168.676 124.216 168.709 124.086 168.709Z" fill="#FFAAAB"/>
<path d="M241.353 147.195C241.246 147.195 241.141 147.174 241.043 147.131C240.853 147.05 240.703 146.896 240.627 146.703C240.55 146.511 240.553 146.297 240.635 146.107C243.307 139.908 247.932 130.412 252.828 120.361C255.79 114.283 258.851 108 261.474 102.449C261.639 101.409 262.63 96.1272 265.55 94.9838C267.831 94.0896 270.285 94.0954 272.891 94.0925C276.529 94.0925 280.663 94.0925 285.074 91.4933C285.169 91.4371 285.274 91.4026 285.385 91.3896C285.494 91.3781 285.605 91.3896 285.71 91.4227C285.815 91.4573 285.912 91.5149 285.994 91.5898C286.076 91.6646 286.141 91.7554 286.185 91.8576C286.351 92.3011 286.422 92.7734 286.394 93.2458C286.367 93.7181 286.242 94.1789 286.027 94.5994C285.317 96.0422 283.665 97.1021 281.118 97.7515C281.017 97.7818 280.912 97.7904 280.809 97.7789C280.703 97.7674 280.603 97.7342 280.512 97.6824C280.421 97.6306 280.341 97.5614 280.277 97.4779C280.214 97.3944 280.168 97.2994 280.142 97.1971C280.116 97.0949 280.11 96.9898 280.126 96.8861C280.142 96.7824 280.179 96.683 280.234 96.5938C280.29 96.5045 280.362 96.4281 280.449 96.3677C280.533 96.3072 280.631 96.2654 280.734 96.2424C282.768 95.7226 284.112 94.9277 284.613 93.9398C284.699 93.7757 284.761 93.6014 284.797 93.42C280.437 95.6491 276.448 95.6462 272.891 95.6448C270.441 95.6448 268.125 95.6448 266.119 96.4238C264.238 97.1597 263.209 101.362 263.001 102.786C262.99 102.861 262.968 102.933 262.937 103.002C260.301 108.586 257.22 114.913 254.236 121.033C249.349 131.069 244.731 140.547 242.073 146.713C242.013 146.856 241.914 146.979 241.786 147.066C241.658 147.152 241.507 147.198 241.353 147.198V147.195Z" fill="#FFAAAB"/>
<path d="M242.922 159.163C238.197 159.163 230.888 152.022 223.152 144.459C216.331 137.797 208.6 130.245 205.098 130.885C204.44 131.004 203.961 131.427 203.593 132.215C202.062 135.493 200.196 139.359 200.179 139.398C200.088 139.584 199.928 139.728 199.732 139.795C199.536 139.863 199.322 139.851 199.136 139.761C198.95 139.671 198.806 139.51 198.739 139.316C198.669 139.12 198.682 138.905 198.772 138.72C198.793 138.681 200.654 134.821 202.182 131.556C202.766 130.306 203.652 129.563 204.82 129.352C209.117 128.573 216.464 135.747 224.241 143.346C231.041 149.992 238.74 157.512 242.844 157.605C243.671 157.26 246.313 154.427 254.003 136.879C258.923 125.646 264.184 112.368 267.301 104.433L267.333 104.355C267.373 104.253 267.434 104.162 267.511 104.085C267.589 104.008 267.683 103.949 267.785 103.91C268.044 103.814 274.281 101.595 286.066 105.326L294.527 99.962C294.967 98.8661 296.834 94.5548 299.67 92.6727C299.842 92.5589 300.053 92.5172 300.256 92.5575C300.459 92.5978 300.636 92.7188 300.751 92.8901C300.865 93.0629 300.907 93.2732 300.865 93.4762C300.824 93.6792 300.705 93.8578 300.532 93.9716C297.764 95.8061 295.907 100.705 295.888 100.754C295.829 100.914 295.72 101.049 295.577 101.141L286.592 106.838C286.494 106.9 286.386 106.939 286.272 106.953C286.158 106.968 286.043 106.957 285.933 106.921C275.969 103.694 270.036 104.903 268.642 105.277C265.491 113.249 260.299 126.37 255.418 137.5C247.344 155.929 244.624 158.74 243.158 159.133C243.096 159.149 243.032 159.157 242.967 159.159L242.922 159.165V159.163Z" fill="#FFAAAB"/>
<path d="M224.473 191.779C219.761 178.766 208.88 168.756 193.853 175.798C193.874 175.798 187.357 168.281 193.83 159.306C200.635 149.881 204.139 141.965 195.987 132.899C188.814 136.29 184.085 140.24 179.525 146.012C174.961 140.24 170.549 136.29 163.376 132.899C155.225 141.965 158.728 149.881 165.534 159.306C172.012 168.281 165.49 175.797 165.511 175.798C153.206 173.562 142.414 181.104 137.706 194.116C125.532 227.719 156.709 283.098 158.796 300.554C173.937 303.345 193.562 298.165 200.567 300.554C202.654 283.098 236.638 225.379 224.473 191.779Z" fill="#FF5E6C"/>
<path d="M169.45 302.185C165.833 302.221 162.22 301.932 158.655 301.317C158.492 301.287 158.342 301.206 158.228 301.085C158.113 300.964 158.041 300.809 158.021 300.645C157.411 295.543 154.155 286.832 150.385 276.738C141.074 251.827 128.323 217.714 136.968 193.843C141.866 180.33 152.902 172.945 165.175 174.944C166.474 173.124 170.113 166.967 164.916 159.755C158.892 151.413 153.767 142.425 162.811 132.369C162.923 132.245 163.073 132.16 163.237 132.127C163.401 132.094 163.571 132.116 163.722 132.188C171.15 135.698 175.5 139.771 179.538 144.757C184.192 139.041 188.926 135.374 195.667 132.188C195.818 132.116 195.988 132.096 196.152 132.127C196.318 132.16 196.466 132.245 196.579 132.369C205.622 142.426 200.498 151.413 194.476 159.755C189.381 166.813 192.741 172.871 194.116 174.826C199.944 172.241 205.466 171.994 210.538 174.093C216.89 176.724 222.103 182.909 225.217 191.504C233.792 215.191 219.945 250.122 209.832 275.63C205.617 286.262 201.976 295.439 201.355 300.635C201.341 300.75 201.302 300.859 201.24 300.957C201.178 301.055 201.094 301.139 200.996 301.201C200.899 301.262 200.788 301.301 200.671 301.316C200.556 301.329 200.439 301.316 200.328 301.278C197.254 300.239 191.387 300.733 184.595 301.317C179.767 301.741 174.574 302.185 169.45 302.185ZM159.493 299.883C167.423 301.234 176.456 300.46 184.438 299.773C190.829 299.225 196.417 298.734 199.914 299.557C200.806 294.101 204.167 285.637 208.358 275.066C218.382 249.79 232.106 215.175 223.728 192.044C220.808 183.989 215.775 177.961 209.917 175.536C205.099 173.543 199.804 173.867 194.172 176.505C194.033 176.571 193.876 176.593 193.722 176.569C193.569 176.545 193.426 176.476 193.313 176.37C193.275 176.335 193.241 176.298 193.212 176.256C192.081 174.825 186.956 167.484 193.187 158.845C200.137 149.23 202.802 142.004 195.787 133.852C189.269 137.009 184.703 140.705 180.129 146.49C180.057 146.582 179.964 146.657 179.859 146.707C179.752 146.759 179.636 146.786 179.517 146.786C179.399 146.786 179.284 146.759 179.178 146.707C179.072 146.657 178.979 146.582 178.905 146.49C174.922 141.448 170.768 137.356 163.574 133.852C156.558 142.004 159.219 149.22 166.173 158.845C172.41 167.498 167.257 174.855 166.157 176.243L166.118 176.292C166.029 176.397 165.914 176.476 165.783 176.522C165.653 176.567 165.513 176.579 165.378 176.553C153.705 174.426 143.132 181.42 138.441 194.365C129.99 217.701 142.628 251.503 151.852 276.186C155.667 286.425 158.715 294.577 159.493 299.883Z" fill="#FF5E6C"/>
<path d="M201.129 129.46C201.002 129.46 200.877 129.43 200.763 129.371C200.651 129.312 200.554 129.226 200.482 129.12C200.412 129.015 200.366 128.894 200.351 128.768C200.338 128.641 200.354 128.513 200.402 128.395C200.817 127.364 201.431 126.426 202.213 125.637C202.995 124.848 203.927 124.223 204.954 123.8C205.05 123.758 205.152 123.736 205.256 123.735C205.361 123.735 205.463 123.754 205.56 123.792C205.656 123.831 205.744 123.89 205.818 123.964C205.891 124.037 205.949 124.125 205.988 124.222C206.026 124.318 206.047 124.422 206.045 124.525C206.044 124.629 206.021 124.733 205.979 124.828C205.937 124.923 205.877 125.009 205.8 125.081C205.725 125.153 205.636 125.208 205.538 125.245C204.707 125.588 203.953 126.094 203.321 126.733C202.687 127.372 202.189 128.131 201.855 128.966C201.797 129.112 201.696 129.237 201.568 129.325C201.439 129.413 201.286 129.46 201.129 129.46Z" fill="#FFAAAB"/>
<path d="M293.223 99.1642C293.135 99.1642 293.047 99.1513 292.962 99.1225C292.768 99.0548 292.606 98.9137 292.516 98.7279C292.425 98.5421 292.412 98.3276 292.48 98.1332C293.812 94.2711 296.322 90.9231 299.657 88.5629C299.74 88.5039 299.835 88.4621 299.935 88.4405C300.035 88.4189 300.138 88.4161 300.238 88.4333C300.339 88.4506 300.436 88.4881 300.522 88.5428C300.609 88.5975 300.683 88.6695 300.742 88.753C300.801 88.8365 300.843 88.9316 300.866 89.0309C300.888 89.1303 300.891 89.234 300.873 89.3348C300.855 89.4356 300.819 89.5321 300.763 89.6185C300.708 89.7049 300.637 89.7797 300.554 89.8388C297.488 92.0132 295.183 95.0919 293.96 98.6458C293.907 98.7985 293.807 98.9295 293.675 99.0231C293.542 99.1167 293.384 99.1657 293.223 99.1657V99.1642Z" fill="#FFAAAB"/>
<path d="M290.341 98.5219C290.235 98.5219 290.13 98.5003 290.032 98.46C289.935 98.4196 289.849 98.3606 289.777 98.2857C289.705 98.2108 289.647 98.123 289.61 98.0265C289.572 97.93 289.554 97.8264 289.556 97.7227C289.559 97.619 289.582 97.5168 289.626 97.4217C291.456 93.178 294.232 89.4081 297.744 86.4043C297.822 86.338 297.913 86.2876 298.009 86.256C298.107 86.2243 298.209 86.2128 298.312 86.2214C298.414 86.23 298.513 86.2574 298.604 86.3049C298.696 86.351 298.777 86.4158 298.843 86.4936C298.909 86.5713 298.96 86.662 298.991 86.7585C299.023 86.8564 299.035 86.9587 299.026 87.0609C299.019 87.1632 298.99 87.2625 298.944 87.3532C298.896 87.444 298.833 87.526 298.755 87.5923C295.424 90.442 292.791 94.0161 291.056 98.0409C290.996 98.182 290.899 98.3044 290.77 98.3908C290.644 98.4772 290.494 98.5233 290.341 98.5248V98.5219Z" fill="#FFAAAB"/>
<path d="M287.458 97.776C287.36 97.776 287.264 97.7587 287.173 97.7213C286.98 97.645 286.826 97.4967 286.744 97.3066C286.662 97.1165 286.658 96.9019 286.734 96.7104C288.082 93.3005 290.504 89.7077 293.059 87.3317C293.133 87.2626 293.221 87.2079 293.318 87.1719C293.414 87.1359 293.516 87.12 293.619 87.1244C293.721 87.1287 293.822 87.1517 293.914 87.1949C294.007 87.2381 294.091 87.2986 294.16 87.3735C294.231 87.4483 294.284 87.5362 294.32 87.6327C294.356 87.7291 294.372 87.8314 294.368 87.9336C294.365 88.0359 294.34 88.1367 294.297 88.2288C294.255 88.3224 294.195 88.4059 294.118 88.4751C291.725 90.6999 289.441 94.0752 288.184 97.2835C288.127 97.429 288.026 97.5528 287.898 97.6407C287.768 97.7285 287.615 97.7746 287.458 97.7746V97.776Z" fill="#FFAAAB"/>
<path d="M285.232 102.038C285.081 102.038 284.933 101.994 284.806 101.912C283.595 101.133 281.194 100.025 278.424 99.5285C275.375 98.9827 272.585 99.0432 270.129 99.7027C269.932 99.7488 269.725 99.7157 269.552 99.612C269.378 99.5083 269.253 99.3413 269.199 99.1455C269.147 98.9511 269.172 98.7423 269.27 98.5651C269.368 98.388 269.53 98.257 269.723 98.1965C272.403 97.4765 275.423 97.4175 278.699 97.9935C281.698 98.5291 284.322 99.7344 285.658 100.593C285.8 100.685 285.908 100.819 285.967 100.977C286.024 101.136 286.03 101.308 285.982 101.47C285.935 101.631 285.836 101.773 285.7 101.873C285.565 101.974 285.401 102.027 285.232 102.027V102.037V102.038Z" fill="#FFAAAB"/>
<path d="M79.1811 156.852C79.0126 156.852 78.847 156.797 78.7131 156.695C78.5778 156.594 78.4798 156.45 78.4338 156.289C78.4136 156.216 76.9938 151.504 73.0813 148.909C71.0538 147.565 69.7678 147.25 68.276 146.887C66.3896 146.425 64.2483 145.902 60.3891 143.16C60.2293 143.038 60.1227 142.858 60.0925 142.658C60.0622 142.458 60.1112 142.255 60.2278 142.091C60.3445 141.926 60.5216 141.813 60.7189 141.775C60.9176 141.738 61.1221 141.778 61.2906 141.889C64.9078 144.459 66.8072 144.922 68.6446 145.372C70.5411 145.76 72.3411 146.52 73.941 147.609C78.3589 150.535 79.8709 155.641 79.9328 155.857C79.9904 156.056 79.9659 156.269 79.8666 156.449C79.7672 156.63 79.5987 156.764 79.4014 156.822C79.3309 156.842 79.2574 156.852 79.1826 156.852H79.1811Z" fill="#FFAAAB"/>
<path d="M128.707 175.193C125.29 175.193 113.779 171.979 95.9053 166.877C87.1486 164.375 78.8773 162.013 73.5392 160.717C70.4216 159.958 63.4981 160.608 59.6057 162.553C59.4776 162.616 59.335 162.642 59.1925 162.632L47.2577 161.629C47.0849 161.613 46.9208 161.541 46.7926 161.424C46.7537 161.387 42.8945 157.843 39.5998 157.442C39.3925 157.416 39.2053 157.311 39.0757 157.147C38.9475 156.983 38.8885 156.774 38.9144 156.568C38.9389 156.361 39.0454 156.172 39.2096 156.044C39.3737 155.916 39.5825 155.858 39.7885 155.883C43.1667 156.29 46.7552 159.297 47.6465 160.085L59.1089 161.05C63.3785 159.003 70.5094 158.365 73.9049 159.191C79.2733 160.491 87.5605 162.863 96.3329 165.371C109.796 169.216 126.512 173.992 128.91 173.631C131.938 171.901 137.471 163.001 142.823 154.39C151.295 140.76 156.233 133.138 159.195 134.98C159.368 135.091 159.49 135.264 159.536 135.464C159.582 135.664 159.547 135.874 159.439 136.048C159.331 136.223 159.159 136.348 158.959 136.395C158.76 136.443 158.55 136.411 158.374 136.305C158.269 136.24 157.232 135.824 153.259 141.216C150.565 144.873 147.296 150.13 144.135 155.213C138.364 164.497 132.912 173.268 129.536 175.061C129.48 175.09 129.42 175.113 129.358 175.129C129.143 175.175 128.924 175.196 128.706 175.193H128.707Z" fill="#FFAAAB"/>
<path d="M48.1203 158.869C47.9158 158.869 47.72 158.789 47.5745 158.645C44.8861 156.018 41.4416 154.302 37.7264 153.734C37.5219 153.704 37.3376 153.593 37.2152 153.426C37.0913 153.259 37.0409 153.052 37.0712 152.847C37.1014 152.641 37.2123 152.459 37.3793 152.335C37.5464 152.212 37.7537 152.16 37.9597 152.191C41.9989 152.806 45.7443 154.672 48.6689 157.526C48.7798 157.634 48.8547 157.772 48.8864 157.925C48.9181 158.076 48.9022 158.233 48.8446 158.377C48.7856 158.519 48.6862 158.642 48.5581 158.728C48.4299 158.815 48.2787 158.861 48.1232 158.861V158.869H48.1203Z" fill="#FFAAAB"/>
<path d="M49.5416 156.309C49.3587 156.309 49.183 156.244 49.0419 156.128C45.9243 153.528 42.9277 152.061 38.3384 150.931C38.2347 150.911 38.1368 150.869 38.0489 150.81C37.9611 150.751 37.8877 150.673 37.8301 150.585C37.7739 150.496 37.735 150.396 37.7177 150.293C37.7005 150.188 37.7048 150.081 37.7293 149.979C37.7537 149.877 37.7998 149.78 37.8632 149.697C37.9265 149.612 38.0072 149.541 38.0979 149.489C38.1901 149.436 38.2909 149.403 38.396 149.391C38.5011 149.378 38.6077 149.387 38.7085 149.417C43.5497 150.599 46.7278 152.143 50.0413 154.924C50.1637 155.027 50.2529 155.166 50.2933 155.32C50.335 155.474 50.3278 155.638 50.2731 155.789C50.2184 155.939 50.119 156.069 49.988 156.161C49.8569 156.253 49.7 156.302 49.5401 156.302V156.309H49.5416Z" fill="#FFAAAB"/>
<path d="M50.757 153.994C50.5655 153.994 50.3811 153.924 50.2371 153.796C47.6624 151.497 46.0122 150.566 42.873 149.652C42.7751 149.623 42.6829 149.576 42.6037 149.511C42.5245 149.447 42.4583 149.368 42.4079 149.278C42.3085 149.098 42.2855 148.883 42.3431 148.686C42.4007 148.487 42.536 148.319 42.716 148.219C42.8975 148.12 43.1106 148.097 43.3093 148.154C46.6688 149.135 48.5322 150.182 51.2768 152.634C51.4309 152.772 51.5231 152.965 51.5331 153.173C51.5447 153.379 51.4741 153.58 51.3359 153.734C51.2624 153.815 51.1731 153.881 51.0738 153.926C50.9744 153.971 50.8664 153.994 50.757 153.994Z" fill="#FFAAAB"/>
<path d="M71.1531 149.818H46.4297V155.896H71.1531V149.818Z" fill="#FFAAAB"/>
<path d="M71.1531 156.673H46.4226C46.2152 156.673 46.0179 156.591 45.871 156.445C45.7242 156.299 45.6421 156.1 45.6421 155.893V149.818C45.6421 149.612 45.7242 149.413 45.871 149.266C46.0165 149.121 46.2152 149.039 46.4226 149.039H71.1459C71.3518 149.039 71.5506 149.121 71.6974 149.266C71.8443 149.413 71.9264 149.612 71.9264 149.818V155.893C71.9264 156.099 71.8458 156.296 71.7003 156.442C71.5563 156.588 71.359 156.671 71.1546 156.673H71.1531ZM47.2102 155.114H70.3741V150.598H47.203L47.2102 155.114Z" fill="#FFAAAB"/>
<path d="M64.4773 149.269H51.5158C51.3632 149.269 51.2134 149.224 51.0867 149.141C50.96 149.057 50.8592 148.938 50.8002 148.797C50.7397 148.657 50.7224 148.501 50.7497 148.352C50.7771 148.202 50.8477 148.062 50.9528 147.953L54.6421 144.081L49.4739 114.916C49.0059 112.258 49.1514 109.528 49.9002 106.933L50.5985 104.524V104.495C50.7872 103.932 51.1314 103.432 51.5907 103.055C52.0501 102.678 52.6074 102.439 53.1963 102.364L54.9344 102.148C55.2656 102.109 55.5709 101.945 55.7869 101.69C56.0029 101.435 56.1152 101.108 56.1008 100.775C56.0821 100.567 56.0202 100.365 55.9194 100.182C55.8186 99.9993 55.6803 99.8395 55.5133 99.7128C54.2993 98.699 53.575 96.9897 53.575 95.1393C53.575 92.1168 55.519 89.6587 57.9094 89.6587C60.2998 89.6587 62.241 92.1168 62.241 95.1393C62.241 96.8731 61.5857 98.5176 60.4899 99.5572C60.3473 99.684 60.2336 99.8395 60.1544 100.012C60.0752 100.185 60.0334 100.374 60.0291 100.564V100.865C60.0291 101.192 60.1486 101.506 60.3646 101.75C60.5806 101.995 60.8787 102.151 61.2027 102.191L62.7622 102.378C63.3526 102.453 63.9099 102.694 64.3693 103.071C64.8286 103.448 65.1728 103.948 65.3614 104.512V104.541L66.0584 106.944C66.8086 109.536 66.9541 112.267 66.4846 114.925L61.3496 144.081L65.0389 147.953C65.144 148.062 65.2145 148.202 65.2419 148.352C65.2693 148.501 65.252 148.657 65.1915 148.797C65.131 148.938 65.0317 149.057 64.905 149.141C64.7782 149.224 64.6285 149.269 64.4758 149.269H64.4773ZM53.3374 147.711H62.6585L59.9514 144.87C59.8678 144.782 59.8045 144.675 59.7699 144.557C59.7353 144.441 59.7282 144.317 59.7483 144.197L64.987 114.644C65.4118 112.221 65.2794 109.732 64.5968 107.368L63.9056 104.98C63.8091 104.699 63.6378 104.452 63.4074 104.263C63.1784 104.076 62.9005 103.955 62.6053 103.918L61.0457 103.727C60.3445 103.643 59.6979 103.303 59.2285 102.774C58.759 102.246 58.4998 101.563 58.4998 100.856V100.555C58.5041 100.152 58.592 99.7531 58.7562 99.3844C58.9203 99.0158 59.1594 98.6846 59.456 98.411C60.235 97.6737 60.7117 96.4512 60.7117 95.1422C60.7117 92.9808 59.469 91.2211 57.9382 91.2211C56.4075 91.2211 55.1634 92.9808 55.1634 95.1422C55.1634 96.5145 55.6832 97.8091 56.5429 98.5204C56.8798 98.7854 57.1563 99.1195 57.3536 99.4996C57.5509 99.8798 57.6661 100.299 57.6891 100.727C57.7179 101.449 57.4745 102.158 57.0037 102.709C56.5342 103.261 55.8733 103.614 55.1547 103.7L53.4166 103.916C53.1229 103.955 52.845 104.075 52.616 104.263C52.387 104.45 52.2142 104.699 52.1177 104.979L51.4237 107.369C50.7425 109.734 50.6101 112.222 51.0363 114.646L56.2462 144.199C56.2678 144.32 56.2592 144.442 56.2232 144.56C56.1872 144.677 56.1253 144.783 56.0403 144.871L53.336 147.712L53.3374 147.711Z" fill="#FEB300"/>
<path d="M83.1253 116.353C82.9179 116.369 82.7134 116.304 82.555 116.169C82.3966 116.035 82.2987 115.842 82.2829 115.636C82.267 115.429 82.3333 115.224 82.4672 115.066C82.6011 114.908 82.7941 114.81 83 114.794L102.866 111.558C103.071 111.524 103.28 111.571 103.448 111.692C103.616 111.812 103.73 111.995 103.765 112.198C103.799 112.402 103.752 112.611 103.631 112.779C103.511 112.948 103.328 113.062 103.125 113.096L83.2592 116.332C83.2146 116.343 83.1699 116.351 83.1238 116.352L83.1253 116.353Z" fill="#FFAAAB"/>
<path d="M80.2539 272.416C79.5095 272.416 78.7837 272.196 78.1645 271.783C77.5453 271.369 77.0643 270.782 76.7792 270.095C76.4941 269.407 76.4207 268.651 76.5661 267.922C76.7115 267.192 77.0701 266.522 77.5957 265.997C78.1213 265.471 78.7923 265.113 79.521 264.967C80.2511 264.823 81.0071 264.898 81.6939 265.183C82.3808 265.468 82.9683 265.951 83.3816 266.569C83.7949 267.188 84.0138 267.915 84.0138 268.658C84.0109 269.654 83.6149 270.611 82.9107 271.315C82.2051 272.019 81.2504 272.415 80.2539 272.416ZM80.2539 266.458C79.8191 266.458 79.3928 266.587 79.0314 266.829C78.6699 267.071 78.3877 267.414 78.2207 267.817C78.0536 268.219 78.0104 268.661 78.0954 269.089C78.1803 269.515 78.3906 269.908 78.6973 270.215C79.0055 270.523 79.3971 270.733 79.8248 270.818C80.2525 270.903 80.6946 270.858 81.0963 270.693C81.4981 270.526 81.8423 270.243 82.0842 269.882C82.3261 269.519 82.4557 269.094 82.4557 268.658C82.4557 268.075 82.2224 267.516 81.8106 267.103C81.3987 266.691 80.8386 266.458 80.2554 266.458H80.2539Z" fill="#FEB300"/>
<path d="M26.4555 211.218C27.2994 211.218 27.9834 210.534 27.9834 209.69C27.9834 208.846 27.2994 208.161 26.4555 208.161C25.6117 208.161 24.9277 208.846 24.9277 209.69C24.9277 210.534 25.6117 211.218 26.4555 211.218Z" fill="#FFAAAB"/>
<path d="M26.4555 212C25.9991 212 25.5512 211.864 25.1711 211.611C24.7909 211.357 24.4943 210.997 24.3186 210.575C24.1429 210.154 24.0968 209.688 24.1861 209.241C24.2754 208.791 24.4943 208.379 24.8183 208.057C25.1408 207.733 25.5527 207.513 26.0005 207.423C26.4483 207.334 26.9135 207.38 27.3354 207.554C27.7573 207.73 28.1187 208.025 28.3722 208.405C28.6256 208.786 28.7624 209.232 28.7624 209.69C28.7624 210.302 28.5191 210.888 28.0856 211.321C27.6536 211.753 27.0661 211.998 26.4541 212H26.4555ZM26.4555 208.941C26.3072 208.94 26.1618 208.984 26.0379 209.066C25.9141 209.148 25.8176 209.267 25.76 209.403C25.7024 209.54 25.688 209.691 25.7168 209.838C25.7456 209.984 25.8176 210.118 25.9227 210.223C26.0279 210.328 26.1618 210.4 26.3087 210.429C26.4541 210.457 26.6053 210.443 26.7435 210.385C26.8803 210.328 26.9984 210.231 27.0805 210.107C27.1626 209.984 27.2072 209.838 27.2058 209.69C27.2058 209.491 27.1266 209.301 26.9855 209.161C26.8458 209.02 26.6557 208.941 26.457 208.941H26.4555Z" fill="#FFAAAB"/>
<path d="M311.433 378.955C314.245 378.955 316.523 376.677 316.523 373.864C316.523 371.052 314.245 368.774 311.433 368.774C308.621 368.774 306.343 371.053 306.343 373.864C306.343 376.675 308.622 378.955 311.433 378.955Z" fill="#FFAAAB"/>
<path d="M311.433 379.734C310.271 379.735 309.136 379.391 308.17 378.746C307.204 378.101 306.451 377.183 306.006 376.111C305.561 375.036 305.444 373.856 305.67 372.717C305.898 371.578 306.456 370.531 307.279 369.708C308.099 368.888 309.146 368.327 310.285 368.101C311.426 367.875 312.607 367.992 313.679 368.437C314.752 368.882 315.669 369.635 316.315 370.601C316.96 371.566 317.304 372.702 317.304 373.864C317.301 375.421 316.682 376.911 315.582 378.011C314.481 379.112 312.99 379.732 311.433 379.734ZM311.433 369.55C310.581 369.55 309.745 369.802 309.035 370.276C308.327 370.75 307.772 371.423 307.446 372.211C307.119 373 307.034 373.867 307.199 374.704C307.366 375.54 307.777 376.309 308.38 376.914C308.982 377.518 309.751 377.928 310.588 378.095C311.424 378.262 312.293 378.176 313.08 377.85C313.869 377.523 314.543 376.97 315.017 376.26C315.491 375.552 315.744 374.718 315.744 373.864C315.743 372.721 315.288 371.625 314.48 370.816C313.672 370.008 312.576 369.553 311.433 369.55Z" fill="#FFAAAB"/>
<path d="M326.77 283.442C326.213 283.442 325.667 283.277 325.204 282.969C324.74 282.659 324.379 282.218 324.165 281.704C323.952 281.189 323.896 280.623 324.004 280.076C324.114 279.53 324.381 279.027 324.776 278.633C325.171 278.238 325.672 277.97 326.219 277.862C326.765 277.753 327.332 277.809 327.846 278.024C328.362 278.237 328.801 278.598 329.11 279.062C329.42 279.526 329.586 280.07 329.584 280.627C329.584 281.373 329.287 282.089 328.759 282.617C328.232 283.144 327.516 283.441 326.77 283.442ZM326.77 279.37C326.521 279.37 326.278 279.442 326.071 279.58C325.863 279.719 325.702 279.914 325.607 280.145C325.51 280.374 325.486 280.627 325.533 280.872C325.582 281.115 325.702 281.34 325.878 281.516C326.053 281.691 326.276 281.812 326.521 281.861C326.765 281.91 327.018 281.884 327.248 281.789C327.479 281.694 327.675 281.533 327.813 281.327C327.951 281.12 328.025 280.876 328.025 280.627C328.025 280.295 327.894 279.975 327.657 279.739C327.423 279.504 327.103 279.37 326.77 279.37Z" fill="#FEB300"/>
<path d="M265.475 47.3328C266.574 47.3328 267.465 46.4415 267.465 45.3427C267.465 44.244 266.574 43.3527 265.475 43.3527C264.377 43.3527 263.484 44.244 263.484 45.3427C263.484 46.4415 264.375 47.3328 265.475 47.3328Z" fill="#FF5E6C"/>
<path d="M265.483 48.1118C264.935 48.1118 264.4 47.9491 263.943 47.6452C263.488 47.3414 263.134 46.908 262.924 46.4025C262.713 45.8956 262.659 45.3398 262.765 44.8012C262.873 44.2641 263.137 43.7702 263.524 43.3828C263.912 42.9955 264.405 42.732 264.943 42.6254C265.48 42.5188 266.037 42.5736 266.542 42.7838C267.049 42.994 267.481 43.3483 267.787 43.8033C268.09 44.2584 268.253 44.794 268.253 45.3427C268.252 46.0771 267.961 46.7812 267.441 47.3011C266.921 47.8209 266.217 48.1132 265.483 48.1132V48.1118ZM265.483 44.1316C265.244 44.1316 265.009 44.2022 264.81 44.3361C264.611 44.4686 264.456 44.6587 264.364 44.879C264.273 45.1008 264.248 45.3441 264.295 45.5788C264.342 45.8136 264.457 46.0296 264.627 46.1995C264.796 46.3694 265.012 46.4846 265.246 46.5307C265.481 46.5768 265.724 46.5537 265.946 46.4616C266.168 46.3694 266.357 46.2153 266.489 46.0152C266.623 45.8164 266.694 45.5817 266.694 45.3427C266.694 45.0216 266.565 44.7134 266.339 44.4859C266.112 44.2584 265.804 44.1316 265.483 44.1316Z" fill="#FF5E6C"/>
<path d="M345.436 124.524C347.599 124.524 349.352 122.77 349.352 120.607C349.352 118.444 347.599 116.69 345.436 116.69C343.273 116.69 341.52 118.444 341.52 120.607C341.52 122.77 343.273 124.524 345.436 124.524Z" fill="#FFAAAB"/>
<path d="M345.436 125.3C344.507 125.3 343.598 125.025 342.826 124.51C342.053 123.994 341.451 123.261 341.095 122.403C340.74 121.545 340.646 120.6 340.828 119.69C341.009 118.778 341.455 117.942 342.112 117.285C342.769 116.628 343.607 116.181 344.517 115.999C345.428 115.818 346.373 115.911 347.231 116.267C348.09 116.623 348.823 117.225 349.338 117.998C349.854 118.77 350.129 119.678 350.129 120.607C350.127 121.851 349.632 123.044 348.752 123.924C347.872 124.803 346.68 125.299 345.436 125.3ZM345.436 117.471C344.815 117.471 344.209 117.654 343.692 117.998C343.176 118.342 342.773 118.832 342.535 119.405C342.298 119.978 342.236 120.609 342.357 121.218C342.476 121.827 342.776 122.386 343.214 122.825C343.653 123.264 344.212 123.562 344.821 123.684C345.428 123.805 346.059 123.743 346.632 123.506C347.205 123.268 347.696 122.867 348.041 122.351C348.385 121.835 348.569 121.229 348.569 120.609C348.568 119.778 348.238 118.981 347.65 118.394C347.063 117.806 346.267 117.475 345.436 117.472V117.471Z" fill="#FFAAAB"/>
<path d="M59.1665 380.93C59.8606 380.93 60.4237 380.367 60.4237 379.672C60.4237 378.976 59.8606 378.415 59.1665 378.415C58.4725 378.415 57.9094 378.978 57.9094 379.672C57.9094 380.366 58.4725 380.93 59.1665 380.93Z" fill="#FF5E6C"/>
<path d="M59.1565 381.709C58.7533 381.709 58.3587 381.591 58.0218 381.367C57.6863 381.144 57.4242 380.824 57.2701 380.451C57.116 380.079 57.0743 379.669 57.1535 379.273C57.2327 378.877 57.4256 378.513 57.7122 378.228C57.9973 377.942 58.3616 377.748 58.7576 377.669C59.1536 377.59 59.564 377.631 59.937 377.785C60.3099 377.941 60.6282 378.202 60.8528 378.539C61.076 378.874 61.1955 379.269 61.1955 379.672C61.1955 380.212 60.9795 380.73 60.5979 381.112C60.2163 381.494 59.6979 381.709 59.1579 381.709H59.1565ZM59.1565 379.192C59.0615 379.191 58.9679 379.218 58.8887 379.272C58.8095 379.323 58.7475 379.398 58.7101 379.486C58.6741 379.574 58.664 379.67 58.6813 379.764C58.6986 379.858 58.7447 379.944 58.8123 380.012C58.88 380.079 58.965 380.125 59.0586 380.144C59.1522 380.163 59.2487 380.153 59.3365 380.117C59.4243 380.081 59.4992 380.019 59.5525 379.94C59.6058 379.861 59.6331 379.767 59.6331 379.672C59.6331 379.545 59.5827 379.423 59.4935 379.333C59.4042 379.243 59.2818 379.192 59.1551 379.192H59.1565Z" fill="#FF5E6C"/>
<path d="M204.817 240.503H204.785C204.579 240.494 204.385 240.405 204.244 240.254C204.104 240.103 204.029 239.901 204.036 239.695C204.595 225.226 205.173 210.266 203.067 195.706C202.389 191.013 201.316 185.622 198.491 181.207C197.379 179.466 196.278 178.381 195.031 177.797C193.557 177.108 191.85 177.277 190.872 178.197C190.722 178.34 190.522 178.417 190.316 178.412C190.109 178.407 189.913 178.319 189.769 178.17C189.626 178.02 189.55 177.82 189.554 177.612C189.56 177.405 189.646 177.209 189.796 177.067C191.223 175.71 193.645 175.429 195.686 176.386C197.214 177.1 198.52 178.366 199.801 180.367C202.782 185.044 203.904 190.626 204.607 195.483C206.732 210.182 206.165 225.216 205.589 239.754C205.58 239.954 205.495 240.144 205.353 240.283C205.209 240.422 205.017 240.502 204.817 240.503Z" fill="white"/>
<path d="M191.891 204.201C191.698 204.201 191.513 204.132 191.369 204.003C191.225 203.875 191.132 203.698 191.111 203.507C190.542 198.383 189.756 193.216 188.772 188.152C188.287 185.639 187.734 183.239 186.223 181.482C186.09 181.325 186.023 181.12 186.039 180.913C186.055 180.707 186.153 180.516 186.311 180.382C186.468 180.246 186.673 180.18 186.879 180.197C187.086 180.213 187.276 180.311 187.411 180.468C189.157 182.513 189.776 185.131 190.303 187.857C191.291 192.96 192.083 198.17 192.657 203.335C192.68 203.541 192.62 203.747 192.492 203.908C192.362 204.07 192.175 204.173 191.969 204.196C191.943 204.199 191.917 204.202 191.891 204.201Z" fill="white"/>
<path d="M160.615 234.55H160.557C160.352 234.534 160.161 234.439 160.026 234.282C159.892 234.127 159.824 233.924 159.838 233.718C161.031 217.21 162.265 200.143 168.388 184.346C169.27 182.064 170.385 179.803 172.545 178.724C173.253 178.394 174.032 178.246 174.813 178.291C175.592 178.337 176.349 178.574 177.015 178.985C177.504 179.267 177.91 179.673 178.193 180.163C178.476 180.652 178.625 181.208 178.626 181.773C178.622 181.98 178.537 182.176 178.388 182.32C178.239 182.464 178.04 182.543 177.833 182.539C177.627 182.536 177.429 182.451 177.285 182.303C177.141 182.153 177.062 181.954 177.067 181.747C177.059 181.45 176.974 181.161 176.819 180.907C176.663 180.654 176.444 180.446 176.182 180.305C175.746 180.035 175.251 179.875 174.738 179.84C174.225 179.806 173.713 179.898 173.243 180.107C171.567 180.949 170.621 182.906 169.865 184.896C163.827 200.488 162.59 217.441 161.415 233.833C161.399 234.032 161.307 234.217 161.159 234.351C161.009 234.485 160.815 234.556 160.615 234.55Z" fill="white"/>
<path d="M170.723 158.011C170.533 158.011 170.35 157.941 170.208 157.814C170.065 157.689 169.975 157.514 169.951 157.326C169.928 157.137 169.976 156.947 170.083 156.79C170.191 156.633 170.352 156.522 170.536 156.476C176.911 154.894 182.415 155.246 187.27 155.556L188.371 155.626C188.576 155.638 188.771 155.732 188.908 155.887C189.044 156.043 189.115 156.246 189.103 156.452C189.091 156.659 188.997 156.852 188.841 156.99C188.686 157.127 188.483 157.198 188.277 157.185L187.172 157.115C182.429 156.81 177.054 156.467 170.911 157.991C170.849 158.005 170.787 158.013 170.723 158.011Z" fill="white"/>
<path d="M189.488 59.102C189.325 59.102 189.165 59.0501 189.034 58.9551C188.902 58.86 188.803 58.7261 188.751 58.572C188.699 58.418 188.696 58.2509 188.744 58.0954C188.791 57.9399 188.886 57.8031 189.014 57.7037C190.855 56.2983 192.603 54.9101 193.765 53.3895C193.827 53.3074 193.905 53.2397 193.992 53.1879C194.082 53.136 194.18 53.1029 194.28 53.09C194.383 53.0756 194.485 53.0828 194.584 53.1087C194.684 53.1346 194.776 53.1807 194.858 53.2426C194.938 53.3045 195.008 53.3823 195.058 53.4701C195.11 53.5594 195.143 53.6559 195.157 53.7581C195.17 53.8589 195.164 53.9626 195.139 54.062C195.111 54.1613 195.067 54.2535 195.005 54.3356C193.726 56.0088 191.886 57.469 189.96 58.9421C189.825 59.0458 189.658 59.1005 189.488 59.1005V59.102Z" fill="white"/>
<path d="M169.854 391.895H169.852C169.584 391.763 169.263 391.876 169.134 392.142L167.116 396.302C166.987 396.57 167.099 396.891 167.367 397.021H167.368C167.636 397.152 167.957 397.041 168.087 396.773L170.104 392.613C170.234 392.345 170.121 392.024 169.854 391.895Z" fill="#FEB300"/>
<path d="M167.59 397.855C167.391 397.855 167.194 397.809 167.015 397.722C166.701 397.568 166.462 397.296 166.347 396.966C166.233 396.636 166.254 396.275 166.405 395.96L168.418 391.802C168.494 391.647 168.599 391.507 168.729 391.392C168.859 391.277 169.01 391.189 169.174 391.131C169.338 391.075 169.511 391.051 169.684 391.061C169.858 391.072 170.026 391.116 170.183 391.192C170.497 391.346 170.736 391.617 170.851 391.946C170.965 392.276 170.945 392.639 170.794 392.953L168.776 397.112C168.703 397.267 168.598 397.407 168.468 397.522C168.339 397.637 168.187 397.727 168.023 397.781C167.884 397.83 167.737 397.855 167.59 397.855Z" fill="#FEB300"/>
<path d="M191.733 397.009H191.736C192.002 396.878 192.115 396.557 191.985 396.289L189.969 392.129C189.839 391.861 189.517 391.751 189.249 391.88H189.247C188.98 392.011 188.869 392.332 188.998 392.6L191.014 396.76C191.144 397.027 191.465 397.139 191.733 397.009Z" fill="#FEB300"/>
<path d="M191.494 397.855C191.346 397.855 191.199 397.829 191.059 397.78C190.895 397.724 190.745 397.636 190.616 397.521C190.486 397.406 190.381 397.266 190.306 397.109L188.29 392.952C188.214 392.795 188.17 392.626 188.159 392.453C188.149 392.281 188.173 392.108 188.229 391.944C188.287 391.779 188.375 391.63 188.49 391.5C188.605 391.37 188.745 391.265 188.9 391.189C189.056 391.114 189.224 391.07 189.397 391.059C189.57 391.049 189.744 391.072 189.907 391.13C190.071 391.186 190.222 391.275 190.352 391.389C190.48 391.504 190.587 391.644 190.662 391.8L192.679 395.958C192.829 396.272 192.85 396.634 192.735 396.963C192.621 397.295 192.381 397.565 192.068 397.719C191.888 397.806 191.693 397.852 191.494 397.855Z" fill="#FEB300"/>
</g>
<defs>
<clipPath id="clip0_2015_143">
<rect width="382" height="452" fill="white"/>
</clipPath>
</defs>
</svg>
