<svg width="382" height="191" viewBox="0 0 382 191" fill="none" xmlns="http://www.w3.org/2000/svg">
<g clip-path="url(#clip0_2004_1939)">
<path d="M333.644 230.697C332.025 230.697 330.524 230.322 329.54 229.67C329.384 229.55 329.277 229.375 329.244 229.18C329.211 228.986 329.253 228.786 329.362 228.622C329.47 228.456 329.637 228.339 329.829 228.292C330.02 228.246 330.224 228.273 330.395 228.371C331.861 229.334 335.54 229.605 338.191 227.866C340.678 226.24 341.64 223.305 340.972 219.383C340.825 218.559 340.545 217.764 340.145 217.03C337.341 216.469 333.921 214.952 332.785 213.35C332.251 212.597 332.319 211.974 332.466 211.584C332.614 211.193 333.075 210.394 334.459 210.528C336.372 210.718 339.344 212.776 341.124 215.621C341.516 215.679 341.912 215.705 342.307 215.7C347.328 215.565 351.88 212.384 353.261 208.164C348.859 208.392 344.755 206.898 342.284 204.032C340.937 202.473 340.387 200.716 340.772 199.22C341.346 196.995 343.757 195.87 345.752 195.764C348.301 195.631 350.83 196.803 352.686 199.009C354.428 201.056 355.324 203.689 355.19 206.374C355.451 206.325 355.71 206.27 355.971 206.209C363.351 204.487 369.029 197.895 369.181 190.896C369.282 186.13 367.181 181.282 363.558 177.945C356.023 170.991 343.459 167.187 334.335 169.095C331.322 169.726 327.388 171.272 325.728 175.071C325.562 175.494 325.483 175.946 325.496 176.401C325.509 176.856 325.614 177.303 325.803 177.716C326.253 178.836 327.122 179.735 328.225 180.225C328.411 180.305 328.556 180.455 328.632 180.642C328.709 180.829 328.71 181.038 328.635 181.225C328.56 181.414 328.415 181.565 328.232 181.647C328.048 181.731 327.839 181.74 327.649 181.672C326.906 181.352 326.232 180.89 325.669 180.31C325.104 179.731 324.661 179.045 324.361 178.294C324.091 177.687 323.945 177.032 323.935 176.368C323.925 175.706 324.047 175.046 324.299 174.432C325.824 170.952 329.184 168.578 334.015 167.567C343.744 165.532 356.623 169.412 364.615 176.796C368.564 180.435 370.852 185.72 370.738 190.928C370.574 198.625 364.376 205.847 356.326 207.724C355.856 207.834 355.386 207.92 354.921 207.985C353.603 213.127 348.255 217.08 342.338 217.241H341.958C342.207 217.84 342.389 218.467 342.5 219.106C343.484 224.893 341.159 227.765 339.033 229.156C337.419 230.171 335.55 230.705 333.644 230.697ZM334.179 212.067C334.099 212.059 334.016 212.075 333.944 212.111C333.921 212.164 333.944 212.275 334.067 212.443C334.725 213.372 336.748 214.422 338.804 215.071C337.565 213.644 336.057 212.6 334.922 212.213C334.683 212.125 334.433 212.076 334.179 212.067ZM346.153 197.312H345.846C344.399 197.391 342.671 198.138 342.291 199.601C341.928 201.015 342.998 202.46 343.474 203.005C345.714 205.605 349.534 206.904 353.608 206.574C353.855 204.333 353.088 201.897 351.492 200.007C350.042 198.287 348.117 197.312 346.153 197.312Z" fill="#2B1927"/>
<path d="M340.239 84.155C336.457 84.155 333.15 82.5811 331.476 79.9373C329.433 76.7131 330.902 72.851 333.131 70.6291C335.665 68.1005 339.051 67.5806 341.757 69.3043C341.843 69.359 341.916 69.431 341.975 69.5146C342.034 69.5981 342.076 69.6931 342.098 69.7925C342.119 69.8933 342.122 69.9955 342.105 70.0963C342.086 70.1971 342.049 70.2936 341.994 70.38C341.939 70.4664 341.867 70.5413 341.784 70.6003C341.699 70.6594 341.604 70.7011 341.505 70.7227C341.405 70.7443 341.302 70.7472 341.201 70.7285C341.1 70.7112 341.003 70.6723 340.917 70.6176C338.411 69.0221 335.821 70.1467 334.233 71.7322C332.43 73.5307 331.211 76.6022 332.794 79.105C334.283 81.4435 337.411 82.7842 340.96 82.5739C347.357 82.1966 353.434 77.2704 357.189 69.3994C359.255 65.0851 359.338 60.6398 357.405 58.0752C356.074 56.3112 353.925 55.6214 351.184 56.0765C349.819 58.608 347.374 60.9566 345.597 61.8581C344.589 62.3779 343.778 62.4298 343.211 62.0352C342.906 61.8494 342.665 61.5715 342.525 61.2418C342.386 60.912 342.353 60.5462 342.432 60.1978C342.9 58.0666 347.432 55.499 350.11 54.7272C350.149 54.6408 350.185 54.5544 350.219 54.468C351.407 51.5549 349.803 50.6117 349.276 50.3107C348.182 49.667 346.886 49.919 345.992 50.243C344.009 50.963 342.003 52.8048 341.427 54.4363C341.358 54.6322 341.214 54.7906 341.026 54.8798C340.841 54.9691 340.626 54.9806 340.43 54.9115C340.236 54.8424 340.076 54.6984 339.987 54.5126C339.897 54.3254 339.886 54.1109 339.955 53.9165C340.695 51.8371 343.008 49.6699 345.459 48.7786C347.193 48.1478 348.785 48.2126 350.067 48.9686C351.514 49.8182 352.251 51.1258 352.202 52.7443C352.176 53.316 352.073 53.8819 351.893 54.4262C354.751 54.1944 357.13 55.1405 358.649 57.1421C360.932 60.1675 360.91 65.2464 358.597 70.0805C354.583 78.4714 348.023 83.7259 341.054 84.1392C340.779 84.1464 340.509 84.155 340.239 84.155ZM344.069 60.7334C344.732 60.863 347.106 59.1955 348.837 56.88C346.641 57.888 344.179 59.5642 343.965 60.5304C343.96 60.6038 343.941 60.6427 344.069 60.7334Z" fill="#FEB300"/>
<path d="M180.309 80.8056H180.226C180.02 80.7998 179.824 80.712 179.682 80.5608C179.54 80.411 179.464 80.2094 179.47 80.0021C179.476 79.7947 179.564 79.5989 179.715 79.4578C179.866 79.3166 180.066 79.2403 180.273 79.2461C180.603 79.2374 180.923 79.1352 181.198 78.9509C181.472 78.7666 181.686 78.5088 181.819 78.2064C181.268 78.012 180.773 77.6866 180.377 77.256C179.981 76.8269 179.695 76.307 179.545 75.7426C179.173 74.4437 179.415 73.0872 179.608 71.9928C179.644 71.7898 179.759 71.6083 179.929 71.4902C180.099 71.3722 180.308 71.3261 180.512 71.3621C180.716 71.3981 180.897 71.5133 181.015 71.6832C181.133 71.8531 181.179 72.0619 181.143 72.2664C180.969 73.2485 180.772 74.3659 181.045 75.312C181.24 76.0003 181.77 76.585 182.344 76.7304C182.54 76.7822 182.724 76.8744 182.883 77.0011C183.043 77.1278 183.172 77.2877 183.266 77.4677C183.359 77.6477 183.414 77.8464 183.427 78.0494C183.439 78.2525 183.408 78.4555 183.336 78.6456C183.103 79.2648 182.69 79.8005 182.151 80.185C181.611 80.5694 180.97 80.7854 180.309 80.8056Z" fill="#2B1927"/>
<path d="M191.914 70.0128C191.789 70.0128 191.665 69.9811 191.553 69.9221C190.364 69.2957 189.288 68.76 188.139 68.5426C186.908 68.3064 185.73 68.5109 184.992 69.0854C184.912 69.1546 184.82 69.2078 184.719 69.2395C184.618 69.2726 184.511 69.2842 184.405 69.2741C184.3 69.264 184.197 69.2323 184.105 69.1819C184.012 69.1315 183.93 69.0624 183.865 68.9789C183.8 68.8954 183.752 68.8003 183.725 68.6966C183.698 68.5944 183.692 68.4878 183.708 68.3827C183.724 68.2776 183.761 68.1782 183.817 68.0875C183.872 67.9982 183.947 67.9205 184.033 67.86C185.116 67.0104 186.762 66.6936 188.432 67.0104C189.792 67.2696 190.978 67.8571 192.279 68.544C192.433 68.6246 192.557 68.7557 192.629 68.9141C192.701 69.0739 192.716 69.2525 192.675 69.4224C192.633 69.5923 192.535 69.7421 192.397 69.8501C192.259 69.9581 192.089 70.0157 191.914 70.0142V70.0128Z" fill="#2B1927"/>
<path d="M179.441 89.7811C174.793 89.7811 172.254 85.5375 172.254 83.3573C172.254 83.1499 172.336 82.9526 172.482 82.8058C172.629 82.6589 172.827 82.5768 173.033 82.5768C173.239 82.5768 173.438 82.6589 173.585 82.8058C173.73 82.9526 173.814 83.1499 173.814 83.3573C173.814 84.5295 175.507 88.2216 179.441 88.2216C182.284 88.2216 184.186 86.5167 185.099 83.1514C185.155 82.9555 185.288 82.7885 185.466 82.6891C185.643 82.5883 185.853 82.5624 186.051 82.6157C186.248 82.669 186.417 82.7986 186.52 82.9743C186.624 83.1514 186.653 83.3602 186.604 83.5589C185.516 87.5707 182.973 89.7797 179.441 89.7797V89.7811Z" fill="#2B1927"/>
<path d="M179.408 84.6619C177.225 84.6749 175.046 84.4949 172.896 84.1234C172.793 84.109 172.692 84.073 172.603 84.0182C172.513 83.9635 172.435 83.8915 172.375 83.8066C172.313 83.7216 172.27 83.6251 172.247 83.5229C172.224 83.4206 172.222 83.3155 172.241 83.2118C172.258 83.1082 172.299 83.0102 172.356 82.9224C172.414 82.8346 172.487 82.7597 172.575 82.7021C172.662 82.6445 172.759 82.6042 172.863 82.584C172.965 82.5653 173.072 82.5667 173.174 82.5883C177.324 83.2752 181.561 83.2752 185.712 82.5883C185.915 82.5523 186.126 82.5984 186.295 82.7165C186.465 82.8346 186.581 83.016 186.618 83.219C186.654 83.4235 186.608 83.6323 186.49 83.8022C186.372 83.9722 186.19 84.0874 185.987 84.1248C183.813 84.492 181.613 84.6706 179.408 84.6605V84.6619Z" fill="#2B1927"/>
<path d="M207.343 67.9118C208.935 39.5035 195.438 36.7286 193.12 39.9816C191.914 28.7251 178.355 21.3365 148.726 44.4298C138.254 52.5917 133.509 50.747 125.012 46.2773C123.317 49.6555 118.234 73.0901 135.574 80.4802C135.52 83.8714 138.1 99.8654 157.481 93.0917C158.318 97.3325 165.156 105.892 176.78 101.212C176.793 100.172 175.691 94.2509 175.691 94.2509C170.672 90.7272 164.759 87.0653 162.698 77.1581C161.919 75.5986 157.543 77.6549 155.724 76.0954C154.165 75.0557 153.645 72.7171 154.685 70.8984C155.464 69.5995 157.484 68.819 159.038 69.7133C159.297 69.7133 154.019 69.3547 157.478 68.7629C166.313 67.6714 179.628 61.5442 189.243 56.867C194.646 66.8304 197.53 67.7232 204.026 70.3224C205.76 71.4182 204.908 73.8144 204.647 75.1147C203.089 79.0128 196.75 76.0838 196.592 76.7232C194.993 82.476 193.474 88.2821 183.526 94.5475C183.526 94.5475 182.768 96.7219 182.729 98.4787C187.521 97.5802 208.631 102.302 214.171 81.9907C214.325 81.4248 206.716 79.0992 207.343 67.9147V67.9118Z" fill="#2B1927"/>
<path d="M170.271 103.35C167.92 103.363 165.604 102.784 163.535 101.667C159.981 99.7459 157.737 96.5664 156.94 94.0968C150.185 96.2957 144.772 95.9645 140.829 93.1118C136.123 89.7149 134.925 83.6482 134.814 80.9914C129.637 78.6528 125.997 74.6957 123.988 69.228C120.394 59.4504 123.239 48.1018 124.325 45.9288C124.373 45.8366 124.436 45.7546 124.515 45.6869C124.593 45.6192 124.685 45.5688 124.783 45.5371C124.881 45.5054 124.985 45.4939 125.088 45.5026C125.192 45.5112 125.291 45.54 125.384 45.589C133.698 49.9565 138.132 51.7061 148.251 43.8134C156.979 37.0123 164.881 32.413 171.705 30.145C177.723 28.1462 182.77 27.9806 186.707 29.651C190.374 31.2106 192.868 34.4059 193.694 38.5402C194.825 38.0016 196.381 37.9814 197.977 38.5402C200.69 39.4934 209.445 44.437 208.127 67.9507C207.646 76.5259 212.22 79.6003 213.942 80.7566C214.592 81.193 215.107 81.5357 214.927 82.188C212.892 89.6486 208.528 94.6973 201.956 97.1928C196.498 99.2722 190.584 99.1858 186.67 99.131C185.051 99.1109 183.656 99.0893 182.877 99.2376C182.763 99.2592 182.647 99.2549 182.534 99.2246C182.422 99.1944 182.318 99.1411 182.23 99.0663C182.143 98.9914 182.072 98.8978 182.023 98.7926C181.976 98.6875 181.952 98.5723 181.954 98.4571C181.996 96.5995 182.765 94.3805 182.796 94.2998C182.854 94.1342 182.968 93.9931 183.116 93.8995C192.702 87.853 194.208 82.4299 195.802 76.6872L195.846 76.5259C196.064 75.6446 197.026 75.8347 198.141 76.0536C200.48 76.5159 203.077 76.8456 203.904 74.8973C203.936 74.7432 203.974 74.5776 204.016 74.3976C204.359 72.9245 204.569 71.6515 203.671 71.0194L203.135 70.8062C197.143 68.4187 194.069 67.1918 188.924 57.8966C179.545 62.4413 168.134 67.6051 159.653 69.2136C159.717 69.287 159.765 69.3734 159.795 69.4656C159.825 69.5592 159.836 69.6571 159.827 69.7536C159.818 69.9538 159.732 70.1424 159.586 70.2821C159.441 70.4203 159.248 70.4981 159.048 70.4981C158.997 70.4981 158.948 70.4923 158.9 70.4822H158.79C157.982 70.4045 157.343 70.331 156.855 70.223C156.241 70.3886 155.711 70.7746 155.366 71.3059C154.558 72.7171 154.921 74.6222 156.168 75.4632C156.195 75.479 156.218 75.4992 156.244 75.5179C156.917 76.0954 158.344 75.973 159.601 75.8606C161.16 75.7224 162.788 75.5827 163.408 76.8254C163.437 76.8859 163.46 76.9493 163.473 77.0155C165.368 86.1106 170.682 89.8157 175.372 93.083L176.152 93.6288C176.319 93.7454 176.434 93.924 176.472 94.1256C176.586 94.7391 177.586 100.165 177.573 101.244C177.571 101.398 177.523 101.547 177.437 101.673C177.349 101.799 177.226 101.897 177.084 101.955C174.924 102.853 172.611 103.327 170.271 103.35ZM157.481 92.3112C157.616 92.3112 157.75 92.3458 157.868 92.4149C157.965 92.4696 158.048 92.5445 158.113 92.6338C158.18 92.723 158.224 92.8253 158.247 92.9347C158.609 94.7722 160.514 98.2483 164.278 100.292C167.678 102.133 171.705 102.266 175.972 100.689C175.834 99.4522 175.349 96.6298 174.993 94.7002L174.473 94.3387C169.57 90.9245 164.013 87.0624 161.968 77.4475C161.709 77.2114 160.482 77.3179 159.732 77.3856C158.172 77.521 156.428 77.6736 155.256 76.7045C153.354 75.4056 152.792 72.6293 154.012 70.4966C154.384 69.8976 154.906 69.4066 155.527 69.0725C155.576 68.2934 156.567 68.1163 157.346 67.9781H157.379C165.954 66.9182 178.73 61.105 188.9 56.1542C189.082 56.0621 189.292 56.0448 189.487 56.1067C189.681 56.1686 189.844 56.304 189.94 56.484C195.033 65.8829 197.754 66.9672 203.712 69.3446L204.32 69.5866C204.365 69.6053 204.406 69.6283 204.447 69.6542C206.425 70.9042 205.867 73.2917 205.531 74.7317C205.486 74.9218 205.445 75.0974 205.414 75.2515C205.404 75.299 205.39 75.3451 205.373 75.3898C204.019 78.768 199.843 77.9515 197.837 77.557C197.628 77.5152 197.395 77.4691 197.202 77.4374C195.644 83.0534 193.861 88.871 184.183 95.04C183.918 95.8709 183.718 96.7219 183.585 97.5845C184.422 97.5326 185.468 97.5485 186.689 97.5629C194.424 97.6723 208.777 97.8638 213.301 82.1981L213.069 82.0426C211.147 80.7437 206.038 77.3136 206.574 67.8571C207.563 50.0515 202.514 41.7931 197.454 40.0162C195.67 39.397 194.243 39.7512 193.762 40.4366C193.67 40.5662 193.542 40.6642 193.392 40.7174C193.244 40.7722 193.081 40.7794 192.928 40.739C192.774 40.6987 192.637 40.6123 192.534 40.4928C192.431 40.3718 192.367 40.2235 192.351 40.0651C191.894 35.7926 189.675 32.6074 186.114 31.0896C181.523 29.1427 170.627 28.3694 149.214 45.049C138.675 53.2627 133.623 51.637 125.42 47.3688C124.308 50.544 122.384 60.3461 125.451 68.6923C127.366 73.9022 130.879 77.629 135.891 79.7645C136.034 79.825 136.155 79.9272 136.24 80.0582C136.323 80.1878 136.368 80.3405 136.365 80.496C136.333 82.4112 137.256 88.6118 141.743 91.8518C145.411 94.5 150.624 94.6685 157.233 92.3717C157.313 92.3386 157.396 92.3184 157.481 92.3112ZM197.35 76.9075V76.9464C197.349 76.9334 197.349 76.9205 197.35 76.9075Z" fill="#FEB300"/>
<path d="M125.42 165.407C125.36 165.407 125.303 165.4 125.245 165.385C118.808 163.931 109.08 162.219 98.7795 160.407C92.1195 159.235 85.2305 158.024 78.9997 156.836C78.896 156.822 78.7966 156.784 78.7074 156.73C78.6181 156.675 78.5403 156.603 78.4798 156.516C78.4194 156.432 78.3762 156.334 78.3546 156.231C78.3315 156.129 78.3315 156.024 78.3502 155.92C78.369 155.817 78.4093 155.719 78.4683 155.632C78.5274 155.544 78.6022 155.471 78.6901 155.413C78.7779 155.356 78.8758 155.317 78.9795 155.298C79.0832 155.28 79.1883 155.282 79.2906 155.307C85.5114 156.491 92.396 157.7 99.0402 158.871C109.359 160.691 119.107 162.403 125.579 163.866C125.768 163.907 125.934 164.016 126.046 164.173C126.158 164.328 126.209 164.521 126.187 164.712C126.165 164.903 126.075 165.08 125.932 165.208C125.788 165.336 125.602 165.407 125.411 165.407H125.421H125.42Z" fill="#2B1927"/>
<path d="M125.627 166.399C125.487 166.399 125.349 166.362 125.228 166.29C125.107 166.218 125.008 166.114 124.94 165.99C124.874 165.866 124.842 165.727 124.848 165.586C124.854 165.446 124.898 165.309 124.976 165.191C129.473 158.357 137.903 141.643 150.031 115.511C150.586 114.316 150.971 113.486 151.151 113.111C151.475 112.432 151.849 111.732 152.556 111.305C154.064 110.39 155.837 111.393 156.79 111.931C162.377 115.089 170.349 116.047 175.794 115.93C176.417 107.755 176.12 98.4629 175.658 95.0213C175.64 94.9176 175.641 94.8111 175.665 94.7088C175.688 94.6066 175.732 94.5086 175.794 94.4237C175.857 94.3387 175.935 94.2667 176.025 94.212C176.116 94.1573 176.217 94.1227 176.321 94.1083C176.426 94.0939 176.531 94.1011 176.633 94.1299C176.735 94.1573 176.829 94.2062 176.912 94.2725C176.995 94.3387 177.062 94.4208 177.113 94.513C177.162 94.6066 177.192 94.7074 177.202 94.8125C177.687 98.4197 177.997 108.307 177.293 116.749C177.277 116.94 177.192 117.117 177.055 117.248C176.917 117.379 176.737 117.456 176.547 117.464C170.9 117.696 162.135 116.739 156.018 113.285C155.085 112.765 154.032 112.226 153.363 112.635C153.024 112.841 152.788 113.295 152.556 113.779C152.379 114.153 151.995 114.98 151.445 116.166C139.282 142.366 130.814 159.147 126.275 166.059C126.203 166.163 126.106 166.249 125.993 166.309C125.88 166.368 125.755 166.398 125.627 166.396V166.399Z" fill="#2B1927"/>
<path d="M159.89 139.837C159.683 139.837 159.484 139.755 159.339 139.608C159.192 139.461 159.11 139.264 159.11 139.056C159.11 139.056 159.038 136.951 156.574 133.252C156.46 133.079 156.418 132.869 156.459 132.666C156.5 132.463 156.62 132.284 156.793 132.17C156.964 132.057 157.176 132.015 157.377 132.055C157.58 132.096 157.759 132.216 157.873 132.388C160.636 136.545 160.669 138.957 160.669 139.055C160.669 139.262 160.587 139.46 160.44 139.607C160.295 139.753 160.096 139.836 159.89 139.836V139.837Z" fill="#2B1927"/>
<path d="M182.541 120.704C182.341 120.704 182.148 120.627 182.003 120.489C181.859 120.351 181.772 120.164 181.762 119.964C181.391 112.609 181.834 98.4629 182.199 94.1832C182.207 94.081 182.236 93.9816 182.284 93.8894C182.33 93.7987 182.395 93.7166 182.474 93.6504C182.552 93.5842 182.644 93.5338 182.742 93.5035C182.84 93.4718 182.942 93.4603 183.044 93.469C183.146 93.4776 183.247 93.5064 183.338 93.5539C183.428 93.6014 183.511 93.6662 183.577 93.744C183.643 93.8218 183.692 93.9139 183.724 94.0118C183.755 94.1098 183.767 94.2134 183.758 94.3157C183.397 98.5594 182.958 112.591 183.323 119.886C183.335 120.092 183.263 120.295 183.125 120.447C182.986 120.601 182.792 120.694 182.586 120.704H182.541Z" fill="#2B1927"/>
<path d="M242.196 149C242.022 149 241.854 148.941 241.717 148.833C236.337 144.629 226.931 133.485 218.631 123.653C213.028 117.013 206.677 109.499 205.351 108.9C204.765 108.978 202.786 110.004 201.035 110.915C195.838 113.612 187.999 117.688 182.282 116.806C182.18 116.79 182.084 116.754 181.996 116.702C181.908 116.649 181.833 116.578 181.772 116.496C181.712 116.414 181.667 116.32 181.643 116.221C181.62 116.122 181.616 116.018 181.631 115.917C181.646 115.816 181.682 115.718 181.735 115.632C181.788 115.544 181.859 115.468 181.941 115.409C182.023 115.348 182.117 115.305 182.216 115.281C182.317 115.256 182.419 115.252 182.521 115.268C187.734 116.074 195.306 112.15 200.315 109.535C203.174 108.053 204.578 107.342 205.414 107.342C206.713 107.342 209.5 110.419 219.823 122.651C227.662 131.94 237.423 143.505 242.69 147.597C242.82 147.696 242.913 147.833 242.96 147.99C243.006 148.146 243.003 148.313 242.949 148.467C242.896 148.62 242.797 148.753 242.664 148.848C242.532 148.942 242.372 148.992 242.209 148.992L242.196 149.003V149Z" fill="#2B1927"/>
<path d="M47.8395 76.4424C47.7013 76.4424 47.5645 76.4049 47.445 76.3344C47.3254 76.2638 47.2261 76.163 47.1584 76.0421L28.3232 42.1358C28.2282 41.9558 28.2066 41.7456 28.2642 41.5498C28.3218 41.3539 28.4542 41.1883 28.6328 41.0904C28.8114 40.9925 29.0216 40.9651 29.2174 41.0198C29.4147 41.0731 29.5818 41.2027 29.6854 41.3784L48.5206 75.2846C48.5869 75.4027 48.6214 75.5366 48.6186 75.6734C48.6171 75.8088 48.5797 75.9427 48.5106 76.0594C48.4414 76.176 48.3435 76.2739 48.2254 76.3416C48.1074 76.4093 47.9749 76.4453 47.8381 76.4453L47.8395 76.4424Z" fill="#2B1927"/>
<path d="M52.5397 67.0306C52.3784 67.0306 52.22 66.9816 52.0875 66.888C51.9551 66.7944 51.8557 66.6634 51.801 66.5107L46.3045 50.5354C46.2354 50.3395 46.2469 50.125 46.3362 49.9378C46.4255 49.7506 46.5853 49.6066 46.7811 49.5389C46.977 49.4712 47.1915 49.4813 47.3787 49.5706C47.5659 49.6598 47.7099 49.8197 47.7776 50.0155L53.2741 65.9837C53.3159 66.1018 53.3288 66.227 53.3115 66.3509C53.2943 66.4747 53.2482 66.5914 53.1762 66.6936C53.1042 66.7958 53.0091 66.8779 52.8983 66.9355C52.7874 66.9931 52.665 67.0234 52.5397 67.0234V67.0306Z" fill="#2B1927"/>
<path d="M71.889 75.4574C71.7723 75.4574 71.6586 75.4301 71.5534 75.3797C71.3677 75.2904 71.2237 75.1306 71.1545 74.9362C71.0854 74.7418 71.097 74.5272 71.1862 74.34C75.9267 64.4342 81.1237 54.5904 86.6374 45.0979C86.7454 44.928 86.9139 44.807 87.1097 44.7595C87.3056 44.712 87.5115 44.7408 87.6857 44.8416C87.86 44.9424 87.9882 45.1066 88.0443 45.2995C88.1005 45.4925 88.0789 45.6998 87.9867 45.8784C82.4931 55.3392 77.3149 65.1413 72.5931 75.011C72.5297 75.145 72.4304 75.2573 72.3065 75.3365C72.1813 75.4157 72.0373 75.4574 71.889 75.4574Z" fill="#2B1927"/>
<path d="M81.1683 81.9461C81.0229 81.9461 80.8803 81.9043 80.7565 81.828C80.6326 81.7517 80.5333 81.6408 80.4699 81.5098C80.4051 81.3787 80.3792 81.2333 80.3936 81.0893C80.408 80.9438 80.4627 80.807 80.552 80.6918L86.0355 73.5797C86.1622 73.4155 86.348 73.309 86.5539 73.283C86.7584 73.2571 86.9658 73.3133 87.1299 73.44C87.2941 73.5667 87.4006 73.7525 87.4266 73.9584C87.4525 74.1629 87.3963 74.3702 87.2696 74.5344L81.7861 81.6466C81.7126 81.7402 81.619 81.8165 81.5125 81.8698C81.4059 81.9216 81.2878 81.949 81.1683 81.949V81.9461Z" fill="#2B1927"/>
<path d="M34.7038 111.947C34.616 111.947 34.5282 111.934 34.4446 111.905C26.9091 109.348 19.2771 106.708 11.7747 104.034C11.589 103.959 11.4392 103.814 11.3571 103.631C11.275 103.448 11.2664 103.241 11.3326 103.052C11.3989 102.864 11.5371 102.708 11.7157 102.617C11.8942 102.527 12.1016 102.509 12.2931 102.567C19.7869 105.231 27.4088 107.876 34.9429 110.431C35.1186 110.49 35.2669 110.611 35.3619 110.771C35.457 110.93 35.4915 111.118 35.4598 111.3C35.4282 111.483 35.3331 111.649 35.1906 111.767C35.048 111.887 34.868 111.95 34.6822 111.948H34.7024L34.7038 111.947Z" fill="#2B1927"/>
<path d="M31.0448 128.141H30.9872L24.8701 127.711C24.7678 127.704 24.6685 127.676 24.5763 127.63C24.4842 127.584 24.4035 127.521 24.3358 127.443C24.2682 127.365 24.2178 127.274 24.1846 127.178C24.1515 127.08 24.14 126.978 24.1472 126.876C24.1544 126.773 24.1818 126.672 24.2278 126.582C24.2739 126.49 24.3373 126.408 24.415 126.341C24.4928 126.274 24.5821 126.223 24.68 126.19C24.7779 126.158 24.8802 126.144 24.9824 126.153L31.0923 126.586C31.1946 126.589 31.2954 126.613 31.389 126.655C31.4826 126.697 31.5661 126.757 31.6366 126.832C31.7072 126.907 31.7605 126.995 31.7965 127.09C31.8325 127.187 31.8498 127.289 31.8454 127.391C31.8426 127.493 31.8181 127.594 31.7763 127.688C31.7346 127.781 31.6741 127.865 31.5992 127.935C31.5243 128.006 31.4365 128.059 31.34 128.095C31.2435 128.131 31.1427 128.148 31.0405 128.144L31.0462 128.141H31.0448Z" fill="#2B1927"/>
<path d="M158.421 74.0074C158.358 74.0074 158.296 73.9987 158.234 73.9843L156.355 73.5221C156.256 73.4976 156.162 73.4544 156.08 73.3939C155.998 73.3334 155.927 73.2571 155.874 73.1693C155.821 73.0814 155.786 72.985 155.77 72.8827C155.755 72.7805 155.76 72.6782 155.783 72.5789C155.808 72.4795 155.852 72.3859 155.913 72.3024C155.973 72.2203 156.05 72.1498 156.138 72.0965C156.225 72.0432 156.322 72.0086 156.423 71.9928C156.525 71.977 156.627 71.9813 156.728 72.0058L158.606 72.468C158.793 72.5112 158.957 72.6235 159.067 72.7805C159.176 72.9374 159.224 73.129 159.202 73.3205C159.179 73.5106 159.087 73.6862 158.943 73.813C158.799 73.9397 158.613 74.0088 158.421 74.0074Z" fill="#2B1927"/>
<path d="M185.738 73.0901C185.923 73.0901 186.072 72.9403 186.072 72.7546C186.072 72.5688 185.923 72.419 185.738 72.419C185.554 72.419 185.403 72.5688 185.403 72.7546C185.403 72.9403 185.552 73.0901 185.738 73.0901Z" fill="#2B1927"/>
<path d="M185.738 73.8691C185.516 73.8691 185.302 73.8043 185.119 73.6819C184.935 73.5595 184.792 73.3853 184.707 73.1822C184.624 72.9792 184.601 72.7546 184.644 72.5386C184.687 72.3226 184.794 72.1238 184.949 71.9683C185.105 71.8128 185.303 71.7062 185.521 71.663C185.737 71.6198 185.96 71.6414 186.164 71.7264C186.368 71.8114 186.542 71.9539 186.664 72.1368C186.787 72.3197 186.853 72.5357 186.853 72.756C186.851 73.0512 186.735 73.3349 186.524 73.5437C186.316 73.7525 186.033 73.8706 185.738 73.8706V73.8691ZM185.738 72.311C185.649 72.311 185.564 72.3355 185.491 72.3845C185.417 72.4334 185.36 72.5026 185.325 72.5832C185.292 72.6638 185.282 72.7531 185.299 72.8395C185.316 72.9259 185.358 73.0051 185.42 73.067C185.482 73.129 185.561 73.1722 185.648 73.1894C185.734 73.2067 185.823 73.1981 185.904 73.165C185.986 73.1318 186.055 73.0742 186.104 73.0008C186.153 72.9274 186.179 72.841 186.179 72.7531C186.179 72.6365 186.131 72.5242 186.049 72.4406C185.967 72.3571 185.855 72.3096 185.738 72.3082V72.311Z" fill="#2B1927"/>
<path d="M179.561 96.1862C178.753 96.1862 177.955 96.0077 177.222 95.6664C169.998 92.3241 164.364 85.7923 162.523 78.6297C162.439 78.2669 162.286 77.9241 162.07 77.6217C161.46 76.8081 160.77 76.909 159.487 77.1768C158.959 77.305 158.419 77.3827 157.876 77.4086C157.212 77.4057 156.557 77.2488 155.963 76.9522C155.369 76.6555 154.852 76.2249 154.45 75.6965C154.05 75.1665 153.775 74.5531 153.649 73.9008C153.524 73.2485 153.55 72.576 153.727 71.9352C153.903 71.2944 154.224 70.704 154.666 70.2072C155.107 69.7104 155.657 69.323 156.273 69.0739C156.888 68.8248 157.553 68.7197 158.216 68.7686C158.878 68.8176 159.52 69.0177 160.092 69.3547C160.181 69.408 160.257 69.4785 160.318 69.5621C160.38 69.6456 160.423 69.7392 160.448 69.84C160.471 69.9408 160.475 70.0445 160.459 70.1453C160.443 70.2461 160.406 70.344 160.352 70.4318C160.298 70.5197 160.226 70.596 160.142 70.655C160.059 70.7155 159.964 70.7573 159.863 70.7803C159.762 70.8033 159.658 70.8062 159.558 70.7889C159.455 70.7717 159.359 70.7342 159.271 70.6781C158.905 70.4707 158.495 70.3483 158.074 70.3224C157.654 70.2965 157.233 70.367 156.843 70.5283C156.454 70.6896 156.107 70.9373 155.828 71.2541C155.549 71.5709 155.346 71.9453 155.235 72.3513C155.122 72.7574 155.105 73.1837 155.183 73.5984C155.261 74.0131 155.432 74.4033 155.683 74.7417C155.935 75.0801 156.26 75.3552 156.634 75.5496C157.01 75.7426 157.424 75.8477 157.844 75.8577C158.29 75.8318 158.734 75.7656 159.167 75.6605C160.466 75.4013 162.081 75.0499 163.325 76.7002C163.666 77.1667 163.911 77.6966 164.042 78.2597C165.744 84.8837 171.18 91.1664 177.887 94.2667C178.414 94.5115 178.988 94.6397 179.569 94.6397C180.151 94.6397 180.723 94.513 181.25 94.2667C187.887 91.1765 193.102 85.0392 194.856 78.2496C194.99 77.688 195.234 77.1581 195.573 76.6901C196.81 75.0557 198.432 75.3912 199.718 75.6662C200.151 75.7728 200.593 75.8376 201.038 75.8635C201.459 75.8534 201.871 75.7469 202.244 75.5539C202.616 75.3609 202.942 75.0845 203.193 74.7475C203.443 74.4106 203.613 74.0203 203.691 73.607C203.768 73.1937 203.75 72.7689 203.639 72.3629C203.528 71.9568 203.325 71.5824 203.047 71.267C202.769 70.9517 202.424 70.704 202.036 70.5413C201.647 70.38 201.228 70.308 200.809 70.3325C200.389 70.357 199.98 70.4765 199.614 70.6824C199.528 70.7371 199.43 70.7745 199.329 70.7918C199.227 70.8091 199.123 70.8062 199.022 70.7832C198.921 70.7601 198.826 70.7169 198.743 70.6579C198.659 70.5974 198.587 70.5225 198.534 70.4347C198.479 70.3469 198.443 70.249 198.426 70.1482C198.41 70.0459 198.415 69.9422 198.438 69.8429C198.462 69.7421 198.507 69.6485 198.567 69.5649C198.628 69.4814 198.705 69.4109 198.793 69.3576C199.652 68.8003 200.68 68.5685 201.695 68.7038C202.709 68.8392 203.642 69.3317 204.324 70.0934C205.007 70.8552 205.396 71.8358 205.419 72.8597C205.442 73.8821 205.098 74.88 204.45 75.672C204.054 76.212 203.535 76.6512 202.938 76.955C202.34 77.2589 201.68 77.4187 201.009 77.4202C200.467 77.3942 199.927 77.3165 199.398 77.1883C198.122 76.9291 197.428 76.8197 196.818 77.6275C196.6 77.9285 196.445 78.2712 196.361 78.6326C194.492 85.8614 188.952 92.4048 181.902 95.6736C181.168 96.012 180.369 96.1848 179.561 96.1834V96.1862Z" fill="#2B1927"/>
<path d="M200.464 74.0074C200.272 74.0088 200.086 73.9411 199.942 73.8144C199.797 73.6877 199.705 73.5134 199.682 73.3219C199.659 73.1318 199.706 72.9389 199.816 72.7819C199.927 72.6249 200.089 72.5126 200.277 72.4694L202.159 72.0072C202.359 71.9582 202.572 71.9899 202.748 72.0979C202.925 72.2045 203.053 72.3787 203.102 72.5789C203.151 72.779 203.118 72.9921 203.011 73.1693C202.903 73.3464 202.73 73.4731 202.53 73.5221L200.648 73.9843C200.588 74.0002 200.526 74.0074 200.464 74.0074Z" fill="#2B1927"/>
<path d="M166.971 70.0128C166.796 70.0128 166.627 69.9552 166.488 69.8487C166.35 69.7407 166.252 69.5909 166.21 69.421C166.169 69.2511 166.184 69.0725 166.256 68.9127C166.328 68.7528 166.452 68.6232 166.606 68.5426C167.907 67.8571 169.093 67.2696 170.453 67.009C172.122 66.6922 173.766 67.009 174.852 67.8586C174.937 67.9205 175.007 67.9983 175.061 68.089C175.114 68.1783 175.148 68.2776 175.161 68.3813C175.176 68.485 175.17 68.5901 175.143 68.6909C175.115 68.7917 175.068 68.8853 175.003 68.9674C174.938 69.0495 174.859 69.1171 174.767 69.169C174.676 69.2194 174.575 69.2511 174.472 69.2626C174.368 69.2741 174.263 69.2626 174.164 69.2338C174.064 69.2035 173.971 69.1531 173.891 69.0869C173.156 68.5123 171.978 68.3079 170.744 68.544C169.597 68.7629 168.52 69.2971 167.332 69.9235C167.221 69.9826 167.097 70.0143 166.971 70.0143V70.0128Z" fill="#2B1927"/>
<path d="M173.148 73.0901C173.333 73.0901 173.482 72.9403 173.482 72.7546C173.482 72.5688 173.333 72.419 173.148 72.419C172.964 72.419 172.813 72.5688 172.813 72.7546C172.813 72.9403 172.963 73.0901 173.148 73.0901Z" fill="#2B1927"/>
<path d="M173.148 73.8691C172.927 73.8691 172.712 73.8043 172.528 73.6819C172.345 73.5595 172.202 73.3853 172.117 73.1822C172.034 72.9792 172.011 72.7546 172.054 72.5386C172.097 72.3226 172.204 72.1238 172.359 71.9683C172.515 71.8128 172.713 71.7062 172.931 71.663C173.147 71.6198 173.37 71.6414 173.575 71.7264C173.778 71.8114 173.952 71.9539 174.074 72.1368C174.197 72.3197 174.263 72.5357 174.263 72.756C174.263 73.0512 174.145 73.3349 173.936 73.5437C173.727 73.7525 173.444 73.8706 173.148 73.8706V73.8691ZM173.148 72.311C173.059 72.311 172.974 72.337 172.901 72.3859C172.827 72.4349 172.771 72.504 172.736 72.5861C172.703 72.6667 172.695 72.756 172.712 72.8424C172.729 72.9288 172.771 73.008 172.833 73.0699C172.895 73.1318 172.974 73.1736 173.06 73.1909C173.147 73.2082 173.236 73.1995 173.318 73.165C173.399 73.1318 173.468 73.0742 173.517 73.0008C173.566 72.9274 173.592 72.8424 173.592 72.7546C173.592 72.6365 173.544 72.5242 173.461 72.4406C173.377 72.3571 173.265 72.311 173.148 72.3096V72.311Z" fill="#2B1927"/>
<path d="M124.086 168.709C123.936 168.709 123.789 168.664 123.663 168.582C123.49 168.47 123.368 168.293 123.326 168.09C123.283 167.888 123.321 167.676 123.434 167.504L126.117 163.385C126.236 163.231 126.41 163.128 126.603 163.096C126.796 163.064 126.995 163.106 127.158 163.212C127.322 163.32 127.44 163.485 127.487 163.675C127.535 163.865 127.509 164.065 127.415 164.238L124.734 168.356C124.664 168.464 124.567 168.552 124.455 168.614C124.341 168.676 124.216 168.709 124.086 168.709Z" fill="#2B1927"/>
<path d="M241.353 147.195C241.246 147.195 241.141 147.174 241.043 147.131C240.853 147.05 240.703 146.896 240.627 146.703C240.55 146.511 240.553 146.297 240.635 146.107C243.307 139.908 247.932 130.412 252.828 120.361C255.79 114.283 258.851 108 261.474 102.449C261.639 101.409 262.63 96.1272 265.55 94.9838C267.831 94.0896 270.285 94.0954 272.891 94.0925C276.529 94.0925 280.663 94.0925 285.074 91.4933C285.169 91.4371 285.274 91.4026 285.385 91.3896C285.494 91.3781 285.605 91.3896 285.71 91.4227C285.815 91.4573 285.912 91.5149 285.994 91.5898C286.076 91.6646 286.141 91.7554 286.185 91.8576C286.351 92.3011 286.422 92.7734 286.394 93.2458C286.367 93.7181 286.242 94.1789 286.027 94.5994C285.317 96.0422 283.665 97.1021 281.118 97.7515C281.017 97.7818 280.912 97.7904 280.809 97.7789C280.703 97.7674 280.603 97.7342 280.512 97.6824C280.421 97.6305 280.341 97.5614 280.277 97.4779C280.214 97.3944 280.168 97.2994 280.142 97.1971C280.116 97.0949 280.11 96.9898 280.126 96.8861C280.142 96.7824 280.179 96.683 280.234 96.5938C280.29 96.5045 280.362 96.4281 280.449 96.3677C280.533 96.3072 280.631 96.2654 280.734 96.2424C282.768 95.7225 284.112 94.9277 284.613 93.9398C284.699 93.7757 284.761 93.6014 284.797 93.42C280.437 95.6491 276.448 95.6462 272.891 95.6448C270.441 95.6448 268.125 95.6448 266.119 96.4238C264.238 97.1597 263.209 101.362 263.001 102.786C262.99 102.861 262.968 102.933 262.937 103.002C260.301 108.586 257.22 114.913 254.236 121.033C249.349 131.069 244.731 140.547 242.073 146.713C242.013 146.856 241.914 146.979 241.786 147.066C241.658 147.152 241.507 147.198 241.353 147.198V147.195Z" fill="#2B1927"/>
<path d="M242.922 159.163C238.197 159.163 230.888 152.022 223.152 144.459C216.331 137.796 208.6 130.245 205.098 130.884C204.44 131.004 203.961 131.427 203.593 132.215C202.062 135.492 200.196 139.359 200.179 139.398C200.088 139.584 199.928 139.728 199.732 139.795C199.536 139.863 199.322 139.851 199.136 139.761C198.95 139.671 198.806 139.51 198.739 139.316C198.669 139.12 198.682 138.905 198.772 138.72C198.793 138.681 200.654 134.821 202.182 131.556C202.766 130.306 203.652 129.563 204.82 129.352C209.117 128.573 216.464 135.747 224.241 143.346C231.041 149.992 238.74 157.512 242.844 157.605C243.671 157.26 246.313 154.427 254.003 136.879C258.923 125.646 264.184 112.368 267.301 104.433L267.333 104.355C267.373 104.253 267.434 104.162 267.511 104.085C267.589 104.008 267.683 103.949 267.785 103.91C268.044 103.814 274.281 101.595 286.066 105.326L294.527 99.9619C294.967 98.8661 296.834 94.5547 299.67 92.6726C299.842 92.5589 300.053 92.5171 300.256 92.5574C300.459 92.5977 300.636 92.7187 300.751 92.8901C300.865 93.0629 300.907 93.2731 300.865 93.4761C300.824 93.6792 300.705 93.8577 300.532 93.9715C297.764 95.8061 295.907 100.705 295.888 100.754C295.829 100.914 295.72 101.049 295.577 101.141L286.592 106.838C286.494 106.9 286.386 106.939 286.272 106.953C286.158 106.968 286.043 106.957 285.933 106.921C275.969 103.694 270.036 104.903 268.642 105.277C265.491 113.249 260.299 126.37 255.418 137.5C247.344 155.929 244.624 158.74 243.158 159.133C243.096 159.149 243.032 159.157 242.967 159.159L242.922 159.165V159.163Z" fill="#2B1927"/>
<path d="M224.473 191.779C219.761 178.766 208.881 168.756 193.853 175.798C193.874 175.798 187.357 168.281 193.83 159.306C200.635 149.881 204.139 141.965 195.987 132.899C188.814 136.29 184.085 140.24 179.525 146.012C174.961 140.24 170.549 136.29 163.376 132.899C155.225 141.965 158.728 149.881 165.534 159.306C172.012 168.281 165.49 175.797 165.511 175.798C153.206 173.562 142.414 181.104 137.706 194.116C125.532 227.719 156.709 283.098 158.796 300.554C173.937 303.345 193.562 298.165 200.567 300.554C202.654 283.098 236.638 225.379 224.473 191.779Z" fill="#FF5E6C"/>
<path d="M169.45 302.185C165.833 302.221 162.22 301.932 158.655 301.317C158.492 301.287 158.342 301.206 158.228 301.085C158.113 300.964 158.041 300.809 158.021 300.645C157.411 295.543 154.155 286.832 150.385 276.738C141.074 251.827 128.323 217.714 136.968 193.843C141.866 180.33 152.902 172.945 165.175 174.944C166.474 173.124 170.113 166.967 164.916 159.755C158.892 151.413 153.767 142.425 162.811 132.369C162.923 132.245 163.073 132.16 163.237 132.127C163.401 132.094 163.571 132.116 163.722 132.188C171.15 135.698 175.5 139.771 179.538 144.757C184.192 139.041 188.926 135.374 195.667 132.188C195.818 132.116 195.988 132.096 196.152 132.127C196.318 132.16 196.466 132.245 196.579 132.369C205.622 142.426 200.498 151.413 194.476 159.755C189.381 166.813 192.741 172.871 194.116 174.826C199.944 172.241 205.466 171.994 210.538 174.093C216.89 176.724 222.103 182.909 225.217 191.504C233.792 215.191 219.945 250.122 209.832 275.63C205.617 286.262 201.976 295.439 201.355 300.635C201.341 300.75 201.302 300.859 201.24 300.957C201.178 301.055 201.094 301.139 200.996 301.201C200.899 301.262 200.788 301.301 200.671 301.316C200.556 301.329 200.439 301.316 200.328 301.278C197.254 300.239 191.387 300.733 184.595 301.317C179.767 301.741 174.574 302.185 169.45 302.185ZM159.493 299.883C167.423 301.234 176.456 300.46 184.438 299.773C190.829 299.225 196.417 298.734 199.914 299.557C200.806 294.101 204.167 285.637 208.358 275.066C218.382 249.79 232.106 215.175 223.728 192.044C220.808 183.989 215.775 177.961 209.917 175.536C205.099 173.543 199.804 173.867 194.172 176.505C194.033 176.571 193.876 176.593 193.722 176.569C193.569 176.545 193.426 176.476 193.313 176.37C193.275 176.335 193.241 176.298 193.212 176.256C192.081 174.825 186.956 167.484 193.187 158.845C200.137 149.23 202.802 142.004 195.787 133.852C189.269 137.009 184.703 140.705 180.129 146.49C180.057 146.582 179.964 146.657 179.859 146.707C179.752 146.759 179.636 146.786 179.517 146.786C179.399 146.786 179.284 146.759 179.178 146.707C179.072 146.657 178.979 146.582 178.905 146.49C174.922 141.448 170.768 137.356 163.574 133.852C156.558 142.004 159.219 149.22 166.173 158.845C172.41 167.498 167.257 174.855 166.157 176.243L166.118 176.292C166.029 176.397 165.914 176.476 165.783 176.522C165.653 176.567 165.513 176.579 165.378 176.553C153.705 174.426 143.132 181.42 138.441 194.365C129.99 217.701 142.628 251.503 151.852 276.186C155.667 286.425 158.715 294.577 159.493 299.883Z" fill="#FF5E6C"/>
<path d="M201.129 129.46C201.002 129.46 200.877 129.43 200.763 129.371C200.651 129.312 200.554 129.226 200.482 129.12C200.412 129.015 200.366 128.894 200.351 128.768C200.338 128.641 200.354 128.513 200.402 128.395C200.816 127.364 201.431 126.426 202.213 125.637C202.995 124.848 203.927 124.223 204.954 123.8C205.05 123.758 205.152 123.736 205.256 123.735C205.361 123.735 205.463 123.754 205.56 123.792C205.656 123.831 205.744 123.89 205.818 123.964C205.891 124.037 205.949 124.125 205.988 124.222C206.026 124.318 206.047 124.422 206.045 124.525C206.044 124.629 206.021 124.733 205.979 124.828C205.937 124.923 205.877 125.009 205.8 125.081C205.725 125.153 205.636 125.208 205.538 125.245C204.707 125.588 203.953 126.094 203.321 126.733C202.687 127.372 202.189 128.131 201.855 128.966C201.797 129.112 201.696 129.237 201.568 129.325C201.439 129.413 201.286 129.46 201.129 129.46Z" fill="#2B1927"/>
<path d="M293.223 99.1642C293.135 99.1642 293.047 99.1512 292.962 99.1224C292.768 99.0547 292.606 98.9136 292.516 98.7278C292.425 98.5421 292.412 98.3275 292.48 98.1331C293.812 94.271 296.322 90.923 299.657 88.5629C299.74 88.5038 299.835 88.4621 299.935 88.4405C300.035 88.4189 300.138 88.416 300.238 88.4333C300.339 88.4506 300.436 88.488 300.522 88.5427C300.609 88.5974 300.683 88.6694 300.742 88.753C300.801 88.8365 300.843 88.9315 300.866 89.0309C300.888 89.1302 300.891 89.2339 300.873 89.3347C300.855 89.4355 300.819 89.532 300.763 89.6184C300.708 89.7048 300.637 89.7797 300.554 89.8387C297.488 92.0131 295.183 95.0918 293.96 98.6458C293.907 98.7984 293.807 98.9294 293.675 99.023C293.542 99.1166 293.384 99.1656 293.223 99.1656V99.1642Z" fill="#2B1927"/>
<path d="M290.341 98.5219C290.235 98.5219 290.13 98.5003 290.032 98.46C289.935 98.4197 289.849 98.3606 289.777 98.2858C289.705 98.2109 289.647 98.123 289.61 98.0266C289.572 97.9301 289.554 97.8264 289.556 97.7227C289.559 97.619 289.582 97.5168 289.626 97.4218C291.456 93.1781 294.232 89.4082 297.744 86.4043C297.822 86.3381 297.913 86.2877 298.009 86.256C298.107 86.2243 298.209 86.2128 298.312 86.2214C298.414 86.2301 298.513 86.2574 298.604 86.305C298.696 86.351 298.777 86.4158 298.843 86.4936C298.909 86.5714 298.96 86.6621 298.991 86.7586C299.023 86.8565 299.035 86.9587 299.026 87.061C299.019 87.1632 298.99 87.2626 298.944 87.3533C298.896 87.444 298.833 87.5261 298.755 87.5923C295.424 90.4421 292.791 94.0162 291.056 98.041C290.996 98.1821 290.899 98.3045 290.77 98.3909C290.644 98.4773 290.494 98.5234 290.341 98.5248V98.5219Z" fill="#2B1927"/>
<path d="M287.458 97.776C287.36 97.776 287.264 97.7587 287.173 97.7213C286.98 97.645 286.826 97.4966 286.744 97.3066C286.662 97.1165 286.658 96.9019 286.734 96.7104C288.082 93.3005 290.504 89.7077 293.059 87.3317C293.133 87.2626 293.221 87.2078 293.318 87.1718C293.414 87.1358 293.516 87.12 293.619 87.1243C293.721 87.1286 293.822 87.1517 293.914 87.1949C294.008 87.2381 294.091 87.2986 294.16 87.3734C294.231 87.4483 294.284 87.5362 294.32 87.6326C294.356 87.7291 294.372 87.8314 294.368 87.9336C294.365 88.0358 294.34 88.1366 294.297 88.2288C294.255 88.3224 294.195 88.4059 294.118 88.475C291.725 90.6998 289.441 94.0752 288.184 97.2835C288.127 97.429 288.026 97.5528 287.898 97.6406C287.768 97.7285 287.615 97.7746 287.458 97.7746V97.776Z" fill="#2B1927"/>
<path d="M285.232 102.038C285.081 102.038 284.933 101.994 284.806 101.912C283.595 101.133 281.194 100.025 278.424 99.5285C275.375 98.9827 272.585 99.0432 270.129 99.7027C269.932 99.7488 269.725 99.7157 269.552 99.612C269.378 99.5083 269.253 99.3413 269.199 99.1455C269.147 98.9511 269.172 98.7423 269.27 98.5651C269.368 98.388 269.53 98.257 269.723 98.1965C272.403 97.4765 275.423 97.4175 278.699 97.9935C281.698 98.5291 284.322 99.7344 285.658 100.593C285.8 100.685 285.908 100.819 285.967 100.977C286.024 101.136 286.03 101.308 285.982 101.47C285.935 101.631 285.836 101.773 285.7 101.873C285.565 101.974 285.401 102.027 285.232 102.027V102.037V102.038Z" fill="#2B1927"/>
<path d="M79.1811 156.852C79.0126 156.852 78.847 156.797 78.7131 156.695C78.5777 156.594 78.4798 156.45 78.4337 156.289C78.4136 156.216 76.9937 151.504 73.0813 148.909C71.0537 147.565 69.7678 147.25 68.276 146.887C66.3896 146.425 64.2483 145.902 60.3891 143.16C60.2293 143.038 60.1227 142.858 60.0925 142.658C60.0622 142.458 60.1112 142.255 60.2278 142.091C60.3445 141.926 60.5216 141.813 60.7189 141.775C60.9176 141.738 61.1221 141.778 61.2905 141.889C64.9078 144.459 66.8072 144.922 68.6446 145.372C70.5411 145.76 72.3411 146.52 73.941 147.609C78.3589 150.535 79.8709 155.641 79.9328 155.857C79.9904 156.056 79.9659 156.269 79.8665 156.449C79.7672 156.63 79.5987 156.764 79.4014 156.822C79.3309 156.842 79.2574 156.852 79.1825 156.852H79.1811Z" fill="#2B1927"/>
<path d="M128.707 175.193C125.29 175.193 113.779 171.979 95.9053 166.877C87.1486 164.375 78.8773 162.013 73.5392 160.717C70.4216 159.958 63.4981 160.608 59.6058 162.553C59.4776 162.616 59.335 162.642 59.1925 162.632L47.2578 161.629C47.085 161.613 46.9208 161.541 46.7926 161.424C46.7538 161.387 42.8946 157.843 39.5998 157.442C39.3925 157.416 39.2053 157.311 39.0757 157.147C38.9475 156.983 38.8885 156.774 38.9144 156.568C38.9389 156.361 39.0454 156.172 39.2096 156.044C39.3738 155.916 39.5826 155.858 39.7885 155.883C43.1667 156.29 46.7552 159.297 47.6466 160.085L59.109 161.05C63.3786 159.003 70.5094 158.365 73.905 159.191C79.2733 160.491 87.5605 162.863 96.333 165.371C109.796 169.216 126.512 173.992 128.91 173.631C131.938 171.901 137.471 163.001 142.823 154.39C151.295 140.76 156.233 133.138 159.195 134.98C159.368 135.091 159.49 135.264 159.536 135.464C159.582 135.664 159.548 135.874 159.44 136.048C159.332 136.223 159.159 136.348 158.959 136.395C158.76 136.443 158.55 136.411 158.374 136.305C158.269 136.24 157.232 135.824 153.259 141.216C150.565 144.873 147.296 150.13 144.135 155.213C138.364 164.497 132.912 173.268 129.536 175.061C129.48 175.09 129.42 175.113 129.358 175.129C129.143 175.175 128.924 175.196 128.706 175.193H128.707Z" fill="#2B1927"/>
<path d="M48.1203 158.869C47.9158 158.869 47.72 158.789 47.5746 158.645C44.8861 156.018 41.4416 154.302 37.7264 153.734C37.5219 153.704 37.3376 153.593 37.2152 153.426C37.0914 153.259 37.041 153.052 37.0712 152.847C37.1014 152.641 37.2123 152.459 37.3794 152.335C37.5464 152.212 37.7538 152.16 37.9597 152.191C41.9989 152.806 45.7443 154.672 48.669 157.526C48.7798 157.634 48.8547 157.772 48.8864 157.925C48.9181 158.076 48.9022 158.233 48.8446 158.377C48.7856 158.52 48.6862 158.642 48.5581 158.728C48.4299 158.815 48.2787 158.861 48.1232 158.861V158.869H48.1203Z" fill="#2B1927"/>
<path d="M49.5416 156.309C49.3587 156.309 49.183 156.244 49.0419 156.128C45.9243 153.528 42.9277 152.061 38.3384 150.931C38.2347 150.911 38.1368 150.869 38.049 150.81C37.9611 150.751 37.8877 150.673 37.8301 150.585C37.7739 150.496 37.735 150.396 37.7178 150.293C37.7005 150.188 37.7048 150.081 37.7293 149.979C37.7538 149.877 37.7998 149.78 37.8632 149.697C37.9266 149.612 38.0072 149.541 38.0979 149.489C38.1901 149.436 38.2909 149.403 38.396 149.391C38.5011 149.378 38.6077 149.387 38.7085 149.417C43.5498 150.599 46.7278 152.143 50.0413 154.924C50.1637 155.027 50.253 155.166 50.2933 155.32C50.335 155.474 50.3278 155.638 50.2731 155.789C50.2184 155.939 50.119 156.069 49.988 156.161C49.857 156.253 49.7 156.302 49.5402 156.302V156.309H49.5416Z" fill="#2B1927"/>
<path d="M50.757 153.994C50.5654 153.994 50.3811 153.924 50.2371 153.796C47.6624 151.497 46.0122 150.566 42.873 149.652C42.775 149.623 42.6829 149.576 42.6037 149.511C42.5245 149.448 42.4582 149.368 42.4078 149.278C42.3085 149.098 42.2854 148.883 42.343 148.686C42.4006 148.487 42.536 148.319 42.716 148.219C42.8974 148.12 43.1106 148.097 43.3093 148.154C46.6688 149.135 48.5322 150.182 51.2768 152.634C51.4309 152.772 51.523 152.965 51.5331 153.173C51.5446 153.379 51.4741 153.58 51.3358 153.734C51.2624 153.815 51.1731 153.881 51.0738 153.926C50.9744 153.971 50.8664 153.994 50.757 153.994Z" fill="#2B1927"/>
<path d="M71.1531 149.818H46.4298V155.896H71.1531V149.818Z" fill="#2B1927"/>
<path d="M71.1531 156.673H46.4226C46.2152 156.673 46.0179 156.591 45.871 156.444C45.7242 156.299 45.6421 156.1 45.6421 155.893V149.818C45.6421 149.612 45.7242 149.413 45.871 149.266C46.0165 149.121 46.2152 149.039 46.4226 149.039H71.1459C71.3518 149.039 71.5506 149.121 71.6974 149.266C71.8443 149.413 71.9264 149.612 71.9264 149.818V155.893C71.9264 156.099 71.8458 156.296 71.7003 156.442C71.5563 156.588 71.359 156.671 71.1546 156.673H71.1531ZM47.2102 155.114H70.3741V150.598H47.203L47.2102 155.114Z" fill="#2B1927"/>
<path d="M64.4773 149.269H51.5158C51.3632 149.269 51.2134 149.224 51.0867 149.141C50.96 149.057 50.8592 148.938 50.8002 148.797C50.7397 148.657 50.7224 148.501 50.7498 148.352C50.7771 148.202 50.8477 148.062 50.9528 147.953L54.6421 144.081L49.4739 114.916C49.0059 112.258 49.1514 109.528 49.9002 106.933L50.5986 104.524V104.495C50.7872 103.932 51.1314 103.432 51.5907 103.055C52.0501 102.678 52.6074 102.439 53.1963 102.364L54.9344 102.148C55.2656 102.109 55.5709 101.945 55.7869 101.69C56.0029 101.435 56.1152 101.108 56.1008 100.776C56.0821 100.567 56.0202 100.365 55.9194 100.182C55.8186 99.9994 55.6803 99.8395 55.5133 99.7128C54.2994 98.699 53.575 96.9898 53.575 95.1394C53.575 92.1168 55.519 89.6587 57.9094 89.6587C60.2998 89.6587 62.241 92.1168 62.241 95.1394C62.241 96.8731 61.5858 98.5176 60.4899 99.5573C60.3474 99.684 60.2336 99.8395 60.1544 100.012C60.0752 100.185 60.0334 100.374 60.0291 100.564V100.865C60.0291 101.192 60.1486 101.506 60.3646 101.75C60.5806 101.995 60.8787 102.151 61.2027 102.191L62.7622 102.378C63.3526 102.453 63.9099 102.694 64.3693 103.071C64.8286 103.448 65.1728 103.948 65.3614 104.512V104.541L66.0584 106.944C66.8086 109.536 66.9541 112.267 66.4846 114.925L61.3496 144.081L65.0389 147.953C65.144 148.062 65.2146 148.202 65.2419 148.352C65.2693 148.501 65.252 148.657 65.1915 148.797C65.131 148.938 65.0317 149.057 64.905 149.141C64.7782 149.224 64.6285 149.269 64.4758 149.269H64.4773ZM53.3374 147.711H62.6586L59.9514 144.87C59.8678 144.782 59.8045 144.675 59.7699 144.557C59.7354 144.441 59.7282 144.317 59.7483 144.197L64.987 114.644C65.4118 112.221 65.2794 109.732 64.5968 107.368L63.9056 104.98C63.8091 104.7 63.6378 104.452 63.4074 104.263C63.1784 104.076 62.9005 103.955 62.6053 103.918L61.0458 103.728C60.3445 103.643 59.6979 103.303 59.2285 102.774C58.759 102.246 58.4998 101.563 58.4998 100.856V100.555C58.5042 100.152 58.592 99.7531 58.7562 99.3845C58.9203 99.0158 59.1594 98.6846 59.456 98.411C60.235 97.6738 60.7117 96.4512 60.7117 95.1422C60.7117 92.9808 59.469 91.2211 57.9382 91.2211C56.4075 91.2211 55.1634 92.9808 55.1634 95.1422C55.1634 96.5146 55.6832 97.8091 56.5429 98.5205C56.8798 98.7854 57.1563 99.1195 57.3536 99.4997C57.5509 99.8798 57.6661 100.299 57.6891 100.727C57.7179 101.449 57.4746 102.158 57.0037 102.709C56.5342 103.261 55.8733 103.614 55.1547 103.7L53.4166 103.916C53.1229 103.955 52.845 104.075 52.616 104.263C52.387 104.45 52.2142 104.7 52.1178 104.979L51.4237 107.369C50.7426 109.734 50.6101 112.222 51.0363 114.646L56.2462 144.199C56.2678 144.32 56.2592 144.442 56.2232 144.56C56.1872 144.677 56.1253 144.783 56.0403 144.871L53.336 147.712L53.3374 147.711Z" fill="#FEB300"/>
<path d="M83.1253 116.353C82.9179 116.369 82.7135 116.304 82.5551 116.169C82.3967 116.035 82.2987 115.842 82.2829 115.636C82.2671 115.429 82.3333 115.224 82.4672 115.066C82.6011 114.908 82.7941 114.81 83 114.794L102.866 111.558C103.071 111.524 103.28 111.571 103.448 111.692C103.616 111.812 103.73 111.995 103.765 112.198C103.799 112.402 103.752 112.611 103.631 112.779C103.511 112.948 103.328 113.062 103.125 113.096L83.2592 116.332C83.2146 116.343 83.1699 116.351 83.1239 116.352L83.1253 116.353Z" fill="#2B1927"/>
<path d="M265.475 47.3328C266.574 47.3328 267.465 46.4414 267.465 45.3427C267.465 44.244 266.574 43.3526 265.475 43.3526C264.377 43.3526 263.484 44.244 263.484 45.3427C263.484 46.4414 264.375 47.3328 265.475 47.3328Z" fill="#FF5E6C"/>
<path d="M265.483 48.1118C264.935 48.1118 264.4 47.9491 263.943 47.6453C263.488 47.3414 263.134 46.908 262.924 46.4026C262.713 45.8957 262.659 45.3398 262.765 44.8013C262.873 44.2642 263.137 43.7702 263.524 43.3829C263.912 42.9955 264.405 42.732 264.943 42.6254C265.48 42.5189 266.037 42.5736 266.542 42.7838C267.049 42.9941 267.481 43.3483 267.787 43.8034C268.09 44.2584 268.253 44.7941 268.253 45.3427C268.252 46.0771 267.961 46.7813 267.441 47.3011C266.921 47.821 266.217 48.1133 265.483 48.1133V48.1118ZM265.483 44.1317C265.244 44.1317 265.009 44.2022 264.81 44.3362C264.611 44.4686 264.456 44.6587 264.364 44.879C264.273 45.1008 264.248 45.3442 264.295 45.5789C264.342 45.8136 264.457 46.0296 264.627 46.1995C264.796 46.3694 265.012 46.4846 265.246 46.5307C265.481 46.5768 265.724 46.5538 265.946 46.4616C266.168 46.3694 266.357 46.2154 266.489 46.0152C266.623 45.8165 266.694 45.5818 266.694 45.3427C266.694 45.0216 266.565 44.7134 266.339 44.4859C266.112 44.2584 265.804 44.1317 265.483 44.1317Z" fill="#FF5E6C"/>
<path d="M345.436 124.524C347.599 124.524 349.352 122.77 349.352 120.607C349.352 118.444 347.599 116.69 345.436 116.69C343.273 116.69 341.52 118.444 341.52 120.607C341.52 122.77 343.273 124.524 345.436 124.524Z" fill="#2B1927"/>
<path d="M345.436 125.3C344.507 125.3 343.598 125.025 342.826 124.51C342.053 123.994 341.451 123.261 341.095 122.403C340.74 121.545 340.646 120.6 340.828 119.69C341.009 118.778 341.455 117.942 342.112 117.285C342.769 116.628 343.607 116.181 344.517 115.999C345.428 115.818 346.373 115.911 347.231 116.267C348.09 116.623 348.823 117.225 349.338 117.998C349.854 118.77 350.129 119.678 350.129 120.607C350.127 121.851 349.632 123.044 348.752 123.924C347.872 124.803 346.68 125.299 345.436 125.3ZM345.436 117.471C344.815 117.471 344.209 117.654 343.692 117.998C343.176 118.342 342.773 118.832 342.535 119.405C342.298 119.978 342.236 120.609 342.357 121.218C342.476 121.827 342.776 122.386 343.214 122.825C343.653 123.264 344.212 123.562 344.821 123.684C345.428 123.805 346.059 123.743 346.632 123.506C347.205 123.268 347.696 122.867 348.041 122.351C348.385 121.835 348.569 121.229 348.569 120.609C348.568 119.778 348.238 118.981 347.65 118.394C347.063 117.806 346.267 117.475 345.436 117.472V117.471Z" fill="#2B1927"/>
<path d="M204.817 240.503H204.785C204.579 240.494 204.385 240.405 204.244 240.254C204.104 240.103 204.029 239.901 204.036 239.695C204.595 225.226 205.172 210.266 203.067 195.706C202.389 191.013 201.316 185.622 198.491 181.207C197.379 179.466 196.278 178.381 195.031 177.797C193.557 177.108 191.85 177.277 190.872 178.197C190.722 178.34 190.522 178.417 190.316 178.412C190.109 178.407 189.913 178.32 189.769 178.17C189.626 178.02 189.55 177.82 189.554 177.612C189.56 177.405 189.646 177.209 189.796 177.067C191.223 175.71 193.645 175.429 195.686 176.386C197.214 177.1 198.52 178.366 199.801 180.367C202.782 185.044 203.904 190.626 204.607 195.483C206.732 210.182 206.165 225.216 205.589 239.754C205.58 239.954 205.495 240.144 205.352 240.283C205.208 240.422 205.017 240.502 204.817 240.503Z" fill="white"/>
<path d="M191.891 204.201C191.698 204.201 191.513 204.132 191.369 204.003C191.225 203.875 191.132 203.698 191.111 203.507C190.542 198.383 189.756 193.216 188.772 188.152C188.287 185.639 187.734 183.239 186.224 181.482C186.09 181.325 186.023 181.12 186.039 180.913C186.055 180.707 186.153 180.516 186.311 180.382C186.468 180.246 186.673 180.18 186.879 180.197C187.086 180.213 187.276 180.311 187.412 180.468C189.157 182.513 189.776 185.131 190.303 187.857C191.291 192.96 192.083 198.17 192.657 203.335C192.68 203.541 192.62 203.747 192.492 203.908C192.362 204.07 192.175 204.173 191.969 204.196C191.943 204.199 191.917 204.202 191.891 204.201Z" fill="white"/>
<path d="M160.615 234.55H160.557C160.352 234.534 160.161 234.439 160.026 234.282C159.892 234.127 159.824 233.924 159.838 233.718C161.031 217.21 162.265 200.143 168.388 184.346C169.27 182.064 170.385 179.803 172.545 178.724C173.253 178.394 174.032 178.246 174.813 178.291C175.592 178.337 176.349 178.574 177.015 178.985C177.504 179.267 177.91 179.673 178.193 180.163C178.476 180.652 178.625 181.208 178.626 181.773C178.622 181.98 178.537 182.176 178.388 182.32C178.239 182.464 178.04 182.543 177.833 182.539C177.627 182.536 177.429 182.451 177.285 182.303C177.141 182.153 177.062 181.954 177.067 181.747C177.059 181.45 176.974 181.161 176.819 180.907C176.663 180.654 176.444 180.446 176.182 180.305C175.746 180.035 175.251 179.875 174.738 179.84C174.225 179.806 173.713 179.898 173.243 180.107C171.567 180.949 170.621 182.906 169.865 184.896C163.827 200.488 162.59 217.441 161.415 233.833C161.399 234.032 161.307 234.217 161.159 234.351C161.009 234.485 160.815 234.556 160.615 234.55Z" fill="white"/>
<path d="M170.723 158.011C170.533 158.011 170.35 157.941 170.208 157.814C170.065 157.689 169.975 157.514 169.952 157.326C169.928 157.137 169.976 156.947 170.083 156.79C170.191 156.633 170.352 156.522 170.536 156.476C176.911 154.894 182.415 155.246 187.27 155.556L188.371 155.627C188.576 155.638 188.771 155.732 188.908 155.887C189.044 156.043 189.115 156.246 189.104 156.452C189.091 156.659 188.997 156.852 188.841 156.99C188.686 157.127 188.483 157.198 188.277 157.185L187.172 157.116C182.429 156.81 177.054 156.468 170.911 157.991C170.849 158.005 170.787 158.013 170.723 158.011Z" fill="white"/>
<path d="M189.488 59.1019C189.325 59.1019 189.165 59.0501 189.034 58.955C188.902 58.86 188.803 58.7261 188.751 58.572C188.699 58.4179 188.696 58.2509 188.744 58.0954C188.791 57.9398 188.886 57.803 189.014 57.7037C190.855 56.2982 192.603 54.9101 193.765 53.3894C193.827 53.3074 193.905 53.2397 193.992 53.1878C194.082 53.136 194.18 53.1029 194.28 53.0899C194.383 53.0755 194.485 53.0827 194.584 53.1086C194.684 53.1346 194.776 53.1806 194.858 53.2426C194.938 53.3045 195.008 53.3822 195.058 53.4701C195.11 53.5594 195.143 53.6558 195.157 53.7581C195.17 53.8589 195.164 53.9626 195.139 54.0619C195.111 54.1613 195.067 54.2534 195.005 54.3355C193.726 56.0088 191.886 57.469 189.96 58.9421C189.825 59.0458 189.658 59.1005 189.488 59.1005V59.1019Z" fill="white"/>
</g>
<defs>
<clipPath id="clip0_2004_1939">
<rect width="382" height="191" fill="white"/>
</clipPath>
</defs>
</svg>
