<svg width="926" height="926" viewBox="0 0 926 926" fill="none" xmlns="http://www.w3.org/2000/svg">
<path d="M706.492 701.352C709.554 663.825 711.396 626.18 711.183 588.525C711.183 588.362 711.183 588.192 711.183 588.028C693.75 588.282 676.261 589.155 658.797 584.655C653.176 582.966 648.114 577.907 647.552 571.157C643.906 557.177 642.409 534.043 652.904 527.854C668.763 518.541 695.398 518.52 706.893 521.242C703.328 497.284 696.917 474.001 685.521 452.706C679.162 440.828 670.967 429.405 659.361 422.562C648.225 416.005 634.983 414.228 622.115 413.002C592.146 410.156 436.834 410.156 406.86 413.002C403.069 413.36 399.245 413.777 395.455 414.339L340.962 474.442C343.811 475.76 346.346 477.677 348.389 480.063C357.387 490.187 357.387 510.995 343.892 517.18C342.296 517.977 340.635 518.634 338.931 519.149C339.876 519.486 340.799 519.779 341.642 519.992C352.889 524.493 366.949 520.557 376.509 528.99C387.756 539.676 383.821 557.109 382.132 571.169C381.571 576.793 378.197 582.417 372.008 583.54C353.559 587.232 334.169 586.692 317.785 585.954V588.513C317.572 626.192 319.418 663.815 322.47 701.343C329.1 782.677 343.898 806.506 349.846 813.3C353.846 817.849 364.344 819.047 387.346 817.235C400.057 816.229 393.211 797.193 392.565 792.492C459.2 792.869 551.007 792.897 621.034 792.57C580.96 753.316 553.183 739.59 526.585 702.46C515.338 686.715 506.371 668.455 502.435 649.333C491.749 602.094 498 558.23 496.873 512.115C496.873 511.553 497.435 506.491 499.685 508.176C501.373 509.303 506.497 507.189 508.183 508.312C523.931 523.496 530.187 539.086 539.185 558.77C539.185 552.019 525.431 513.547 528.805 498.364C535.932 495.49 548.112 507.615 555.421 514.365C578.67 538.108 626.513 585.297 633.529 643.332C641.335 707.837 640.28 757.681 661.087 797.598C664.708 804.543 673.764 805.543 679.922 812.383L679.156 813.293C685.067 806.546 699.868 782.689 706.492 701.352Z" fill="#FE9A00"/>
<path d="M370.051 819.732C358.146 819.732 351.72 818.047 348.537 814.423C340.882 805.719 327.097 779.467 320.745 701.494C317.368 660.294 315.849 623.325 316.053 588.519V585.948C316.053 585.72 316.099 585.494 316.189 585.284C316.278 585.075 316.411 584.886 316.575 584.726C316.741 584.568 316.936 584.448 317.149 584.368C317.362 584.287 317.59 584.25 317.819 584.263C334.363 585.01 353.531 585.497 371.638 581.877C377.419 580.824 379.972 575.361 380.41 570.996C380.601 569.382 380.821 567.761 381.04 566.113C382.728 553.461 384.67 539.12 375.326 530.228C370.051 525.594 363.23 524.993 356.004 524.363C351.003 523.925 345.83 523.474 341.08 521.597C340.24 521.381 339.314 521.091 338.311 520.73C337.978 520.61 337.694 520.387 337.493 520.097C337.292 519.804 337.191 519.455 337.2 519.103C337.206 518.748 337.326 518.406 337.542 518.125C337.755 517.841 338.052 517.634 338.391 517.529C340.009 517.041 341.58 516.415 343.092 515.665H343.142C347.874 513.492 351.161 509.062 352.399 503.179C354.025 495.435 351.889 486.607 347.086 481.202C345.185 478.995 342.836 477.22 340.197 475.995C339.959 475.881 339.749 475.714 339.589 475.507C339.428 475.3 339.317 475.056 339.265 474.8C339.212 474.541 339.225 474.276 339.293 474.022C339.364 473.769 339.49 473.535 339.666 473.34L394.155 413.237C394.417 412.95 394.772 412.761 395.158 412.703C398.445 412.209 401.995 411.792 406.656 411.354C436.874 408.48 592.01 408.48 622.232 411.354C635.1 412.573 648.629 414.336 660.17 421.139C670.439 427.192 678.952 436.976 686.962 451.934C697.485 471.578 704.541 494.175 708.541 521.023C708.581 521.295 708.554 521.573 708.461 521.835C708.368 522.094 708.214 522.326 708.013 522.514C707.81 522.699 707.563 522.835 707.297 522.903C707.029 522.974 706.751 522.977 706.482 522.912C694.299 520.032 668.516 520.662 653.737 529.336C644.024 535.043 645.774 557.773 649.163 570.759C649.188 570.854 649.203 570.95 649.209 571.046C649.771 577.413 654.62 581.658 659.232 583.059C674.668 586.994 690.472 586.72 705.751 586.433C707.544 586.399 709.338 586.365 711.137 586.343C711.585 586.343 712.017 586.513 712.341 586.822C712.501 586.976 712.628 587.164 712.714 587.368C712.801 587.575 712.847 587.794 712.847 588.019V588.519C713.045 623.34 711.511 660.294 708.152 701.494C701.797 779.473 688.012 805.719 680.366 814.423C680.073 814.76 679.659 814.963 679.215 814.994C678.773 815.028 678.335 814.883 677.999 814.593C677.693 814.352 677.489 814.01 677.425 813.63C677.36 813.247 677.437 812.855 677.644 812.528C675.23 810.201 672.403 808.592 669.658 807.074C665.59 804.79 661.75 802.638 659.534 798.397C643.727 768.08 640.341 731.361 636.427 688.845C635.094 674.434 633.72 659.519 631.791 643.551C625.044 587.834 580.337 542.253 556.316 517.767L554.18 515.591L552.492 514.016C546.251 508.201 536.003 498.651 530.206 499.71C528.564 509.831 533.848 529.913 537.386 543.334C539.373 550.884 540.812 556.347 540.812 558.785C540.812 559.171 540.682 559.545 540.438 559.847C540.198 560.147 539.861 560.357 539.485 560.437C539.108 560.52 538.713 560.471 538.37 560.298C538.025 560.125 537.75 559.841 537.589 559.489C536.839 557.835 536.102 556.211 535.379 554.618C527.462 537.157 521.196 523.344 507.127 509.714C506.624 509.569 505.068 509.791 504.117 509.933C502.188 510.207 500.361 510.495 499 509.782C498.722 510.541 498.552 511.337 498.5 512.143C498.842 526.141 498.5 540.176 498.166 553.757C497.407 584.51 496.626 616.305 504.022 648.984C507.636 666.547 515.887 684.697 527.9 701.507C544.118 724.147 561.008 738.207 580.562 754.486C592.791 764.672 606.66 776.216 622.176 791.397C622.414 791.628 622.578 791.928 622.645 792.255C622.713 792.582 622.683 792.921 622.559 793.233C622.433 793.542 622.22 793.807 621.942 793.996C621.667 794.181 621.34 794.283 621.006 794.286C551.597 794.613 460.95 794.585 394.584 794.218C394.661 794.545 394.741 794.894 394.825 795.258C396.124 800.811 398.294 810.099 394.482 815.318C392.914 817.467 390.547 818.692 387.441 818.93C380.635 819.458 374.873 819.732 370.051 819.732ZM319.439 587.726V588.535C319.242 623.263 320.773 660.121 324.119 701.22C330.631 781.075 345.145 805.444 351.077 812.198C354.661 816.275 365.458 817.26 387.176 815.571C389.284 815.408 390.787 814.676 391.76 813.321C394.661 809.352 392.633 800.681 391.547 796.017C391.226 794.641 390.985 793.554 390.855 792.746C390.821 792.505 390.84 792.261 390.911 792.029C390.982 791.798 391.099 791.582 391.26 791.4C391.42 791.221 391.618 791.079 391.837 790.983C392.056 790.884 392.297 790.835 392.538 790.838C457.771 791.208 547.303 791.242 616.861 790.934C602.65 777.25 589.828 766.577 578.429 757.085C558.696 740.658 541.654 726.469 525.184 703.473C512.902 686.283 504.454 667.689 500.747 649.706C493.274 616.648 494.061 584.639 494.82 553.68C495.154 540.148 495.496 526.156 495.154 512.189C495.154 512.103 495.299 507.621 497.626 506.457C498.105 506.229 498.636 506.142 499.163 506.204C499.688 506.266 500.185 506.476 500.596 506.806C501.025 506.991 502.673 506.75 503.661 506.608C505.741 506.306 507.704 506.047 509.087 506.942C509.17 506.997 509.251 507.062 509.325 507.133C521.088 518.436 527.721 530.246 533.907 543.3C529.968 528.366 524.807 508.392 527.113 498.015C527.172 497.75 527.295 497.5 527.474 497.29C527.65 497.083 527.876 496.919 528.132 496.818C535.713 493.759 546.751 504.04 554.831 511.547C555.427 512.109 556.001 512.637 556.52 513.137L556.582 513.202L558.745 515.405C583.047 540.148 628.279 586.263 635.156 643.147C637.097 659.164 638.468 674.079 639.801 688.537C643.845 732.435 647.039 767.111 662.544 796.832C664.291 800.209 667.547 802.012 671.322 804.145C674.032 805.663 677.048 807.348 679.712 809.836C686.416 800.437 698.902 773.679 704.806 701.229C708.118 660.605 709.652 624.124 709.495 589.751L705.825 589.819C690.308 590.1 674.258 590.381 658.371 586.318H658.303C652.623 584.633 646.601 579.373 645.876 571.496C642.119 556.986 640.678 533.12 652.061 526.45C667.948 517.119 692.787 517.048 704.874 519.14C700.874 493.725 694.046 472.241 684.027 453.527C676.316 439.14 668.202 429.772 658.488 424.046C647.546 417.595 634.437 415.897 621.936 414.712C591.804 411.848 437.128 411.848 406.996 414.712C402.677 415.123 399.334 415.512 396.276 415.95L343.645 474.007C345.923 475.316 347.96 477.01 349.661 479.014C355.106 485.138 357.535 495.154 355.717 503.886C354.257 510.831 350.309 516.106 344.592 518.733L343.926 519.06C347.827 520.298 352.136 520.674 356.297 521.039C363.754 521.693 371.48 522.366 377.577 527.761L377.623 527.798C388.241 537.883 386.188 553.14 384.37 566.604C384.151 568.24 383.938 569.842 383.747 571.407C383.185 576.907 379.854 583.855 372.252 585.241C354.476 588.772 335.771 588.436 319.433 587.726H319.439Z" fill="#FE9A00"/>
<path d="M503.537 652.398H423.5C399.847 650.713 391.63 635.242 383.691 620.259C374.996 603.872 366.786 588.396 339.472 588.396C339.024 588.396 338.595 588.217 338.277 587.902C337.962 587.584 337.783 587.155 337.783 586.707C337.783 586.26 337.962 585.831 338.277 585.516C338.595 585.198 339.024 585.022 339.472 585.022C368.817 585.022 377.891 602.135 386.67 618.679C394.544 633.48 401.94 647.468 423.676 649.046H503.531C503.979 649.046 504.408 649.225 504.726 649.543C505.04 649.858 505.219 650.287 505.219 650.734C505.219 651.182 505.04 651.611 504.726 651.929C504.408 652.244 503.979 652.423 503.531 652.423L503.537 652.398Z" fill="white"/>
<path d="M631.714 640.039C631.39 640.036 631.069 639.943 630.797 639.764C630.526 639.588 630.31 639.335 630.177 639.039C630.044 638.739 630.001 638.412 630.05 638.091C630.1 637.77 630.242 637.468 630.461 637.227C635.23 631.918 638.644 625.482 642.27 618.667C651.043 602.122 660.121 585.01 689.469 585.01C689.916 585.01 690.345 585.189 690.663 585.504C690.978 585.822 691.157 586.251 691.157 586.698C691.157 587.143 690.978 587.575 690.663 587.89C690.345 588.208 689.916 588.383 689.469 588.383C662.149 588.383 653.938 603.86 645.249 620.247C641.702 626.939 638.036 633.856 632.986 639.474C632.825 639.653 632.628 639.798 632.409 639.894C632.189 639.989 631.955 640.039 631.714 640.039Z" fill="white"/>
<path d="M283.801 496.808C283.361 496.808 282.939 496.635 282.623 496.33C282.308 496.021 282.126 495.604 282.114 495.166C281.602 477.131 292.045 467.608 295.976 464.037L296.426 463.633C296.759 463.352 297.186 463.21 297.62 463.238C298.054 463.265 298.461 463.46 298.755 463.781C299.049 464.099 299.209 464.522 299.201 464.954C299.192 465.389 299.016 465.806 298.709 466.111L298.248 466.534C294.632 469.831 285.016 478.585 285.488 495.07C285.495 495.29 285.458 495.512 285.379 495.719C285.301 495.925 285.182 496.117 285.03 496.277C284.878 496.438 284.696 496.568 284.493 496.66C284.291 496.75 284.073 496.799 283.852 496.808H283.801Z" fill="#FFF5D7"/>
<path d="M428.022 228.251C427.371 228.251 426.71 228.223 426.065 228.161C417.438 227.362 410.076 220.85 408.317 213.083C397.041 223.544 378.376 225.731 364.934 217.655C357.967 213.466 352.466 206.655 349.451 198.473C346.457 190.558 346.16 181.874 348.608 173.773C353.047 159.675 366.042 148.939 380.743 146.56C376.465 143.576 373.095 139.47 371.002 134.694C367.928 127.777 367.628 120.117 370.221 113.673C372.814 107.228 378.302 101.863 385.302 99.0058C391.127 96.5457 397.618 96.1488 403.699 97.881C402.81 83.04 413.579 69.7624 425.25 62.8958C435.933 56.6086 447.647 54.6121 457.438 57.4237C466.439 59.9996 473.529 66.9844 476.155 75.0035C480.35 66.9393 488.931 63.3739 496.129 62.8396C506.253 62.0747 515.217 66.6467 518.816 74.1544C531.237 63.2958 547.318 57.5608 563.807 58.1099C570.157 58.38 581.599 60.1625 586.865 69.1494C588.967 72.7203 589.918 77.3152 589.677 82.815C589.081 97.4874 581.022 112.255 566.703 125.286C573.024 124.228 579.519 125.522 584.244 129.267C588.674 132.782 591.251 138.788 590.992 144.946C590.887 147.84 590.06 150.662 588.59 153.157C590.473 153.126 592.344 153.451 594.106 154.113C599.73 156.16 604.826 161.384 607.07 167.424C610.32 176.269 610.11 186.015 606.481 194.711C606.295 195.105 605.962 195.413 605.555 195.568C605.147 195.724 604.696 195.716 604.295 195.546C603.894 195.376 603.573 195.056 603.4 194.655C603.23 194.254 603.221 193.803 603.375 193.395C606.672 185.492 606.86 176.635 603.903 168.6C601.993 163.448 597.718 159.006 592.955 157.279C591.523 156.71 589.982 156.465 588.445 156.562C586.908 156.659 585.411 157.096 584.062 157.841C583.682 158.054 583.235 158.111 582.812 158C582.389 157.89 582.028 157.619 581.8 157.247C581.571 156.874 581.5 156.428 581.593 156.002C581.688 155.576 581.945 155.203 582.309 154.962C585.482 152.898 587.414 149.192 587.624 144.794C587.859 139.705 585.772 134.773 582.173 131.922C575.987 127.018 566.156 127.136 558.751 131.888C557.998 132.45 557.233 133.013 556.458 133.575C556.1 133.827 555.662 133.931 555.233 133.868C554.804 133.804 554.412 133.576 554.146 133.232C553.881 132.887 553.757 132.454 553.804 132.021C553.85 131.588 554.06 131.19 554.393 130.909C555.146 130.283 555.94 129.701 556.761 129.166C568.366 120.399 585.442 103.949 586.337 82.6971C586.531 77.855 585.735 73.8791 583.966 70.8872C579.469 63.2782 569.317 61.7485 563.656 61.5123C555.514 61.237 547.402 62.5806 539.784 65.4651C532.169 68.3499 525.199 72.7179 519.282 78.3162C519.075 78.523 518.819 78.6724 518.535 78.7492C518.251 78.8264 517.955 78.8282 517.671 78.7551C517.387 78.6819 517.128 78.5359 516.918 78.3319C516.708 78.1276 516.554 77.872 516.47 77.5905C513.856 68.9469 504.195 65.6457 496.321 66.2306C488.45 66.8155 478.853 71.4721 477.223 82.7082C477.205 82.9298 477.14 83.1452 477.035 83.3422C476.933 83.5391 476.791 83.7135 476.621 83.8558C476.449 83.9981 476.251 84.1055 476.038 84.1716C475.828 84.2376 475.603 84.2611 475.381 84.2407C475.161 84.2203 474.945 84.1567 474.748 84.053C474.55 83.9496 474.377 83.8083 474.235 83.6373C474.09 83.4663 473.985 83.2687 473.918 83.0564C473.853 82.844 473.828 82.6205 473.85 82.3989C474.214 72.9623 466.756 63.6267 456.493 60.6857C447.591 58.1324 436.813 59.9996 426.948 65.8201C415.542 72.5685 405.048 85.7677 407.32 100.125C407.369 100.424 407.335 100.73 407.224 101.011C407.11 101.292 406.925 101.538 406.687 101.723C406.449 101.908 406.162 102.025 405.863 102.063C405.563 102.1 405.258 102.056 404.98 101.936C399.449 99.529 392.738 99.6018 386.574 102.127C380.41 104.652 375.586 109.325 373.342 114.926C371.098 120.528 371.363 127.237 374.073 133.322C376.783 139.407 381.62 144.114 387.244 146.195C387.614 146.33 387.929 146.591 388.127 146.933C388.327 147.275 388.398 147.676 388.33 148.066C388.263 148.456 388.062 148.81 387.759 149.066C387.46 149.322 387.077 149.464 386.682 149.468C371.091 149.518 356.427 160.203 351.815 174.825C347.204 189.447 353.726 207.021 366.662 214.799C379.833 222.711 398.519 219.77 408.31 208.241C408.536 207.975 408.838 207.785 409.175 207.698C409.511 207.61 409.869 207.629 410.196 207.753C410.52 207.876 410.801 208.097 410.996 208.386C411.19 208.675 411.292 209.018 411.286 209.366C411.138 216.851 418.185 224.078 426.361 224.831C433.961 225.529 442.109 221.345 447.172 214.146C451.45 208.05 453.762 199.761 453.851 190.172C453.854 189.894 453.925 189.621 454.061 189.378C454.194 189.134 454.385 188.927 454.62 188.776C454.854 188.625 455.12 188.533 455.398 188.51C455.675 188.487 455.953 188.532 456.206 188.643C457.941 189.39 460.734 188.497 463.006 186.466C464.639 185.028 465.812 183.142 466.383 181.042C466.951 178.942 466.889 176.722 466.207 174.656C466.087 174.26 466.114 173.833 466.29 173.457C466.463 173.081 466.769 172.782 467.152 172.617C467.531 172.453 467.957 172.434 468.352 172.564C468.744 172.694 469.078 172.964 469.284 173.323C476.56 186.129 492.666 190.887 517.168 187.462C517.396 187.433 517.631 187.449 517.853 187.511C518.075 187.573 518.282 187.679 518.461 187.822C518.643 187.967 518.791 188.148 518.899 188.353C519.008 188.558 519.069 188.783 519.088 189.014C519.761 198.349 521.421 202.106 526.786 210.176C529.468 214.219 538.781 221.632 549.112 221.345C556.946 221.114 563.527 216.542 568.666 207.752C568.863 207.411 569.175 207.151 569.549 207.016C569.919 206.882 570.323 206.881 570.697 207.015C580.688 210.643 589.911 209.265 596.665 203.107C597.005 202.86 597.421 202.747 597.835 202.79C598.252 202.832 598.634 203.027 598.915 203.337C599.196 203.647 599.35 204.05 599.35 204.468C599.35 204.885 599.196 205.288 598.915 205.598C591.492 212.347 581.565 214.129 570.836 210.659C563.783 221.946 555.223 224.562 549.192 224.719H548.498C537.506 224.719 527.403 217.234 523.952 212.037C518.733 204.164 516.674 199.766 515.847 191.033C494.206 193.755 478.831 190.094 469.991 180.128C469.528 183.559 467.837 186.705 465.235 188.986C462.71 191.235 459.74 192.416 457.154 192.281C456.759 201.69 454.268 209.889 449.909 216.098C444.65 223.645 436.214 228.251 428.022 228.251Z" fill="#FE9A00"/>
<path d="M506.67 202.208H488.619C488.172 202.208 487.743 202.03 487.425 201.713C487.11 201.397 486.931 200.968 486.931 200.52C486.931 200.073 487.11 199.644 487.425 199.327C487.743 199.011 488.172 198.833 488.619 198.833H506.67C507.118 198.833 507.547 199.011 507.862 199.327C508.18 199.644 508.359 200.073 508.359 200.52C508.359 200.968 508.18 201.397 507.862 201.713C507.547 202.03 507.118 202.208 506.67 202.208Z" fill="#FFF5D7"/>
<path d="M497.852 250.065C479.44 250.065 473.362 231.704 471.065 224.758L470.803 223.954C470.72 223.742 470.683 223.516 470.692 223.289C470.701 223.063 470.757 222.84 470.852 222.635C470.948 222.43 471.087 222.246 471.257 222.095C471.427 221.944 471.624 221.829 471.837 221.756C472.053 221.683 472.282 221.655 472.507 221.672C472.732 221.689 472.954 221.752 473.155 221.856C473.356 221.961 473.535 222.105 473.68 222.28C473.825 222.455 473.933 222.657 473.998 222.875L474.272 223.696C476.353 229.977 481.881 246.663 497.852 246.663H497.892C515.757 246.635 523.323 222.312 523.323 212.64C523.323 212.192 523.499 211.763 523.817 211.447C524.131 211.13 524.56 210.952 525.008 210.952C525.456 210.952 525.885 211.13 526.203 211.447C526.517 211.763 526.696 212.192 526.696 212.64C526.696 223.634 518.412 250.004 497.898 250.037L497.852 250.065Z" fill="#FFF5D7"/>
<path d="M364.523 398.498C364.236 398.498 363.949 398.421 363.699 398.279C363.446 398.137 363.236 397.93 363.085 397.683C362.933 397.436 362.853 397.152 362.844 396.862C362.835 396.572 362.899 396.285 363.035 396.029C375.941 371.363 383.133 360.455 400.523 334.107C405.992 325.816 411.622 318.096 420.305 314.664C427.127 311.972 434.439 312.571 441.514 313.152C445.597 313.485 449.826 313.834 453.842 313.519C464.954 312.645 477.128 310.762 483.218 303.355C491.234 293.604 490.434 275.062 489.579 255.43C489.496 253.495 489.41 251.555 489.339 249.609C489.32 249.162 489.481 248.726 489.786 248.397C490.092 248.069 490.511 247.875 490.959 247.857C491.407 247.84 491.845 248.002 492.172 248.306C492.499 248.61 492.694 249.032 492.712 249.48C492.789 251.414 492.876 253.355 492.959 255.284C493.836 275.58 494.648 294.745 485.829 305.498C478.955 313.861 466.522 315.908 454.11 316.88C449.826 317.217 445.462 316.88 441.242 316.516C434.248 315.951 427.639 315.389 421.562 317.803C413.789 320.868 408.514 328.143 403.35 335.962C386.031 362.214 378.861 373.079 366.032 397.593C365.887 397.868 365.671 398.097 365.406 398.257C365.14 398.418 364.835 398.501 364.523 398.498Z" fill="#FFF5D7"/>
<path d="M359.773 455.922C359.455 455.922 359.14 455.833 358.871 455.663C358.603 455.49 358.387 455.249 358.248 454.959C358.112 454.672 358.059 454.351 358.097 454.036C358.134 453.718 358.26 453.419 358.461 453.172C370.425 438.449 381.756 425.682 393.744 412.163C405.65 398.739 417.965 384.861 432.238 367.591C432.442 367.347 432.704 367.168 433.004 367.07C433.3 366.968 433.621 366.955 433.927 367.026C434.235 367.104 434.513 367.267 434.735 367.496C434.955 367.724 435.106 368.011 435.171 368.32L442.48 403.622C442.572 404.06 442.486 404.517 442.239 404.89C441.992 405.264 441.609 405.526 441.171 405.619C440.733 405.708 440.276 405.622 439.899 405.375C439.526 405.131 439.264 404.745 439.174 404.307L432.599 372.443C419.231 388.516 407.57 401.687 396.269 414.401C384.302 427.899 372.999 440.637 361.081 455.299C360.924 455.493 360.723 455.651 360.498 455.759C360.273 455.867 360.023 455.922 359.773 455.922Z" fill="#FFF5D7"/>
<path d="M433.538 370.351C433.137 370.357 432.748 370.221 432.439 369.965C432.13 369.709 431.92 369.351 431.852 368.955L430.09 358.958C430.044 358.736 430.041 358.504 430.084 358.282C430.127 358.056 430.217 357.843 430.343 357.655C430.473 357.467 430.636 357.306 430.828 357.183C431.019 357.059 431.235 356.976 431.46 356.939C431.683 356.902 431.914 356.908 432.136 356.961C432.356 357.016 432.565 357.112 432.748 357.248C432.93 357.387 433.084 357.556 433.198 357.754C433.312 357.952 433.387 358.171 433.414 358.396L435.174 368.394C435.251 368.835 435.152 369.286 434.896 369.653C434.64 370.017 434.248 370.267 433.809 370.344C433.72 370.354 433.627 370.357 433.538 370.351Z" fill="#FFF5D7"/>
<path d="M637.866 313.068C626.794 313.068 615.651 311.945 604.743 310.858C590.492 309.429 575.759 307.951 561.576 309.025C557.007 309.374 552.362 310.148 547.868 310.92C541.784 311.948 535.497 313.013 529.166 313.04H529.104C520.668 313.04 507.445 305.167 504.466 290.27C504.423 290.052 504.42 289.828 504.463 289.611C504.506 289.393 504.593 289.186 504.716 289.001C504.84 288.817 504.997 288.658 505.182 288.535C505.364 288.411 505.571 288.325 505.79 288.281C506.007 288.238 506.232 288.238 506.448 288.28C506.667 288.323 506.874 288.409 507.059 288.532C507.241 288.655 507.402 288.813 507.525 288.997C507.649 289.181 507.735 289.388 507.778 289.606C510.365 302.541 522.011 309.667 529.104 309.667H529.147C535.203 309.667 541.358 308.597 547.306 307.591C551.874 306.82 556.597 306.022 561.323 305.662C575.796 304.565 590.683 306.061 605.079 307.501C622.463 309.244 640.443 311.05 657.549 308.215C657.991 308.14 658.445 308.244 658.809 308.504C659.173 308.762 659.42 309.157 659.494 309.599C659.568 310.04 659.466 310.494 659.207 310.858C658.948 311.222 658.553 311.469 658.111 311.543C651.416 312.605 644.644 313.115 637.866 313.068Z" fill="#FFF5D7"/>
<path d="M507.266 316.112C506.831 316.112 506.414 315.942 506.099 315.642C505.784 315.343 505.599 314.933 505.581 314.497C505.479 312.105 503.084 255.886 503.099 248.345C503.099 247.897 503.278 247.468 503.593 247.152C503.911 246.835 504.34 246.657 504.787 246.657C505.235 246.657 505.664 246.835 505.979 247.152C506.297 247.468 506.473 247.897 506.473 248.345C506.473 255.813 508.927 313.76 508.954 314.346C508.964 314.565 508.93 314.787 508.853 314.997C508.778 315.204 508.661 315.396 508.513 315.559C508.362 315.723 508.18 315.855 507.979 315.948C507.778 316.044 507.562 316.096 507.34 316.105L507.266 316.112Z" fill="#FFF5D7"/>
<path d="M549.383 363.782C549.217 363.782 549.05 363.757 548.893 363.711C548.464 363.581 548.106 363.285 547.896 362.89C547.683 362.498 547.639 362.035 547.769 361.606C549.927 354.488 555.248 349.031 564.027 344.932C564.227 344.839 564.443 344.784 564.666 344.774C564.888 344.765 565.11 344.799 565.317 344.876C565.527 344.95 565.718 345.068 565.882 345.216C566.045 345.367 566.175 345.546 566.271 345.747C566.363 345.947 566.416 346.167 566.428 346.389C566.437 346.608 566.403 346.83 566.326 347.037C566.252 347.247 566.135 347.438 565.987 347.602C565.835 347.765 565.656 347.898 565.456 347.991C557.582 351.658 552.862 356.427 550.995 362.612C550.887 362.955 550.671 363.251 550.38 363.461C550.09 363.671 549.742 363.785 549.383 363.782Z" fill="#FFF5D7"/>
<path d="M549.421 400.591H549.208C548.988 400.563 548.775 400.492 548.581 400.381C548.39 400.273 548.22 400.125 548.084 399.949C547.948 399.773 547.849 399.572 547.791 399.359C547.732 399.146 547.717 398.921 547.744 398.702C548.618 391.951 550.979 380.373 553.757 369.255C554.242 367.32 554.844 364.915 556.495 363.069C558.15 361.223 560.434 360.387 562.684 359.695C581.633 353.627 601.727 351.466 621.17 349.374C627.745 348.667 634.542 347.935 641.178 347.065C664.535 344 691.151 338.925 711.477 324.569C711.847 324.307 712.162 323.973 712.397 323.588C712.634 323.199 712.789 322.77 712.853 322.319C712.915 321.878 712.887 321.424 712.77 320.992C712.65 320.563 712.443 320.158 712.162 319.813L646.972 238.824C638.446 228.251 629.628 217.296 619.503 208.006C602.348 192.259 582.331 180.708 563.138 175.416C551.689 172.042 520.958 172.812 510.708 173.166C513.902 176.276 518.609 177.919 524.999 178.166C527.027 178.25 529.126 178.222 531.157 178.205C536.311 178.149 541.648 178.087 546.763 179.634C552.538 181.383 557.378 184.971 562.057 188.435C565.382 190.904 568.808 193.451 572.496 195.234C576.793 197.314 581.494 198.422 586.269 198.479C586.686 198.479 587.106 198.479 587.528 198.479C589.575 198.479 591.689 198.451 593.764 199.221C596.677 200.306 598.742 202.702 600.452 204.845C612.364 219.911 620.488 237.918 628.34 255.329C639.023 279.022 649.148 301.405 668.01 317.507C668.35 317.797 668.563 318.211 668.597 318.655C668.634 319.103 668.492 319.544 668.202 319.884C667.911 320.226 667.498 320.436 667.05 320.473C666.606 320.507 666.161 320.365 665.822 320.075C646.363 303.485 635.64 279.708 625.263 256.713C617.497 239.493 609.459 221.677 597.804 206.937C596.319 205.053 594.686 203.152 592.584 202.371C591.094 201.808 589.371 201.808 587.522 201.836C587.084 201.836 586.646 201.836 586.207 201.836C580.935 201.773 575.741 200.55 570.993 198.254C567.058 196.331 563.471 193.687 560.023 191.129C555.365 187.681 550.973 184.425 545.76 182.85C541.139 181.456 536.296 181.506 531.138 181.563C529.07 181.563 526.928 181.608 524.817 181.523C515.736 181.169 509.516 178.222 505.803 172.525C505.642 172.276 505.55 171.989 505.534 171.693C505.519 171.397 505.581 171.102 505.716 170.838C505.852 170.574 506.056 170.35 506.303 170.189C506.553 170.028 506.84 169.936 507.136 169.922C508.868 169.837 549.735 167.953 564.008 172.171C583.692 177.592 604.184 189.436 621.713 205.503C632.051 214.979 640.949 226.024 649.546 236.709L714.77 317.667C715.344 318.374 715.764 319.189 716.008 320.066C716.249 320.942 716.307 321.859 716.178 322.757C716.048 323.662 715.733 324.532 715.258 325.31C714.783 326.091 714.153 326.767 713.409 327.298C692.463 342.098 665.343 347.284 641.582 350.398C634.909 351.275 628.087 352.007 621.494 352.723C602.233 354.791 582.315 356.933 563.69 362.899C561.838 363.492 560.094 364.122 559.005 365.329C557.912 366.539 557.446 368.418 557.029 370.07C554.282 381.071 551.97 392.476 551.09 399.128C551.038 399.532 550.837 399.905 550.532 400.174C550.223 400.443 549.831 400.591 549.421 400.591Z" fill="#FFF5D7"/>
<path d="M497.892 542.124C498.25 537.623 496.271 511.877 499.768 509.383C503.537 506.689 511.016 519.082 520.264 528.873C524.369 533.222 541.577 563.931 544.951 568.431C537.043 544.436 527.456 514.751 532.518 500.13C533.641 498.444 538.799 503.445 539.361 504.568C555.359 517.637 577.691 541.63 577.691 541.63C565.786 521.946 551.526 502.059 538.451 489.721C536.972 488.326 535.407 486.909 534.66 485.002C533.867 482.989 534.098 480.736 534.382 478.588C538.13 448.443 542.954 428.587 549.421 398.902C549.797 397.183 533.675 366.628 532.191 365.921C530.468 365.094 458.169 373.697 456.771 375.166C455.04 376.987 440.535 402.48 440.844 403.964C442.39 412.579 465.346 478.458 463.642 485.385C463.099 487.184 462.287 488.891 461.234 490.447C453.16 503.747 421.503 548.371 413.53 592.674C410.314 610.549 414.518 632.041 429.917 641.669C441.776 649.086 465.716 647.592 477.77 647.592C493.185 647.592 501.951 647.28 501.951 647.28C498.065 617.049 492.768 606.61 497.892 542.124Z" fill="#FFF5D7"/>
<path d="M464.982 649.413C452.728 649.413 437.841 648.626 429.022 643.113C412.715 632.912 408.647 610.29 411.869 592.387C418.867 553.489 443.668 514.813 455.583 496.222C457.271 493.567 458.756 491.28 459.79 489.57C460.639 488.169 461.608 486.582 462 484.968C462.991 480.958 452.925 449.095 446.906 430.059C442.918 417.416 439.748 407.425 439.186 404.273C439.038 403.576 438.847 402.656 446.57 388.877C449.128 384.309 454.302 375.323 455.567 374.011C456.086 373.45 456.462 373.073 468.683 371.329C475.347 370.375 484.428 369.199 494.175 368.017C503.556 366.894 512.862 365.835 519.724 365.137C531.891 363.906 532.376 364.137 532.938 364.409C533.499 364.677 533.941 364.884 537.043 370.301C538.731 373.249 540.852 377.138 543.009 381.262C551.492 397.415 551.226 398.621 551.087 399.257C550.208 403.279 549.365 407.131 548.55 410.832C543.383 434.282 539.305 452.808 536.071 478.788C535.796 481.039 535.639 482.826 536.247 484.378C536.808 485.848 538.102 487.051 539.444 488.314L539.626 488.484C551.575 499.731 565.613 518.322 579.148 540.744C579.361 541.102 579.432 541.525 579.352 541.932C579.272 542.337 579.043 542.701 578.713 542.951C578.383 543.201 577.969 543.318 577.555 543.284C577.142 543.25 576.756 543.065 576.472 542.766C576.247 542.528 554.032 518.711 538.308 505.861C538.126 505.707 537.975 505.516 537.87 505.3C536.734 503.874 535.361 502.651 533.811 501.688C529.62 516.446 539.389 546.115 546.571 567.879C546.754 568.274 546.778 568.721 546.639 569.135C546.5 569.546 546.207 569.885 545.824 570.089C545.439 570.289 544.991 570.336 544.574 570.215C544.158 570.095 543.803 569.817 543.584 569.444C542.161 567.555 538.562 561.486 534.388 554.461C528.573 544.67 521.338 532.484 519.02 530.033C516.1 526.943 513.328 523.564 510.883 520.585C508.133 517.211 505.753 514.337 503.741 512.485C501.867 510.76 500.969 510.584 500.731 510.754C498.916 512.593 499.321 528.104 499.5 534.728C499.589 538.21 499.663 540.954 499.555 542.259C495.441 594.075 498.009 610.453 501.244 631.18C502.019 636.113 502.818 641.209 503.571 647.08C503.602 647.311 503.583 647.549 503.516 647.774C503.448 647.999 503.337 648.206 503.185 648.385C503.031 648.564 502.846 648.709 502.633 648.811C502.423 648.916 502.191 648.972 501.957 648.981C501.867 648.981 492.999 649.29 477.73 649.29C476.155 649.29 474.356 649.29 472.427 649.339C470.155 649.373 467.63 649.413 464.982 649.413ZM442.554 403.924C443.239 407.301 446.44 417.422 450.122 429.053C459.685 459.386 466.432 481.211 465.309 485.789C464.728 487.761 463.852 489.632 462.704 491.336C461.645 493.073 460.166 495.385 458.453 498.049C446.644 516.458 422.102 554.748 415.215 592.989C412.196 609.765 415.857 630.884 430.84 640.23C440.72 646.416 459.815 646.129 472.454 645.944C474.39 645.944 476.211 645.891 477.81 645.891C488.996 645.891 496.722 645.731 500.062 645.638C499.389 640.579 498.679 636.079 497.994 631.68C494.833 611.558 492.098 594.186 496.25 541.966C496.339 540.84 496.25 538.028 496.182 534.796C495.743 518.224 496.03 509.982 498.824 507.988C502.707 505.213 507.26 510.754 513.541 518.418C515.955 521.36 518.687 524.69 521.529 527.693C524.104 530.419 531.138 542.263 537.349 552.717C537.91 553.686 538.472 554.646 539.034 555.591C532.601 535.179 526.588 512.149 530.947 499.558C530.993 499.42 531.058 499.293 531.138 499.176C531.388 498.805 531.731 498.506 532.135 498.315C532.536 498.123 532.984 498.043 533.428 498.083C535.913 498.241 539.574 501.886 540.648 503.398C549.226 510.433 559.634 520.594 567.434 528.502C556.924 512.637 546.482 499.574 537.315 490.925L537.139 490.755C535.654 489.357 533.969 487.771 533.114 485.597C532.141 483.125 532.465 480.483 532.731 478.356C535.981 452.215 540.074 433.624 545.26 410.088C546.059 406.462 546.88 402.711 547.735 398.785C546.88 395.522 534.126 371.116 531.425 367.517H531.363C524.11 367.517 463.086 374.981 457.833 376.515C455.614 379.45 443.532 400.727 442.554 403.924ZM442.508 403.622C442.508 403.643 442.508 403.668 442.508 403.69C442.501 403.668 442.498 403.643 442.498 403.622H442.508Z" fill="#FFF5D7"/>
<path d="M457.682 376.975C457.253 376.978 456.839 376.814 456.524 376.521C456.212 376.228 456.021 375.823 455.993 375.394C455.012 360.279 450.882 311.173 450.845 310.676C450.823 310.457 450.851 310.232 450.916 310.022C450.984 309.809 451.092 309.611 451.237 309.441C451.379 309.272 451.555 309.133 451.752 309.031C451.95 308.929 452.166 308.867 452.388 308.846C452.607 308.827 452.832 308.852 453.042 308.92C453.255 308.988 453.453 309.096 453.623 309.241C453.792 309.383 453.931 309.559 454.033 309.756C454.135 309.954 454.2 310.17 454.218 310.392C454.262 310.886 458.395 360.032 459.379 375.175C459.395 375.397 459.364 375.62 459.293 375.829C459.222 376.039 459.111 376.234 458.966 376.4C458.818 376.567 458.642 376.703 458.441 376.802C458.243 376.897 458.027 376.956 457.805 376.971L457.682 376.975Z" fill="#FFF5D7"/>
<path d="M532.191 367.607C531.743 367.607 531.314 367.428 530.996 367.113C530.681 366.795 530.502 366.366 530.502 365.918C530.549 361.983 538.376 308.716 538.713 306.449C538.781 306.006 539.018 305.607 539.376 305.34C539.738 305.073 540.188 304.96 540.633 305.026C541.074 305.091 541.472 305.33 541.741 305.69C542.006 306.05 542.121 306.5 542.056 306.943C539.806 322.319 533.91 362.906 533.876 365.958C533.867 366.4 533.685 366.82 533.37 367.128C533.055 367.434 532.632 367.607 532.191 367.607Z" fill="#FFF5D7"/>
<path d="M469.099 404.177C466.593 404.184 464.111 403.705 461.787 402.767C461.58 402.683 461.395 402.56 461.238 402.406C461.08 402.248 460.954 402.063 460.867 401.859C460.781 401.656 460.737 401.436 460.734 401.214C460.734 400.992 460.775 400.773 460.858 400.569C460.941 400.362 461.065 400.174 461.222 400.017C461.376 399.859 461.562 399.736 461.765 399.649C461.969 399.563 462.188 399.517 462.41 399.517C462.633 399.513 462.852 399.557 463.059 399.64C465.309 400.526 467.726 400.902 470.139 400.748C472.55 400.591 474.899 399.902 477.017 398.736C477.208 398.625 477.421 398.55 477.643 398.523C477.862 398.495 478.088 398.51 478.304 398.569C478.517 398.628 478.72 398.726 478.896 398.862C479.072 398.998 479.22 399.168 479.332 399.362C479.44 399.554 479.514 399.767 479.541 399.989C479.569 400.208 479.554 400.433 479.495 400.649C479.436 400.862 479.338 401.063 479.202 401.242C479.066 401.418 478.896 401.566 478.702 401.674C475.77 403.322 472.461 404.184 469.099 404.177Z" fill="white"/>
<path d="M524.502 398.902C523.026 398.905 521.56 398.686 520.15 398.251C519.94 398.183 519.742 398.078 519.572 397.936C519.403 397.794 519.261 397.618 519.159 397.424C518.949 397.026 518.909 396.563 519.041 396.137C519.174 395.708 519.474 395.353 519.869 395.143C520.267 394.936 520.73 394.896 521.156 395.029C522.9 395.559 524.746 395.674 526.542 395.362C528.338 395.05 530.039 394.325 531.505 393.241C531.863 392.985 532.305 392.877 532.74 392.945C533.175 393.013 533.567 393.248 533.833 393.596C534.095 393.948 534.212 394.39 534.157 394.825C534.101 395.263 533.879 395.661 533.533 395.933C530.922 397.868 527.755 398.908 524.502 398.902Z" fill="white"/>
<path d="M643.045 844.994C642.771 844.997 642.496 844.929 642.252 844.799C642.008 844.669 641.801 844.481 641.644 844.253C633.399 832.076 633.557 825.727 633.705 820.133C633.903 812.457 634.069 805.827 611.08 783.908C605.163 778.288 596.014 770.361 585.414 761.2C564.042 742.711 537.41 719.7 527.039 705.998C510.893 684.663 500.642 656.509 497.386 624.538C495.243 603.505 496.12 582.056 496.969 561.316C497.586 546.133 498.228 530.465 497.679 515.094C497.632 513.807 497.524 510.782 499.836 509.352C502.025 508.004 504.722 508.936 507.25 511.911C541.898 552.689 569.774 604.592 592.51 670.581C621.192 753.687 635.458 778.411 650.58 804.583C654.815 811.892 659.198 819.498 663.954 828.477C664.164 828.875 664.207 829.338 664.075 829.764C663.945 830.193 663.649 830.551 663.251 830.761C662.856 830.971 662.393 831.014 661.964 830.881C661.538 830.752 661.18 830.455 660.97 830.057C656.244 821.134 651.879 813.581 647.663 806.271C632.48 779.957 618.093 755.094 589.322 671.683C566.697 606.092 539.006 554.544 504.658 514.094C503.442 512.664 502.154 511.877 501.586 512.226C501.019 512.575 501.025 514.393 501.025 514.976C501.586 530.475 500.932 546.223 500.309 561.458C499.466 582.08 498.595 603.4 500.713 624.201C503.908 655.537 513.93 683.116 529.7 703.957C539.855 717.381 566.326 740.26 587.59 758.647C598.224 767.836 607.407 775.772 613.379 781.47C637.455 804.419 637.258 812.09 637.051 820.217C636.909 825.56 636.77 831.082 644.413 842.357C644.586 842.611 644.684 842.907 644.703 843.212C644.721 843.521 644.653 843.824 644.508 844.095C644.366 844.367 644.15 844.595 643.888 844.753C643.626 844.91 643.323 844.997 643.018 844.994H643.045Z" fill="#FFF5D7"/>
<path d="M682.002 815.997C681.567 815.997 681.15 815.831 680.838 815.531C677.628 812.352 673.887 809.759 669.782 807.873C662.649 804.379 659.096 801.688 649.984 775.155C644.515 759.243 637.721 720.604 637.224 702.609C636.495 675.98 633.98 641.307 620.864 609.524C603.431 567.209 569.509 534.182 536.274 504.028C536.003 503.753 535.679 503.531 535.324 503.38C534.895 503.25 534.333 503.145 534.052 503.38C533.49 503.843 533.237 505.473 533.444 507.176C535.648 525.212 540.435 547.365 546.575 567.947C546.639 568.16 546.661 568.382 546.639 568.601C546.615 568.823 546.55 569.036 546.445 569.231C546.34 569.428 546.198 569.598 546.025 569.74C545.852 569.879 545.655 569.984 545.442 570.049C545.232 570.11 545.007 570.132 544.787 570.11C544.568 570.086 544.352 570.021 544.158 569.916C543.963 569.811 543.79 569.669 543.652 569.496C543.51 569.323 543.405 569.126 543.343 568.913C537.139 548.158 532.336 525.801 530.086 507.581C529.947 506.457 529.672 502.633 531.876 500.787C532.675 500.123 534.092 499.472 536.311 500.157C537.142 500.447 537.898 500.914 538.528 501.525C572.064 531.965 606.283 565.277 624.01 608.225C637.332 640.548 639.885 675.585 640.622 702.501C641.107 720.261 647.802 758.379 653.197 774.056C662.263 800.416 665.467 801.99 671.288 804.848C675.696 806.895 679.715 809.694 683.166 813.121C683.41 813.352 683.576 813.652 683.65 813.982C683.721 814.312 683.691 814.655 683.567 814.966C683.441 815.281 683.224 815.547 682.947 815.738C682.669 815.926 682.339 816.028 682.002 816.028V815.997Z" fill="#FFF5D7"/>
<path d="M662.488 829.267C671.727 843.324 677.459 858.053 676.227 868.07C659.719 863.779 643.045 843.287 643.045 843.287C651.981 832.613 662.244 828.866 662.488 829.267Z" fill="#FF5E6C"/>
<path d="M676.227 869.779C676.085 869.779 675.943 869.761 675.804 869.727C658.932 865.341 642.428 845.225 641.737 844.37C641.487 844.068 641.348 843.688 641.348 843.296C641.348 842.904 641.487 842.524 641.737 842.222C650.339 831.931 660.355 827.551 662.414 827.551H662.488C662.766 827.56 663.035 827.637 663.278 827.773C663.519 827.909 663.726 828.1 663.88 828.332C674.005 843.719 679.116 858.285 677.891 868.295C677.838 868.705 677.641 869.082 677.329 869.353C677.017 869.628 676.616 869.776 676.202 869.773L676.227 869.779ZM645.262 843.314C648.743 847.33 661.689 861.473 674.696 865.875C674.921 857.007 670.196 844.299 661.704 831.162C659.266 832.067 652.123 835.548 645.262 843.314Z" fill="#FF5E6C"/>
<path d="M309.333 382.342C308.963 382.342 308.604 382.219 308.31 381.994C308.017 381.771 307.805 381.456 307.708 381.098L283.795 294.155C278.172 278.128 275.084 270.502 266.654 272.301C266.015 272.436 265.401 272.674 264.837 273.005C266.549 275.937 267.42 279.283 267.357 282.677C267.357 286.923 265.906 291.293 262.746 291.495C260.012 291.67 257.954 289.145 257.369 284.904C256.852 281.164 257.611 276.109 260.254 272.661C258.721 271.27 256.75 270.457 254.681 270.361C251.459 270.125 248.321 272.442 246.144 275.04C246.988 277.543 247.14 280.147 246.493 282.059C245.846 283.971 244.333 285.051 242.495 284.82C241.021 284.634 239.402 283.448 239.683 280.698C239.851 279.011 240.807 276.761 242.298 274.568C241.381 272.757 239.975 271.222 238.181 270.631C234.7 269.506 230.162 271.902 225.078 277.599C218.982 284.426 206.632 297.406 197.105 307.275C191.813 312.76 186.937 317.757 183.372 321.334C181.505 323.214 180.037 324.674 178.997 325.677C177.096 327.517 176.59 328.011 175.488 327.588C175.166 327.468 174.889 327.248 174.694 326.968C174.499 326.684 174.395 326.347 174.397 326.001C174.397 325.687 174.484 325.381 174.65 325.112C174.816 324.844 175.054 324.628 175.336 324.489C178.39 321.915 211.215 288.042 222.575 275.338C231.253 265.621 237.371 266.082 240.97 268.179C242.439 269.072 243.679 270.294 244.592 271.75C247.365 268.877 251.048 266.689 254.951 266.97C257.864 267.132 260.624 268.329 262.734 270.344C263.721 269.698 264.819 269.242 265.974 269.001C277.688 266.509 281.602 277.655 287.018 293.093C287.034 293.126 287.045 293.162 287.051 293.199L310.985 380.175C311.046 380.388 311.062 380.614 311.034 380.833C311.006 381.052 310.935 381.265 310.827 381.46C310.716 381.651 310.568 381.821 310.395 381.956C310.219 382.092 310.019 382.194 309.806 382.253C309.651 382.302 309.494 382.333 309.333 382.342ZM262.397 275.524C260.8 278.15 260.367 281.794 260.71 284.443C261.03 286.771 261.897 288.166 262.521 288.132C263.207 287.863 264.444 284.55 263.797 280.118C263.58 278.522 263.107 276.97 262.397 275.524ZM243.524 279.297C243.199 279.977 243.034 280.721 243.04 281.474C243.169 281.389 243.529 280.703 243.507 279.297H243.524Z" fill="#FFF5D7"/>
<path d="M450.129 142.905C448.588 142.864 447.085 142.437 445.752 141.663C444.418 140.89 443.301 139.795 442.501 138.479C440.865 135.841 440.359 132.383 441.091 128.733C442.143 123.447 445.551 119.094 449.983 117.379C451.996 116.598 454.191 116.403 456.311 116.816C458.432 117.229 460.392 118.233 461.966 119.713C463.312 117.803 465.173 116.317 467.337 115.43C469.497 114.542 471.865 114.291 474.164 114.704C476.464 115.118 478.597 116.179 480.313 117.764C482.029 119.348 483.258 121.39 483.853 123.649C483.974 124.081 483.915 124.543 483.696 124.932C483.474 125.322 483.106 125.608 482.674 125.727C482.245 125.846 481.782 125.789 481.393 125.568C481.004 125.348 480.717 124.981 480.597 124.549C480.128 122.738 479.1 121.12 477.659 119.927C476.217 118.733 474.436 118.023 472.569 117.899C470.701 117.774 468.843 118.241 467.253 119.233C465.667 120.225 464.432 121.691 463.725 123.424C463.605 123.723 463.401 123.98 463.139 124.165C462.873 124.351 462.565 124.458 462.241 124.472C461.92 124.487 461.602 124.41 461.321 124.249C461.043 124.088 460.815 123.851 460.666 123.565C459.092 120.528 454.755 119.128 451.203 120.506C447.829 121.81 445.23 125.212 444.397 129.38C443.835 132.192 444.184 134.773 445.372 136.691C446.641 138.738 449.033 139.885 451.051 139.424C451.487 139.324 451.944 139.401 452.323 139.639C452.703 139.877 452.971 140.256 453.073 140.692C453.172 141.128 453.095 141.586 452.857 141.965C452.619 142.345 452.24 142.614 451.805 142.714C451.255 142.839 450.693 142.903 450.129 142.905Z" fill="#FE9A00"/>
<path d="M542.003 111.406C541.685 111.405 541.373 111.313 541.105 111.142C540.725 110.902 540.46 110.521 540.364 110.085C540.265 109.648 540.346 109.191 540.586 108.814C542.275 106.204 542.414 102.78 541.003 100.485C539.589 98.1902 536.96 97.2849 533.265 97.6729C533.043 97.6948 532.82 97.6726 532.607 97.6081C532.394 97.5433 532.194 97.4374 532.024 97.296C531.675 97.0108 531.456 96.5994 531.41 96.1518C531.367 95.7042 531.502 95.2576 531.789 94.9103C532.073 94.5628 532.484 94.3427 532.931 94.2989C539.682 93.6294 542.685 96.7846 543.877 98.7245C545.973 102.133 545.794 106.918 543.432 110.63C543.278 110.869 543.068 111.066 542.818 111.201C542.568 111.337 542.287 111.408 542.003 111.406Z" fill="#FE9A00"/>
<path d="M401.112 190.364C398.177 190.387 395.279 189.686 392.676 188.323C386.941 185.252 383.562 178.858 384.454 172.773C385.41 166.277 391.519 161.115 397.8 161.525C398.248 161.554 398.665 161.758 398.961 162.095C399.257 162.431 399.409 162.872 399.381 163.319C399.353 163.767 399.146 164.185 398.81 164.481C398.473 164.777 398.035 164.928 397.587 164.899C393.087 164.63 388.494 168.538 387.796 173.29C387.114 177.913 389.837 182.997 394.269 185.37C398.498 187.619 404.042 187.558 408.743 185.173C409.135 185.008 409.573 184.996 409.971 185.139C410.369 185.282 410.7 185.57 410.897 185.945C411.092 186.321 411.141 186.757 411.03 187.166C410.919 187.575 410.659 187.927 410.301 188.154C407.455 189.605 404.307 190.363 401.112 190.364Z" fill="#FE9A00"/>
<path d="M419.574 113.566C419.299 113.566 419.027 113.499 418.783 113.369C418.54 113.24 418.33 113.052 418.175 112.824C411.65 103.173 402.582 101.323 402.489 101.306C402.051 101.223 401.662 100.969 401.409 100.599C401.155 100.23 401.06 99.7749 401.143 99.3348C401.226 98.8949 401.48 98.5057 401.85 98.2532C402.22 98.0007 402.674 97.905 403.116 97.9881C403.541 98.0723 413.626 100.069 420.969 110.922C421.142 111.176 421.24 111.472 421.256 111.777C421.274 112.083 421.206 112.387 421.061 112.657C420.919 112.928 420.706 113.154 420.444 113.312C420.182 113.47 419.882 113.554 419.574 113.554V113.566Z" fill="#FE9A00"/>
<path d="M508.155 92.1056C507.874 92.1053 507.599 92.0355 507.355 91.9028C507.108 91.7697 506.899 91.5778 506.747 91.3444C506.593 91.1107 506.5 90.8425 506.476 90.5641C506.451 90.286 506.497 90.0057 506.608 89.7492C509.59 82.8379 516.73 76.1398 517.014 75.8586C517.171 75.6947 517.362 75.5647 517.572 75.4765C517.785 75.3885 518.011 75.3444 518.239 75.3465C518.467 75.3487 518.693 75.3971 518.903 75.4894C519.113 75.5814 519.301 75.7151 519.455 75.882C519.613 76.049 519.733 76.246 519.81 76.4611C519.887 76.6762 519.921 76.9047 519.906 77.1328C519.893 77.3609 519.835 77.584 519.733 77.7884C519.631 77.9927 519.486 78.1742 519.313 78.3218C519.245 78.3838 512.405 84.8284 509.707 91.082C509.578 91.3861 509.362 91.645 509.084 91.8268C508.809 92.009 508.485 92.1059 508.155 92.1056Z" fill="#FE9A00"/>
<path d="M394.504 794.196C394.127 794.196 393.76 794.07 393.464 793.835C393.167 793.601 392.957 793.276 392.868 792.909C392.812 792.69 392.738 792.409 392.643 792.06C392.028 789.73 390.596 784.276 388.864 773.124C388.793 772.682 388.905 772.232 389.17 771.87C389.432 771.509 389.831 771.265 390.272 771.198C390.713 771.13 391.167 771.238 391.528 771.503C391.889 771.769 392.13 772.164 392.198 772.605C393.886 783.584 395.309 788.915 395.911 791.199C396.007 791.576 396.084 791.872 396.14 792.11C396.192 792.326 396.205 792.548 396.171 792.767C396.137 792.986 396.06 793.196 395.945 793.388C395.831 793.576 395.68 793.743 395.501 793.872C395.322 794.005 395.118 794.098 394.902 794.15C394.772 794.181 394.64 794.193 394.504 794.196Z" fill="white"/>
<path d="M695.33 588.39C678.261 588.39 657.824 587.078 653.37 583.328C641.737 573.509 641.971 543.26 647.005 531.965C650.216 524.767 668.578 521.721 679.233 520.551C702.482 517.986 738.908 519.356 747.112 530.41C754.036 539.738 753.832 572.243 742.238 582.355C735.926 587.856 703.89 588.343 697.528 588.39H695.33ZM700.485 522.77C693.503 522.77 686.524 523.144 679.582 523.897C663.414 525.678 651.824 529.379 650.064 533.333C645.098 544.485 645.941 572.654 655.525 580.741C658.574 583.312 676.61 585.155 697.485 585.01C719.169 584.865 736.648 582.726 739.997 579.809C750.054 571.03 750.387 540.503 744.387 532.416C741.371 528.36 732.469 525.292 719.311 523.78C713.06 523.085 706.776 522.752 700.485 522.77Z" fill="#FFF5D7"/>
<path d="M663.729 827.563C663.729 827.563 672.273 816.803 680.977 813.065C680.977 813.065 697.849 826.674 702.612 850.917C702.612 850.917 680.116 845.216 663.729 827.563Z" fill="#FF5E6C"/>
<path d="M702.612 852.605C702.473 852.605 702.331 852.587 702.195 852.553C701.257 852.312 679.033 846.525 662.491 828.708C662.217 828.412 662.059 828.029 662.044 827.625C662.028 827.221 662.158 826.825 662.408 826.511C662.769 826.054 671.316 815.374 680.307 811.513C680.591 811.389 680.9 811.349 681.206 811.389C681.508 811.432 681.795 811.556 682.036 811.747C682.743 812.309 699.469 826.026 704.266 850.59C704.312 850.837 704.306 851.087 704.248 851.327C704.186 851.571 704.072 851.797 703.914 851.988C703.757 852.179 703.556 852.337 703.331 852.442C703.106 852.55 702.862 852.605 702.612 852.605ZM665.991 827.489C678.412 840.29 694.154 846.423 700.352 848.472C697.139 835.669 690.305 824.066 680.669 815.05C674.421 818.13 668.279 824.828 665.991 827.489Z" fill="#FF5E6C"/>
<path d="M659.719 846.058C661.821 846.058 663.528 844.355 663.528 842.249C663.528 840.147 661.821 838.444 659.719 838.444C657.617 838.444 655.914 840.147 655.914 842.249C655.914 844.355 657.617 846.058 659.719 846.058Z" fill="#FFF5D7"/>
<path d="M659.719 847.741C658.633 847.741 657.571 847.42 656.667 846.815C655.762 846.213 655.056 845.355 654.639 844.352C654.222 843.345 654.114 842.24 654.324 841.175C654.537 840.107 655.062 839.129 655.83 838.36C656.599 837.592 657.577 837.067 658.645 836.857C659.71 836.644 660.815 836.752 661.818 837.169C662.825 837.586 663.683 838.292 664.285 839.197C664.89 840.101 665.211 841.163 665.208 842.25C665.204 843.706 664.627 845.099 663.596 846.13C662.568 847.157 661.173 847.738 659.719 847.741ZM659.719 840.132C659.3 840.129 658.889 840.252 658.54 840.484C658.192 840.719 657.92 841.049 657.756 841.435C657.596 841.824 657.553 842.25 657.633 842.66C657.716 843.074 657.917 843.45 658.213 843.747C658.509 844.046 658.886 844.247 659.3 844.33C659.71 844.413 660.136 844.37 660.525 844.21C660.911 844.049 661.244 843.777 661.476 843.429C661.71 843.08 661.834 842.669 661.834 842.25C661.837 841.972 661.784 841.694 661.679 841.435C661.575 841.175 661.417 840.941 661.223 840.743C661.025 840.543 660.791 840.385 660.534 840.277C660.275 840.169 660 840.114 659.719 840.114V840.132Z" fill="#FFF5D7"/>
<path d="M680.196 830.958C682.298 830.958 684.002 829.255 684.002 827.15C684.002 825.047 682.298 823.344 680.196 823.344C678.094 823.344 676.387 825.047 676.387 827.15C676.387 829.255 678.094 830.958 680.196 830.958Z" fill="#FFF5D7"/>
<path d="M680.196 832.641C679.11 832.641 678.048 832.316 677.144 831.715C676.239 831.11 675.536 830.252 675.119 829.245C674.702 828.242 674.594 827.137 674.807 826.072C675.02 825.004 675.545 824.026 676.313 823.257C677.082 822.488 678.06 821.967 679.128 821.757C680.193 821.544 681.298 821.655 682.302 822.072C683.308 822.489 684.163 823.192 684.768 824.097C685.37 825.001 685.691 826.063 685.691 827.149C685.688 828.606 685.11 830.005 684.079 831.032C683.049 832.06 681.653 832.641 680.196 832.641ZM680.196 825.032C679.777 825.032 679.366 825.155 679.017 825.387C678.669 825.622 678.397 825.952 678.236 826.341C678.076 826.726 678.036 827.153 678.116 827.566C678.199 827.977 678.4 828.353 678.696 828.65C678.993 828.946 679.372 829.15 679.783 829.23C680.193 829.313 680.619 829.27 681.008 829.109C681.394 828.949 681.727 828.677 681.959 828.329C682.19 827.98 682.317 827.569 682.317 827.149C682.317 826.588 682.092 826.051 681.697 825.652C681.298 825.254 680.758 825.032 680.196 825.032Z" fill="#FFF5D7"/>
<path d="M661.639 860.921C661.352 860.921 661.071 860.85 660.821 860.714C660.627 860.606 660.457 860.461 660.318 860.288C660.182 860.115 660.078 859.914 660.019 859.701C659.957 859.489 659.939 859.266 659.963 859.047C659.988 858.825 660.056 858.612 660.164 858.421C660.942 857.013 662.3 856.241 663.297 855.68L672.088 850.71C672.279 850.599 672.492 850.525 672.711 850.497C672.933 850.469 673.156 850.485 673.372 850.543C673.588 850.599 673.788 850.701 673.964 850.837C674.14 850.972 674.289 851.139 674.397 851.334C674.508 851.525 674.582 851.738 674.61 851.96C674.637 852.179 674.622 852.405 674.563 852.618C674.508 852.834 674.406 853.034 674.27 853.21C674.134 853.386 673.968 853.534 673.773 853.645L664.988 858.615C664.124 859.106 663.439 859.523 663.146 860.056C662.997 860.322 662.778 860.544 662.513 860.698C662.247 860.85 661.945 860.927 661.639 860.921Z" fill="white"/>
<path d="M687.154 845.407C686.808 845.404 686.472 845.299 686.188 845.099C685.907 844.901 685.691 844.62 685.573 844.296C685.453 843.972 685.437 843.62 685.527 843.287C685.616 842.953 685.805 842.654 686.067 842.432L695.818 834.187C696.161 833.897 696.605 833.758 697.05 833.795C697.497 833.832 697.911 834.045 698.198 834.388C698.488 834.73 698.627 835.175 698.59 835.619C698.553 836.067 698.337 836.481 697.994 836.768L688.243 845.006C687.938 845.265 687.552 845.407 687.154 845.407Z" fill="white"/>
<path d="M446.113 200.52L453.357 226.586H484.98L491.357 200.52H446.113Z" fill="#FF5E6C"/>
<path d="M484.98 228.25H453.357C452.987 228.251 452.629 228.13 452.336 227.908C452.042 227.685 451.829 227.373 451.731 227.019L444.489 200.975C444.418 200.724 444.406 200.46 444.455 200.203C444.505 199.947 444.613 199.705 444.77 199.498C444.928 199.29 445.131 199.122 445.366 199.007C445.601 198.891 445.857 198.832 446.119 198.833H491.357C491.613 198.833 491.863 198.891 492.095 199.003C492.323 199.116 492.527 199.279 492.685 199.48C492.842 199.682 492.95 199.917 493.006 200.167C493.058 200.417 493.055 200.676 492.993 200.925L486.616 226.991C486.52 227.352 486.307 227.672 486.011 227.9C485.715 228.128 485.354 228.251 484.98 228.25ZM454.638 224.876H483.653L489.209 202.184H448.335L454.638 224.876Z" fill="#FF5E6C"/>
<path d="M547.229 200.52L539.991 226.586H508.368L501.991 200.52H547.229Z" fill="#FF5E6C"/>
<path d="M539.991 228.251H508.368C507.991 228.251 507.627 228.124 507.331 227.892C507.031 227.659 506.821 227.335 506.732 226.969L500.355 200.903C500.293 200.654 500.29 200.395 500.343 200.145C500.395 199.895 500.506 199.66 500.664 199.458C500.821 199.257 501.022 199.094 501.253 198.981C501.482 198.869 501.735 198.811 501.991 198.811H547.229C547.488 198.811 547.744 198.871 547.979 198.988C548.214 199.104 548.414 199.272 548.572 199.48C548.729 199.687 548.837 199.928 548.887 200.184C548.936 200.439 548.924 200.702 548.853 200.953L541.617 227.042C541.512 227.392 541.299 227.699 541.006 227.917C540.713 228.136 540.355 228.253 539.991 228.251ZM509.695 224.877H538.71L545.013 202.185H504.139L509.695 224.877Z" fill="#FF5E6C"/>
<path d="M492.16 236.186C491.811 236.186 491.468 236.076 491.181 235.872C490.897 235.669 490.681 235.381 490.567 235.049C490.453 234.718 490.444 234.359 490.542 234.022C490.641 233.685 490.845 233.388 491.12 233.172C491.86 232.579 492.431 231.804 492.78 230.922C493.129 230.185 493.944 228.448 495.944 228.92C496.796 229.163 497.524 229.712 497.994 230.461C498.037 230.528 498.099 230.613 498.151 230.675C498.37 230.692 498.586 230.752 498.787 230.853C498.984 230.953 499.16 231.092 499.305 231.26C499.451 231.429 499.559 231.624 499.63 231.836C499.697 232.047 499.725 232.27 499.707 232.491C499.691 232.713 499.63 232.929 499.531 233.127C499.429 233.325 499.29 233.502 499.123 233.646C498.954 233.791 498.759 233.901 498.546 233.97C498.336 234.039 498.114 234.066 497.892 234.049C497.444 234.046 497.006 233.94 496.605 233.739C496.206 233.538 495.861 233.248 495.592 232.891C495.027 234.044 494.209 235.056 493.2 235.849C492.901 236.074 492.536 236.192 492.16 236.186Z" fill="#FFF5D7"/>
<path d="M497.768 240.871C496.358 240.876 494.965 240.534 493.718 239.875C493.323 239.663 493.03 239.304 492.9 238.875C492.771 238.446 492.817 237.984 493.03 237.589C493.24 237.195 493.601 236.9 494.03 236.771C494.459 236.642 494.922 236.688 495.314 236.9C496.108 237.308 496.987 237.513 497.876 237.495C498.765 237.477 499.636 237.238 500.41 236.799C500.793 236.62 501.228 236.59 501.63 236.716C502.034 236.842 502.373 237.114 502.586 237.48C502.799 237.845 502.864 238.276 502.775 238.688C502.685 239.1 502.441 239.464 502.099 239.707C500.784 240.471 499.287 240.873 497.768 240.871Z" fill="#FFF5D7"/>
<path d="M503.38 236.186C503.003 236.187 502.636 236.062 502.34 235.832C501.33 235.039 500.512 234.027 499.95 232.874C499.679 233.23 499.33 233.52 498.932 233.721C498.531 233.922 498.092 234.028 497.645 234.032C497.422 234.049 497.2 234.022 496.987 233.953C496.777 233.884 496.58 233.774 496.413 233.629C496.243 233.485 496.104 233.308 496.006 233.11C495.904 232.912 495.845 232.696 495.827 232.474C495.811 232.253 495.836 232.03 495.907 231.819C495.975 231.608 496.086 231.412 496.231 231.243C496.521 230.903 496.938 230.692 497.385 230.658C497.444 230.59 497.5 230.519 497.549 230.444C498.015 229.694 498.744 229.145 499.596 228.903C501.596 228.431 502.407 230.168 502.756 230.905C503.114 231.788 503.695 232.564 504.442 233.155C504.719 233.371 504.92 233.669 505.019 234.005C505.118 234.342 505.111 234.701 504.997 235.032C504.88 235.364 504.667 235.652 504.38 235.856C504.096 236.059 503.753 236.169 503.401 236.169L503.38 236.186Z" fill="#FFF5D7"/>
<path d="M457.688 215.243C457.345 215.242 457.015 215.138 456.734 214.944C456.453 214.751 456.237 214.477 456.114 214.159C455.993 213.84 455.972 213.492 456.052 213.161C456.129 212.829 456.308 212.53 456.561 212.302L464.154 205.446C464.315 205.279 464.509 205.146 464.722 205.057C464.938 204.968 465.167 204.924 465.398 204.927C465.63 204.931 465.861 204.982 466.071 205.079C466.281 205.175 466.472 205.314 466.627 205.486C466.781 205.659 466.898 205.862 466.973 206.082C467.047 206.302 467.074 206.535 467.053 206.766C467.031 206.997 466.963 207.222 466.852 207.425C466.741 207.629 466.587 207.807 466.405 207.949L458.818 214.804C458.509 215.085 458.105 215.242 457.688 215.243Z" fill="white"/>
<path d="M463.525 222.132C463.185 222.131 462.852 222.027 462.571 221.833C462.29 221.64 462.074 221.366 461.954 221.047C461.83 220.729 461.808 220.381 461.889 220.05C461.969 219.718 462.145 219.419 462.401 219.191L477.646 205.446C477.807 205.279 478.001 205.146 478.214 205.057C478.427 204.968 478.659 204.924 478.89 204.927C479.122 204.931 479.35 204.982 479.563 205.079C479.773 205.175 479.964 205.314 480.119 205.486C480.273 205.659 480.39 205.862 480.464 206.082C480.538 206.302 480.566 206.535 480.545 206.766C480.523 206.997 480.455 207.222 480.344 207.425C480.233 207.629 480.078 207.807 479.896 207.949L464.648 221.699C464.34 221.977 463.941 222.131 463.525 222.132Z" fill="white"/>
<path d="M477.393 220.378C477.06 220.378 476.736 220.282 476.461 220.1C476.183 219.918 475.967 219.658 475.837 219.353C475.708 219.049 475.668 218.712 475.729 218.387C475.788 218.061 475.942 217.759 476.171 217.521L479.057 214.523C479.208 214.349 479.39 214.207 479.597 214.106C479.804 214.005 480.026 213.947 480.257 213.936C480.486 213.925 480.714 213.961 480.93 214.042C481.143 214.122 481.341 214.246 481.508 214.405C481.671 214.564 481.804 214.755 481.893 214.967C481.983 215.178 482.026 215.406 482.026 215.636C482.023 215.865 481.974 216.092 481.881 216.302C481.788 216.512 481.656 216.701 481.486 216.857L478.606 219.86C478.449 220.024 478.26 220.154 478.054 220.243C477.844 220.332 477.618 220.378 477.393 220.378Z" fill="white"/>
<path d="M515.263 221.131C514.822 221.131 514.396 220.957 514.081 220.648C513.766 220.332 513.587 219.903 513.587 219.456C513.587 219.008 513.766 218.58 514.081 218.263L527.332 204.766C527.484 204.599 527.669 204.465 527.876 204.371C528.082 204.277 528.305 204.226 528.53 204.22C528.755 204.214 528.981 204.253 529.194 204.336C529.403 204.419 529.595 204.544 529.755 204.702C529.919 204.861 530.046 205.05 530.132 205.259C530.221 205.468 530.265 205.693 530.262 205.919C530.262 206.146 530.212 206.369 530.123 206.577C530.033 206.785 529.904 206.972 529.74 207.128L516.489 220.625C516.328 220.788 516.137 220.917 515.927 221.004C515.717 221.091 515.492 221.134 515.263 221.131Z" fill="white"/>
<path d="M529.261 221.131C528.928 221.131 528.604 221.033 528.329 220.849C528.051 220.666 527.835 220.406 527.706 220.1C527.579 219.795 527.542 219.458 527.604 219.133C527.666 218.807 527.82 218.506 528.051 218.268L536.049 210.024C536.2 209.857 536.385 209.722 536.589 209.627C536.793 209.532 537.015 209.48 537.244 209.473C537.469 209.465 537.694 209.503 537.904 209.585C538.114 209.666 538.308 209.789 538.469 209.946C538.633 210.103 538.762 210.291 538.849 210.5C538.938 210.708 538.984 210.931 538.984 211.157C538.984 211.383 538.938 211.607 538.852 211.815C538.762 212.023 538.633 212.212 538.472 212.369L530.468 220.619C530.311 220.781 530.126 220.91 529.916 220.998C529.709 221.085 529.487 221.131 529.261 221.131Z" fill="white"/>
<path d="M570.759 203.838C564.233 203.838 557.199 202.269 550.081 199.165C546.322 197.525 542.726 195.531 539.343 193.21C535.351 190.572 532.465 188.665 524.397 187.625C501.457 184.661 496.518 172.677 496.324 172.171C496.222 171.916 496.188 171.64 496.219 171.367C496.25 171.095 496.345 170.834 496.5 170.607C496.654 170.381 496.864 170.195 497.105 170.067C497.348 169.939 497.617 169.871 497.892 169.871L507.266 169.933C507.714 169.933 508.143 170.11 508.46 170.427C508.775 170.743 508.954 171.173 508.954 171.62C508.954 172.067 508.775 172.496 508.46 172.813C508.143 173.129 507.714 173.307 507.266 173.307L500.966 173.268C503.577 176.558 510.152 182.384 524.841 184.279C533.688 185.404 537.009 187.614 541.216 190.392C544.442 192.609 547.871 194.511 551.458 196.072C562.706 200.987 573.66 201.808 582.287 198.395C582.704 198.23 583.167 198.237 583.578 198.415C583.988 198.592 584.312 198.926 584.476 199.342C584.643 199.758 584.636 200.223 584.457 200.634C584.278 201.044 583.945 201.368 583.528 201.532C579.457 203.102 575.123 203.884 570.759 203.838Z" fill="#FFF5D7"/>
<path d="M295.51 420.818L299.447 481.554C313.044 480.887 360.449 480.471 346.642 491.323C348.621 490.947 354.198 491.323 353.507 495.12C352.945 497.447 350.448 498.876 348.164 498.577C350.201 498.876 353.013 500.216 352.451 502.463C351.889 503.59 349.553 506.402 347.867 506.402C350.618 506.704 351.118 509.979 348.346 511.587C340.117 515.476 317.488 518.896 301.73 516.646L302.129 522.727C317.708 519.313 341.203 519.643 355.3 522.647L361.933 420.858L295.51 420.818Z" fill="#FF5E6C"/>
<path d="M302.145 524.397C301.717 524.397 301.304 524.236 300.99 523.943C300.677 523.65 300.487 523.249 300.458 522.823L300.076 516.748C300.059 516.498 300.098 516.248 300.191 516.014C300.284 515.779 300.428 515.569 300.612 515.399C300.797 515.226 301.017 515.1 301.257 515.026C301.497 514.952 301.75 514.93 301.999 514.967C318.223 517.288 340.123 513.572 347.586 510.078C348.346 509.618 348.602 509.022 348.519 508.624C348.463 508.454 348.355 508.309 348.21 508.207C348.065 508.105 347.892 508.053 347.713 508.059C347.269 508.038 346.849 507.837 346.549 507.504C346.247 507.17 346.093 506.732 346.117 506.284C346.142 505.837 346.343 505.417 346.676 505.118C347.009 504.818 347.448 504.661 347.895 504.685C348.546 504.636 350.235 502.954 350.864 501.874C350.861 501.759 350.824 501.651 350.756 501.559C350.364 500.997 349.154 500.401 347.945 500.222C347.512 500.148 347.123 499.91 346.864 499.555C346.605 499.2 346.494 498.759 346.552 498.324C346.614 497.889 346.843 497.494 347.188 497.225C347.537 496.956 347.975 496.833 348.411 496.879C349.778 497.061 351.482 496.24 351.883 494.737C351.929 494.574 351.929 494.401 351.889 494.237C351.846 494.074 351.76 493.925 351.639 493.805C350.756 492.931 348.266 492.712 346.985 492.956C346.611 493.027 346.225 492.972 345.889 492.799C345.552 492.626 345.281 492.345 345.123 491.999C344.969 491.654 344.932 491.265 345.021 490.897C345.111 490.53 345.324 490.203 345.623 489.968C347.062 488.845 347.58 487.962 347.451 487.619C347.321 487.274 345.762 484.425 327.56 483.332C316.757 482.681 304.878 482.949 299.559 483.208C299.116 483.23 298.683 483.079 298.353 482.782C298.023 482.489 297.822 482.076 297.793 481.634L293.856 420.898C293.841 420.666 293.873 420.435 293.951 420.219C294.028 420 294.15 419.799 294.308 419.632C294.467 419.463 294.658 419.327 294.87 419.237C295.083 419.145 295.312 419.098 295.543 419.098H361.936C362.171 419.101 362.399 419.154 362.612 419.25C362.822 419.348 363.014 419.487 363.168 419.66C363.325 419.83 363.449 420.027 363.526 420.247C363.603 420.466 363.634 420.694 363.619 420.926L356.988 522.715C356.973 522.959 356.905 523.193 356.791 523.406C356.677 523.619 356.516 523.807 356.325 523.952C356.13 524.101 355.908 524.202 355.67 524.255C355.436 524.307 355.189 524.307 354.951 524.258C340.135 521.097 317.093 521.131 302.494 524.329C302.381 524.366 302.264 524.388 302.145 524.397ZM303.563 518.56L303.703 520.668C308.87 519.721 314.093 519.109 319.337 518.841C314.081 519.165 308.806 519.072 303.563 518.56ZM328.897 518.56C337.715 518.56 346.54 519.236 353.76 520.591L360.149 422.494H297.309L301.037 479.785C306.987 479.554 317.819 479.384 327.752 479.98C346.275 481.106 349.682 484.023 350.599 486.453C350.797 486.983 350.874 487.551 350.827 488.116C350.781 488.678 350.611 489.224 350.331 489.715C351.692 489.903 352.97 490.493 354.001 491.404C354.522 491.91 354.902 492.543 355.109 493.24C355.315 493.938 355.34 494.675 355.183 495.385V495.484C354.84 496.845 354.047 498.049 352.933 498.898C353.18 499.136 353.402 499.398 353.59 499.682C353.905 500.136 354.118 500.654 354.214 501.201C354.312 501.744 354.291 502.306 354.155 502.843C354.124 502.96 354.081 503.077 354.025 503.185C353.303 504.442 352.374 505.565 351.281 506.513C351.553 506.929 351.744 507.396 351.843 507.886C352.254 509.837 351.235 511.822 349.244 512.992L349.121 513.06C343.373 515.782 331.542 518.122 319.692 518.792C322.689 518.656 325.795 518.572 328.897 518.572V518.56Z" fill="#FF5E6C"/>
<path d="M371.937 422.506H285.522C285.074 422.506 284.645 422.327 284.329 422.012C284.012 421.694 283.834 421.265 283.834 420.818V404.224C283.837 401.813 284.796 399.501 286.501 397.794C288.206 396.09 290.516 395.127 292.928 395.124H364.523C366.937 395.127 369.249 396.087 370.956 397.791C372.66 399.498 373.619 401.81 373.623 404.224V420.818C373.623 421.265 373.447 421.694 373.129 422.012C372.814 422.327 372.385 422.506 371.937 422.506ZM287.209 419.132H370.249V404.224C370.249 402.705 369.644 401.251 368.57 400.177C367.499 399.103 366.042 398.501 364.523 398.498H292.928C291.411 398.501 289.957 399.106 288.885 400.18C287.813 401.251 287.21 402.705 287.209 404.224V419.132Z" fill="#FE9A00"/>
<path d="M357.393 398.498H300.076C299.629 398.498 299.2 398.322 298.883 398.004C298.567 397.689 298.389 397.26 298.389 396.813V382.077C298.389 381.629 298.567 381.2 298.883 380.885C299.2 380.568 299.629 380.392 300.076 380.392H357.393C357.84 380.392 358.269 380.568 358.587 380.885C358.902 381.2 359.081 381.629 359.081 382.077V396.813C359.081 397.26 358.902 397.689 358.587 398.004C358.269 398.322 357.84 398.498 357.393 398.498ZM301.752 395.124H355.707V383.765H301.764L301.752 395.124Z" fill="#FE9A00"/>
<path d="M301.825 517.875C288.829 517.875 282.378 504.377 282.114 495.166C282.101 494.719 282.267 494.283 282.574 493.959C282.882 493.632 283.306 493.444 283.753 493.428C284.201 493.416 284.635 493.583 284.96 493.891C285.286 494.197 285.475 494.623 285.488 495.07C285.713 502.941 291.061 514.516 301.825 514.516H301.926C343.639 514.242 347.821 509.214 348.154 508.652C347.701 508.152 347.114 507.794 346.466 507.612C346.142 507.488 345.861 507.266 345.667 506.979C345.472 506.689 345.37 506.349 345.376 506C345.383 505.652 345.5 505.315 345.704 505.034C345.91 504.753 346.197 504.543 346.528 504.432C349.79 503.346 350.426 502.182 350.408 501.941C350.392 501.701 349.469 500.688 346.704 500.216C346.318 500.148 345.969 499.95 345.716 499.654C345.46 499.361 345.318 498.984 345.305 498.595C345.296 498.207 345.423 497.827 345.66 497.518C345.901 497.21 346.238 496.993 346.617 496.907C350.111 496.12 351.488 495.148 351.837 494.722C351.528 494.422 350.324 493.555 346.41 492.993C346.086 492.947 345.784 492.808 345.537 492.592C345.293 492.376 345.114 492.092 345.028 491.777C344.938 491.462 344.944 491.126 345.043 490.814C345.142 490.502 345.33 490.228 345.583 490.018C346.759 489.064 346.87 488.53 346.843 488.44C346.707 488.073 344.818 484.829 320.337 483.647C307.404 483.023 294.621 483.304 294.469 483.304C294.026 483.31 293.598 483.137 293.279 482.829C292.96 482.523 292.776 482.1 292.765 481.656C292.76 481.434 292.799 481.214 292.879 481.008C292.959 480.801 293.08 480.609 293.233 480.449C293.387 480.288 293.571 480.162 293.774 480.072C293.978 479.983 294.197 479.933 294.419 479.93C294.548 479.93 307.438 479.649 320.495 480.279C344.802 481.455 349.037 484.631 350.009 487.274C350.182 487.752 350.253 488.261 350.216 488.767C350.179 489.274 350.034 489.764 349.79 490.209C353.355 491.116 355.201 492.576 355.278 494.574C355.325 495.799 354.689 497.345 351.973 498.679C352.476 499.018 352.896 499.463 353.207 499.981C353.519 500.503 353.71 501.086 353.772 501.688C353.855 502.812 353.473 504.67 350.599 506.321C350.963 506.701 351.232 507.158 351.386 507.658C351.54 508.155 351.578 508.686 351.494 509.201C351.016 511.902 347.321 513.831 339.857 515.276C331.452 516.899 318.692 517.779 301.943 517.89L301.825 517.875Z" fill="#FFF5D7"/>
<path d="M346.657 493.012H346.617L311.188 492.258C310.741 492.252 310.315 492.07 310 491.752C309.688 491.431 309.512 491.002 309.519 490.555C309.522 490.107 309.704 489.678 310.025 489.366C310.343 489.051 310.775 488.879 311.222 488.882H311.263L346.691 489.632C347.139 489.635 347.565 489.817 347.88 490.138C348.191 490.456 348.364 490.888 348.361 491.336C348.358 491.783 348.176 492.209 347.855 492.524C347.537 492.836 347.105 493.009 346.657 493.005V493.012Z" fill="#FFF5D7"/>
<path d="M311.886 501.108C311.438 501.114 311.006 500.941 310.685 500.63C310.367 500.315 310.185 499.889 310.179 499.441C310.173 498.994 310.346 498.562 310.658 498.244C310.972 497.923 311.398 497.74 311.846 497.734L346.932 496.867H346.978C347.201 496.867 347.42 496.907 347.623 496.99C347.83 497.071 348.019 497.194 348.176 497.348C348.336 497.503 348.46 497.688 348.549 497.892C348.636 498.095 348.682 498.315 348.685 498.537C348.688 498.756 348.645 498.978 348.565 499.182C348.482 499.389 348.358 499.577 348.204 499.734C348.049 499.892 347.864 500.018 347.66 500.108C347.457 500.194 347.238 500.241 347.018 500.244L311.929 501.114L311.886 501.108Z" fill="#FFF5D7"/>
<path d="M312.056 509.028C311.608 509.034 311.176 508.865 310.852 508.556C310.531 508.244 310.346 507.818 310.337 507.371C310.327 506.923 310.497 506.491 310.809 506.17C311.121 505.846 311.547 505.661 311.994 505.652L347 504.343C347.448 504.324 347.883 504.488 348.213 504.79C348.54 505.096 348.735 505.519 348.753 505.963C348.769 506.411 348.608 506.849 348.303 507.176C348 507.507 347.577 507.698 347.13 507.716L312.121 509.028H312.056Z" fill="#FFF5D7"/>
<path d="M492.864 491.789C483.208 491.842 473.572 490.925 464.099 489.058C463.874 489.021 463.661 488.937 463.469 488.814C463.278 488.693 463.114 488.533 462.985 488.345C462.855 488.159 462.769 487.946 462.722 487.724C462.679 487.502 462.679 487.274 462.725 487.051C462.772 486.829 462.861 486.616 462.991 486.431C463.12 486.246 463.287 486.085 463.478 485.965C463.673 485.844 463.886 485.764 464.111 485.727C464.333 485.693 464.565 485.702 464.784 485.755C486.344 490.255 515.831 488.832 531.91 482.585C532.117 482.495 532.342 482.449 532.567 482.449C532.796 482.446 533.018 482.492 533.228 482.579C533.438 482.668 533.626 482.798 533.783 482.958C533.941 483.122 534.064 483.313 534.148 483.523C534.228 483.736 534.268 483.962 534.259 484.187C534.253 484.415 534.2 484.638 534.104 484.841C534.012 485.048 533.876 485.233 533.709 485.385C533.54 485.536 533.342 485.653 533.129 485.727C522.918 489.7 508.019 491.789 492.864 491.789Z" fill="white"/>
<path d="M505.081 498.762C507.371 498.676 509.081 494.728 508.902 489.947C508.726 485.162 506.723 481.356 504.432 481.44C502.142 481.526 500.429 485.474 500.608 490.255C500.787 495.04 502.79 498.845 505.081 498.762Z" fill="#FF5E6C"/>
<path d="M505.028 500.441C503.296 500.441 501.722 499.265 500.589 497.111C499.599 494.975 499.043 492.666 498.953 490.311C498.867 487.959 499.25 485.613 500.08 483.412C501.074 481.116 502.608 479.816 504.398 479.751C506.186 479.683 507.818 480.875 508.982 483.079C510.016 485.199 510.575 487.52 510.618 489.879C510.748 492.234 510.365 494.589 509.494 496.777C508.497 499.074 506.966 500.373 505.173 500.441H505.028ZM504.537 483.125C504.222 483.125 503.667 483.647 503.182 484.755C501.92 488.267 502.065 492.135 503.587 495.543C504.151 496.604 504.713 497.061 505.056 497.064C505.398 497.071 505.932 496.543 506.411 495.435C507.075 493.703 507.362 491.851 507.254 490.002C507.226 488.15 506.8 486.323 506.007 484.647C505.445 483.569 504.852 483.1 504.537 483.1V483.125Z" fill="#FF5E6C"/>
<path d="M333.595 588.39H331.394C325.035 588.343 292.99 587.828 286.686 582.355C275.09 572.231 274.876 539.738 281.804 530.41C290.009 519.356 326.44 517.986 349.682 520.551C360.368 521.721 378.706 524.767 381.913 531.965C386.975 543.26 387.182 573.509 375.552 583.328C371.091 587.078 350.689 588.39 333.595 588.39ZM288.901 579.809C292.247 582.726 309.71 584.868 331.418 585.01C352.281 585.149 370.329 583.321 373.376 580.741C382.935 572.654 383.802 544.485 378.83 533.333C377.07 529.397 365.486 525.678 349.318 523.897C336.079 522.44 321.594 522.394 309.586 523.78C296.432 525.292 287.524 528.36 284.515 532.416C278.514 540.503 278.84 571.03 288.901 579.809Z" fill="#FFF5D7"/>
</svg>
