<svg width="370" height="198" viewBox="0 0 370 198" fill="none" xmlns="http://www.w3.org/2000/svg">
<g clip-path="url(#clip0_2007_187)">
<path d="M154.349 165.823C154.179 165.823 154.016 165.762 153.888 165.65C153.76 165.539 153.677 165.385 153.654 165.217C153.63 165.05 153.67 164.879 153.762 164.738C153.855 164.596 153.996 164.492 154.159 164.446C176.703 158.14 197.489 155.965 221.554 157.402C221.645 157.408 221.735 157.431 221.819 157.471C221.901 157.511 221.975 157.568 222.037 157.637C222.097 157.706 222.144 157.786 222.175 157.873C222.205 157.96 222.217 158.053 222.212 158.144C222.206 158.237 222.183 158.327 222.143 158.409C222.102 158.493 222.046 158.567 221.977 158.628C221.909 158.689 221.827 158.736 221.741 158.766C221.653 158.797 221.561 158.809 221.47 158.804C197.566 157.376 176.923 159.534 154.538 165.812C154.476 165.824 154.412 165.828 154.349 165.823Z" fill="#FEB300"/>
<path d="M155.036 159.688C154.865 159.69 154.698 159.628 154.569 159.516C154.44 159.402 154.357 159.247 154.336 159.077C154.313 158.906 154.355 158.734 154.453 158.593C154.549 158.451 154.695 158.35 154.861 158.308C178.367 152.259 196.096 150.789 220.266 152.889C220.358 152.898 220.447 152.923 220.53 152.965C220.611 153.009 220.684 153.067 220.744 153.137C220.804 153.208 220.848 153.29 220.876 153.377C220.904 153.466 220.915 153.559 220.906 153.651C220.899 153.742 220.873 153.832 220.83 153.914C220.786 153.996 220.728 154.069 220.658 154.128C220.588 154.188 220.505 154.232 220.418 154.26C220.329 154.289 220.236 154.299 220.145 154.29C196.138 152.207 178.535 153.667 155.206 159.664C155.151 159.68 155.093 159.688 155.036 159.688Z" fill="#FEB300"/>
<path d="M235.863 168.94C234.89 168.94 233.944 168.61 233.181 168.005C227.752 163.72 219.929 147.435 217.269 139.918C217.233 139.83 217.216 139.735 217.217 139.64C217.22 139.547 217.239 139.453 217.279 139.367C217.317 139.28 217.374 139.203 217.443 139.139C217.513 139.074 217.595 139.025 217.685 138.993C217.773 138.961 217.868 138.949 217.963 138.953C218.057 138.96 218.15 138.986 218.235 139.029C218.318 139.071 218.394 139.13 218.455 139.203C218.516 139.275 218.561 139.359 218.589 139.451C221.214 146.842 228.841 162.789 234.062 166.914C234.637 167.378 235.369 167.6 236.106 167.536C236.842 167.471 237.524 167.123 238.01 166.565C247.907 154.665 253.615 140.54 257.398 131.191C259.428 126.169 260.771 122.851 262.025 121.613C262.159 121.49 262.335 121.424 262.516 121.428C262.698 121.432 262.87 121.506 262.998 121.635C263.127 121.764 263.199 121.938 263.201 122.119C263.203 122.301 263.135 122.476 263.011 122.608C261.962 123.65 260.521 127.212 258.697 131.719C254.887 141.146 249.12 155.393 239.089 167.458C238.693 167.928 238.2 168.304 237.642 168.56C237.084 168.816 236.477 168.946 235.863 168.94Z" fill="#2B1927"/>
<path d="M233.207 157.37C233.122 157.37 233.038 157.355 232.959 157.325C232.873 157.292 232.794 157.243 232.726 157.18C232.66 157.117 232.605 157.042 232.567 156.958C232.529 156.874 232.508 156.783 232.506 156.691C232.503 156.599 232.518 156.506 232.551 156.421C235.501 148.551 241.804 137.467 247.362 127.689C249.162 124.523 250.866 121.536 252.378 118.782C254.153 115.559 255.137 112.62 256.176 109.509C257.296 106.168 258.451 102.711 260.677 98.6791C260.722 98.5987 260.782 98.5277 260.854 98.4704C260.926 98.4131 261.009 98.3705 261.098 98.3451C261.185 98.3197 261.278 98.3121 261.37 98.3224C261.462 98.3329 261.551 98.3613 261.631 98.4058C261.711 98.4505 261.782 98.5105 261.839 98.5827C261.897 98.6547 261.939 98.7373 261.965 98.8258C261.99 98.9143 261.997 99.0069 261.987 99.0985C261.977 99.1898 261.949 99.2784 261.903 99.3589C259.739 103.276 258.603 106.67 257.505 109.955C256.444 113.127 255.443 116.121 253.607 119.457C252.083 122.22 250.383 125.213 248.582 128.38C243.046 138.114 236.774 149.147 233.866 156.913C233.815 157.048 233.725 157.164 233.608 157.245C233.49 157.326 233.35 157.37 233.207 157.37Z" fill="#2B1927"/>
<path d="M179.661 29.5595C177.792 28.7887 175.9 29.6601 175.807 31.7507C175.713 33.8413 179.544 36.5464 184.307 35.0701C189.843 33.3555 190.147 28.5295 189.056 26.4786C187.029 22.6967 181.817 23.7455 179.661 29.5595Z" fill="#FEB300"/>
<path d="M181.6 36.1912C179.863 36.2207 178.165 35.6853 176.76 34.6659C175.657 33.8132 175.049 32.7387 175.096 31.7202C175.1 31.1964 175.232 30.6815 175.482 30.2211C175.732 29.7606 176.092 29.3689 176.528 29.0806C176.933 28.839 177.382 28.6803 177.848 28.6137C178.314 28.5471 178.789 28.5741 179.245 28.6929C180.554 25.6726 182.815 23.7267 185.258 23.554C187.115 23.4278 188.722 24.3715 189.663 26.1374C190.238 27.2166 190.598 29.2209 189.736 31.3278C189.138 32.7831 187.743 34.7289 184.505 35.731C183.566 36.0301 182.586 36.1853 181.6 36.1912ZM178.329 29.9847C177.964 29.9776 177.605 30.0748 177.293 30.265C177.046 30.4332 176.845 30.66 176.708 30.9251C176.571 31.1901 176.502 31.485 176.507 31.7834C176.484 32.3253 176.914 33.0026 177.628 33.5563C178.901 34.5397 181.27 35.2802 184.102 34.4019C186.82 33.561 187.967 31.9819 188.451 30.8046C189.089 29.2536 188.905 27.6791 188.44 26.8079C187.758 25.5301 186.666 24.8714 185.363 24.9624C183.756 25.07 181.589 26.399 180.32 29.8049C180.287 29.8928 180.237 29.9733 180.172 30.0415C180.107 30.1097 180.03 30.1644 179.943 30.2019C179.857 30.2389 179.763 30.2579 179.67 30.2579C179.575 30.2579 179.481 30.2389 179.395 30.2019C179.053 30.06 178.688 29.9862 178.318 29.9847H178.329Z" fill="#FEB300"/>
<path d="M179.614 40.8887V35.2521C179.614 35.2521 183.531 33.8506 185.869 34.4345V41.0802C185.869 41.0802 185.83 40.3865 179.614 40.8887Z" fill="#2B1927"/>
<path d="M185.87 41.7788C185.776 41.7791 185.683 41.7606 185.597 41.7245C185.511 41.6884 185.433 41.6354 185.368 41.5686C185.112 41.4845 183.966 41.2416 179.67 41.5873C179.573 41.595 179.476 41.5827 179.385 41.5509C179.293 41.5192 179.21 41.4689 179.138 41.403C179.066 41.3371 179.01 41.2572 178.971 41.1683C178.933 41.0794 178.914 40.9834 178.914 40.8865V35.2523C178.914 35.1077 178.959 34.9667 179.043 34.8488C179.126 34.7309 179.244 34.6418 179.381 34.5935C179.549 34.5328 183.526 33.1219 186.042 33.755C186.194 33.793 186.328 33.8805 186.425 34.0036C186.521 34.1268 186.573 34.2785 186.573 34.4347V41.078C186.573 41.2603 186.502 41.4354 186.375 41.5663C186.248 41.6972 186.075 41.7734 185.893 41.7788H185.87ZM180.312 35.7498V40.125C182.91 39.9404 184.349 39.9825 185.167 40.0947V35.021C183.52 34.8435 181.273 35.4602 180.315 35.7591L180.312 35.7498Z" fill="#2B1927"/>
<path d="M113.755 190.894C113.621 190.894 113.49 190.856 113.377 190.783C113.265 190.712 113.175 190.608 113.119 190.487C113.063 190.365 113.043 190.229 113.061 190.097C113.08 189.964 113.136 189.84 113.223 189.738C114.587 188.143 115.888 185.749 116.544 184.461C116.853 183.857 117.315 183.344 117.883 182.974C126.402 177.427 135.108 171.898 143.757 166.539C144.386 166.157 144.877 165.585 145.16 164.905C148.229 157.482 151.055 150.655 154.057 143.449C154.09 143.363 154.142 143.282 154.206 143.216C154.271 143.149 154.349 143.095 154.436 143.059C154.521 143.022 154.613 143.004 154.707 143.003C154.801 143.003 154.893 143.021 154.978 143.057C155.065 143.093 155.143 143.144 155.209 143.211C155.274 143.278 155.326 143.357 155.361 143.443C155.395 143.53 155.412 143.623 155.411 143.715C155.409 143.809 155.389 143.902 155.351 143.987C152.35 151.2 149.523 158.016 146.456 165.439C146.064 166.391 145.382 167.194 144.505 167.733C135.863 173.085 127.168 178.608 118.656 184.148C118.294 184.385 118 184.713 117.803 185.099C117.119 186.439 115.755 188.944 114.3 190.649C114.233 190.728 114.149 190.791 114.055 190.832C113.961 190.874 113.858 190.897 113.755 190.894Z" fill="#2B1927"/>
<path d="M260.675 87.273L261.798 108.654C262.624 107.953 263.536 107.322 264.539 106.607C265.394 106.14 265.992 106.479 266.459 106.713C267.393 107.413 267.809 108.425 266.692 110.009C265.198 111.669 263.422 112.618 262.096 114.293L264.368 157.553C264.368 157.553 288.39 165.655 318.619 157.553L323.992 87.273C323.992 87.273 297.01 92.1108 260.675 87.273Z" fill="#FF5E6C"/>
<path d="M291.036 161.847C287.379 161.849 283.725 161.663 280.086 161.289C270.337 160.28 264.392 158.303 264.144 158.219C264.012 158.174 263.898 158.089 263.815 157.976C263.731 157.864 263.683 157.731 263.677 157.592L261.404 114.33C261.396 114.161 261.449 113.995 261.553 113.863C262.304 112.972 263.15 112.166 264.076 111.459C264.814 110.883 265.508 110.253 266.153 109.574C267.06 108.268 266.621 107.717 266.097 107.315C265.651 107.082 265.373 106.974 264.929 107.21L264.513 107.507C263.71 108.077 262.95 108.616 262.273 109.191C262.173 109.276 262.053 109.331 261.923 109.35C261.794 109.37 261.662 109.353 261.542 109.301C261.421 109.249 261.319 109.165 261.243 109.057C261.169 108.95 261.126 108.824 261.119 108.693L259.995 87.3151C259.99 87.2123 260.008 87.1097 260.046 87.0145C260.085 86.9192 260.145 86.8336 260.22 86.7638C260.295 86.694 260.385 86.6418 260.484 86.6107C260.581 86.5796 260.686 86.5705 260.787 86.5839C296.586 91.3493 323.624 86.6354 323.902 86.5839C324.007 86.5651 324.115 86.5706 324.217 86.6001C324.321 86.6295 324.416 86.6821 324.495 86.7538C324.574 86.8254 324.636 86.9144 324.676 87.0138C324.716 87.1131 324.732 87.2201 324.724 87.3268L319.34 157.608C319.329 157.752 319.273 157.89 319.179 158.002C319.087 158.113 318.961 158.193 318.82 158.232C309.757 160.644 300.415 161.859 291.036 161.847ZM265.043 157.033C266.608 157.5 272.161 159.065 280.276 159.899C292.909 161.184 305.669 160.206 317.96 157.012L323.236 88.1023C318.302 88.8639 293.404 92.2158 261.419 88.072L262.427 107.259C262.831 106.958 263.25 106.661 263.679 106.353L264.131 106.033L264.202 105.988C265.347 105.365 266.204 105.797 266.718 106.054L266.772 106.082C266.809 106.1 266.846 106.122 266.88 106.147C267.706 106.769 268.858 108.147 267.265 110.408C267.249 110.43 267.233 110.451 267.214 110.471C266.515 111.216 265.76 111.907 264.955 112.536C264.179 113.13 263.461 113.795 262.809 114.522L265.043 157.033Z" fill="#FF5E6C"/>
<path d="M108.675 183.966C106.094 184.98 104.281 187.108 101.828 188.806C101.361 189.039 100.065 190.194 98.9386 189.243C97.3291 186.108 103.185 183.064 105.93 180.805C97.203 170.939 86.3713 160.586 72.3676 149.946L41.0313 183.321C41.0313 183.321 72.3068 201.701 99.9127 249.458C99.9127 249.458 118.894 235.256 136.44 230.147C136.446 230.147 130.841 210.037 108.675 183.966Z" fill="#FEB300"/>
<path d="M99.9127 250.158C99.7896 250.158 99.6686 250.126 99.5621 250.065C99.4554 250.003 99.3668 249.915 99.3053 249.808C85.103 225.236 69.9172 208.636 59.6812 199.03C48.5879 188.626 40.7603 183.97 40.6762 183.926C40.5854 183.873 40.5078 183.8 40.4491 183.712C40.3906 183.625 40.3522 183.526 40.3372 183.421C40.3221 183.318 40.3307 183.212 40.3623 183.112C40.3939 183.011 40.4477 182.919 40.5197 182.842L71.856 149.464C71.9747 149.338 72.1358 149.26 72.3084 149.247C72.4809 149.232 72.6526 149.283 72.7903 149.388C85.7149 159.199 96.7242 169.332 106.453 180.34C106.516 180.411 106.564 180.493 106.594 180.583C106.624 180.672 106.636 180.767 106.628 180.861C106.621 180.955 106.594 181.046 106.55 181.129C106.506 181.212 106.447 181.285 106.374 181.344C105.781 181.835 105.059 182.35 104.297 182.893C101.802 184.673 98.7144 186.878 99.4992 188.788C99.9313 189.063 100.434 188.855 101.16 188.39C101.272 188.32 101.37 188.257 101.464 188.205C102.295 187.628 103.064 186.988 103.8 186.369C105.26 185.155 106.638 184.008 108.411 183.314C108.547 183.261 108.696 183.251 108.837 183.287C108.979 183.323 109.106 183.402 109.2 183.513C131.217 209.394 137.049 229.764 137.105 229.96C137.154 230.138 137.132 230.327 137.042 230.488C136.952 230.649 136.803 230.768 136.626 230.82C119.408 235.833 100.513 249.876 100.324 250.019C100.205 250.108 100.061 250.157 99.9127 250.158ZM42.1267 183.173C44.3482 184.587 51.3654 189.308 60.5992 197.965C70.8212 207.543 85.9369 224.052 100.128 248.42C103.54 245.956 120.083 234.368 135.561 229.665C134.393 226.019 127.805 207.65 108.465 184.803C107.103 185.433 105.93 186.41 104.697 187.435C103.916 188.082 103.113 188.752 102.218 189.371C102.191 189.389 102.162 189.407 102.132 189.42C102.09 189.444 101.994 189.504 101.898 189.561C101.272 189.959 99.7959 190.894 98.4714 189.766C98.401 189.706 98.343 189.634 98.3009 189.551C96.7545 186.533 100.476 183.878 103.468 181.742C103.975 181.38 104.463 181.041 104.898 180.703C95.4791 170.121 84.8461 160.352 72.4282 150.872L42.1267 183.173Z" fill="#FEB300"/>
<path d="M157.049 248.112C157.049 248.112 195.751 237.119 242.833 232.462C236.251 208.713 226.108 177.1 218.795 164.548C195.475 162.994 170.696 166.996 156.554 170.876C153.011 185.043 153.265 223.492 157.049 248.112Z" fill="#2B1927"/>
<path d="M157.049 248.814C156.88 248.815 156.717 248.756 156.588 248.647C156.459 248.539 156.374 248.387 156.348 248.221C152.534 223.383 152.296 184.984 155.867 170.701C155.897 170.58 155.96 170.47 156.046 170.381C156.134 170.292 156.242 170.228 156.362 170.196C170.586 166.293 195.48 162.287 218.834 163.842C218.949 163.85 219.06 163.885 219.158 163.946C219.256 164.006 219.337 164.09 219.395 164.19C226.774 176.853 236.994 208.785 243.501 232.282C243.529 232.381 243.534 232.485 243.518 232.584C243.501 232.686 243.462 232.782 243.404 232.867C243.346 232.951 243.27 233.021 243.182 233.073C243.094 233.126 242.996 233.158 242.894 233.168C196.41 237.755 157.619 248.678 157.234 248.788C157.173 248.804 157.112 248.813 157.049 248.814ZM157.138 171.438C153.732 185.744 153.977 222.75 157.624 247.232C163.267 245.687 199.289 236.148 241.934 231.859C235.496 208.734 225.583 177.839 218.376 165.222C195.522 163.758 171.251 167.624 157.138 171.443V171.438Z" fill="#2B1927"/>
<path d="M79.2513 30.3679C79.0655 30.3679 78.8872 30.294 78.7559 30.1626C78.6244 30.0312 78.5505 29.853 78.5505 29.6671C78.5505 29.4812 78.6244 29.303 78.7559 29.1715C78.8872 29.0401 79.0655 28.9663 79.2513 28.9663L97.4038 28.6907H97.4155C97.6013 28.6907 97.7796 28.7645 97.911 28.8959C98.0424 29.0274 98.1163 29.2056 98.1163 29.3914C98.1163 29.5773 98.0424 29.7555 97.911 29.887C97.7796 30.0183 97.6013 30.0922 97.4155 30.0922L79.263 30.3679H79.2513Z" fill="#2B1927"/>
<path d="M83.4372 33.442C83.2514 33.4442 83.0723 33.3724 82.9393 33.2425C82.8064 33.1127 82.7304 32.9352 82.7283 32.7493C82.7261 32.5635 82.7979 32.3844 82.9278 32.2514C83.0576 32.1185 83.2351 32.0426 83.421 32.0404L95.1379 31.7718C95.2299 31.7696 95.3215 31.7856 95.4074 31.8188C95.4932 31.8521 95.5716 31.9019 95.6382 31.9654C95.7048 32.0289 95.7582 32.105 95.7955 32.1893C95.8326 32.2735 95.8528 32.3641 95.8551 32.4562C95.8572 32.5484 95.8411 32.6402 95.8077 32.7261C95.7744 32.8122 95.7243 32.8908 95.6606 32.9574C95.5967 33.024 95.5205 33.0774 95.436 33.1144C95.3515 33.1515 95.2605 33.1715 95.1682 33.1733L83.4536 33.442H83.4372Z" fill="#2B1927"/>
<path d="M163.174 104.498C163.01 104.497 162.851 104.438 162.726 104.331C162.6 104.225 162.516 104.078 162.488 103.916C162.461 103.754 162.49 103.587 162.573 103.445C162.656 103.303 162.785 103.195 162.941 103.138C167.633 101.482 172.452 100.209 177.351 99.3309C178.111 99.2026 178.801 98.8096 179.301 98.2216C179.799 97.6334 180.074 96.888 180.077 96.1168V95.8552C180.102 92.3395 180.123 89.2701 179.887 86.7871C174.206 85.9274 170.806 84.1054 167.867 80.3773C165.902 77.8849 164.575 74.4068 164.01 70.2768C161.424 70.7628 159.105 70.195 157.383 68.6417C156.58 67.9279 155.966 67.0264 155.596 66.0175C155.226 65.0086 155.113 63.9239 155.264 62.8603C155.575 60.9448 156.939 59.256 158.913 58.3426C160.399 57.6229 162.104 57.5008 163.678 58.0016C163.699 57.1583 163.727 56.1328 163.727 56.0675C163.73 55.9755 163.751 55.8848 163.788 55.8007C163.825 55.7166 163.879 55.6407 163.946 55.5773C164.08 55.4494 164.261 55.3804 164.446 55.3853C164.539 55.3878 164.629 55.4084 164.714 55.4459C164.798 55.4834 164.873 55.537 164.937 55.6038C165 55.6706 165.05 55.7493 165.083 55.8352C165.116 55.9212 165.131 56.0128 165.129 56.1048C165.129 56.1328 165.058 58.7257 165.057 59.0925C165.056 59.216 165.021 59.3371 164.958 59.4435C164.895 59.5498 164.805 59.6375 164.697 59.6977C164.59 59.758 164.467 59.7885 164.344 59.7865C164.221 59.7844 164.1 59.7497 163.994 59.6858C162.73 58.9242 161.05 58.8986 159.502 59.6156C157.953 60.3328 156.884 61.6293 156.647 63.0845C156.532 63.9179 156.626 64.7665 156.918 65.5551C157.211 66.3437 157.694 67.0478 158.324 67.6046C159.842 68.9803 162.011 69.3868 164.43 68.7444C164.528 68.7186 164.629 68.7139 164.729 68.731C164.828 68.7479 164.923 68.786 165.005 68.8426C165.089 68.8996 165.158 68.974 165.211 69.0606C165.263 69.1473 165.295 69.2443 165.306 69.3448C165.774 73.5495 167.041 77.0696 168.967 79.5083C171.784 83.0799 174.942 84.6988 180.623 85.4767C180.777 85.4974 180.92 85.5692 181.03 85.6804C181.138 85.7917 181.207 85.9361 181.226 86.091C181.529 88.7492 181.506 92.0476 181.478 95.8644V96.1283C181.474 97.2297 181.08 98.294 180.368 99.1334C179.655 99.9728 178.668 100.533 177.581 100.716C172.765 101.578 168.027 102.828 163.412 104.454C163.336 104.483 163.255 104.498 163.174 104.498Z" fill="#2B1927"/>
<path d="M184.566 70.6997C184.399 70.6999 184.238 70.6407 184.112 70.5325C183.985 70.4244 183.9 70.2747 183.874 70.1101C183.847 69.9455 183.88 69.7768 183.968 69.6345C184.054 69.492 184.188 69.3852 184.346 69.3332C185.328 68.9972 186.173 68.3511 186.755 67.4924C186.069 67.4593 185.402 67.2575 184.814 66.9049C184.224 66.5523 183.732 66.0597 183.379 65.471C183.025 64.8823 182.823 64.2156 182.79 63.53C182.757 62.8444 182.892 62.161 183.186 61.5405C183.265 61.3724 183.408 61.2425 183.583 61.1796C183.758 61.1169 183.95 61.1261 184.119 61.2054C184.287 61.2847 184.417 61.4275 184.48 61.6025C184.542 61.7775 184.534 61.9703 184.455 62.1385C184.225 62.6232 184.143 63.1636 184.214 63.6945C184.286 64.2256 184.509 64.7246 184.857 65.1315C185.206 65.5385 185.665 65.8361 186.178 65.9885C186.692 66.1408 187.238 66.1416 187.753 65.9905C187.876 65.9542 188.007 65.9526 188.131 65.986C188.256 66.0193 188.368 66.0862 188.457 66.1793C188.546 66.2724 188.607 66.3882 188.635 66.5139C188.662 66.6397 188.654 66.7706 188.612 66.8922C188.299 67.7676 187.792 68.5614 187.13 69.2144C186.469 69.8675 185.668 70.3631 184.788 70.6647C184.716 70.6879 184.642 70.6997 184.566 70.6997Z" fill="#2B1927"/>
<path d="M164.608 65.07C164.539 65.0703 164.47 65.0601 164.403 65.0397C163.001 64.6122 160.184 63.7643 159.58 63.6264C159.49 63.6058 159.405 63.5676 159.329 63.5142C159.254 63.4607 159.191 63.393 159.142 63.3149C159.094 63.2368 159.061 63.1499 159.046 63.059C159.03 62.9682 159.033 62.8753 159.053 62.7855C159.074 62.6959 159.112 62.611 159.167 62.536C159.22 62.4612 159.287 62.3974 159.365 62.3486C159.443 62.2999 159.53 62.2668 159.622 62.2516C159.712 62.2365 159.804 62.2393 159.894 62.26C160.696 62.4445 164.644 63.6475 164.8 63.6989C164.961 63.7478 165.099 63.8527 165.188 63.9946C165.278 64.1365 165.314 64.306 165.289 64.472C165.264 64.6381 165.182 64.7898 165.055 64.8996C164.928 65.0094 164.765 65.0699 164.597 65.07H164.608Z" fill="#2B1927"/>
<path d="M171.872 59.7676C171.734 59.7675 171.597 59.7259 171.483 59.6483C171.367 59.5707 171.278 59.4606 171.225 59.3318C171.172 59.2031 171.16 59.0616 171.187 58.9253C171.215 58.7892 171.283 58.6644 171.383 58.5669C172.413 57.5648 173.647 56.7976 175.003 56.3178C176.357 55.8379 177.8 55.657 179.23 55.7871C179.417 55.8048 179.588 55.8955 179.707 56.0395C179.826 56.1834 179.883 56.3686 179.866 56.5545C179.847 56.7404 179.757 56.9115 179.613 57.0306C179.468 57.1495 179.284 57.2063 179.099 57.1887C177.87 57.0767 176.632 57.2318 175.47 57.6435C174.307 58.0552 173.248 58.7137 172.363 59.5737C172.231 59.6997 172.055 59.7693 171.872 59.7676Z" fill="#2B1927"/>
<path d="M183.662 76.2452C181.714 76.2519 179.781 75.9167 177.949 75.2547C177.86 75.2244 177.779 75.1768 177.71 75.1147C177.639 75.0527 177.583 74.9772 177.543 74.8929C177.503 74.8086 177.48 74.7172 177.475 74.6239C177.472 74.5307 177.485 74.4375 177.517 74.3499C177.549 74.2622 177.6 74.1819 177.663 74.1137C177.727 74.0454 177.804 73.9905 177.889 73.9524C177.974 73.9142 178.066 73.8933 178.159 73.8911C178.252 73.8889 178.345 73.9054 178.433 73.9396C180.37 74.6334 182.426 74.9361 184.481 74.8303C186.536 74.7245 188.55 74.2121 190.406 73.3229C190.488 73.2826 190.578 73.2589 190.671 73.2533C190.762 73.2478 190.855 73.2604 190.942 73.2905C191.029 73.3204 191.11 73.3673 191.178 73.4285C191.247 73.4895 191.304 73.5635 191.344 73.6464C191.384 73.7293 191.408 73.8192 191.413 73.9112C191.42 74.0031 191.406 74.0952 191.376 74.1823C191.347 74.2695 191.3 74.3498 191.238 74.4187C191.178 74.4877 191.104 74.5439 191.02 74.5842C188.725 75.6868 186.209 76.2547 183.662 76.2452Z" fill="#2B1927"/>
<path d="M184.006 79.2795C183.8 79.2795 183.599 79.2795 183.408 79.2795H183.071C182.885 79.2795 182.707 79.2056 182.575 79.0742C182.445 78.9428 182.371 78.7646 182.371 78.5787C182.371 78.3929 182.445 78.2147 182.575 78.0832C182.707 77.9517 182.885 77.878 183.071 77.878H183.421C184.139 77.8919 185.12 77.9083 185.648 77.6653C185.731 77.6224 185.824 77.5968 185.918 77.5901C186.011 77.5834 186.106 77.5958 186.195 77.6266C186.285 77.6573 186.367 77.7058 186.437 77.7689C186.507 77.8322 186.564 77.9089 186.603 77.9945C186.643 78.0802 186.665 78.173 186.667 78.2672C186.671 78.3616 186.654 78.4554 186.621 78.5433C186.586 78.6313 186.534 78.7114 186.469 78.7789C186.402 78.8464 186.323 78.8999 186.237 78.9362C185.603 79.2257 184.769 79.2795 184.006 79.2795Z" fill="#2B1927"/>
<path d="M173.042 73.872C172.939 73.8721 172.837 73.8498 172.744 73.8066C172.652 73.7634 172.569 73.7004 172.504 73.622C171.785 72.767 172.212 71.5501 172.579 70.9661C172.677 70.8084 172.834 70.6964 173.016 70.6545C173.196 70.6126 173.387 70.6445 173.545 70.743C173.703 70.8415 173.814 70.9986 173.856 71.1797C173.898 71.3609 173.865 71.5512 173.768 71.709C173.618 71.9426 173.403 72.5125 173.576 72.7181C173.635 72.7884 173.68 72.8698 173.709 72.9576C173.736 73.0453 173.747 73.1378 173.738 73.2295C173.731 73.3213 173.705 73.4106 173.663 73.4924C173.62 73.5741 173.562 73.6468 173.492 73.7061C173.366 73.8128 173.206 73.8715 173.042 73.872Z" fill="#2B1927"/>
<path d="M152.994 173.129C152.894 173.13 152.794 173.109 152.703 173.069C152.611 173.028 152.53 172.969 152.463 172.894C152.397 172.818 152.348 172.73 152.318 172.635C152.288 172.538 152.28 172.437 152.293 172.337C153.639 162.146 155.923 147.344 156.383 144.374C152.179 142.469 148.105 141.235 144.151 140.041C142.048 139.404 140.051 138.801 138.175 138.133C138.079 138.099 137.992 138.045 137.919 137.973C137.846 137.901 137.79 137.815 137.755 137.719C137.719 137.624 137.704 137.522 137.712 137.42C137.719 137.318 137.749 137.219 137.799 137.131L140.216 132.783C137.099 129.32 135.513 124.542 135.746 119.28C136.007 113.22 138.691 107.245 142.753 103.685C146.182 100.677 149.843 99.289 153.629 99.567C157.879 99.8777 161.339 102.272 163.145 104.407C163.195 104.463 163.26 104.545 163.344 104.641C166.93 109.079 174.765 116.215 186.923 114.276C195.774 112.875 201.45 106.306 203.408 102.653C205.184 99.3428 209.263 96.6774 214.06 95.6916C219.091 94.6592 223.987 95.6707 227.486 98.4644C234.624 104.166 235.706 111.947 235.716 116.077C235.727 120.515 234.48 124.811 232.705 126.637C233.571 129.35 234.712 132.676 234.723 132.712C234.781 132.879 234.774 133.062 234.701 133.225C234.629 133.386 234.499 133.516 234.336 133.585C232.079 134.541 229.026 135.505 226.074 136.44C223.38 137.29 220.603 138.165 218.468 139.028C219.189 142.625 222.952 161.399 223.482 164.87C223.5 164.978 223.49 165.089 223.455 165.194C223.422 165.298 223.364 165.392 223.286 165.47C223.209 165.548 223.114 165.607 223.01 165.642C222.905 165.676 222.794 165.685 222.686 165.669C213.206 164.232 198.725 164.38 183.943 166.066C169.878 167.67 158.157 170.343 153.342 173.04C153.236 173.101 153.116 173.13 152.994 173.129ZM139.435 137.094C141.05 137.647 142.765 138.163 144.573 138.708C148.53 139.903 153.015 141.259 157.47 143.336C157.606 143.4 157.72 143.507 157.791 143.64C157.862 143.775 157.888 143.928 157.864 144.078C157.841 144.241 155.389 159.962 153.874 171.21C165.533 165.783 201.356 161.336 221.941 164.153C220.966 158.582 217.021 138.957 216.977 138.745C216.946 138.587 216.969 138.423 217.044 138.28C217.12 138.137 217.242 138.025 217.391 137.962C219.644 137.005 222.698 136.043 225.651 135.108C228.311 134.267 231.055 133.4 233.184 132.539C232.782 131.371 231.896 128.738 231.233 126.631C231.191 126.496 231.191 126.351 231.233 126.217C231.275 126.081 231.356 125.962 231.467 125.874C232.868 124.753 234.331 120.938 234.319 116.075C234.319 112.197 233.299 104.891 226.61 99.5553C223.438 97.0208 218.967 96.1122 214.342 97.0605C209.942 97.9645 206.227 100.359 204.643 103.309C202.553 107.203 196.524 114.171 187.136 115.666C174.289 117.715 166.024 110.193 162.246 105.528C162.172 105.435 162.113 105.362 162.071 105.313C160.436 103.393 157.336 101.242 153.522 100.964C150.121 100.712 146.809 101.985 143.669 104.736C139.882 108.056 137.381 113.65 137.147 119.341C136.914 124.411 138.497 128.981 141.585 132.205C141.689 132.312 141.756 132.45 141.774 132.599C141.794 132.747 141.766 132.898 141.693 133.029L139.435 137.094Z" fill="#2B1927"/>
<path d="M157.854 144.085L156.472 143.851C156.472 143.851 157.967 134.851 158.649 130.689C158.679 130.505 158.783 130.341 158.935 130.234C159.085 130.125 159.274 130.082 159.458 130.114C159.64 130.145 159.804 130.247 159.912 130.399C160.02 130.551 160.063 130.738 160.032 130.922C159.35 135.08 157.854 144.085 157.854 144.085Z" fill="#2B1927"/>
<path d="M217.655 139.307C217.492 139.307 217.336 139.251 217.21 139.148C217.085 139.045 216.999 138.902 216.968 138.743C215.9 133.37 214.651 127.881 213.247 122.436C213.2 122.255 213.227 122.064 213.322 121.904C213.416 121.743 213.571 121.627 213.752 121.581C213.932 121.534 214.123 121.561 214.283 121.656C214.443 121.75 214.559 121.905 214.606 122.085C216.007 127.556 217.271 133.064 218.343 138.471C218.364 138.575 218.36 138.68 218.335 138.782C218.309 138.883 218.261 138.977 218.193 139.057C218.126 139.137 218.041 139.201 217.946 139.245C217.851 139.289 217.748 139.31 217.643 139.307H217.655Z" fill="#2B1927"/>
<path d="M158.282 138.643C158.189 138.641 158.095 138.623 158.007 138.586C154.905 137.245 147.07 134.052 141.301 133.384C141.209 133.374 141.119 133.344 141.039 133.3C140.958 133.254 140.886 133.194 140.828 133.122C140.771 133.05 140.728 132.966 140.704 132.877C140.678 132.788 140.67 132.694 140.68 132.603C140.691 132.511 140.72 132.422 140.765 132.34C140.81 132.26 140.87 132.189 140.943 132.131C141.016 132.073 141.098 132.031 141.187 132.005C141.277 131.979 141.37 131.972 141.462 131.983C147.418 132.683 155.405 135.923 158.563 137.29C158.71 137.354 158.831 137.467 158.905 137.61C158.979 137.753 159.001 137.918 158.969 138.075C158.936 138.233 158.85 138.374 158.725 138.476C158.6 138.577 158.444 138.633 158.282 138.633V138.643Z" fill="#2B1927"/>
<path d="M216.27 132.936C216.108 132.936 215.952 132.882 215.827 132.782C215.701 132.681 215.614 132.54 215.58 132.382C215.546 132.226 215.567 132.062 215.64 131.917C215.712 131.774 215.833 131.661 215.98 131.594C220.913 129.37 227.979 126.832 231.695 125.754C231.785 125.726 231.879 125.715 231.973 125.724C232.066 125.732 232.157 125.759 232.24 125.802C232.323 125.847 232.396 125.907 232.455 125.98C232.514 126.053 232.559 126.137 232.584 126.227C232.61 126.317 232.618 126.412 232.607 126.504C232.596 126.598 232.566 126.688 232.52 126.769C232.473 126.851 232.411 126.922 232.337 126.979C232.263 127.036 232.176 127.077 232.086 127.1C228.413 128.161 221.434 130.668 216.556 132.868C216.467 132.91 216.369 132.934 216.27 132.936Z" fill="#2B1927"/>
<path d="M228.603 127.845C228.477 127.846 228.353 127.812 228.246 127.747C228.088 127.65 227.974 127.496 227.931 127.316C227.887 127.136 227.916 126.946 228.012 126.787C229.698 123.94 230.082 119.611 229.467 117.231C229.426 117.053 229.457 116.866 229.552 116.71C229.647 116.554 229.8 116.441 229.976 116.396C230.154 116.35 230.341 116.376 230.499 116.467C230.658 116.558 230.774 116.707 230.824 116.883C231.525 119.59 231.112 124.304 229.217 127.502C229.155 127.608 229.065 127.696 228.956 127.756C228.849 127.817 228.727 127.847 228.603 127.845Z" fill="#2B1927"/>
<path d="M224.758 129.391C224.646 129.393 224.535 129.366 224.435 129.315C224.335 129.263 224.248 129.188 224.184 129.097C224.119 129.005 224.077 128.899 224.061 128.788C224.046 128.677 224.057 128.564 224.094 128.458C224.77 126.482 225.038 124.389 224.882 122.307C224.875 122.215 224.886 122.123 224.916 122.035C224.944 121.947 224.99 121.866 225.05 121.796C225.171 121.655 225.344 121.568 225.53 121.554C225.716 121.54 225.9 121.6 226.04 121.722C226.182 121.843 226.27 122.016 226.283 122.202C226.451 124.474 226.159 126.757 225.424 128.913C225.377 129.052 225.288 129.174 225.168 129.26C225.049 129.346 224.906 129.393 224.758 129.391Z" fill="#2B1927"/>
<path d="M145.126 133.347C144.956 133.348 144.791 133.288 144.663 133.177C144.533 133.064 144.449 132.91 144.426 132.741C143.91 129.015 143.989 125.23 144.66 121.529C144.674 121.436 144.706 121.347 144.754 121.266C144.803 121.186 144.867 121.116 144.944 121.061C145.02 121.006 145.107 120.967 145.199 120.946C145.29 120.925 145.385 120.923 145.478 120.94C145.57 120.957 145.659 120.992 145.738 121.044C145.816 121.096 145.884 121.163 145.937 121.241C145.988 121.319 146.024 121.407 146.041 121.5C146.059 121.592 146.057 121.687 146.038 121.779C145.395 125.337 145.322 128.976 145.823 132.557C145.835 132.649 145.831 132.741 145.807 132.83C145.784 132.92 145.744 133.004 145.689 133.077C145.633 133.151 145.563 133.212 145.484 133.259C145.404 133.306 145.316 133.336 145.225 133.349L145.126 133.347Z" fill="#2B1927"/>
<path d="M147.893 134.821H147.856C147.669 134.811 147.496 134.728 147.371 134.59C147.246 134.452 147.182 134.271 147.192 134.084C147.387 131.352 147.879 128.65 148.659 126.023C148.715 125.847 148.84 125.699 149.005 125.614C149.17 125.529 149.362 125.511 149.539 125.568C149.717 125.625 149.864 125.749 149.95 125.915C150.035 126.079 150.051 126.271 149.994 126.449C149.253 128.961 148.783 131.545 148.593 134.157C148.583 134.337 148.506 134.505 148.375 134.629C148.245 134.753 148.072 134.821 147.893 134.821Z" fill="#2B1927"/>
<path d="M262.083 83.9491H261.983C259.647 83.6127 257.86 82.2672 256.828 80.0621C255.365 76.932 255.762 72.5871 257.05 70.5058C259.344 66.7894 262.679 66.1797 265.033 66.8478C265.976 67.1106 266.843 67.5906 267.567 68.2493C269.041 66.2475 270.85 65.2523 272.705 65.4462C274.73 65.6471 276.582 67.2402 277.536 69.6065C278.138 71.129 278.31 72.7878 278.034 74.4016C277.758 76.0155 277.045 77.5226 275.971 78.7587C275.847 78.8904 275.678 78.9696 275.498 78.9797C275.318 78.9899 275.142 78.9302 275.004 78.8132C274.867 78.6962 274.78 78.5308 274.762 78.3513C274.743 78.1719 274.795 77.9923 274.905 77.85C276.796 75.6332 277.293 72.7483 276.237 70.1298C275.48 68.247 274.074 66.988 272.568 66.8384C271.131 66.696 269.729 67.5626 268.508 69.3473C269.201 70.384 269.567 71.6042 269.561 72.8511C269.561 74.8086 268.889 75.451 268.325 75.6541C267.763 75.8574 267.108 75.6168 266.643 75.0165C265.807 73.9397 265.555 71.8092 266.797 69.478C266.204 68.8766 265.464 68.4403 264.651 68.212C262.783 67.6841 260.126 68.212 258.244 71.2487C257.168 72.9889 256.842 76.7965 258.098 79.4758C258.93 81.258 260.306 82.2998 262.184 82.5685C262.369 82.5818 262.543 82.6685 262.665 82.8093C262.788 82.9502 262.848 83.1337 262.834 83.3196C262.821 83.5054 262.734 83.6783 262.594 83.8003C262.453 83.9223 262.27 83.9833 262.083 83.97V83.9491ZM267.725 70.7909C267.123 72.2952 267.4 73.3487 267.524 73.6874C267.591 73.9137 267.721 74.1167 267.897 74.2737C267.996 74.1452 268.169 73.7317 268.169 72.8371C268.171 72.1309 268.019 71.4327 267.725 70.7909Z" fill="#FEB300"/>
<path d="M302.951 76.2989C302.809 76.2988 302.67 76.2556 302.554 76.1751C302.4 76.07 302.295 75.9085 302.26 75.7258C302.227 75.5431 302.267 75.3543 302.371 75.201C302.604 74.8506 302.857 74.3461 302.645 73.9442C302.432 73.5426 301.839 73.2739 301.208 73.2692C300.942 73.2596 300.677 73.3166 300.437 73.435C300.287 73.6336 300.113 73.8125 299.918 73.9677C299.792 74.0663 299.636 74.1185 299.474 74.1156C299.314 74.1125 299.16 74.0544 299.036 73.9509C298.914 73.8476 298.83 73.7051 298.8 73.5474C298.77 73.3896 298.795 73.2263 298.87 73.0846C299.014 72.819 299.215 72.5872 299.456 72.4049C299.783 71.9099 299.974 71.3381 300.01 70.7465C300.032 70.288 299.952 69.8305 299.776 69.4064C299.6 68.9824 299.334 68.6024 298.993 68.2937C298.769 68.0621 298.501 67.875 298.206 67.7424C298.084 68.1139 297.942 68.4781 297.78 68.8333C297.383 69.6859 295.303 73.9489 293.362 74.1054C293.091 74.1251 292.819 74.07 292.577 73.9465C292.336 73.823 292.131 73.6357 291.988 73.4047C290.919 71.8327 292.252 69.0669 294.172 67.4691C295.151 66.6539 296.186 66.2241 297.172 66.1797C297.686 63.7433 297.579 60.5315 295.45 58.9617C293.874 57.7937 291.731 58.0273 289.715 59.5737C286.59 61.9681 284.308 67.3079 286.678 73.379C286.712 73.4647 286.729 73.5562 286.727 73.6483C286.724 73.7403 286.704 73.8309 286.667 73.9153C286.63 73.9995 286.577 74.0757 286.511 74.1394C286.444 74.2031 286.366 74.2531 286.28 74.2865C286.195 74.3199 286.104 74.3362 286.011 74.3342C285.919 74.3323 285.829 74.3123 285.745 74.2753C285.66 74.2383 285.583 74.1851 285.52 74.1186C285.456 74.0523 285.407 73.974 285.374 73.8883C282.738 67.1444 285.333 61.1644 288.86 58.4595C291.363 56.544 294.205 56.3034 296.28 57.8335C298.849 59.7326 299.173 63.4397 298.564 66.3923C299.092 66.5915 299.57 66.9032 299.965 67.3056C300.447 67.7502 300.826 68.2947 301.076 68.9013C301.325 69.5077 301.439 70.1614 301.409 70.8165C301.388 71.1695 301.327 71.519 301.227 71.8583C302.395 71.8583 303.439 72.4282 303.887 73.2855C304.121 73.7527 304.401 74.7082 303.528 75.9836C303.464 76.0793 303.379 76.1581 303.279 76.2131C303.178 76.2681 303.066 76.2976 302.951 76.2989ZM296.761 67.6256C296.136 67.7992 295.557 68.1113 295.069 68.5389C293.456 69.8798 292.664 71.898 293.147 72.6082C293.171 72.6485 293.203 72.6834 293.24 72.7109C293.675 72.7763 295.214 71.0198 296.511 68.2423C296.594 68.0555 296.678 67.8499 296.761 67.6256Z" fill="#FEB300"/>
<path d="M279.577 85.5771C279.445 85.5774 279.315 85.5402 279.203 85.47C279.091 85.3997 279.002 85.2992 278.944 85.1801C278.626 84.4742 278.58 83.6756 278.816 82.9382C279.052 82.2007 279.551 81.5764 280.219 81.1855C280.581 80.9931 280.976 80.8746 281.383 80.8369C281.791 80.7993 282.2 80.8432 282.591 80.966C282.534 80.3497 282.591 79.7281 282.759 79.1323C283.161 77.7307 284.254 76.6586 285.544 76.3923C286.958 76.1026 288.544 76.8292 289.404 78.1652C290.106 79.2514 290.339 80.688 290.08 82.2064C290.068 82.3003 290.038 82.391 289.99 82.4728C289.942 82.5547 289.879 82.6259 289.802 82.6826C289.727 82.739 289.64 82.7796 289.548 82.8018C289.456 82.8239 289.361 82.8272 289.267 82.8114C289.173 82.7956 289.085 82.7611 289.005 82.7099C288.926 82.6586 288.857 82.5919 288.803 82.5135C288.75 82.4352 288.715 82.3468 288.696 82.2538C288.678 82.161 288.679 82.0654 288.699 81.9728C288.902 80.8048 288.732 79.7186 288.232 78.9361C287.687 78.0928 286.678 77.6047 285.832 77.7798C285.06 77.9387 284.368 78.6441 284.112 79.5341C283.812 80.5712 284.076 81.6482 284.345 82.3676C284.407 82.53 284.407 82.7096 284.343 82.8715C284.28 83.0334 284.159 83.1661 284.003 83.244C283.848 83.3217 283.669 83.3388 283.501 83.2922C283.335 83.2454 283.191 83.1383 283.098 82.9913C282.874 82.6316 282.521 82.3715 282.111 82.2647C281.702 82.1579 281.267 82.2125 280.897 82.4173C280.525 82.6221 280.248 82.9614 280.12 83.3651C279.993 83.7687 280.025 84.2061 280.211 84.5867C280.261 84.6935 280.285 84.8115 280.279 84.9298C280.271 85.0481 280.236 85.1627 280.173 85.2631C280.11 85.3633 280.022 85.4461 279.919 85.5034C279.815 85.5608 279.698 85.591 279.579 85.5911L279.577 85.5771Z" fill="#FEB300"/>
<path d="M319.743 82.2743C318.699 82.2743 317.77 82.0617 317.211 81.6272C317.134 81.5725 317.069 81.5029 317.02 81.4223C316.97 81.3418 316.937 81.2521 316.923 81.1586C316.91 81.0652 316.915 80.9698 316.938 80.8784C316.963 80.7869 317.005 80.7013 317.063 80.6266C317.121 80.5518 317.192 80.4896 317.275 80.4436C317.358 80.3976 317.449 80.3687 317.543 80.3587C317.636 80.3487 317.731 80.358 317.823 80.3856C317.913 80.4133 317.996 80.4591 318.068 80.52C318.681 80.9872 320.97 81.0713 322.758 80.2C323.64 79.7725 324.689 78.9666 324.697 77.551C324.697 76.0444 323.296 75.1403 322.47 74.734C322.34 74.6732 322.212 74.6148 322.084 74.5611C320.49 75.1124 319.092 75.2268 318.454 74.9535C318.288 74.8917 318.141 74.7843 318.032 74.6434C317.924 74.5026 317.857 74.334 317.84 74.157C317.82 73.9316 317.865 73.7052 317.967 73.5035C318.069 73.3017 318.226 73.1325 318.418 73.0147C319.222 72.4939 320.727 72.6246 322.086 73.0732C323.176 72.6437 324.194 72.0463 325.099 71.3025C326.968 69.7467 329.019 66.8806 328.078 62.0546C327.529 59.2305 325.334 57.1492 322.21 56.4624C320.237 56.0423 318.184 56.2098 316.306 56.9442C314.427 57.6787 312.805 58.9478 311.64 60.5947C311.587 60.6708 311.519 60.7356 311.441 60.7853C311.362 60.8352 311.276 60.8688 311.184 60.8846C311.092 60.9004 310.999 60.8978 310.909 60.8772C310.818 60.8565 310.733 60.818 310.657 60.7641C310.582 60.7101 310.518 60.6418 310.469 60.5628C310.42 60.484 310.388 60.3962 310.373 60.3046C310.358 60.2129 310.362 60.1195 310.384 60.0293C310.405 59.9391 310.445 59.8542 310.5 59.7794C311.825 57.9085 313.669 56.4672 315.804 55.6338C317.94 54.8006 320.272 54.6119 322.514 55.0912C326.202 55.8925 328.799 58.3965 329.46 61.7859C330.547 67.3595 328.117 70.6625 325.889 72.4728C325.23 73.0019 324.518 73.4622 323.766 73.8463C325.287 74.7807 326.102 76.0935 326.102 77.5604C326.09 79.2235 325.123 80.6088 323.375 81.4591C322.239 81.9936 321 82.2718 319.743 82.2743Z" fill="#FEB300"/>
<path d="M275.56 58.8497C274.191 58.8497 272.757 57.871 271.612 56.1354C269.457 52.8651 268.796 47.3383 272.182 42.4095C274.681 38.7655 278.409 36.7169 282.151 36.9224C284.803 37.0719 286.971 38.3707 288.098 40.4895C288.935 42.0905 289.288 43.9005 289.112 45.6985C289.79 45.509 290.506 45.501 291.186 45.6753C291.868 45.8495 292.491 46.1999 292.994 46.6913C293.34 46.9884 293.616 47.3567 293.805 47.7707C293.995 48.1848 294.092 48.635 294.091 49.0902C294.067 50.1087 293.509 51.1576 292.56 51.9658C292.418 52.0863 292.235 52.1456 292.05 52.1307C291.865 52.1159 291.693 52.0279 291.572 51.8863C291.451 51.7447 291.392 51.5611 291.407 51.3759C291.422 51.1905 291.509 51.0188 291.651 50.8983C292.286 50.3563 292.677 49.6695 292.691 49.0576C292.686 48.7995 292.626 48.5456 292.513 48.3135C292.4 48.0815 292.237 47.877 292.037 47.7145C291.147 46.8828 290.073 46.7333 288.842 47.2706C288.515 48.5507 287.959 49.6228 287.337 50.2932C286.487 51.2066 285.777 51.0852 285.429 50.931C285.227 50.8412 285.058 50.6931 284.941 50.5056C284.825 50.3181 284.768 50.1001 284.777 49.8798C284.777 48.8099 286.083 47.2332 287.615 46.3292C287.956 44.5667 287.691 42.7408 286.863 41.1482C285.968 39.4733 284.223 38.4431 282.074 38.3216C278.869 38.1418 275.534 40.0129 273.335 43.2014C270.32 47.5953 270.886 52.4773 272.783 55.3669C273.716 56.7941 274.915 57.6 275.819 57.4225C276.002 57.3869 276.19 57.4251 276.344 57.529C276.499 57.6328 276.606 57.7936 276.64 57.976C276.676 58.1586 276.638 58.3476 276.534 58.5018C276.431 58.6561 276.27 58.7627 276.088 58.7983C275.913 58.8312 275.736 58.8485 275.56 58.8497Z" fill="#FEB300"/>
<path d="M307.153 56.2987C306.989 56.2994 306.83 56.2427 306.704 56.1382C306.577 56.0339 306.492 55.8885 306.461 55.7274C306.431 55.5664 306.459 55.3996 306.538 55.2565C306.618 55.1134 306.746 55.0027 306.899 54.9439C307.252 54.8061 307.396 54.3926 307.412 54.0772C307.429 53.762 307.333 53.3345 306.999 53.1593C306.665 52.9841 306.256 53.1593 306.008 53.3414C305.761 53.5237 305.502 53.888 305.588 54.2572C305.631 54.4381 305.6 54.6285 305.503 54.7866C305.404 54.9448 305.247 55.0576 305.067 55.1004C304.886 55.1432 304.696 55.1122 304.537 55.0146C304.379 54.9169 304.267 54.7604 304.224 54.5794C304.137 54.1501 304.173 53.7049 304.33 53.2954C304.485 52.8861 304.754 52.5291 305.104 52.2662C305.455 52.0034 305.873 51.8451 306.309 51.81C306.746 51.7748 307.184 51.8643 307.571 52.0678C307.96 52.2713 308.282 52.5806 308.501 52.9598C308.721 53.3391 308.828 53.7727 308.811 54.2104C308.793 54.6481 308.653 55.0722 308.404 55.433C308.156 55.794 307.81 56.0771 307.408 56.2496C307.327 56.2817 307.241 56.2983 307.153 56.2987Z" fill="#FEB300"/>
<path d="M252.011 65.5373C251.221 65.5135 250.47 65.1913 249.909 64.6357C248.848 63.6242 248.566 62.169 249.152 60.7441C250.053 58.5624 251.971 58.1022 253.34 58.3755C254.709 58.6488 255.618 59.5668 255.618 60.625C255.618 60.8108 255.544 60.9891 255.412 61.1204C255.281 61.2519 255.103 61.3258 254.918 61.3258C254.731 61.3258 254.553 61.2519 254.422 61.1204C254.29 60.9891 254.216 60.8108 254.216 60.625C254.216 60.2605 253.711 59.8775 253.069 59.7489C252.18 59.5715 251.025 59.8821 250.448 61.279C249.933 62.5334 250.575 63.3346 250.876 63.615C251.343 64.0611 251.974 64.2479 252.378 64.0587C252.546 63.9838 252.736 63.9777 252.909 64.0416C253.08 64.1056 253.221 64.2345 253.298 64.4006C253.376 64.5668 253.386 64.757 253.325 64.9302C253.265 65.1035 253.138 65.246 252.974 65.3272C252.672 65.4678 252.344 65.5396 252.011 65.5373Z" fill="#FEB300"/>
<path d="M282.743 60.9216C282.632 60.9214 282.523 60.895 282.425 60.8445C281.958 60.5788 281.553 60.2199 281.231 59.7903C280.909 59.3607 280.68 58.8696 280.556 58.3474C280.449 57.8823 280.449 57.3987 280.556 56.9335C280.663 56.4684 280.877 56.034 281.178 55.6636C281.405 55.379 281.692 55.1489 282.02 54.9897C282.347 54.8304 282.706 54.7462 283.07 54.7431C283.612 54.7372 284.151 54.8472 284.648 55.066C285.145 55.2847 285.589 55.6071 285.952 56.0116C286.07 56.1507 286.131 56.3309 286.118 56.5136C286.106 56.6962 286.024 56.8668 285.887 56.9889C285.75 57.111 285.571 57.1749 285.388 57.1667C285.206 57.1587 285.033 57.0794 284.907 56.9458C284.683 56.6941 284.408 56.4924 284.1 56.3535C283.792 56.2147 283.458 56.142 283.122 56.14C282.962 56.138 282.806 56.1709 282.66 56.2363C282.516 56.3017 282.388 56.398 282.284 56.5184C282.111 56.7273 281.988 56.9734 281.925 57.2375C281.862 57.5017 281.862 57.7769 281.923 58.0414C281.999 58.3625 282.137 58.6651 282.332 58.9318C282.526 59.1985 282.771 59.4239 283.054 59.5948C283.193 59.6666 283.305 59.7834 283.371 59.9263C283.436 60.0693 283.452 60.2302 283.415 60.3831C283.378 60.5361 283.29 60.6721 283.167 60.7693C283.044 60.8666 282.891 60.9194 282.733 60.9193L282.743 60.9216Z" fill="#FEB300"/>
<path d="M235.426 151.679C235.284 151.679 235.145 151.636 235.028 151.554C234.911 151.474 234.821 151.358 234.77 151.225C233.602 148.095 232.51 144.368 231.553 141.079C230.924 138.925 230.334 136.893 229.769 135.187C229.735 135.099 229.721 135.004 229.724 134.911C229.729 134.817 229.752 134.724 229.792 134.639C229.833 134.554 229.891 134.478 229.961 134.416C230.031 134.353 230.114 134.306 230.204 134.277C230.293 134.247 230.388 134.235 230.482 134.243C230.575 134.251 230.667 134.277 230.75 134.321C230.834 134.364 230.908 134.425 230.968 134.497C231.027 134.571 231.071 134.655 231.098 134.745C231.672 136.477 232.266 138.521 232.899 140.686C233.897 144.11 234.927 147.652 236.082 150.731C236.116 150.817 236.13 150.908 236.128 151.001C236.124 151.093 236.103 151.183 236.066 151.267C236.028 151.351 235.974 151.427 235.906 151.49C235.839 151.553 235.76 151.603 235.674 151.635C235.595 151.664 235.511 151.679 235.426 151.679Z" fill="#2B1927"/>
<path d="M259.102 120.571C259.009 120.571 258.916 120.552 258.83 120.515C258.658 120.443 258.524 120.305 258.454 120.133C258.385 119.961 258.386 119.768 258.459 119.597C259.68 116.717 261.2 113.131 264.009 110.973C264.197 110.826 264.393 110.688 264.588 110.548C265.12 110.219 265.593 109.805 265.989 109.322C266.353 108.81 266.478 107.964 266.099 107.598C265.461 106.976 264.051 108.093 263.889 108.221C262.501 109.356 261.239 110.636 260.121 112.038C260.064 112.112 259.994 112.175 259.913 112.221C259.833 112.267 259.743 112.297 259.65 112.309C259.558 112.32 259.464 112.313 259.374 112.288C259.284 112.262 259.2 112.219 259.127 112.161C259.054 112.103 258.994 112.031 258.95 111.949C258.905 111.867 258.877 111.777 258.867 111.684C258.858 111.591 258.867 111.498 258.894 111.408C258.921 111.319 258.967 111.236 259.026 111.165C260.201 109.683 261.533 108.332 262.997 107.135C264.571 105.853 266.092 105.647 267.066 106.591C268.04 107.535 267.844 109.118 267.123 110.135C266.642 110.746 266.061 111.272 265.405 111.69C265.223 111.819 265.041 111.947 264.866 112.083C262.35 114.017 260.97 117.273 259.75 120.144C259.696 120.271 259.606 120.379 259.491 120.455C259.376 120.531 259.241 120.572 259.102 120.571Z" fill="#2B1927"/>
<path d="M136.576 160.908C136.495 160.907 136.417 160.893 136.341 160.866C136.167 160.802 136.026 160.671 135.948 160.502C135.869 160.333 135.862 160.141 135.926 159.967L143.454 139.441C143.522 139.27 143.653 139.134 143.819 139.058C143.987 138.983 144.177 138.977 144.348 139.04C144.521 139.103 144.66 139.231 144.739 139.396C144.818 139.562 144.829 139.751 144.77 139.924L137.227 160.451C137.178 160.584 137.089 160.698 136.973 160.781C136.856 160.862 136.717 160.907 136.576 160.908Z" fill="#2B1927"/>
<path d="M100.093 190.011C99.9749 190.011 99.8576 189.999 99.7421 189.976C99.496 189.925 99.2635 189.822 99.0601 189.674C98.8567 189.526 98.6871 189.338 98.5626 189.119C98.3989 188.839 98.2938 188.53 98.2536 188.209C98.2135 187.887 98.2391 187.562 98.329 187.251C98.6209 186.297 99.3894 185.636 99.9501 185.148C111.782 175.011 124.585 166.068 138.175 158.449C138.337 158.358 138.529 158.335 138.708 158.386C138.887 158.436 139.039 158.556 139.129 158.718C139.22 158.88 139.242 159.073 139.192 159.252C139.141 159.431 139.021 159.582 138.86 159.672C125.352 167.245 112.628 176.135 100.87 186.211C100.312 186.69 99.8356 187.129 99.6744 187.652C99.6045 187.902 99.6364 188.168 99.7632 188.395C99.7883 188.443 99.8232 188.487 99.8658 188.521C99.9084 188.556 99.9579 188.582 100.011 188.596C100.286 188.652 100.674 188.362 100.98 188.129C101.447 187.753 101.915 187.361 102.407 186.944C104.912 184.826 107.747 182.426 111.188 182.831C111.374 182.853 111.544 182.948 111.659 183.094C111.775 183.241 111.828 183.429 111.806 183.615C111.784 183.8 111.689 183.97 111.542 184.086C111.395 184.202 111.208 184.254 111.022 184.233C108.189 183.896 105.71 185.994 103.314 188.023C102.847 188.425 102.344 188.843 101.859 189.232C101.373 189.619 100.775 190.011 100.093 190.011Z" fill="#2B1927"/>
<path d="M284.674 151.679C284.491 151.679 284.315 151.607 284.183 151.479C284.053 151.35 283.977 151.176 283.974 150.992L283.376 119.133C283.376 118.949 283.447 118.773 283.575 118.642C283.705 118.511 283.879 118.436 284.063 118.432H284.076C284.26 118.432 284.436 118.504 284.567 118.632C284.698 118.761 284.773 118.935 284.777 119.119L285.385 150.976C285.386 151.069 285.37 151.161 285.335 151.249C285.301 151.335 285.249 151.414 285.185 151.48C285.12 151.547 285.041 151.6 284.956 151.636C284.869 151.672 284.777 151.69 284.684 151.69L284.674 151.679Z" fill="white"/>
<path d="M293.95 145.874C293.765 145.874 293.586 145.8 293.454 145.669C293.324 145.537 293.25 145.359 293.25 145.173C293.017 132.529 293.126 118.31 293.208 106.888C293.221 104.732 293.239 102.657 293.25 100.69C293.25 100.505 293.324 100.326 293.454 100.195C293.586 100.064 293.765 99.9898 293.95 99.9898C294.136 99.9898 294.314 100.064 294.446 100.195C294.578 100.326 294.651 100.505 294.651 100.69C294.651 102.66 294.624 104.734 294.609 106.892C294.527 118.308 294.43 132.515 294.651 145.141C294.653 145.234 294.636 145.326 294.601 145.414C294.568 145.5 294.516 145.579 294.451 145.646C294.386 145.712 294.308 145.765 294.222 145.801C294.136 145.837 294.044 145.855 293.95 145.855V145.874Z" fill="white"/>
<path d="M303.163 134.274H303.14C303.047 134.271 302.957 134.25 302.873 134.211C302.789 134.174 302.714 134.12 302.651 134.052C302.588 133.986 302.539 133.907 302.507 133.82C302.474 133.734 302.459 133.642 302.463 133.55L303.644 98.9946C303.648 98.9026 303.669 98.8122 303.707 98.7283C303.745 98.6446 303.8 98.5691 303.866 98.5063C303.934 98.4436 304.013 98.3946 304.099 98.3624C304.186 98.3301 304.277 98.3152 304.369 98.3184C304.462 98.3216 304.552 98.3429 304.636 98.3811C304.72 98.4194 304.795 98.4736 304.858 98.541C304.921 98.6083 304.97 98.6874 305.002 98.7737C305.034 98.8599 305.049 98.9517 305.045 99.0437L303.864 133.598C303.858 133.781 303.78 133.952 303.649 134.078C303.518 134.204 303.345 134.274 303.163 134.274Z" fill="white"/>
<path d="M314.422 148.35H314.383C314.197 148.34 314.023 148.257 313.899 148.118C313.775 147.979 313.711 147.798 313.722 147.611C314.585 132.078 316.699 103.538 316.721 103.251C316.727 103.159 316.752 103.069 316.794 102.986C316.836 102.904 316.893 102.831 316.963 102.77C317.033 102.71 317.115 102.665 317.202 102.636C317.29 102.607 317.382 102.596 317.474 102.602C317.566 102.609 317.656 102.634 317.739 102.676C317.82 102.717 317.894 102.775 317.955 102.845C318.014 102.915 318.061 102.996 318.089 103.084C318.117 103.171 318.128 103.264 318.122 103.356C318.101 103.641 315.99 132.169 315.125 147.689C315.115 147.868 315.036 148.037 314.906 148.16C314.775 148.282 314.601 148.351 314.422 148.35Z" fill="white"/>
<path d="M273.922 103.389C273.741 103.389 273.567 103.319 273.436 103.194C273.307 103.069 273.229 102.899 273.222 102.718L272.815 93.7085C272.81 93.6164 272.824 93.5244 272.855 93.4377C272.886 93.351 272.934 93.2713 272.997 93.2033C273.059 93.1351 273.134 93.0798 273.217 93.0407C273.3 93.0016 273.39 92.9793 273.483 92.9751H273.515C273.696 92.9748 273.87 93.0445 274.001 93.1695C274.13 93.2944 274.208 93.4648 274.216 93.6454L274.625 102.664C274.634 102.85 274.567 103.031 274.443 103.168C274.317 103.305 274.143 103.387 273.957 103.396L273.922 103.389Z" fill="white"/>
<path d="M275.667 146.049C275.487 146.05 275.313 145.98 275.183 145.856C275.052 145.732 274.974 145.562 274.967 145.382L273.144 108.658C273.135 108.473 273.201 108.291 273.325 108.153C273.451 108.015 273.625 107.933 273.811 107.924C273.997 107.915 274.179 107.98 274.317 108.105C274.455 108.23 274.536 108.405 274.546 108.591L276.368 145.314C276.376 145.499 276.311 145.68 276.186 145.818C276.062 145.955 275.888 146.038 275.702 146.048L275.667 146.049Z" fill="white"/>
<path d="M92.4217 217.872C92.298 217.872 92.1763 217.84 92.0693 217.778C91.9621 217.715 91.8734 217.627 91.8119 217.519C88.2379 211.275 81.5339 203.405 76.7499 198.858C76.6806 198.795 76.6246 198.718 76.5852 198.634C76.5456 198.549 76.5235 198.458 76.5199 198.364C76.5163 198.271 76.5315 198.178 76.5646 198.091C76.5975 198.003 76.6476 197.923 76.712 197.855C76.7763 197.787 76.8535 197.733 76.9391 197.696C77.0247 197.659 77.117 197.639 77.2103 197.637C77.3038 197.635 77.3966 197.653 77.4832 197.689C77.5697 197.723 77.6485 197.776 77.7147 197.841C82.5687 202.459 89.3943 210.456 93.0289 216.821C93.0905 216.927 93.1228 217.048 93.1228 217.171C93.1228 217.295 93.0904 217.416 93.0288 217.522C92.9673 217.628 92.8787 217.717 92.7722 217.778C92.6656 217.84 92.5446 217.872 92.4217 217.872Z" fill="#2B1927"/>
<path d="M99.9127 216.004C99.7932 216.002 99.6758 215.971 99.5714 215.914C99.4672 215.856 99.3796 215.77 99.3171 215.669C94.6172 208.079 84.8531 197.407 77.7682 190.703C77.6331 190.575 77.5544 190.398 77.5494 190.212C77.5444 190.027 77.6134 189.846 77.7414 189.711C77.8693 189.576 78.0457 189.497 78.2317 189.492C78.4175 189.487 78.598 189.556 78.733 189.684C85.8786 196.459 95.7431 207.235 100.508 214.933C100.574 215.039 100.61 215.161 100.613 215.286C100.616 215.41 100.586 215.534 100.525 215.643C100.464 215.752 100.375 215.843 100.268 215.906C100.16 215.97 100.038 216.004 99.9127 216.004Z" fill="#2B1927"/>
<path d="M101.557 209.218C101.433 209.219 101.31 209.188 101.202 209.126C101.093 209.066 101.003 208.977 100.941 208.869C97.7451 203.263 88.8079 192.999 85.1031 189.778C85.0275 189.72 84.9646 189.646 84.9182 189.563C84.8718 189.479 84.8431 189.387 84.8336 189.292C84.8242 189.197 84.8342 189.101 84.8632 189.011C84.8922 188.92 84.9395 188.836 85.0022 188.763C85.0649 188.691 85.1416 188.632 85.2277 188.591C85.3137 188.55 85.4074 188.526 85.5028 188.522C85.5981 188.519 85.6934 188.535 85.7825 188.569C85.8717 188.603 85.9529 188.656 86.0212 188.722C89.7959 191.992 98.899 202.45 102.16 208.176C102.221 208.282 102.253 208.402 102.252 208.526C102.252 208.649 102.219 208.77 102.158 208.876C102.096 208.982 102.007 209.07 101.901 209.131C101.794 209.193 101.673 209.225 101.55 209.224L101.557 209.218Z" fill="#2B1927"/>
<path d="M98.2752 184.022C98.1717 184.022 98.0694 184 97.9758 183.955C97.882 183.912 97.7993 183.847 97.7333 183.768C96.5653 182.347 93.1502 179.144 91.2208 177.647C91.0739 177.533 90.9786 177.366 90.9555 177.181C90.9326 176.996 90.9839 176.809 91.0981 176.663C91.2124 176.516 91.3804 176.421 91.565 176.397C91.7496 176.374 91.9359 176.426 92.0828 176.541C94.1056 178.112 97.5651 181.369 98.8124 182.875C98.8969 182.977 98.9506 183.102 98.9674 183.233C98.984 183.365 98.9629 183.499 98.9067 183.619C98.8504 183.738 98.7613 183.841 98.6494 183.912C98.5377 183.984 98.4079 184.022 98.2752 184.022Z" fill="#2B1927"/>
<path d="M68.6652 170.971C68.5264 170.972 68.3908 170.931 68.2753 170.854C68.1598 170.777 68.0697 170.667 68.0165 170.539C67.9632 170.412 67.9491 170.27 67.976 170.135C68.0029 169.999 68.0696 169.873 68.1677 169.776C70.4148 167.524 72.7881 165.18 74.4466 163.723L71.1319 163.695C70.946 163.695 70.7678 163.621 70.6363 163.489C70.505 163.359 70.4311 163.18 70.4311 162.994C70.4311 162.809 70.505 162.63 70.6363 162.499C70.7678 162.367 70.946 162.293 71.1319 162.293L76.4298 162.337C76.5821 162.339 76.7298 162.389 76.8507 162.483C76.9715 162.576 77.0589 162.705 77.0995 162.852C77.1402 162.999 77.1319 163.154 77.0759 163.296C77.02 163.438 76.9194 163.557 76.7895 163.636C75.4416 164.459 70.8703 169.042 69.1487 170.766C69.0203 170.894 68.8469 170.968 68.6652 170.971Z" fill="white"/>
<path d="M117.537 39.1835H62.1643C61.9786 39.1835 61.8003 39.1097 61.6689 38.9783C61.5374 38.8468 61.4637 38.6686 61.4637 38.4827V22.5308C61.4637 22.3449 61.5374 22.1667 61.6689 22.0352C61.8003 21.9039 61.9786 21.83 62.1643 21.83H117.526C117.711 21.83 117.89 21.9039 118.021 22.0352C118.153 22.1667 118.226 22.3449 118.226 22.5308V38.4827C118.226 38.6666 118.154 38.8431 118.025 38.9742C117.896 39.1053 117.721 39.1804 117.537 39.1835ZM62.8768 37.7819H116.837V23.2316H62.8651L62.8768 37.7819Z" fill="#FEB300"/>
<path d="M111.788 114.884H68.3405C68.1546 114.884 67.9764 114.81 67.8449 114.678C67.7134 114.547 67.6397 114.369 67.6397 114.183L67.2239 85.9603C67.2215 85.8707 67.2374 85.7817 67.2706 85.6985C68.0204 71.0758 77.8149 59.6531 89.651 59.6531C101.487 59.6531 111.282 71.0734 112.029 85.6985C112.059 85.7728 112.075 85.8521 112.076 85.9321L112.492 114.155C112.492 114.341 112.418 114.519 112.286 114.65C112.155 114.782 111.977 114.856 111.791 114.856L111.788 114.884ZM69.0272 113.482H111.074L110.672 86.1915C110.649 86.1268 110.636 86.059 110.632 85.9906C110.006 72.0125 100.786 61.0639 89.644 61.0639C78.5017 61.0639 69.2841 72.0125 68.6582 86C68.6556 86.0619 68.6446 86.1232 68.6254 86.1821L69.0272 113.482Z" fill="#FEB300"/>
<path d="M76.21 176.18C75.7542 176.196 75.2998 176.12 74.8737 175.957C74.4477 175.794 74.0586 175.548 73.7293 175.232C72.8837 174.383 72.5918 173.116 72.9094 171.658C73.274 170.189 74.0456 168.852 75.1355 167.801C77.6116 165.326 80.8748 164.707 82.5661 166.4C84.2573 168.093 83.6382 171.352 81.1645 173.831C79.6252 175.36 77.7868 176.18 76.21 176.18ZM80.097 166.85C78.894 166.85 77.3687 167.552 76.126 168.789C75.2252 169.654 74.5851 170.753 74.2782 171.961C74.0657 172.938 74.2222 173.748 74.7198 174.247C75.8153 175.342 78.31 174.697 80.1694 172.844C82.0289 170.992 82.6688 168.493 81.5709 167.398C81.3742 167.213 81.1425 167.069 80.8893 166.975C80.6361 166.881 80.3667 166.839 80.097 166.85Z" fill="white"/>
<path d="M63.099 185.793C62.9131 185.793 62.735 185.719 62.6038 185.587L59.1723 182.156C59.0956 182.079 59.0377 181.986 59.0031 181.883C58.9685 181.781 58.9582 181.671 58.9728 181.564C58.9875 181.457 59.027 181.354 59.0879 181.265C59.1488 181.175 59.2296 181.101 59.3241 181.048L65.3788 177.646C65.5406 177.557 65.731 177.535 65.9086 177.585C66.0862 177.636 66.2366 177.755 66.327 177.916C66.4175 178.077 66.4408 178.267 66.3918 178.445C66.3429 178.624 66.2256 178.774 66.0655 178.867L60.8167 181.817L63.5965 184.597C63.6945 184.695 63.7611 184.82 63.7881 184.956C63.815 185.093 63.801 185.233 63.7477 185.361C63.6944 185.49 63.6043 185.598 63.4888 185.676C63.3734 185.752 63.2376 185.793 63.099 185.793Z" fill="white"/>
<path d="M59.8074 189.088C59.6689 189.088 59.5335 189.048 59.4184 188.97C59.3032 188.894 59.2135 188.784 59.1605 188.656C59.1076 188.529 59.0937 188.387 59.1207 188.251C59.1477 188.115 59.2143 187.991 59.3122 187.893L65.4487 181.756C65.58 181.624 65.7582 181.55 65.9442 181.55C66.1302 181.55 66.3085 181.624 66.4403 181.755C66.5719 181.887 66.646 182.065 66.6462 182.251C66.6464 182.437 66.5727 182.615 66.4414 182.747L60.2955 188.884C60.166 189.013 59.9908 189.087 59.8074 189.088Z" fill="white"/>
<path d="M160.992 78.2215C162.196 78.2215 163.171 77.2456 163.171 76.042C163.171 74.8383 162.196 73.8626 160.992 73.8626C159.788 73.8626 158.813 74.8383 158.813 76.042C158.813 77.2456 159.788 78.2215 160.992 78.2215Z" fill="#FF5E6C"/>
<path d="M160.992 78.9224C160.422 78.9224 159.865 78.7533 159.391 78.4365C158.917 78.1198 158.547 77.6695 158.329 77.1429C158.111 76.6161 158.054 76.0366 158.165 75.4774C158.276 74.9182 158.551 74.4047 158.954 74.0015C159.358 73.5984 159.871 73.3239 160.43 73.2126C160.989 73.1014 161.569 73.1585 162.096 73.3767C162.622 73.5948 163.073 73.9644 163.39 74.4383C163.706 74.9124 163.875 75.4696 163.875 76.0398C163.875 76.8042 163.571 77.5374 163.031 78.078C162.49 78.6186 161.757 78.9224 160.992 78.9224ZM160.992 74.5612C160.7 74.5612 160.413 74.6481 160.169 74.8109C159.926 74.9737 159.736 75.2052 159.624 75.4759C159.512 75.7466 159.482 76.0446 159.54 76.3319C159.597 76.6192 159.739 76.8832 159.946 77.0901C160.153 77.2972 160.417 77.438 160.705 77.4949C160.992 77.5517 161.29 77.5222 161.56 77.4097C161.832 77.2972 162.062 77.107 162.225 76.8632C162.388 76.6194 162.474 76.3328 162.473 76.0398C162.474 75.8449 162.436 75.6518 162.362 75.4716C162.288 75.2914 162.178 75.1276 162.041 74.9895C161.903 74.8515 161.741 74.742 161.56 74.6674C161.38 74.5926 161.187 74.5541 160.992 74.5541V74.5612Z" fill="#FF5E6C"/>
<path d="M177.022 64.3134C177.188 64.3134 177.323 64.1785 177.323 64.012C177.323 63.8456 177.188 63.7107 177.022 63.7107C176.855 63.7107 176.721 63.8456 176.721 64.012C176.721 64.1785 176.855 64.3134 177.022 64.3134Z" fill="#2B1927"/>
<path d="M177.022 65.0164C176.823 65.0164 176.628 64.9576 176.463 64.8472C176.298 64.7368 176.169 64.5799 176.093 64.3964C176.018 64.2129 175.997 64.0109 176.036 63.816C176.074 63.6213 176.171 63.4422 176.311 63.3017C176.452 63.1612 176.631 63.0656 176.825 63.0269C177.02 62.9881 177.221 63.008 177.405 63.084C177.589 63.16 177.746 63.2888 177.857 63.454C177.966 63.6192 178.026 63.8133 178.026 64.012C178.026 64.2784 177.919 64.5339 177.732 64.7223C177.543 64.9106 177.288 65.0164 177.022 65.0164ZM177.022 63.6148C176.941 63.6148 176.865 63.6384 176.8 63.6824C176.733 63.7263 176.682 63.7889 176.652 63.862C176.622 63.9351 176.613 64.0156 176.629 64.0931C176.645 64.1707 176.684 64.2419 176.739 64.2976C176.796 64.3534 176.867 64.3912 176.945 64.4064C177.023 64.4216 177.103 64.4133 177.176 64.3827C177.249 64.3521 177.31 64.3006 177.355 64.2346C177.398 64.1686 177.421 64.0912 177.42 64.012C177.42 63.9597 177.41 63.9079 177.39 63.8595C177.371 63.8112 177.341 63.7673 177.304 63.7304C177.266 63.6935 177.223 63.6643 177.173 63.6444C177.125 63.6246 177.073 63.6146 177.022 63.6148Z" fill="#2B1927"/>
<path d="M204.016 103.69C203.926 103.689 203.837 103.673 203.754 103.641C200.894 102.491 197.358 101.882 194.235 101.342C189.433 100.513 185.636 99.8589 185.046 97.558C185.02 97.468 185.012 97.3739 185.023 97.281C185.036 97.1881 185.065 97.0985 185.112 97.0174C185.158 96.9363 185.221 96.8654 185.295 96.8088C185.37 96.752 185.455 96.711 185.545 96.6877C185.636 96.6645 185.73 96.6597 185.823 96.6735C185.915 96.6872 186.004 96.7194 186.084 96.7681C186.164 96.8168 186.233 96.8809 186.288 96.9568C186.343 97.0327 186.381 97.1188 186.402 97.21C186.769 98.6325 190.687 99.3123 194.473 99.9617C197.664 100.513 201.28 101.13 204.284 102.34C204.435 102.401 204.559 102.512 204.636 102.655C204.714 102.798 204.74 102.963 204.709 103.122C204.678 103.282 204.593 103.426 204.467 103.529C204.342 103.633 204.184 103.689 204.022 103.69H204.016Z" fill="#2B1927"/>
<path d="M185.631 101.417H185.601C185.416 101.409 185.241 101.328 185.115 101.191C184.989 101.055 184.924 100.874 184.931 100.688C185.073 97.2755 185.02 93.0265 184.978 89.9243C184.957 88.2191 184.938 86.8713 184.961 86.1612C184.967 85.9956 185.03 85.8373 185.141 85.7141C185.252 85.591 185.402 85.5111 185.566 85.4885C191.247 84.7106 194.405 83.0918 197.222 79.5201C199.148 77.0815 200.413 73.566 200.883 69.3566C200.894 69.2561 200.926 69.1592 200.978 69.0725C201.031 68.9859 201.101 68.9114 201.184 68.8544C201.268 68.7978 201.361 68.7597 201.46 68.7428C201.56 68.7258 201.661 68.7305 201.759 68.7562C204.178 69.3987 206.347 68.9898 207.865 67.6164C208.495 67.0597 208.978 66.3556 209.271 65.567C209.563 64.7784 209.657 63.9296 209.542 63.0963C209.308 61.6411 208.238 60.3447 206.687 59.6275C205.137 58.9104 203.459 58.9267 202.195 59.6976C202.089 59.7614 201.969 59.7962 201.845 59.7983C201.722 59.8004 201.599 59.7698 201.492 59.7095C201.384 59.6493 201.294 59.5615 201.231 59.4553C201.168 59.349 201.133 59.2279 201.133 59.1043C201.118 58.7772 200.642 55.4182 200.343 53.3766C200.33 53.2855 200.335 53.1927 200.357 53.1035C200.38 53.0142 200.42 52.9303 200.476 52.8566C200.53 52.7828 200.599 52.7207 200.678 52.6737C200.758 52.6266 200.846 52.5956 200.936 52.5824C201.027 52.5692 201.121 52.574 201.21 52.5967C201.299 52.6194 201.382 52.6595 201.456 52.7146C201.53 52.7696 201.592 52.8387 201.639 52.9179C201.687 52.9969 201.718 53.0846 201.73 53.1758C201.904 54.3577 202.237 56.6796 202.417 58.0461C204.014 57.5071 205.759 57.6179 207.276 58.3544C209.25 59.2678 210.614 60.9566 210.925 62.8721C211.076 63.9357 210.963 65.0205 210.593 66.0293C210.223 67.0382 209.609 67.9398 208.806 68.6535C207.096 70.2069 204.765 70.7745 202.179 70.2887C201.614 74.4186 200.287 77.8967 198.322 80.3892C195.393 84.1056 192.002 85.9299 186.353 86.7919C186.353 87.5324 186.353 88.6162 186.379 89.9057C186.421 93.0242 186.478 97.2966 186.33 100.747C186.322 100.927 186.246 101.097 186.115 101.222C185.985 101.347 185.812 101.417 185.631 101.417Z" fill="#2B1927"/>
<path d="M201.578 65.07C201.411 65.0699 201.248 65.0094 201.121 64.8996C200.994 64.7898 200.911 64.6381 200.887 64.472C200.862 64.306 200.898 64.1365 200.988 63.9947C201.076 63.8527 201.215 63.7478 201.375 63.699C201.544 63.6475 205.492 62.4445 206.281 62.26C206.462 62.2182 206.652 62.25 206.81 62.3486C206.968 62.4471 207.08 62.6044 207.122 62.7855C207.163 62.9667 207.132 63.1571 207.034 63.3149C206.935 63.4726 206.777 63.5846 206.596 63.6264C205.991 63.7643 203.177 64.6122 201.772 65.0397C201.709 65.0589 201.644 65.0691 201.578 65.07Z" fill="#2B1927"/>
<path d="M194.314 59.7676C194.13 59.7675 193.954 59.6953 193.823 59.5667C192.939 58.7074 191.88 58.0493 190.718 57.6377C189.555 57.226 188.318 57.0705 187.089 57.1818C186.903 57.1997 186.718 57.143 186.574 57.0244C186.429 56.9056 186.338 56.7346 186.321 56.5487C186.302 56.3628 186.359 56.1775 186.478 56.0333C186.597 55.8892 186.767 55.7981 186.954 55.7802C188.385 55.6497 189.828 55.8307 191.184 56.3105C192.538 56.7903 193.774 57.5577 194.805 58.5599C194.904 58.6573 194.971 58.7821 195 58.9184C195.028 59.0546 195.015 59.1961 194.963 59.3248C194.91 59.4536 194.82 59.5637 194.705 59.6414C194.589 59.719 194.453 59.7604 194.314 59.7605V59.7676Z" fill="#2B1927"/>
<path d="M193.146 73.872C192.981 73.8715 192.822 73.8128 192.696 73.7061C192.624 73.6468 192.566 73.5741 192.525 73.4924C192.483 73.4106 192.457 73.3213 192.448 73.2295C192.441 73.1378 192.451 73.0453 192.479 72.9576C192.507 72.8698 192.552 72.7884 192.611 72.7181C192.784 72.5125 192.569 71.9495 192.42 71.709C192.321 71.5512 192.289 71.3609 192.331 71.1797C192.373 70.9986 192.485 70.8415 192.643 70.743C192.801 70.6445 192.991 70.6126 193.172 70.6545C193.353 70.6964 193.51 70.8084 193.609 70.9661C193.975 71.5501 194.403 72.767 193.684 73.622C193.617 73.7004 193.536 73.7634 193.442 73.8066C193.35 73.8498 193.249 73.8721 193.146 73.872Z" fill="#2B1927"/>
<path d="M205.195 78.2215C206.398 78.2215 207.374 77.2456 207.374 76.042C207.374 74.8383 206.398 73.8626 205.195 73.8626C203.991 73.8626 203.015 74.8383 203.015 76.042C203.015 77.2456 203.991 78.2215 205.195 78.2215Z" fill="#FF5E6C"/>
<path d="M205.195 78.9224C204.625 78.9227 204.067 78.7541 203.593 78.4377C203.118 78.1212 202.749 77.6711 202.529 77.1445C202.311 76.6179 202.254 76.0382 202.365 75.4789C202.476 74.9196 202.75 74.4058 203.153 74.0023C203.557 73.599 204.07 73.3243 204.629 73.2128C205.188 73.1014 205.768 73.1584 206.295 73.3764C206.821 73.5946 207.272 73.964 207.589 74.4381C207.906 74.9122 208.074 75.4695 208.074 76.0398C208.074 76.8037 207.771 77.5362 207.231 78.0765C206.691 78.6169 205.958 78.9211 205.195 78.9224ZM205.195 74.5612C204.901 74.5607 204.615 74.6473 204.371 74.8098C204.127 74.9724 203.937 75.2036 203.824 75.4743C203.712 75.745 203.683 76.043 203.739 76.3305C203.797 76.618 203.938 76.8821 204.145 77.0894C204.352 77.2966 204.616 77.4377 204.904 77.4948C205.191 77.5519 205.489 77.5223 205.761 77.4099C206.031 77.2976 206.263 77.1074 206.424 76.8634C206.587 76.6196 206.673 76.3329 206.673 76.0398C206.673 75.6467 206.518 75.2696 206.242 74.9911C205.964 74.7125 205.588 74.5554 205.195 74.5541V74.5612Z" fill="#FF5E6C"/>
<path d="M189.166 64.3134C189.331 64.3134 189.467 64.1785 189.467 64.012C189.467 63.8456 189.331 63.7107 189.166 63.7107C189 63.7107 188.864 63.8456 188.864 64.012C188.864 64.1785 189 64.3134 189.166 64.3134Z" fill="#2B1927"/>
<path d="M189.166 65.0164C188.966 65.0169 188.773 64.9584 188.608 64.8483C188.441 64.7382 188.313 64.5815 188.236 64.398C188.16 64.2145 188.14 64.0125 188.178 63.8175C188.217 63.6225 188.312 63.4433 188.452 63.3026C188.593 63.1618 188.772 63.066 188.966 63.027C189.161 62.9881 189.364 63.0078 189.547 63.0838C189.731 63.1597 189.888 63.2885 189.999 63.4538C190.108 63.6189 190.168 63.8133 190.168 64.012C190.168 64.2778 190.062 64.5326 189.874 64.7208C189.687 64.9089 189.431 65.0152 189.166 65.0164ZM189.166 63.6148C189.086 63.6145 189.01 63.6375 188.943 63.6812C188.876 63.725 188.826 63.7873 188.795 63.8604C188.764 63.9335 188.757 64.0139 188.772 64.0916C188.786 64.1693 188.825 64.2408 188.881 64.2968C188.937 64.3527 189.008 64.3909 189.086 64.4061C189.164 64.4216 189.244 64.4134 189.318 64.383C189.391 64.3524 189.452 64.3008 189.497 64.2348C189.54 64.1687 189.563 64.0912 189.563 64.012C189.563 63.9066 189.521 63.8056 189.446 63.7311C189.372 63.6568 189.271 63.6148 189.166 63.6148Z" fill="#2B1927"/>
<path d="M260.05 58.5811C259.904 58.5811 259.762 58.5362 259.644 58.4526C259.525 58.3689 259.437 58.2506 259.388 58.1139C258.947 56.8828 259.58 55.3668 260.803 54.7362C261.461 54.4157 262.209 54.3336 262.921 54.5041C263.631 54.6745 264.261 55.0868 264.702 55.6706C264.81 55.822 264.853 56.0101 264.823 56.1934C264.792 56.3768 264.689 56.5403 264.538 56.6481C264.386 56.7559 264.198 56.7991 264.015 56.7682C263.831 56.7373 263.668 56.6349 263.56 56.4835C263.319 56.1693 262.979 55.947 262.594 55.8535C262.209 55.76 261.803 55.8009 261.446 55.9695C260.845 56.2779 260.512 57.0534 260.708 57.6257C260.745 57.7312 260.756 57.8442 260.741 57.9551C260.725 58.066 260.685 58.1715 260.619 58.263C260.555 58.3546 260.47 58.4293 260.37 58.481C260.272 58.5326 260.161 58.5598 260.05 58.56V58.5811Z" fill="#FEB300"/>
<path d="M310.075 71.2323C309.965 71.2324 309.856 71.2068 309.759 71.1573C309.66 71.1078 309.575 71.0359 309.51 70.9475C309.445 70.8591 309.401 70.7565 309.383 70.6482C309.364 70.5398 309.372 70.4285 309.405 70.3236C309.478 70.0897 309.485 69.8402 309.426 69.6026C309.367 69.3648 309.244 69.1478 309.07 68.9753C308.896 68.8027 308.677 68.6813 308.439 68.6242C308.201 68.5669 307.951 68.5763 307.718 68.651C307.542 68.7046 307.352 68.6863 307.189 68.6003C307.025 68.5144 306.903 68.3676 306.847 68.1919C306.792 68.016 306.808 67.8254 306.892 67.6613C306.975 67.4971 307.121 67.3727 307.295 67.315C307.772 67.1635 308.283 67.1455 308.769 67.263C309.256 67.3807 309.701 67.6292 310.056 67.9817C310.411 68.3343 310.664 68.7775 310.785 69.2633C310.907 69.749 310.894 70.2586 310.746 70.7371C310.701 70.8805 310.613 71.006 310.492 71.0951C310.371 71.1843 310.225 71.2324 310.075 71.2323Z" fill="#FEB300"/>
<path d="M304.716 84.7782C304.573 84.779 304.43 84.7656 304.289 84.7385C303.71 84.622 303.188 84.3093 302.813 83.8532C302.437 83.397 302.23 82.8254 302.226 82.2345C302.226 82.0486 302.3 81.8704 302.432 81.7389C302.563 81.6076 302.741 81.5337 302.928 81.5337C303.113 81.5337 303.291 81.6076 303.422 81.7389C303.554 81.8704 303.628 82.0486 303.628 82.2345C303.627 82.4973 303.718 82.7523 303.886 82.9549C304.054 83.1574 304.287 83.2945 304.545 83.3424C304.804 83.3902 305.071 83.3457 305.299 83.2167C305.529 83.0876 305.705 82.8822 305.798 82.6363C305.827 82.5469 305.875 82.4644 305.937 82.3936C306 82.3229 306.075 82.2654 306.16 82.2247C306.245 82.184 306.338 82.1607 306.432 82.1564C306.525 82.1521 306.619 82.1669 306.708 82.1997C306.795 82.2325 306.877 82.2828 306.945 82.3474C307.014 82.4122 307.068 82.49 307.106 82.5764C307.143 82.6627 307.163 82.7557 307.164 82.8499C307.165 82.944 307.147 83.0375 307.111 83.1244C306.924 83.6082 306.594 84.0244 306.168 84.3193C305.741 84.6142 305.235 84.774 304.716 84.7782Z" fill="#FEB300"/>
<path d="M187.369 46.5464C195.945 51.5663 201.027 53.2645 201.027 53.2645C200.546 49.0879 194.981 40.8841 182.723 40.8841C173.526 40.8841 165.36 46.7847 164.417 56.0816C174.234 52.809 187.584 46.8173 187.369 46.5464Z" fill="#FEB300"/>
<path d="M164.426 56.7869C164.328 56.7874 164.231 56.7673 164.141 56.7277C164.051 56.6882 163.97 56.6302 163.904 56.5576C163.837 56.4848 163.788 56.3991 163.757 56.3057C163.726 56.2125 163.715 56.1138 163.725 56.016C164.66 46.8452 172.646 40.1879 182.728 40.1879C195.822 40.1879 201.259 49.1134 201.728 53.1849C201.741 53.3021 201.725 53.4206 201.681 53.5298C201.636 53.639 201.565 53.7351 201.474 53.8095C201.382 53.8837 201.274 53.9338 201.158 53.9549C201.042 53.976 200.922 53.9673 200.81 53.9301C200.602 53.86 195.715 52.2038 187.421 47.3895C187.047 47.6068 186.433 47.9151 185.396 48.4033C183.907 49.1041 181.906 49.994 179.758 50.9098C174.321 53.2456 168.81 55.3643 164.643 56.7495C164.574 56.7731 164.5 56.7856 164.426 56.7869ZM182.732 41.5895C173.795 41.5895 166.633 47.1956 165.274 55.0584C174.318 51.9422 185.597 46.9223 186.83 46.1094L186.852 46.0814C186.961 45.9601 187.107 45.8796 187.267 45.8541C187.427 45.8286 187.591 45.8594 187.732 45.9413C193.789 49.4871 198.119 51.3723 200.081 52.1548C199.548 50.4145 198.239 48.1067 195.843 46.0417C193.487 44.0118 189.301 41.5895 182.732 41.5895ZM186.701 46.7284C186.724 46.8138 186.765 46.8933 186.82 46.962C186.765 46.8921 186.725 46.8119 186.701 46.7261V46.7284Z" fill="#FEB300"/>
<path d="M290.909 155.04C286.953 155.04 283.404 154.854 280.397 154.597C270.387 153.746 263.925 151.957 263.859 151.938C263.679 151.889 263.528 151.769 263.438 151.606C263.346 151.445 263.323 151.254 263.373 151.073C263.423 150.895 263.542 150.743 263.704 150.652C263.867 150.56 264.058 150.538 264.237 150.588C264.49 150.658 289.806 157.574 318.966 150.299C319.056 150.273 319.15 150.267 319.243 150.279C319.336 150.29 319.425 150.321 319.506 150.368C319.586 150.416 319.658 150.479 319.713 150.553C319.77 150.628 319.811 150.713 319.833 150.805C319.855 150.895 319.86 150.99 319.845 151.082C319.83 151.175 319.798 151.263 319.749 151.342C319.7 151.422 319.634 151.492 319.558 151.546C319.481 151.599 319.395 151.638 319.304 151.658C308.904 154.251 299.054 155.04 290.909 155.04Z" fill="white"/>
<path d="M190.455 168.946C190.166 168.946 189.883 168.861 189.642 168.699C189.402 168.539 189.214 168.311 189.105 168.043C188.994 167.776 188.965 167.482 189.021 167.198C189.077 166.914 189.217 166.654 189.421 166.449C189.626 166.245 189.886 166.107 190.17 166.05C190.454 165.993 190.747 166.023 191.015 166.132C191.283 166.243 191.511 166.431 191.671 166.671C191.831 166.912 191.918 167.194 191.918 167.484C191.916 167.871 191.762 168.243 191.489 168.516C191.215 168.792 190.842 168.946 190.455 168.946ZM190.455 167.423C190.439 167.423 190.424 167.43 190.412 167.441C190.401 167.452 190.395 167.468 190.395 167.484C190.395 167.55 190.515 167.55 190.515 167.484C190.515 167.468 190.509 167.452 190.498 167.441C190.487 167.43 190.471 167.423 190.455 167.423Z" fill="white"/>
<path d="M191.217 175.968C190.927 175.968 190.645 175.882 190.404 175.722C190.164 175.56 189.976 175.332 189.865 175.066C189.754 174.798 189.726 174.504 189.783 174.221C189.838 173.937 189.978 173.676 190.182 173.472C190.387 173.267 190.647 173.128 190.931 173.071C191.215 173.014 191.51 173.044 191.776 173.155C192.044 173.265 192.272 173.452 192.432 173.693C192.594 173.933 192.679 174.216 192.679 174.506C192.679 174.893 192.525 175.264 192.25 175.539C191.976 175.813 191.604 175.967 191.217 175.968ZM191.217 174.445C191.2 174.445 191.185 174.451 191.174 174.462C191.162 174.474 191.156 174.49 191.156 174.506C191.156 174.571 191.278 174.571 191.278 174.506C191.278 174.49 191.271 174.474 191.259 174.462C191.248 174.451 191.233 174.445 191.217 174.445Z" fill="white"/>
<path d="M143.978 140.067L153.824 145.818L154.891 143.25L143.978 140.067Z" fill="#2B1927"/>
<path d="M153.823 146.519C153.698 146.519 153.576 146.485 153.467 146.423L143.624 140.672C143.477 140.585 143.366 140.448 143.313 140.287C143.26 140.124 143.268 139.948 143.336 139.791C143.402 139.634 143.525 139.507 143.68 139.435C143.834 139.361 144.009 139.347 144.173 139.394L155.087 142.578C155.18 142.605 155.268 142.654 155.343 142.716C155.419 142.781 155.479 142.858 155.521 142.947C155.564 143.036 155.587 143.133 155.59 143.232C155.594 143.331 155.575 143.428 155.538 143.519L154.47 146.09C154.432 146.181 154.374 146.265 154.3 146.333C154.227 146.4 154.14 146.452 154.045 146.484C153.973 146.506 153.898 146.519 153.823 146.519ZM149.249 142.335L153.485 144.807L153.952 143.704L149.249 142.335Z" fill="#2B1927"/>
<path d="M217.655 138.607L230.799 137.432L230.435 134.965L217.655 138.607Z" fill="#2B1927"/>
<path d="M217.655 139.307C217.485 139.309 217.321 139.248 217.192 139.137C217.064 139.026 216.98 138.872 216.957 138.704C216.933 138.535 216.972 138.365 217.065 138.223C217.158 138.08 217.3 137.978 217.463 137.932L230.241 134.293C230.336 134.266 230.437 134.258 230.536 134.273C230.635 134.288 230.728 134.324 230.812 134.378C230.896 134.431 230.968 134.502 231.022 134.586C231.075 134.67 231.111 134.764 231.125 134.863L231.491 137.329C231.504 137.424 231.498 137.519 231.473 137.612C231.449 137.704 231.405 137.789 231.347 137.864C231.288 137.94 231.214 138.001 231.13 138.047C231.047 138.091 230.954 138.12 230.859 138.128L217.718 139.296L217.655 139.307ZM229.858 135.858L224.977 137.248L229.991 136.799L229.858 135.858Z" fill="#2B1927"/>
</g>
<defs>
<clipPath id="clip0_2007_187">
<rect width="370" height="198" fill="white"/>
</clipPath>
</defs>
</svg>
