<svg width="382" height="191" viewBox="0 0 382 191" fill="none" xmlns="http://www.w3.org/2000/svg">
<g clip-path="url(#clip0_2008_265)">
<path d="M78.2159 250.036C78.0477 250.036 77.8819 250.006 77.7259 249.948C77.5553 249.882 77.3993 249.784 77.2652 249.66C77.1336 249.536 77.0263 249.387 76.9507 249.222C76.8751 249.056 76.8337 248.875 76.8289 248.695C76.824 248.512 76.8532 248.33 76.9191 248.161C82.7501 232.61 95.2067 210.708 106.193 191.387C109.75 185.13 113.119 179.227 116.108 173.785C119.615 167.415 121.561 161.609 123.613 155.46C125.827 148.86 128.111 142.028 132.511 134.061C132.599 133.902 132.718 133.762 132.859 133.649C133.003 133.535 133.167 133.451 133.342 133.401C133.515 133.351 133.698 133.336 133.881 133.356C134.061 133.377 134.237 133.433 134.395 133.521C134.554 133.609 134.695 133.728 134.807 133.871C134.922 134.013 135.005 134.176 135.056 134.351C135.105 134.526 135.119 134.709 135.1 134.89C135.08 135.07 135.024 135.245 134.934 135.404C130.656 143.145 128.411 149.852 126.241 156.342C124.145 162.61 122.165 168.528 118.536 175.119C115.525 180.58 112.163 186.493 108.604 192.751C97.6615 211.985 85.2657 233.787 79.5176 249.134C79.4177 249.399 79.2397 249.629 79.0081 249.789C78.7741 249.95 78.4987 250.036 78.2159 250.036Z" fill="#FF5E6C"/>
<path d="M132.506 111.522L134.727 153.771C136.358 152.387 138.162 151.14 140.143 149.728C141.833 148.804 143.015 149.474 143.939 149.936C145.784 151.32 146.606 153.319 144.4 156.448C141.445 159.73 137.935 161.604 135.314 164.914L139.805 250.399C139.805 250.399 187.286 266.408 247.034 250.399L257.653 111.522C257.653 111.522 204.323 121.082 132.506 111.522Z" fill="#FF5E6C"/>
<path d="M192.515 258.882C185.287 258.887 178.064 258.519 170.873 257.781C151.603 255.787 139.853 251.88 139.363 251.715C139.102 251.625 138.876 251.456 138.712 251.235C138.547 251.013 138.452 250.75 138.439 250.474L133.947 164.988C133.932 164.655 134.037 164.327 134.242 164.065C135.726 162.305 137.399 160.712 139.229 159.315C140.687 158.176 142.059 156.931 143.334 155.59C145.126 153.01 144.258 151.92 143.222 151.127C142.342 150.665 141.791 150.452 140.914 150.919L140.092 151.505C138.505 152.631 137.004 153.697 135.665 154.833C135.468 155 135.229 155.109 134.973 155.148C134.717 155.186 134.456 155.152 134.22 155.05C133.981 154.948 133.779 154.781 133.63 154.569C133.484 154.357 133.398 154.108 133.384 153.85L131.163 111.605C131.153 111.402 131.187 111.2 131.263 111.011C131.341 110.823 131.458 110.654 131.607 110.516C131.755 110.378 131.933 110.275 132.128 110.214C132.321 110.152 132.528 110.134 132.728 110.161C203.485 119.577 256.927 110.262 257.475 110.161C257.682 110.123 257.897 110.134 258.099 110.193C258.304 110.251 258.492 110.355 258.648 110.496C258.804 110.638 258.926 110.814 259.006 111.01C259.084 111.206 259.116 111.418 259.101 111.629L248.458 250.506C248.436 250.791 248.326 251.064 248.141 251.286C247.958 251.505 247.71 251.664 247.432 251.739C229.517 256.506 211.054 258.907 192.515 258.882ZM141.14 249.37C144.234 250.294 155.208 253.387 171.249 255.034C196.218 257.574 221.438 255.641 245.73 249.329L256.159 113.161C246.408 114.666 197.195 121.29 133.976 113.101L135.97 151.016C136.767 150.42 137.596 149.834 138.444 149.225L139.337 148.592L139.478 148.505C141.74 147.272 143.434 148.126 144.451 148.634L144.558 148.689C144.631 148.725 144.704 148.768 144.77 148.819C146.403 150.046 148.68 152.77 145.531 157.238C145.499 157.281 145.467 157.323 145.431 157.362C144.049 158.835 142.557 160.199 140.965 161.443C139.432 162.617 138.013 163.93 136.723 165.366L141.14 249.37Z" fill="#FF5E6C"/>
<path d="M135.29 104.954H135.092C130.475 104.289 126.943 101.631 124.903 97.2733C122.012 91.0881 122.797 82.5024 125.342 78.3898C129.876 71.0461 136.467 69.8412 141.121 71.1614C142.983 71.6807 144.697 72.6292 146.128 73.9309C149.041 69.9752 152.617 68.0087 156.283 68.3919C160.286 68.7889 163.948 71.9369 165.832 76.6127C167.021 79.6213 167.363 82.899 166.817 86.0879C166.271 89.2771 164.862 92.2553 162.738 94.6977C162.495 94.958 162.161 95.1145 161.805 95.1345C161.449 95.1547 161.1 95.0367 160.827 94.8055C160.557 94.5742 160.386 94.2474 160.349 93.8928C160.313 93.5382 160.415 93.1833 160.632 92.9021C164.369 88.5216 165.352 82.821 163.265 77.6468C161.768 73.9263 158.989 71.4385 156.013 71.1428C153.173 70.8614 150.401 72.5739 147.988 76.1004C149.358 78.1491 150.082 80.5603 150.07 83.0242C150.07 86.8922 148.741 88.1617 147.627 88.563C146.516 88.9647 145.221 88.4892 144.302 87.3031C142.649 85.1752 142.152 80.9654 144.607 76.3588C143.434 75.1704 141.972 74.3082 140.365 73.8571C136.672 72.814 131.421 73.8571 127.701 79.8577C125.576 83.2965 124.93 90.8203 127.414 96.1147C129.057 99.6365 131.777 101.695 135.49 102.226C135.855 102.252 136.199 102.424 136.44 102.702C136.682 102.98 136.801 103.343 136.774 103.71C136.748 104.077 136.577 104.419 136.299 104.66C136.021 104.901 135.658 105.022 135.29 104.995V104.954ZM146.44 78.953C145.25 81.9256 145.799 84.0074 146.043 84.6766C146.177 85.1238 146.433 85.525 146.781 85.8352C146.976 85.5813 147.318 84.7643 147.318 82.9965C147.322 81.601 147.023 80.2213 146.44 78.953Z" fill="#FEB300"/>
<path d="M216.066 89.8372C215.785 89.8369 215.51 89.7516 215.281 89.5925C214.976 89.3848 214.769 89.0656 214.701 88.7046C214.635 88.3437 214.713 87.9706 214.92 87.6677C215.381 86.9753 215.88 85.9783 215.461 85.1842C215.039 84.3905 213.867 83.8597 212.621 83.8504C212.095 83.8314 211.571 83.944 211.098 84.178C210.8 84.5703 210.457 84.924 210.071 85.2305C209.823 85.4255 209.513 85.5286 209.194 85.5228C208.877 85.5167 208.572 85.4019 208.328 85.1974C208.087 84.9932 207.921 84.7117 207.86 84.4C207.802 84.0883 207.851 83.7656 207.999 83.4856C208.285 82.9606 208.682 82.5027 209.157 82.1425C209.803 81.1642 210.181 80.0344 210.252 78.8653C210.296 77.9594 210.137 77.0553 209.791 76.2174C209.442 75.3795 208.916 74.6286 208.243 74.0186C207.799 73.5609 207.27 73.1912 206.688 72.9293C206.446 73.6633 206.166 74.383 205.844 75.0849C205.059 76.7696 200.949 85.1935 197.113 85.5028C196.576 85.5415 196.04 85.4328 195.562 85.1886C195.084 84.9447 194.68 84.5745 194.397 84.118C192.283 81.0117 194.919 75.5465 198.714 72.3892C200.65 70.7783 202.695 69.9289 204.643 69.8412C205.659 65.0269 205.447 58.6802 201.24 55.5783C198.124 53.2703 193.89 53.7319 189.904 56.7876C183.727 61.519 179.217 72.0707 183.903 84.0673C183.968 84.2367 184.003 84.4175 183.998 84.5993C183.993 84.7812 183.954 84.9603 183.881 85.127C183.808 85.2934 183.703 85.444 183.571 85.5698C183.439 85.6958 183.286 85.7945 183.115 85.8605C182.947 85.9266 182.767 85.9588 182.584 85.9549C182.401 85.951 182.223 85.9115 182.057 85.8384C181.889 85.7653 181.738 85.6602 181.614 85.5289C181.487 85.3977 181.389 85.243 181.324 85.0736C176.114 71.7475 181.243 59.9309 188.215 54.5859C193.161 50.8008 198.78 50.3253 202.88 53.3488C207.958 57.1015 208.599 64.4269 207.395 70.2614C208.438 70.6549 209.384 71.2708 210.164 72.066C211.117 72.9446 211.865 74.0206 212.36 75.2192C212.853 76.4175 213.077 77.7091 213.019 79.0037C212.977 79.7012 212.855 80.3919 212.658 81.0624C214.966 81.0624 217.031 82.1886 217.916 83.8826C218.379 84.8058 218.932 86.6938 217.207 89.214C217.08 89.4031 216.912 89.5589 216.714 89.6675C216.514 89.7762 216.292 89.8345 216.066 89.8372ZM203.831 72.6985C202.595 73.0414 201.452 73.6582 200.486 74.5031C197.298 77.1528 195.733 81.1408 196.688 82.5441C196.735 82.6238 196.798 82.6928 196.871 82.7471C197.732 82.8763 200.774 79.4054 203.336 73.917C203.502 73.5478 203.667 73.1415 203.831 72.6985Z" fill="#FEB300"/>
<path d="M169.866 108.171C169.605 108.172 169.349 108.098 169.128 107.96C168.906 107.821 168.73 107.622 168.616 107.387C167.987 105.992 167.897 104.414 168.362 102.957C168.828 101.499 169.815 100.266 171.136 99.4932C171.851 99.1131 172.631 98.8789 173.435 98.8043C174.242 98.7299 175.051 98.8167 175.824 99.0594C175.712 97.8416 175.824 96.6133 176.156 95.4359C176.95 92.6664 179.11 90.5478 181.66 90.0217C184.456 89.4492 187.591 90.8849 189.29 93.525C190.677 95.6714 191.138 98.5101 190.626 101.51C190.601 101.696 190.543 101.875 190.448 102.037C190.353 102.199 190.228 102.34 190.077 102.451C189.929 102.563 189.755 102.643 189.575 102.687C189.392 102.731 189.205 102.737 189.019 102.706C188.834 102.675 188.659 102.607 188.5 102.506C188.344 102.404 188.208 102.272 188.103 102.117C187.998 101.963 187.927 101.788 187.891 101.604C187.854 101.421 187.857 101.232 187.896 101.049C188.298 98.7409 187.961 96.5945 186.974 95.0482C185.897 93.382 183.903 92.4173 182.23 92.7634C180.704 93.0773 179.337 94.4713 178.83 96.2299C178.237 98.2793 178.759 100.407 179.29 101.829C179.412 102.15 179.412 102.505 179.286 102.825C179.161 103.145 178.922 103.407 178.615 103.561C178.308 103.714 177.955 103.748 177.623 103.656C177.294 103.564 177.009 103.352 176.826 103.061C176.382 102.351 175.685 101.837 174.876 101.626C174.066 101.415 173.206 101.523 172.475 101.927C171.741 102.332 171.192 103.002 170.939 103.8C170.688 104.598 170.751 105.462 171.119 106.214C171.219 106.425 171.266 106.658 171.253 106.892C171.239 107.126 171.168 107.352 171.044 107.551C170.919 107.749 170.746 107.912 170.542 108.026C170.337 108.139 170.105 108.199 169.871 108.199L169.866 108.171Z" fill="#FEB300"/>
<path d="M249.255 101.645C247.193 101.645 245.355 101.225 244.25 100.366C244.099 100.258 243.97 100.12 243.873 99.9612C243.775 99.802 243.709 99.6248 243.682 99.4401C243.656 99.2554 243.665 99.067 243.712 98.8864C243.76 98.7056 243.843 98.5364 243.958 98.3887C244.072 98.2411 244.214 98.118 244.377 98.0271C244.54 97.9362 244.721 97.8791 244.906 97.8594C245.091 97.8397 245.279 97.8579 245.459 97.9125C245.637 97.9674 245.803 98.0578 245.945 98.1782C247.156 99.1013 251.681 99.2676 255.215 97.5457C256.958 96.701 259.03 95.1086 259.047 92.3113C259.047 89.3342 256.278 87.5477 254.645 86.7447C254.389 86.6246 254.135 86.5093 253.882 86.403C250.732 87.4924 247.968 87.7186 246.708 87.1785C246.379 87.0564 246.088 86.8442 245.874 86.5658C245.659 86.2875 245.528 85.9544 245.494 85.6047C245.455 85.1591 245.542 84.7119 245.745 84.3132C245.947 83.9145 246.257 83.5801 246.637 83.3474C248.226 82.3182 251.2 82.5765 253.887 83.4629C256.042 82.6143 258.053 81.4338 259.842 79.964C263.535 76.8898 267.589 71.2262 265.729 61.6898C264.644 56.1093 260.305 51.9967 254.13 50.6395C250.233 49.8094 246.174 50.1403 242.461 51.5916C238.748 53.0429 235.543 55.5507 233.239 58.805C233.134 58.9554 233 59.0836 232.847 59.1818C232.691 59.2802 232.52 59.3468 232.337 59.378C232.157 59.4092 231.972 59.404 231.794 59.3633C231.616 59.3224 231.448 59.2464 231.296 59.1399C231.148 59.0331 231.021 58.8981 230.926 58.7421C230.828 58.5864 230.765 58.4129 230.736 58.2318C230.706 58.0507 230.714 57.866 230.758 57.6878C230.799 57.5097 230.877 57.3417 230.987 57.1941C233.605 53.497 237.249 50.649 241.469 49.0022C245.691 47.3557 250.301 46.9828 254.733 47.9299C262.021 49.5133 267.155 54.4613 268.462 61.159C270.609 72.1725 265.807 78.6993 261.402 82.2765C260.1 83.3221 258.694 84.2316 257.207 84.9908C260.213 86.8371 261.824 89.4311 261.824 92.3298C261.799 95.6163 259.888 98.3536 256.434 100.034C254.189 101.09 251.739 101.64 249.255 101.645Z" fill="#FEB300"/>
<path d="M161.927 55.357C159.221 55.357 156.386 53.4229 154.124 49.9934C149.865 43.5312 148.558 32.61 155.25 22.8706C160.189 15.6699 167.558 11.6219 174.954 12.0279C180.195 12.3233 184.48 14.8898 186.708 19.0765C188.364 22.2401 189.061 25.8168 188.712 29.3696C190.053 28.9953 191.467 28.9794 192.812 29.3238C194.16 29.6682 195.391 30.3605 196.386 31.3315C197.069 31.9186 197.615 32.6463 197.988 33.4644C198.363 34.2828 198.556 35.1724 198.553 36.0719C198.507 38.0845 197.403 40.157 195.528 41.754C195.248 41.9921 194.884 42.1093 194.519 42.0799C194.153 42.0506 193.814 41.8768 193.575 41.5971C193.337 41.3173 193.22 40.9544 193.249 40.5883C193.278 40.222 193.451 39.8828 193.731 39.6447C194.987 38.5736 195.76 37.2166 195.786 36.0073C195.777 35.4975 195.657 34.9957 195.435 34.537C195.211 34.0786 194.889 33.6745 194.494 33.3533C192.734 31.71 190.611 31.4146 188.178 32.4762C187.532 35.0057 186.433 37.1242 185.204 38.449C183.525 40.254 182.121 40.0139 181.433 39.7093C181.033 39.5319 180.699 39.2392 180.468 38.8687C180.239 38.4983 180.127 38.0674 180.144 37.6321C180.144 35.5179 182.725 32.4023 185.753 30.6159C186.428 27.1333 185.904 23.5252 184.268 20.3781C182.498 17.0686 179.049 15.0328 174.803 14.7928C168.467 14.4375 161.876 18.1348 157.529 24.4354C151.569 33.1179 152.688 42.7649 156.437 48.4748C158.282 51.295 160.652 52.8875 162.439 52.5368C162.799 52.4663 163.172 52.5419 163.477 52.7471C163.782 52.9523 163.994 53.2701 164.062 53.6305C164.133 53.9912 164.057 54.3648 163.852 54.6695C163.648 54.9743 163.331 55.1849 162.97 55.2554C162.624 55.3204 162.275 55.3545 161.927 55.357Z" fill="#FEB300"/>
<path d="M224.371 50.3161C224.047 50.3175 223.732 50.2054 223.484 49.999C223.232 49.7928 223.064 49.5055 223.003 49.1872C222.945 48.8689 222.998 48.5394 223.154 48.2567C223.313 47.9738 223.566 47.7552 223.869 47.6389C224.566 47.3667 224.851 46.5495 224.883 45.9263C224.917 45.3034 224.727 44.4587 224.066 44.1124C223.406 43.7663 222.599 44.1124 222.109 44.4724C221.619 44.8326 221.107 45.5525 221.277 46.2819C221.363 46.6394 221.302 47.0157 221.109 47.3282C220.914 47.6406 220.605 47.8636 220.249 47.9482C219.89 48.0327 219.515 47.9716 219.201 47.7785C218.889 47.5855 218.667 47.2763 218.581 46.9187C218.411 46.0704 218.481 45.1906 218.791 44.3815C219.098 43.5726 219.63 42.8673 220.322 42.3477C221.014 41.8284 221.841 41.5157 222.704 41.4462C223.566 41.3768 224.432 41.5534 225.197 41.9556C225.965 42.3577 226.601 42.9689 227.035 43.7183C227.469 44.4677 227.681 45.3246 227.647 46.1896C227.613 47.0545 227.335 47.8924 226.843 48.6055C226.353 49.3188 225.67 49.8781 224.876 50.2191C224.715 50.2824 224.544 50.3153 224.371 50.3161Z" fill="#FEB300"/>
<path d="M115.381 68.5719C113.821 68.5249 112.336 67.8881 111.227 66.7902C109.131 64.7915 108.573 61.916 109.731 59.1004C111.513 54.7891 115.303 53.8798 118.009 54.4199C120.715 54.96 122.511 56.7739 122.511 58.8649C122.511 59.2322 122.365 59.5844 122.104 59.8439C121.846 60.1037 121.492 60.2497 121.127 60.2497C120.759 60.2497 120.405 60.1037 120.147 59.8439C119.886 59.5844 119.74 59.2322 119.74 58.8649C119.74 58.1448 118.743 57.3878 117.473 57.1339C115.715 56.7832 113.433 57.3971 112.293 60.1573C111.274 62.6361 112.544 64.2193 113.138 64.7732C114.062 65.6547 115.308 66.0239 116.108 65.6501C116.439 65.5022 116.815 65.49 117.156 65.6162C117.495 65.7427 117.773 65.9974 117.926 66.3257C118.08 66.6542 118.099 67.03 117.98 67.3722C117.86 67.7146 117.609 67.9963 117.285 68.1567C116.688 68.4345 116.039 68.5763 115.381 68.5719Z" fill="#FEB300"/>
<path d="M176.124 59.4511C175.904 59.4506 175.69 59.3984 175.495 59.2988C174.573 58.7736 173.771 58.0644 173.135 57.2155C172.499 56.3667 172.046 55.3962 171.802 54.3644C171.59 53.4453 171.59 52.4897 171.802 51.5704C172.014 50.6514 172.436 49.7931 173.03 49.061C173.479 48.4987 174.047 48.044 174.695 47.7293C175.341 47.4147 176.051 47.2482 176.77 47.2422C177.842 47.2305 178.908 47.4478 179.89 47.8802C180.873 48.3123 181.75 48.9493 182.467 49.7487C182.701 50.0236 182.82 50.3797 182.796 50.7406C182.771 51.1016 182.608 51.4386 182.338 51.6799C182.067 51.9212 181.713 52.0474 181.353 52.0313C180.992 52.0155 180.651 51.8588 180.402 51.5948C179.958 51.0974 179.415 50.6987 178.805 50.4243C178.198 50.1501 177.538 50.0063 176.872 50.0024C176.558 49.9985 176.248 50.0636 175.961 50.1928C175.675 50.3219 175.422 50.5123 175.217 50.7501C174.876 51.163 174.632 51.6492 174.508 52.1712C174.383 52.6932 174.383 53.2369 174.503 53.7597C174.654 54.3941 174.927 54.9922 175.312 55.5191C175.695 56.0462 176.18 56.4915 176.738 56.8292C177.014 56.9711 177.235 57.2019 177.365 57.4843C177.494 57.7668 177.526 58.0848 177.452 58.387C177.379 58.6892 177.206 58.9581 176.962 59.1501C176.719 59.3424 176.416 59.4467 176.104 59.4465L176.124 59.4511Z" fill="#FEB300"/>
<path d="M129.398 177.321C129.213 177.321 129.03 177.283 128.859 177.21C128.52 177.067 128.255 176.795 128.116 176.455C127.979 176.115 127.982 175.734 128.126 175.396C130.539 169.705 133.545 162.619 139.095 158.354C139.468 158.064 139.856 157.791 140.241 157.514C141.292 156.865 142.228 156.046 143.01 155.091C143.729 154.08 143.975 152.409 143.227 151.685C141.967 150.457 139.178 152.663 138.859 152.917C136.116 155.159 133.62 157.688 131.412 160.459C131.299 160.606 131.16 160.728 131 160.82C130.841 160.912 130.663 160.971 130.48 160.994C130.298 161.016 130.112 161.002 129.934 160.952C129.756 160.902 129.591 160.817 129.447 160.702C129.303 160.587 129.184 160.444 129.096 160.282C129.008 160.121 128.952 159.943 128.932 159.76C128.915 159.576 128.932 159.391 128.986 159.215C129.04 159.038 129.13 158.875 129.247 158.733C131.57 155.806 134.203 153.136 137.096 150.771C140.207 148.237 143.212 147.83 145.138 149.695C147.064 151.56 146.676 154.69 145.25 156.697C144.3 157.906 143.152 158.945 141.855 159.772C141.496 160.025 141.136 160.279 140.789 160.547C135.817 164.369 133.089 170.803 130.678 176.476C130.571 176.727 130.393 176.941 130.166 177.092C129.939 177.242 129.671 177.322 129.398 177.321Z" fill="#FF5E6C"/>
<path d="M179.941 238.791C179.578 238.791 179.232 238.649 178.971 238.396C178.713 238.14 178.564 237.796 178.557 237.433L177.374 174.478C177.374 174.115 177.516 173.767 177.769 173.508C178.025 173.249 178.369 173.1 178.732 173.093H178.759C179.122 173.093 179.471 173.235 179.729 173.489C179.988 173.743 180.136 174.088 180.144 174.45L181.345 237.402C181.348 237.584 181.316 237.767 181.248 237.94C181.18 238.111 181.077 238.267 180.951 238.398C180.821 238.53 180.665 238.635 180.497 238.705C180.327 238.776 180.144 238.813 179.961 238.813L179.941 238.791Z" fill="white"/>
<path d="M198.275 227.319C197.91 227.319 197.556 227.173 197.295 226.915C197.037 226.654 196.891 226.303 196.891 225.935C196.43 200.95 196.647 172.853 196.808 150.282C196.835 146.021 196.869 141.922 196.891 138.036C196.891 137.669 197.037 137.316 197.295 137.057C197.556 136.797 197.91 136.651 198.275 136.651C198.643 136.651 198.994 136.797 199.255 137.057C199.516 137.316 199.66 137.669 199.66 138.036C199.66 141.927 199.606 146.026 199.577 150.291C199.416 172.848 199.224 200.923 199.66 225.872C199.665 226.054 199.631 226.237 199.562 226.41C199.497 226.581 199.394 226.737 199.265 226.868C199.136 227 198.982 227.105 198.812 227.175C198.643 227.246 198.461 227.283 198.275 227.283V227.319Z" fill="white"/>
<path d="M216.485 204.398H216.439C216.256 204.391 216.078 204.35 215.912 204.274C215.746 204.201 215.598 204.094 215.473 203.96C215.349 203.828 215.251 203.672 215.188 203.501C215.122 203.331 215.093 203.148 215.1 202.968L217.436 134.685C217.443 134.503 217.484 134.324 217.56 134.158C217.636 133.993 217.743 133.844 217.874 133.72C218.009 133.596 218.164 133.499 218.335 133.435C218.506 133.371 218.686 133.342 218.869 133.348C219.052 133.355 219.23 133.397 219.396 133.472C219.561 133.548 219.71 133.655 219.834 133.788C219.959 133.921 220.056 134.077 220.12 134.248C220.183 134.418 220.212 134.6 220.205 134.782L217.87 203.063C217.857 203.423 217.704 203.762 217.445 204.011C217.187 204.259 216.843 204.398 216.485 204.398Z" fill="white"/>
<path d="M238.739 232.213H238.661C238.293 232.193 237.949 232.028 237.705 231.755C237.459 231.479 237.332 231.121 237.354 230.753C239.06 200.058 243.239 143.662 243.283 143.095C243.295 142.913 243.344 142.735 243.426 142.573C243.509 142.41 243.621 142.265 243.76 142.146C243.899 142.027 244.06 141.936 244.233 141.879C244.406 141.822 244.589 141.8 244.77 141.814C244.953 141.827 245.13 141.877 245.294 141.959C245.455 142.041 245.601 142.155 245.72 142.293C245.837 142.431 245.93 142.591 245.986 142.765C246.042 142.938 246.064 143.12 246.052 143.302C246.01 143.865 241.837 200.238 240.128 230.907C240.109 231.26 239.953 231.594 239.694 231.838C239.436 232.079 239.092 232.215 238.739 232.213Z" fill="white"/>
<path d="M158.689 143.367C158.331 143.368 157.987 143.23 157.729 142.983C157.473 142.736 157.319 142.399 157.305 142.042L156.5 124.239C156.491 124.057 156.52 123.875 156.581 123.704C156.642 123.533 156.737 123.375 156.861 123.241C156.983 123.106 157.132 122.997 157.295 122.919C157.461 122.842 157.639 122.798 157.822 122.79H157.885C158.243 122.789 158.587 122.927 158.845 123.174C159.101 123.421 159.255 123.758 159.27 124.114L160.079 141.936C160.096 142.303 159.964 142.661 159.718 142.932C159.469 143.203 159.126 143.364 158.758 143.381L158.689 143.367Z" fill="white"/>
<path d="M162.139 227.665C161.783 227.668 161.439 227.529 161.181 227.285C160.922 227.039 160.769 226.703 160.754 226.347L157.151 153.781C157.134 153.413 157.263 153.054 157.51 152.782C157.758 152.51 158.102 152.347 158.47 152.329C158.838 152.311 159.196 152.44 159.469 152.687C159.743 152.934 159.903 153.279 159.923 153.647L163.523 226.213C163.54 226.578 163.411 226.937 163.165 227.21C162.919 227.48 162.575 227.643 162.207 227.663L162.139 227.665Z" fill="white"/>
<path d="M131.27 54.8262C130.982 54.8262 130.702 54.7375 130.468 54.5722C130.234 54.4067 130.059 54.173 129.964 53.903C129.091 51.4703 130.341 48.4746 132.76 47.2285C134.059 46.5951 135.539 46.433 136.945 46.7698C138.349 47.1066 139.595 47.9214 140.465 49.0748C140.68 49.3741 140.765 49.7458 140.704 50.1079C140.643 50.4703 140.441 50.7935 140.141 51.0065C139.841 51.2195 139.471 51.3048 139.107 51.2439C138.744 51.1827 138.422 50.9804 138.208 50.6811C137.732 50.0604 137.06 49.621 136.299 49.4363C135.539 49.2515 134.737 49.3324 134.03 49.6656C132.842 50.2749 132.184 51.8073 132.572 52.9381C132.645 53.1467 132.667 53.37 132.638 53.5891C132.606 53.8082 132.526 54.0168 132.396 54.1976C132.27 54.3785 132.101 54.5262 131.904 54.6283C131.709 54.7304 131.49 54.784 131.27 54.7845V54.8262Z" fill="#FEB300"/>
<path d="M230.146 79.8253C229.929 79.8256 229.714 79.7749 229.522 79.6771C229.327 79.5794 229.159 79.4373 229.029 79.2626C228.9 79.0878 228.815 78.8851 228.778 78.6711C228.742 78.4569 228.756 78.237 228.822 78.0296C228.966 77.5676 228.981 77.0745 228.864 76.6049C228.747 76.135 228.503 75.7063 228.159 75.3654C227.815 75.0244 227.384 74.7844 226.913 74.6716C226.443 74.5585 225.948 74.577 225.487 74.7247C225.139 74.8305 224.763 74.7944 224.442 74.6245C224.117 74.4547 223.876 74.1646 223.766 73.8174C223.657 73.4698 223.688 73.0933 223.854 72.7689C224.02 72.4445 224.308 72.1986 224.651 72.0846C225.595 71.7853 226.604 71.7497 227.564 71.982C228.527 72.2145 229.407 72.7055 230.109 73.4021C230.811 74.0988 231.311 74.9745 231.55 75.9345C231.791 76.8942 231.764 77.9012 231.472 78.8468C231.384 79.1302 231.209 79.3781 230.97 79.5543C230.731 79.7305 230.443 79.8256 230.146 79.8253Z" fill="#FEB300"/>
<path d="M219.554 106.593C219.271 106.594 218.988 106.568 218.711 106.514C217.565 106.284 216.534 105.666 215.793 104.765C215.049 103.863 214.64 102.734 214.632 101.566C214.632 101.199 214.779 100.847 215.039 100.587C215.298 100.327 215.651 100.181 216.019 100.181C216.385 100.181 216.738 100.327 216.997 100.587C217.258 100.847 217.404 101.199 217.404 101.566C217.402 102.085 217.582 102.589 217.913 102.99C218.245 103.39 218.706 103.661 219.215 103.755C219.727 103.85 220.256 103.762 220.707 103.507C221.16 103.252 221.509 102.846 221.692 102.36C221.75 102.183 221.845 102.02 221.967 101.88C222.092 101.741 222.24 101.627 222.409 101.547C222.577 101.466 222.76 101.42 222.945 101.412C223.13 101.403 223.315 101.432 223.491 101.497C223.664 101.562 223.825 101.662 223.959 101.789C224.095 101.917 224.203 102.071 224.278 102.242C224.351 102.412 224.39 102.596 224.393 102.782C224.395 102.968 224.359 103.153 224.288 103.325C223.918 104.28 223.267 105.103 222.423 105.686C221.58 106.268 220.58 106.584 219.554 106.593Z" fill="#FEB300"/>
<path d="M192.264 245.432C184.446 245.432 177.43 245.064 171.487 244.557C151.703 242.875 138.929 239.339 138.8 239.303C138.444 239.205 138.144 238.969 137.966 238.647C137.786 238.328 137.74 237.95 137.84 237.594C137.937 237.241 138.174 236.941 138.493 236.761C138.815 236.58 139.193 236.536 139.546 236.634C140.046 236.773 190.085 250.44 247.719 236.064C247.897 236.012 248.082 236 248.268 236.025C248.451 236.047 248.626 236.107 248.787 236.2C248.945 236.295 249.087 236.419 249.197 236.566C249.309 236.714 249.389 236.882 249.433 237.063C249.477 237.241 249.487 237.428 249.457 237.611C249.428 237.794 249.365 237.969 249.267 238.125C249.17 238.284 249.041 238.42 248.889 238.527C248.738 238.632 248.568 238.71 248.387 238.749C227.833 243.872 208.363 245.432 192.264 245.432Z" fill="white"/>
</g>
<defs>
<clipPath id="clip0_2008_265">
<rect width="382" height="191" fill="white"/>
</clipPath>
</defs>
</svg>
